<svg xmlns:rdf="http://www.w3.org/1999/02/22-rdf-syntax-ns#" xmlns:xlink="http://www.w3.org/1999/xlink" width="50" xmlns:svg="http://www.w3.org/2000/svg" id="svg5147" viewBox="0 0 49.999997 30" height="30" xmlns:dc="http://purl.org/dc/elements/1.1/" xmlns:cc="http://creativecommons.org/ns#" xmlns="http://www.w3.org/2000/svg" version="1.1">
  <defs id="defs5149"/>
  <metadata id="metadata5152">
    <rdf:RDF>
      <cc:Work rdf:about="">
        <dc:format>image/svg+xml</dc:format>
        <dc:type rdf:resource="http://purl.org/dc/dcmitype/StillImage"/>
        <dc:title/>
      </cc:Work>
    </rdf:RDF>
  </metadata>
  <g id="layer1" transform="translate(0,-1022.3622)">
    <g id="g5124" transform="translate(-176.17848,-99.833019)">
      <path style="opacity:1;fill:none;fill-opacity:1;fill-rule:nonzero;stroke:#6a6250;stroke-width:2.00872231;stroke-linecap:butt;stroke-linejoin:miter;stroke-miterlimit:4;stroke-dasharray:none;stroke-opacity:1" d="m 179.02158,1123.6996 44.31381,0 c 1.01866,0 1.83874,0.8138 1.83874,1.8247 l 0,23.8419 c 0,1.0109 -0.82008,1.8247 -1.83874,1.8247 l -44.31381,0 c -1.01866,0 -1.83873,-0.8138 -1.83873,-1.8247 l 0,-23.8419 c 0,-1.0109 0.82007,-1.8247 1.83873,-1.8247 z" id="rect5100"/>
      <g style="Chevalier Becker Stripes Caps&apos;;fill:#000000;fill-opacity:1;stroke:none;stroke-width:1px;stroke-linecap:butt;stroke-linejoin:miter;stroke-opacity:1" id="flowRoot5114" transform="translate(-1.4739468,8.1664658)">
        <path style="" d="m 183.05652,1127.3517 0,-0.2637 0.36255,0 q 0.40649,0 0.62622,-0.038 0.48889,-0.088 0.59326,-0.4998 0.0549,-0.2198 0.0604,-0.7087 l 0,-4.4769 q -0.005,-0.4944 -0.0604,-0.7141 -0.10437,-0.4065 -0.59326,-0.4944 -0.22522,-0.038 -0.62622,-0.038 l -0.36255,0 0,-0.2637 5.81177,0 q 1.64795,0 2.59277,0.3845 0.98328,0.401 1.59851,1.3733 0.60425,0.9613 0.60425,2.0215 0,1.0052 -0.54382,1.9116 -0.81299,1.3568 -2.35108,1.6425 -0.87891,0.1648 -2.09289,0.1648 l -5.61951,0 z m 7.86621,-6.883 q -0.49439,-0.2911 -1.19202,-0.3515 0.2472,0.1153 0.49988,0.3515 l 0.69214,0 z m -0.52185,0.1868 q 0.1593,0.2142 0.28015,0.4889 l 1.00525,0 q -0.2417,-0.2911 -0.49439,-0.4889 l -0.79101,0 z m 1.43371,0.6757 -1.08764,0 q 0.0769,0.2362 0.13183,0.4889 l 1.26343,0 q -0.15381,-0.2802 -0.30762,-0.4889 z m 0.39551,0.6756 -1.31286,0 q 0.0385,0.2307 0.0659,0.4889 l 1.43921,0 q -0.0879,-0.2582 -0.19226,-0.4889 z m 0.2417,0.6757 -1.47217,0 q 0.0165,0.2142 0.022,0.4889 l 1.54907,0 q -0.0385,-0.2527 -0.0989,-0.4889 z m 0.11536,0.6756 -1.56006,0 q 0.005,0.1319 0.005,0.2033 0,0.038 -0.005,0.2856 l 1.57104,0 q 0.006,-0.1263 0.006,-0.1812 0,-0.1044 -0.0165,-0.3077 z m 0,0.6757 -1.57105,0 q -0.011,0.2472 -0.033,0.4889 l 1.52161,0 q 0.0549,-0.2362 0.0824,-0.4889 z m -0.13184,0.6757 -1.49414,0 q -0.033,0.2417 -0.0824,0.4834 l 1.39527,0 q 0.10437,-0.2253 0.18127,-0.4834 z m -0.27466,0.6756 -1.34582,0 q -0.0549,0.2307 -0.14282,0.4834 l 1.17553,0 q 0.17578,-0.2362 0.31311,-0.4834 z m -0.46142,0.6702 -1.09863,0 q -0.11536,0.2637 -0.26917,0.4889 l 0.86243,0 q 0.26916,-0.2143 0.50537,-0.4889 z m -0.77454,0.6756 -0.74158,0 q -0.17578,0.1868 -0.47241,0.3571 0.71961,-0.06 1.21399,-0.3571 z m -4.45495,-6.2622 0,-0.3515 -1.87867,0 q 0.17579,0.1483 0.27466,0.3515 l 1.60401,0 z m 0,0.1868 -1.54358,0 q 0.0439,0.2362 0.0494,0.4889 l 1.49414,0 0,-0.4889 z m 0,0.6757 -1.49414,0 0,0.4889 1.49414,0 0,-0.4889 z m 0,0.6756 -1.49414,0 0,0.4889 1.49414,0 0,-0.4889 z m 0,0.6757 -1.49414,0 0,0.4889 1.49414,0 0,-0.4889 z m 0,0.6756 -1.49414,0 0,0.4889 1.49414,0 0,-0.4889 z m 0,0.6757 -1.49414,0 0,0.4889 1.49414,0 0,-0.4889 z m 0,0.6757 -1.49414,0 0,0.4834 1.49414,0 0,-0.4834 z m 0,0.6756 -1.49414,0 0,0.4834 1.49414,0 0,-0.4834 z m 0,0.6702 -1.49414,0 q -0.006,0.2637 -0.0494,0.4889 l 1.54358,0 0,-0.4889 z m 0,0.6756 -1.60401,0 q -0.0934,0.2088 -0.27466,0.3571 l 1.87867,0 0,-0.3571 z m 0.85693,0.3571 0.70312,0 q 0.86792,-0.01 1.1261,-0.06 0.53284,-0.1154 0.81848,-0.4395 0.7251,-0.8185 0.7251,-2.9992 0,-1.7359 -0.35705,-2.4775 -0.34607,-0.7306 -0.89539,-0.8954 -0.33508,-0.099 -1.23047,-0.099 l -0.88989,0 0,6.9708 z" id="path17"/>
        <use x="194.46033" y="1121.051" xlink:href="#path19"/>
        <use x="208.11633" y="1125.6103" xlink:href="#path21"/>
        <path style="" d="m 220.62427,1124.9017 0.73608,-1.5985 q 0.19776,-0.434 0.19776,-0.7745 0,-0.6537 -0.58228,-1.0492 -0.22522,-0.1538 -0.53284,-0.1868 l 0,-0.2417 3.32337,0 0,0.2417 q -1.20301,0.022 -2.02698,1.8622 l -2.03796,4.433 -0.17579,0 -2.43896,-4.7351 -2.19177,4.7351 -0.17578,0 -2.60926,-5.0537 q -0.24719,-0.4834 -0.34057,-0.6317 -0.29114,-0.456 -0.75257,-0.5658 -0.16479,-0.044 -0.43396,-0.044 l -0.19775,0 0,-0.2417 4.62524,0 0,0.2417 -0.22522,0 q -0.59875,0 -0.59875,0.2802 0,0.1263 0.11536,0.357 l 1.51062,2.9718 1.10412,-2.373 q -0.32409,-0.6592 -0.57678,-0.9064 -0.31311,-0.2911 -0.83496,-0.3296 l 0,-0.2417 4.31213,0 0,0.2417 -0.22522,0 q -0.59326,0 -0.59326,0.2747 0,0.1428 0.10986,0.3625 l 1.51612,2.9718 z m 1.5216,-3.1586 q 0.0934,-0.1373 0.25818,-0.3515 l 0.0769,-0.099 -1.35681,0 q 0.25268,0.2087 0.44494,0.4504 l 0.57678,0 z m -0.12085,0.1923 -0.34606,0 q 0.0934,0.2033 0.12084,0.412 0.0989,-0.2033 0.22522,-0.412 z m -3.83422,-0.1923 q -0.011,-0.077 -0.011,-0.1263 0,-0.1318 0.0989,-0.3241 l -2.01599,0 q 0.30212,0.1978 0.48339,0.4504 l 1.44471,0 z m 0.0494,0.1923 -1.37878,0 q 0.11536,0.2197 0.25269,0.4834 l 1.36779,0 q -0.15381,-0.2856 -0.2417,-0.4834 z m 0.34058,0.6702 -1.3678,0 0.25269,0.4889 1.3623,0 -0.24719,-0.4889 z m 0.34058,0.6756 -1.36231,0 0.25269,0.4889 1.35681,0 -0.24719,-0.4889 z m 0.34607,0.6757 -1.35682,0 0.2472,0.4889 1.35681,0 -0.24719,-0.4889 z m 0.34057,0.6757 -1.35132,0 0.25269,0.4888 1.35132,0 -0.25269,-0.4888 z m 0.34607,0.6756 -1.35132,0 0.25269,0.4889 1.34582,0 -0.24719,-0.4889 z m 0.18677,0.6757 -1.18652,0 0.25268,0.4889 0.71411,0 0.21973,-0.4889 z m -0.30762,0.6756 -0.53283,0 0.28564,0.5493 0.24719,-0.5493 z m -6.44897,-4.9164 q -0.011,-0.082 -0.011,-0.1263 0,-0.1318 0.0989,-0.3241 l -2.01599,0 q 0.29663,0.1978 0.4779,0.4504 l 1.4502,0 z m 0.0494,0.1923 -1.37879,0 q 0.11536,0.2142 0.25269,0.4834 l 1.3678,0 q -0.15381,-0.2856 -0.2417,-0.4834 z m 0.34057,0.6702 -1.3678,0 0.25269,0.4889 1.3623,0 -0.24719,-0.4889 z m 0.34058,0.6756 -1.36231,0 0.25269,0.4889 1.3623,0 -0.25268,-0.4889 z m 0.34607,0.6757 -1.35681,0 0.25268,0.4889 1.35132,0 -0.24719,-0.4889 z m 0.34057,0.6757 -1.35131,0 0.25268,0.4888 1.35132,0 -0.25269,-0.4888 z m 0.34607,0.6756 -1.35132,0 0.25269,0.4889 1.34033,0 -0.2417,-0.4889 z m 0.18677,0.6757 -1.18652,0 0.25268,0.4889 0.71411,0 0.21973,-0.4889 z m -0.30762,0.6756 -0.53283,0 0.28564,0.5493 0.24719,-0.5493 z" id="path23"/>
        <path style="" d="m 193.58142,1130.4806 0.14832,3.1311 -0.17578,0.038 q -0.43396,-0.9283 -0.87891,-1.5435 -0.46143,-0.6318 -1.03821,-0.9943 -0.75256,-0.4724 -1.53809,-0.4724 -0.51086,0 -0.91735,0.357 -0.51087,0.4395 -0.74707,1.4997 -0.17579,0.78 -0.17579,1.8017 0,1.5106 0.42298,2.5379 0.45593,1.1151 1.51062,1.1151 0.76904,0 1.57104,-0.3955 0.87342,-0.4285 1.56006,-1.4283 0.21424,-0.3186 0.38452,-0.6701 l 0.21424,0.1044 q -0.401,0.9008 -1.18653,1.6424 -1.14807,1.0767 -2.98828,1.0767 -1.78528,0 -3.04321,-0.9943 -0.68115,-0.5383 -1.06567,-1.3074 -0.40101,-0.813 -0.40101,-1.7413 0,-1.2634 0.73609,-2.2687 0.7251,-0.9833 1.8457,-1.3733 0.85694,-0.3021 1.7688,-0.3021 0.99426,0 1.95007,0.4889 0.43396,0.2197 0.7251,0.2197 0.61524,0 1.1261,-0.5218 l 0.19226,0 z m -5.36133,0.6756 q 0.23072,-0.2636 0.60425,-0.5713 -0.86792,0.077 -1.64246,0.5713 l 1.03821,0 z m -1.30188,0.1868 q -0.27466,0.2197 -0.51086,0.4889 l 1.35132,0 q 0.13183,-0.2417 0.30761,-0.4889 l -1.14807,0 z m -0.65918,0.6757 q -0.16479,0.2197 -0.30212,0.4889 l 1.51611,0 q 0.0879,-0.2527 0.19226,-0.4889 l -1.40625,0 z m -0.3955,0.6756 q -0.10437,0.2417 -0.17579,0.4889 l 1.6095,0 q 0.0494,-0.2472 0.12085,-0.4889 l -1.55456,0 z m -0.22522,0.6757 q -0.0549,0.2472 -0.0824,0.4889 l 1.64795,0 q 0.022,-0.2362 0.0604,-0.4889 l -1.62597,0 z m -0.0934,0.6756 q -0.005,0.1319 -0.005,0.2033 0,0.1044 0.011,0.2856 l 1.63146,0 0,-0.1483 q 0,-0.1648 0.005,-0.3406 l -1.64246,0 z m 0.022,0.6757 q 0.0275,0.2307 0.0934,0.4889 l 1.57654,0 q -0.033,-0.2417 -0.0439,-0.4889 l -1.62598,0 z m 0.14832,0.6757 q 0.0934,0.2636 0.20325,0.4834 l 1.46118,0 q -0.0659,-0.2253 -0.10986,-0.4834 l -1.55457,0 z m 0.30212,0.6756 q 0.14283,0.2472 0.33509,0.4834 l 1.26892,0 q -0.10437,-0.2362 -0.18677,-0.4834 l -1.41724,0 z m 0.49988,0.6702 q 0.25818,0.2746 0.55481,0.4889 l 0.91736,0 q -0.1593,-0.2417 -0.28015,-0.4889 l -1.19202,0 z m 0.84046,0.6756 q 0.56579,0.3461 1.19751,0.4779 -0.26917,-0.2581 -0.43396,-0.4779 l -0.76355,0 z m 5.55908,-6.0754 -0.0165,-0.2801 q -0.29663,0.1538 -0.63721,0.1538 -0.0549,0 -0.0824,-0.01 0.0934,0.077 0.15381,0.1318 l 0.58228,0 z m -0.39002,0.1923 q 0.25818,0.2801 0.43396,0.5713 l -0.033,-0.5713 -0.401,0 z" id="path25"/>
        <use x="198.52527" y="1136.2978" xlink:href="#path21"/>
        <use x="202.63416" y="1131.7385" xlink:href="#path19"/>
        <path style="" d="m 212.00549,1138.0392 0,-0.2417 0.31311,0 q 0.61524,0.01 0.83496,-0.1648 0.17029,-0.1374 0.20874,-0.456 0.0165,-0.1318 0.0165,-0.4119 l 0,-3.7519 q -0.005,-0.4065 -0.0494,-0.5932 -0.0824,-0.3351 -0.4889,-0.4065 -0.18127,-0.033 -0.52185,-0.033 l -0.31311,0 0,-0.2417 4.87793,0 q 1.38977,0 2.1753,0.3241 0.82946,0.3406 1.34033,1.1536 0.51086,0.8075 0.51086,1.6974 0,0.8459 -0.45593,1.6095 -0.68665,1.1425 -1.97754,1.3842 -0.73059,0.1319 -1.75232,0.1319 l -4.71863,0 z m 6.81153,-5.6086 q -0.49439,-0.3845 -1.14807,-0.4449 0.28564,0.1593 0.51635,0.4449 l 0.63172,0 z m 0.21423,0.1923 -0.7251,0 q 0.11536,0.2033 0.19776,0.4834 l 0.92834,0 q -0.17578,-0.2637 -0.401,-0.4834 z m 0.52185,0.6702 -0.99976,0 q 0.0604,0.2362 0.0879,0.4889 l 1.14257,0 q -0.10437,-0.2582 -0.23071,-0.4889 z m 0.29114,0.6756 -1.18103,0 q 0.022,0.2527 0.033,0.4889 l 1.26342,0 q -0.0329,-0.2252 -0.11535,-0.4889 z m 0.13733,0.6757 -1.27991,0 q 0,0.099 0,0.1593 0,0.1044 -0.005,0.3296 l 1.29638,0 q 0.006,-0.1373 0.006,-0.1923 0,-0.093 -0.0165,-0.2966 z m -0.006,0.6757 -1.2854,0 q -0.0165,0.2691 -0.0439,0.4888 l 1.23047,0 q 0.0659,-0.2362 0.0989,-0.4888 z m -0.1593,0.6756 -1.19751,0 q -0.0384,0.2362 -0.10437,0.4889 l 1.06568,0 q 0.13183,-0.2252 0.2362,-0.4889 z m -0.35705,0.6757 -0.99976,0 q -0.0989,0.2911 -0.20325,0.4889 l 0.79651,0 q 0.22522,-0.2198 0.4065,-0.4889 z m -0.62073,0.6756 -0.69763,0 q -0.18128,0.2637 -0.4834,0.445 0.69214,-0.06 1.18103,-0.445 z m -3.96057,-4.9164 0,-0.4504 -1.53259,0 q 0.19226,0.1648 0.26916,0.4504 l 1.26343,0 z m 0,0.1923 -1.23596,0 q 0.011,0.1483 0.011,0.2637 l 0,0.2197 1.22498,0 0,-0.4834 z m 0,0.6702 -1.22498,0 0,0.4889 1.22498,0 0,-0.4889 z m 0,0.6756 -1.22498,0 0,0.4889 1.22498,0 0,-0.4889 z m 0,0.6757 -1.22498,0 0,0.4889 1.22498,0 0,-0.4889 z m 0,0.6757 -1.22498,0 0,0.4888 1.22498,0 0,-0.4888 z m 0,0.6756 -1.22498,0 0,0.4889 1.22498,0 0,-0.4889 z m 0,0.6757 -1.22498,0 0,0.2252 q 0,0.1373 -0.011,0.2637 l 1.23596,0 0,-0.4889 z m 0,0.6756 -1.26343,0 q -0.0714,0.2857 -0.26916,0.4505 l 1.53259,0 0,-0.4505 z m 0.74158,0.4505 0.57678,0 q 0.70312,0 0.93933,-0.049 0.44494,-0.093 0.68115,-0.3625 0.59876,-0.6812 0.59876,-2.5104 0,-1.4502 -0.29664,-2.0654 -0.29663,-0.6098 -0.74157,-0.7471 -0.28015,-0.082 -1.02173,-0.082 l -0.73608,0 0,5.8173 z" id="path31"/>
      </g>
    </g>
  </g>
<defs><path d="m 0,0 5.24048,0 q 0.98327,0 1.26342,0.044 0.84595,0.1263 1.25244,0.6097 0.35157,0.423 0.35157,0.9888 0,0.6976 -0.49439,1.1535 -0.41748,0.39 -1.203,0.5164 l 1.08215,2.0215 q 0.2472,0.4614 0.63721,0.6262 0.23071,0.088 0.61523,0.099 l 0,0.2417 -3.01025,0 -1.63147,-2.9663 -0.48889,0 0,1.6919 q 0,0.4064 0.0494,0.5932 0.0879,0.3351 0.48889,0.4065 0.18127,0.033 0.52185,0.033 l 0.0604,0 0,0.2417 -4.7351,0 0,-0.2417 0.31311,0 q 0.61523,0.01 0.83496,-0.1648 0.17029,-0.1374 0.20874,-0.456 0.0165,-0.1318 0.0165,-0.4119 l 0,-3.7519 q -0.005,-0.4065 -0.0494,-0.5932 -0.0824,-0.3351 -0.48889,-0.4065 -0.18128,-0.033 -0.52185,-0.033 l -0.31311,0 0,-0.2417 z m 6.85547,0.6921 q -0.26368,-0.2581 -0.65369,-0.3735 -0.26917,-0.071 -1.01624,-0.077 0.29114,0.1923 0.47242,0.4504 l 1.19751,0 z m 0.1593,0.1923 -1.24695,0 q 0.10986,0.2142 0.15381,0.4834 l 1.30737,0 q -0.0604,-0.2637 -0.21423,-0.4834 z m 0.24719,0.6702 -1.32385,0 q 0.005,0.088 0.005,0.1318 0,0.1318 -0.033,0.3571 l 1.31287,0 q 0.0439,-0.2088 0.0439,-0.3461 0,-0.044 -0.005,-0.1428 z m -0.10437,0.6756 -1.2854,0 q -0.0714,0.2692 -0.20325,0.4889 l 1.10962,0 q 0.23621,-0.2142 0.37903,-0.4889 z m -0.6427,0.6757 -0.99426,0 q -0.34607,0.3406 -1.12061,0.4285 l 0.033,0.06 1.18103,0 -0.033,-0.06 q 0.60425,-0.2362 0.93384,-0.4285 z m -0.802,0.6757 -1.18103,0 0.26916,0.4888 1.17005,0 -0.25818,-0.4888 z m 0.35705,0.6756 -1.16455,0 0.26367,0.4889 1.15906,0 -0.25818,-0.4889 z m 0.36255,0.6757 -1.15906,0 0.26917,0.4889 1.14807,0 -0.25818,-0.4889 z m 0.35706,0.6756 -1.14258,0 0.24719,0.4505 1.13709,0 -0.2417,-0.4505 z m -3.91663,-4.9164 0,-0.4504 -1.53259,0 q 0.19226,0.1648 0.26916,0.4504 l 1.26343,0 z m 0,0.1923 -1.23596,0 q 0.011,0.1483 0.011,0.2637 l 0,0.2197 1.22497,0 0,-0.4834 z m 0,0.6702 -1.22497,0 0,0.4889 1.22497,0 0,-0.4889 z m 0,0.6756 -1.22497,0 0,0.4889 1.22497,0 0,-0.4889 z m 0,0.6757 -1.22497,0 0,0.4889 1.22497,0 0,-0.4889 z m 0,0.6757 -1.22497,0 0,0.4888 1.22497,0 0,-0.4888 z m 0,0.6756 -1.22497,0 0,0.4889 1.22497,0 0,-0.4889 z m 0,0.6757 -1.22497,0 0,0.2252 q 0,0.1373 -0.011,0.2637 l 1.23596,0 0,-0.4889 z m 0.006,0.6756 -1.26893,0 q -0.0714,0.2857 -0.26916,0.4505 l 1.70837,0 q -0.14282,-0.1868 -0.17028,-0.4505 z m 0.73608,-2.5158 0.57678,0 q 1.47766,0 1.47766,-1.4063 0,-0.791 -0.4834,-1.17 -0.35705,-0.2747 -1.07666,-0.2747 l -0.49438,0 0,2.851 z" id="path19"/><path d="m 0,0 -2.59826,0 q -0.0549,0.1648 -0.0549,0.3241 0,0.445 0.29664,0.7965 0.25268,0.3022 0.77453,0.3626 0.0824,0.01 0.28565,0.016 l 0,0.2417 -3.44971,0 0,-0.2417 q 0.93933,-0.033 1.84021,-1.6095 l 2.60925,-4.6198 0.23621,0 2.94983,5.2515 q 0.25268,0.4504 0.41748,0.6097 0.29114,0.3022 0.6372,0.3516 0.13733,0.016 0.3241,0.016 l 0.14282,0 0,0.2417 -4.9768,0 0,-0.2417 0.49988,0 q 0.28015,0 0.43945,-0.1264 0.14282,-0.1208 0.14282,-0.2911 0,-0.1373 -0.10437,-0.3296 l -0.41199,-0.7526 z m -3.66394,1.2744 q -0.1593,0.1374 -0.3186,0.2253 l 1.00525,0 q -0.0549,-0.077 -0.11536,-0.2253 l -0.57129,0 z m 0.19776,-0.1867 0.32409,0 q -0.0165,-0.1209 -0.0165,-0.1648 0,-0.05 0.0165,-0.2252 -0.14282,0.2032 -0.32409,0.39 z m 4.24072,-0.039 q 0,0.2692 -0.17029,0.4505 l 1.93359,0 -0.25268,-0.4505 -1.51062,0 z m -0.0439,-0.1867 1.4502,0 -0.27466,-0.4889 -1.43371,0 0.25817,0.4889 z m -0.36255,-0.6757 1.43372,0 -0.27466,-0.4889 -1.42822,0 0.26916,0.4889 z m -0.37353,-0.6757 1.42273,0 -0.27466,-0.4888 -1.41724,0 0.26917,0.4888 z m -0.37354,-0.6756 1.41724,0 -0.27466,-0.4889 -1.41723,0 0.27465,0.4889 z m -0.37902,-0.6757 1.41723,0 -0.27466,-0.4889 -1.41174,0 0.26917,0.4889 z m -0.36805,-0.6756 1.40625,0 -0.27465,-0.4889 -1.01075,0 -0.19775,0.3515 0.0769,0.1374 z m 0.23072,-0.6757 0.79651,0 -0.39551,-0.6976 -0.401,0.6976 z m 0.74157,2.9498 -1.18652,-2.1588 -1.17554,2.1588 2.36206,0 z" id="path21"/></defs></svg>