<?xml version="1.0" encoding="UTF-8" standalone="no"?>
<svg xmlns:dc="http://purl.org/dc/elements/1.1/" xmlns:cc="http://creativecommons.org/ns#" xmlns:rdf="http://www.w3.org/1999/02/22-rdf-syntax-ns#" xmlns:svg="http://www.w3.org/2000/svg" xmlns="http://www.w3.org/2000/svg" xmlns:xlink="http://www.w3.org/1999/xlink" viewBox="0 0 90 139" height="139" width="90" version="1.1" id="svg2">
  <metadata id="metadata8">
    <rdf:RDF>
      <cc:Work rdf:about="">
        <dc:format>image/svg+xml</dc:format>
        <dc:type rdf:resource="http://purl.org/dc/dcmitype/StillImage"/>
        <dc:title/>
      </cc:Work>
    </rdf:RDF>
  </metadata>
  <defs id="defs6"/>
  <image xlink:href="condition-image-2.png" id="card-image" x="0" y="0" width="90" height="139" preserveAspectRatio="none"/>
  <g id="flowRoot4138" style="fill:#000000;fill-opacity:1;stroke:none;stroke-width:1px;stroke-linecap:butt;stroke-linejoin:miter;stroke-opacity:1" transform="translate(0,-0.20823695)">
    <path id="path23" style="" d="m 32.875703,9.7303041 0,-1.47 q -0.16,-0.19 -0.29,-0.44 -0.12,-0.25 -0.25,-0.52 -0.12,-0.28 -0.26,-0.56 -0.14,-0.28 -0.33,-0.52 -0.24,-0.09 -0.44,-0.22 -0.2,-0.14 -0.4,-0.28 -0.2,-0.14 -0.42,-0.27 -0.21,-0.13 -0.47,-0.22 l -0.03,-0.09 -1.22,0 -0.07,-0.08 -1.73,0 -0.03,0.08 -0.12,-0.08 -1.23,0 -0.07,0.08 -0.56,0 q -0.07,0.22 -0.07,0.3 0,0.08 0.04,0.11 0.05,0.03 0.13,0.06 0.08,0.02 0.18,0.14 l 0.29,0.02 0.04,0.09 q 0.19,0.04 0.39,0.19 0.03,0.2 -0.01,0.49 -0.03,0.28 -0.07,0.61 -0.03,0.32 -0.03,0.67 0,0.34 0.11,0.66 -0.04,0.09 -0.05,0.34 0,0.24 0.01,0.57 0.01,0.33 0.03,0.7199999 0.02,0.39 0.03,0.77 0.02,0.38 0.01,0.71 0,0.33 -0.04,0.55 l -0.2,0.2 -0.37,0.03 q 0.03,0.02 0,0.04 -0.02,0.02 -0.04,0.02 l -0.56,0 q -0.05,0.19 -0.07,0.33 -0.01,0.14 0.15,0.3 l 0.91,0 0.08,-0.07 q 0.06,0 0.23,0.02 0.17,0.01 0.36,0.03 0.2,0.01 0.37,0.02 0.18,0 0.24,-0.02 -0.03,-0.01 -0.01,-0.03 0.03,-0.02 0.05,-0.02 l 0.94,0 0.08,0.07 1.7,0 0.08,-0.08 0.47,0 0.03,-0.1 q 0.25,-0.01 0.46,-0.09 0.21,-0.08 0.39,-0.19 0.19,-0.12 0.37,-0.25 0.18,-0.14 0.38,-0.26 0.11,-0.23 0.23,-0.47 0.13,-0.24 0.19,-0.49 0.13,-0.05 0.22,-0.22 0.09,-0.17 0.13,-0.38 0.05,-0.21 0.06,-0.41 0.01,-0.1999999 -0.01,-0.3199999 l 0.07,-0.07 z m -0.97,-2.35 q 0.04,0.32 0.02,0.63 -0.02,0.3 -0.07,0.6 -0.04,0.3 -0.08,0.61 -0.04,0.31 -0.04,0.63 l 0.07,0.12 q -0.03,0.1 -0.14,0.2899999 -0.1,0.19 -0.23,0.4 -0.12,0.21 -0.25,0.41 -0.12,0.19 -0.18,0.31 -0.14,0.06 -0.26,0.19 -0.11,0.12 -0.22,0.26 -0.11,0.13 -0.24,0.26 -0.12,0.12 -0.28,0.18 -0.14,0.05 -0.31,0.08 -0.17,0.02 -0.32,0.07 -0.06,-0.02 -0.12,-0.02 -0.06,0 -0.12,0 l -0.19,0.14 -0.76,0 -0.03,-0.1 q -0.19,-0.01 -0.36,-0.05 -0.17,-0.05 -0.34,-0.13 -0.11,-0.21 -0.15,-0.38 -0.04,-0.18 -0.05,-0.35 0,-0.18 0.01,-0.38 0.02,-0.21 0.02,-0.48 -0.05,-0.07 -0.08,-0.43 -0.03,-0.3599999 -0.05,-0.8599999 -0.02,-0.51 -0.03,-1.1 0,-0.59 0,-1.11 0,-0.52 0.01,-0.91 0.01,-0.4 0.03,-0.51 l 0.14,-0.16 q 0.2,0.02 0.41,-0.04 0.21,-0.06 0.44,-0.04 l 0.12,-0.08 0.61,0.28 -0.1,-0.21 0.36,0.16 -0.02,-0.23 1.19,0.6 0.22,0.17 q 0.04,0.1 0.16,0.17 0.12,0.06 0.27,0.11 0.15,0.04 0.3,0.09 0.15,0.04 0.27,0.1 l 0.05,0.33 0.09,0.04 q 0.09,0.19 0.23,0.34 z"/>
    <use x="37.366094" y="12.730304" xlink:href="#path25"/>
    <path id="path27" style="" d="m 41.198984,8.4803041 q -0.17,-0.07 -0.23,-0.1 -0.05,-0.04 -0.1,-0.05 -0.04,-0.02 -0.13,-0.02 -0.08,-0.01 -0.3,-0.01 -0.13,0.13 -0.21,0.18 -0.08,0.05 -0.26,0.07 l -0.25,0.22 -0.14,0.01 -0.02,0.1 -0.03,-0.52 0.04,-0.05 -0.27,0 -0.07,0.06 -0.51,0 q -0.08,0.09 -0.2,0.22 -0.12,0.12 -0.19,0.24 -0.06,0.12 -0.01,0.23 0.05,0.1 0.32,0.16 0.11,0.23 0.13,0.32 0.03,0.09 0.02,0.15 -0.01,0.05 -0.04,0.11 -0.03,0.06 -0.03,0.2299999 l 0,0.79 q 0,0.03 0.03,0.08 0.04,0.04 0.06,0.06 0.03,0.04 0.04,0.28 0.01,0.24 0,0.52 -0.01,0.27 -0.04,0.51 -0.03,0.24 -0.07,0.28 -0.06,0.06 -0.15,0.07 -0.08,0 -0.15,0.01 -0.07,0.01 -0.12,0.06 -0.05,0.04 -0.05,0.17 0.03,0.05 0.06,0.1 0.04,0.05 0.08,0.1 0.1,0 0.36,0.01 0.26,0.01 0.54,0.01 0.29,0 0.53,-0.02 0.25,-0.02 0.33,-0.08 0.06,0.03 0.11,0.08 l 0,-0.23 -0.15,-0.17 q -0.05,-0.01 -0.13,-0.02 -0.08,-0.02 -0.16,-0.05 -0.07,-0.03 -0.12,-0.08 -0.05,-0.05 -0.05,-0.12 l 0,-2.8399999 q 0,-0.11 0.13,-0.23 0.13,-0.13 0.21,-0.2 l 0.69,0 q 0.01,0.01 0.04,0.08 0.04,0.07 0.11,0.14 0.08,0.07 0.15,0.05 0.08,-0.02 0.13,-0.11 0.05,-0.09 0.05,-0.09 0.04,-0.13 0.06,-0.21 0.03,-0.08 0.03,-0.14 0.01,-0.07 -0.01,-0.14 -0.02,-0.08 -0.06,-0.22 z"/>
    <path id="path29" style="" d="m 46.141641,12.740304 q -0.05,-0.15 -0.12,-0.25 -0.12,-0.02 -0.25,-0.04 -0.12,-0.02 -0.24,-0.07 -0.32,-0.51 -0.57,-1.02 -0.24,-0.51 -0.47,-1.06 0.06,-0.21 0.16,-0.4199999 0.1,-0.21 0.22,-0.41 0.12,-0.2 0.24,-0.39 0.13,-0.2 0.23,-0.37 l 0.52,0 q 0.05,-0.08 0.08,-0.16 0.04,-0.09 0.06,-0.18 -0.05,-0.13 -0.11,-0.2 -0.06,-0.08 -0.14,-0.12 -0.07,-0.05 -0.16,-0.08 -0.09,-0.03 -0.19,-0.08 l -0.52,0.15 -0.04,0.09 q -0.17,0 -0.31,-0.01 -0.13,-0.01 -0.25,0.01 -0.12,0.02 -0.23,0.08 -0.1,0.06 -0.21,0.19 0.07,0.19 0.18,0.3 0.27,0.07 0.35,0.21 0.09,0.14 0.04,0.33 -0.04,0.18 -0.18,0.39 -0.14,0.2 -0.31,0.3899999 -0.16,0.18 -0.33,0.34 -0.16,0.15 -0.25,0.23 l -0.13,0 q -0.11,-0.18 -0.15,-0.59 -0.04,-0.4099999 -0.04,-0.8799999 0,-0.47 0.02,-0.9 0.03,-0.44 0.05,-0.67 l 0.06,-0.08 q -0.05,-0.05 -0.08,-0.22 -0.02,-0.18 -0.04,-0.41 -0.02,-0.24 -0.03,-0.5 -0.01,-0.27 -0.02,-0.51 0,-0.25 -0.01,-0.43 -0.01,-0.19 -0.03,-0.27 -0.2,-0.05 -0.38,-0.07 -0.18,-0.02 -0.39,0 -0.17,0.14 -0.36,0.21 -0.19,0.07 -0.36,0.21 l -0.05,0.15 0.09,0.24 q 0.43,0.03 0.59,0.09 0.16,0.05 0.18,0.15 0.03,0.09 -0.03,0.24 -0.05,0.14 -0.05,0.35 0.07,0.08 0.06,0.21 -0.01,0.12 -0.04,0.27 -0.03,0.15 -0.06,0.3 -0.02,0.15 0.01,0.26 -0.06,0.2 -0.07,0.47 0,0.26 0.03,0.54 0.04,0.27 0.1,0.52 0.07,0.25 0.15,0.41 -0.02,0.19 -0.05,0.31 -0.02,0.1199999 -0.03,0.2299999 -0.01,0.1 -0.01,0.22 0.01,0.12 0.04,0.3 0.01,-0.02 0.03,0 0.02,0.01 0.02,0.03 l 0,0.55 q 0,0.02 -0.03,0.01 -0.02,-0.02 -0.04,0.02 0,0.28 0.02,0.48 0.03,0.2 0,0.34 -0.02,0.13 -0.13,0.21 -0.11,0.08 -0.39,0.11 -0.08,0.09 -0.11,0.21 0.03,0.1 0.07,0.2 0.04,0.1 0.14,0.16 l 1.06,0 q 0.02,-0.02 0.02,-0.04 0.01,-0.02 0.04,-0.03 l 0.44,0 q 0.06,-0.04 0.11,-0.1 0.05,-0.07 0.07,-0.15 -0.08,-0.15 -0.22,-0.23 -0.13,-0.08 -0.22,-0.22 0,-0.09 0,-0.22 0.01,-0.13 -0.01,-0.27 -0.01,-0.14 -0.04,-0.26 -0.03,-0.13 -0.09,-0.21 l 0.04,-0.13 q 0.22,-0.15 0.42,-0.23 0.2,-0.08 0.46,0.06 0.03,0.1 0.04,0.16 0.02,0.05 0.04,0.09 0.02,0.04 0.05,0.09 0.03,0.05 0.1,0.13 l 0.03,0.23 q 0.2,0.21 0.23,0.33 0.03,0.12 -0.03,0.21 -0.06,0.09 -0.17,0.18 -0.11,0.09 -0.18,0.23 0.06,0.09 0.14,0.17 0.09,0.08 0.18,0.14 l 1.52,0 q 0.07,-0.04 0.13,-0.1 0.07,-0.07 0.09,-0.15 z"/>
    <path id="path31" style="" d="m 55.201484,7.4003041 q 0.01,-0.31 -0.05,-0.58 -0.06,-0.28 -0.29,-0.5 l -0.01,-0.34 q -0.16,-0.07 -0.19,-0.27 -0.26,-0.14 -0.47,-0.37 l -0.33,-0.1 -0.03,-0.1 -0.76,0 -0.07,-0.08 -0.99,0.09 0,-0.01 q -0.21,-0.07 -0.44,-0.06 -0.22,0 -0.43,0.03 -0.21,0.02 -0.39,0.04 -0.17,0.02 -0.29,-0.01 l -0.05,0.11 -0.2,-0.11 -0.16,0.01 -0.14,0.11 -0.06,0.2 0.08,0.24 q 0.18,0.02 0.36,0.04 0.18,0.01 0.36,0.04 0.06,0.09 0.09,0.21 0.04,0.11 0.01,0.22 -0.06,0.02 -0.08,0.18 -0.01,0.15 -0.01,0.35 0.01,0.19 0.02,0.38 0.01,0.19 0.01,0.26 l -0.12,0.18 0.12,0.17 0,0.94 q -0.08,0.02 -0.12,0.12 l 0,0.17 0.12,0.03 0,0.86 q -0.04,0 -0.08,0.04 -0.03,0.03 -0.04,0.07 0,0.5699999 -0.01,1.0899999 0,0.52 -0.08,1.07 l -0.28,0.28 -0.16,0.02 q 0.01,0.03 -0.05,0.1 -0.05,0.07 -0.13,0.15 -0.07,0.07 -0.15,0.14 -0.07,0.06 -0.1,0.1 0.07,0.1 0.14,0.15 l 1.69,0 0.08,-0.08 0.94,0 0.11,-0.12 0,-0.17 q -0.26,-0.09 -0.43,-0.16 -0.17,-0.08 -0.4,-0.22 l 0,-0.97 0.11,-0.11 0,-1.2699999 -0.1,-0.12 q 0.11,-0.27 0.29,-0.34 0.19,-0.07 0.42,-0.07 0.24,0 0.5,0.01 0.26,0 0.51,-0.12 l 0.05,-0.08 q 0.23,-0.06 0.37,-0.1 0.14,-0.05 0.25,-0.12 0.11,-0.07 0.22,-0.16 0.12,-0.1 0.29,-0.26 -0.01,-0.11 0.03,-0.22 0.04,-0.11 0.16,-0.16 0.06,-0.22 0.14,-0.42 0.09,-0.21 0.22,-0.4 z m -1.03,-0.2 q -0.02,0.09 -0.03,0.19 -0.01,0.09 -0.02,0.18 -0.08,0.1 -0.18,0.25 -0.09,0.14 -0.19,0.3 -0.1,0.15 -0.19,0.31 -0.09,0.15 -0.14,0.26 -0.09,0.04 -0.18,0.07 -0.09,0.02 -0.19,0.03 -0.11,0.08 -0.17,0.12 -0.05,0.03 -0.1,0.05 -0.04,0.01 -0.11,0.01 -0.06,0 -0.19,0.01 l -0.04,0.1 -0.55,0 -0.15,-0.14 0,-1.58 0.12,-0.16 -0.11,-0.38 q 0.07,-0.05 0.09,-0.22 0.03,-0.18 0.03,-0.38 0.01,-0.21 0,-0.4 -0.01,-0.2 -0.01,-0.28 l 0.15,-0.11 0,-0.03 0.81,-0.08 q 0.25,0.26 0.58,0.47 0.34,0.2 0.61,0.47 l 0.02,0.22 0.11,0.05 0.02,0.51 0.01,0.16 z"/>
    <use x="58.586797" y="12.730304" xlink:href="#path25"/>
    <path id="path35" style="" d="m 62.947422,12.060304 0,-0.24 -0.23,0 q -0.06,0.04 -0.13,0.08 -0.07,0.03 -0.11,0.1 l -0.51,0 -0.38,0.31 -0.74,0 q -0.14,-0.13 -0.32,-0.3 -0.17,-0.18 -0.25,-0.35 -0.08,-0.17 -0.11,-0.44 -0.02,-0.28 0,-0.59 0.03,-0.32 0.1,-0.6399999 0.08,-0.33 0.2,-0.6 0.13,-0.27 0.31,-0.45 0.18,-0.18 0.4,-0.2 l 0.04,-0.08 0.57,0 q 0.03,0.08 0.11,0.12 0.09,0.04 0.17,0.06 0.12,0.16 0.18,0.3 0.06,0.14 0.13,0.23 0.07,0.09 0.19,0.11 0.12,0.02 0.38,-0.07 l 0,-0.4 q -0.15,-0.1 -0.27,-0.27 -0.11,-0.17 -0.23,-0.31 -0.09,-0.03 -0.18,-0.06 -0.08,-0.04 -0.15,-0.12 l -1.43,0 q -0.1,0.11 -0.25,0.19 -0.14,0.07 -0.29,0.15 -0.15,0.08 -0.29,0.18 -0.14,0.1 -0.23,0.25 -0.11,0.19 -0.2,0.43 -0.08,0.23 -0.22,0.4 -0.02,0.3199999 -0.05,0.6799999 -0.02,0.36 0.06,0.67 0.04,0.15 0.12,0.29 0.09,0.13 0.17,0.26 0.1,0.15 0.16,0.34 0.07,0.19 0.16,0.37 0.09,0.17 0.24,0.29 0.15,0.12 0.42,0.14 l 0.03,0.1 q 0.19,0 0.35,0.01 0.16,0 0.3,0.01 0.15,0 0.3,0 0.15,-0.01 0.33,-0.03 0.04,-0.07 0.09,-0.11 0.06,-0.05 0.14,-0.06 0.09,-0.08 0.19,-0.15 0.11,-0.08 0.23,-0.1 0.09,-0.12 0.21,-0.17 0.04,-0.11 0.1,-0.2 0.07,-0.09 0.19,-0.13 z"/>
    <path id="path37" style="" d="m 66.491016,8.4003041 q -0.01,-0.19 -0.07,-0.25 -0.05,-0.07 -0.19,-0.19 l -0.86,0 -0.14,0.1 q -0.15,-0.05 -0.23,-0.12 -0.07,-0.08 -0.1,-0.18 -0.03,-0.1 -0.05,-0.21 -0.01,-0.12 -0.04,-0.24 l -0.26,0 -0.07,0.06 -0.11,0.01 q 0,0.1 -0.01,0.14 -0.06,0.02 -0.11,0.08 -0.04,0.05 -0.09,0.12 -0.05,0.07 -0.12,0.14 -0.07,0.07 -0.17,0.11 l -0.08,0.12 -0.14,0.05 q 0,-0.01 -0.03,-0.01 -0.01,0.08 -0.1,0.17 -0.09,0.09 -0.09,0.14 0,0.06 0.03,0.08 0.03,0.01 0.08,0.02 0.06,0 0.13,0.02 0.07,0.02 0.13,0.11 l 0.23,0.04 q 0,0.3 -0.01,0.64 -0.01,0.34 -0.03,0.6999999 -0.01,0.35 -0.03,0.7 -0.02,0.34 -0.04,0.64 l -0.06,0.08 q 0.06,0.13 0.09,0.37 0.04,0.23 0.11,0.46 0.07,0.23 0.18,0.41 0.12,0.18 0.34,0.19 l 0.04,0.08 q 0.16,0.07 0.31,0.08 0.16,0.02 0.31,0 0.15,-0.01 0.3,-0.03 0.16,-0.03 0.32,-0.05 0.1,-0.08 0.22,-0.12 0.12,-0.04 0.2,-0.14 0.19,-0.01 0.28,-0.07 0.09,-0.06 0.09,-0.15 0.01,-0.09 -0.05,-0.2 -0.06,-0.12 -0.17,-0.23 l 0,0.04 q -0.02,0.02 -0.1,0.08 -0.07,0.05 -0.1,0.05 -0.28,0 -0.44,0.02 -0.15,0.01 -0.26,0 -0.11,-0.02 -0.22,-0.08 -0.1,-0.06 -0.28,-0.2 -0.04,-0.13 -0.07,-0.38 -0.02,-0.26 -0.04,-0.57 -0.02,-0.32 -0.04,-0.65 -0.01,-0.34 -0.02,-0.6399999 0,-0.3 -0.01,-0.52 0,-0.23 0,-0.32 0,-0.02 0.05,-0.09 0.05,-0.08 0.07,-0.1 l 0.88,0 q 0.09,0 0.2,0.03 0.12,0.02 0.22,0.01 0.1,-0.01 0.16,-0.08 0.07,-0.07 0.06,-0.27 z"/>
  </g>
  <g id="text4146" style="fill:#000000;fill-opacity:1;stroke:none;stroke-width:1px;stroke-linecap:butt;stroke-linejoin:miter;stroke-opacity:1">
    <path id="path40" style="" d="m 38.612048,83.010775 c -0.2175,0.6975 -0.2775,0.7575 -0.6,0.81 l -0.2175,0.0375 c -0.105,0.015 -0.1125,0.21 -0.0375,0.255 0.375,-0.015 0.7125,-0.0225 1.0725,-0.0225 0.1275,0 0.2775,0.0075 0.45,0.0225 0.1725,0.0075 0.375,0.0225 0.5925,0.0225 0.795,0 2.1,-0.1125 3.015,-1.05 0.48,-0.495 0.765,-1.1775 0.765,-1.875 0,-0.7425 -0.33,-1.305 -0.8175,-1.635 -0.495,-0.33 -1.14,-0.45 -1.965,-0.4575 -0.7125,0 -1.23,0.03 -1.635,0.0675 -0.09,0.0375 -0.1125,0.195 -0.045,0.255 l 0.2175,0.0525 c 0.2625,0.06 0.2475,0.18 0.09,0.69 l -0.885,2.8275 z m 2.0175,-3.2025 c 0.0975,-0.3225 0.135,-0.345 0.45,-0.345 1.2975,0 1.4475,1.005 1.4475,1.5225 0,0.7125 -0.3,1.6425 -1.02,2.235 -0.5775,0.48 -1.095,0.57 -1.47,0.57 -0.33,0 -0.5025,-0.135 -0.495,-0.3375 0,-0.12 0.015,-0.2475 0.105,-0.525 l 0.9825,-3.12 z"/>
    <path id="path42" style="" d="m 45.38818,80.378275 c -0.219375,0 -0.50625,-0.0056 -0.770625,-0.01687 -0.07875,0.02813 -0.09,0.1575 -0.03937,0.196875 l 0.135,0.0225 c 0.264375,0.045 0.25875,0.151875 0.118125,0.6075 l -0.658125,2.0925 c -0.163125,0.523125 -0.208125,0.5625 -0.4725,0.601875 l -0.19125,0.02813 c -0.07875,0.0225 -0.08438,0.163125 -0.02813,0.196875 0.28125,-0.01125 0.534375,-0.01688 0.815625,-0.01688 l 0.73125,0 c 0.230625,0 0.48375,0 0.72,0.0056 0.23625,0 0.46125,0.0056 0.635625,0.01125 0.12375,-0.151875 0.3375,-0.6075 0.433125,-0.88875 -0.03375,-0.0675 -0.163125,-0.07875 -0.225,-0.03375 -0.46125,0.63 -0.658125,0.646875 -1.1475,0.646875 -0.410625,0 -0.500625,-0.03938 -0.55125,-0.135 -0.045,-0.09562 -0.0056,-0.27 0.07875,-0.534375 l 0.21375,-0.68625 c 0.045,-0.151875 0.0675,-0.16875 0.21375,-0.16875 l 0.37125,0 c 0.2925,0 0.34875,0.045 0.315,0.315 l -0.01688,0.140625 c 0.0225,0.045 0.16875,0.03938 0.21375,-0.0056 0.05062,-0.18 0.10125,-0.3825 0.16875,-0.59625 0.07313,-0.21375 0.140625,-0.421875 0.208125,-0.59625 -0.01687,-0.05062 -0.1575,-0.05625 -0.21375,-0.0056 l -0.07313,0.135 c -0.14625,0.27 -0.219375,0.315 -0.511875,0.315 l -0.37125,0 c -0.14625,0 -0.1575,-0.01125 -0.106875,-0.16875 l 0.309375,-0.97875 c 0.0675,-0.21375 0.08438,-0.225 0.275625,-0.225 l 0.43875,0 c 0.28125,0 0.4275,0.0675 0.4725,0.196875 0.0225,0.0675 0.03937,0.230625 0.0225,0.433125 0.03937,0.045 0.185625,0.03937 0.21375,-0.0225 0.10125,-0.3825 0.2475,-0.7875 0.286875,-0.883125 -0.08438,0.01125 -0.405,0.01687 -0.765,0.01687 l -1.24875,0 z"/>
    <path id="path44" style="" d="m 48.834635,82.819525 c 0.174375,0 0.185625,0.0056 0.18,0.118125 l -0.0225,0.714375 c -0.0056,0.135 -0.03375,0.208125 -0.2925,0.241875 l -0.129375,0.01687 c -0.03375,0.03937 -0.045,0.174375 0.02813,0.196875 0.174375,-0.01125 0.4275,-0.01688 0.7425,-0.01688 0.28125,0 0.585,0.0056 0.793125,0.01688 0.05062,-0.0225 0.06187,-0.163125 0.01687,-0.196875 l -0.135,-0.01687 c -0.27,-0.03375 -0.27,-0.129375 -0.27,-0.523125 0,-0.995625 0.03937,-1.996875 0.03937,-2.9925 0,-0.06188 -0.045,-0.09 -0.10125,-0.09 l -0.01125,0 c -0.0056,0 -0.27,0.219375 -0.585,0.241875 -0.0225,0.106875 -0.185625,0.34875 -0.36,0.613125 -0.500625,0.7425 -1.0125,1.485 -1.513125,2.2275 -0.286875,0.41625 -0.354375,0.466875 -0.635625,0.511875 l -0.135,0.0225 c -0.05062,0.03937 -0.05062,0.174375 0.02813,0.2025 0.1575,-0.01125 0.343125,-0.01688 0.54,-0.01688 0.2475,0 0.4275,0.0056 0.70875,0.01688 0.0675,-0.02813 0.08437,-0.163125 0.02812,-0.2025 l -0.151875,-0.0225 c -0.10125,-0.01687 -0.140625,-0.045 -0.140625,-0.09 0,-0.03375 0.01687,-0.09 0.1125,-0.25875 l 0.34875,-0.601875 c 0.0675,-0.118125 0.07875,-0.1125 0.2475,-0.1125 l 0.669375,0 z M 48.36776,82.5214 c -0.1575,0 -0.174375,-0.0225 -0.106875,-0.12375 l 0.46125,-0.714375 c 0.135,-0.208125 0.241875,-0.388125 0.32625,-0.523125 l 0.01125,0 c 0,0.106875 0.0056,0.34875 0,0.5175 l -0.03375,0.691875 c -0.0056,0.140625 -0.01125,0.151875 -0.14625,0.151875 l -0.511875,0 z"/>
    <path id="path46" style="" d="m 52.319938,81.188275 c 0.163125,-0.523125 0.208125,-0.556875 0.45,-0.601875 l 0.14625,-0.02813 c 0.07313,-0.0225 0.08438,-0.163125 0.01687,-0.196875 -0.241875,0.01125 -0.495,0.01687 -0.765,0.01687 -0.27,0 -0.5625,-0.0056 -0.855,-0.01687 -0.07312,0.0225 -0.09562,0.163125 -0.03937,0.196875 l 0.14625,0.0225 c 0.286875,0.045 0.28125,0.151875 0.140625,0.6075 l -0.658125,2.0925 c -0.163125,0.523125 -0.208125,0.5625 -0.45,0.601875 l -0.185625,0.02813 c -0.07875,0.0225 -0.07312,0.163125 -0.01125,0.196875 0.298125,-0.01125 0.55125,-0.01688 0.82125,-0.01688 l 0.646875,0 c 0.230625,0 0.48375,0.0056 0.72,0.0056 0.241875,0.0056 0.466875,0.0056 0.64125,0.01125 0.118125,-0.151875 0.3375,-0.6075 0.4275,-0.88875 -0.02813,-0.0675 -0.163125,-0.07875 -0.225,-0.03375 -0.46125,0.63 -0.658125,0.646875 -1.1475,0.646875 -0.3825,0 -0.48375,-0.03938 -0.5175,-0.140625 -0.03375,-0.10125 -0.01125,-0.264375 0.07312,-0.52875 l 0.624375,-1.974375 z"/>
  </g>
  <g id="flowRoot4150" style="fill:#000000;fill-opacity:1;stroke:none;stroke-width:1px;stroke-linecap:butt;stroke-linejoin:miter;stroke-opacity:1" transform="matrix(0.50053315,0,0,0.5,-0.3191755,2.3412076)">
    <path id="path49" style="" d="m 29.481462,169.01158 q -0.584688,0.97448 -1.055687,1.75406 -0.194896,0.34107 -0.406033,0.6659 -0.194897,0.32482 -0.35731,0.58469 -0.146172,0.25986 -0.259861,0.43851 -0.11369,0.17866 -0.146173,0.21114 0.06497,-0.0162 0.389793,-0.0325 0.341068,-0.0162 0.714619,-0.0487 0.438516,-0.0325 0.990722,-0.0487 l -5.538298,3.16706 1.754065,0.81207 -5.700711,2.01392 2.241305,-1.86775 -0.828309,-0.58469 4.044095,-6.41533 -0.503482,2.40372 4.661265,-3.05337 z m -3.15082,7.64967 q 0.129931,0.89327 -0.04872,1.77031 -0.162414,0.86079 -0.60093,1.62413 -0.422275,0.76334 -1.08817,1.36427 -0.665895,0.60093 -1.542927,0.95824 -1.039446,0.43852 -2.111375,0.40604 -1.055687,-0.0163 -2.013926,-0.42228 -0.941998,-0.38979 -1.705341,-1.15314 -0.763343,-0.7471 -1.169377,-1.78654 -0.438516,-1.02321 -0.422275,-2.09514 0.03248,-1.07192 0.422275,-2.01392 0.406034,-0.95824 1.136894,-1.72158 0.747102,-0.76335 1.770306,-1.18562 1.039446,-0.40604 2.078892,-0.37355 1.055688,0.0162 2.013927,0.37355 l -1.429238,2.32251 q -0.243621,-0.61717 -0.324827,-1.20186 -0.08121,-0.60093 0,-1.07193 -0.162414,0.81207 -0.552206,1.31555 -0.389792,0.48724 -0.860791,0.61717 -0.470999,0.11369 -0.958239,-0.14617 -0.470999,-0.25986 -0.812067,-0.95824 0.341068,0.69838 0.276102,1.38051 -0.04872,0.6659 -0.406033,1.16938 -0.35731,0.50348 -0.941998,0.7471 -0.584688,0.24362 -1.283066,0.0812 0.698378,0.16241 1.153135,0.56845 0.454758,0.40603 0.617171,0.94199 0.162414,0.51973 0,1.10442 -0.162413,0.58468 -0.682136,1.10441 0.568447,-0.34107 1.104411,-0.32483 0.552206,0 0.941998,0.30859 0.406034,0.29234 0.617171,0.84454 0.211138,0.55221 0.113689,1.29931 0.09745,-0.7471 0.503482,-1.20186 0.406034,-0.43851 0.958239,-0.53596 0.552206,-0.11369 1.136894,0.12993 0.60093,0.22738 1.071929,0.86079 -0.470999,-0.63341 -0.48724,-1.2181 -0.01624,-0.58469 0.308585,-0.99072 0.324827,-0.42228 0.941998,-0.60093 0.633412,-0.1949 1.445479,0 -0.519723,-0.11369 -1.039445,-0.43852 -0.503482,-0.34107 -0.974481,-0.86079 l 2.387477,-0.82831 0.454758,-0.16241 z m -0.341068,-1.20186 q 0.146172,0.35731 0.259861,0.73086 l -0.357309,-0.14617 -0.909516,-0.42228 0.860792,-0.471 q 0.03248,0.0812 0.06496,0.16242 0.04872,0.065 0.08121,0.14617 z"/>
    <path id="path51" style="" d="m 31.780881,176.58004 c 0.552206,0 0.909515,-0.37355 0.909515,-0.89327 0,-0.51972 -0.357309,-0.95824 -0.909515,-0.95824 -0.519723,0 -0.909515,0.40603 -0.909515,0.95824 0,0.5522 0.438516,0.89327 0.909515,0.89327 z m 0,4.77496 c 0.552206,0 0.909515,-0.37355 0.909515,-0.89328 0,-0.51972 -0.357309,-0.95824 -0.909515,-0.95824 -0.519723,0 -0.909515,0.40604 -0.909515,0.95824 0,0.55221 0.438516,0.89328 0.909515,0.89328 z"/>
    <path id="path53" style="" d="m 39.950276,178.69142 c 0,1.70534 -0.03248,1.91648 -0.97448,2.03016 l -0.406034,0.0487 c -0.09745,0.11369 -0.06496,0.35731 0.03248,0.40603 0.763343,-0.0325 1.348031,-0.0487 2.030168,-0.0487 0.649653,0 1.201859,0.0162 1.932719,0.0487 0.09745,-0.0487 0.129931,-0.32482 0.03248,-0.40603 l -0.341068,-0.0487 c -0.941998,-0.12993 -0.974481,-0.32482 -0.974481,-2.03016 l 0,-2.04641 c 0,-0.34107 0.03248,-0.35731 0.763344,-0.35731 0.649653,0 0.909515,0.16241 1.153135,0.51972 0.503481,0.73086 1.169377,1.85151 1.591651,2.45244 1.153136,1.64038 1.981444,2.04641 3.361958,2.04641 0.308586,0 0.568447,-0.0325 0.714619,-0.0812 0.08121,-0.065 0.06497,-0.1949 -0.01624,-0.22738 -0.438516,-0.0325 -0.84455,-0.21114 -1.120653,-0.45476 -1.104411,-0.92576 -1.965202,-2.22506 -3.264509,-4.3202 -0.08121,-0.12993 -0.162414,-0.29234 -0.08121,-0.38979 0.812067,-0.32483 2.030168,-1.16938 2.030168,-2.7123 0,-1.1369 -0.568447,-1.86776 -1.348032,-2.27379 -0.747102,-0.40604 -1.705341,-0.48724 -2.712304,-0.48724 -1.591652,0 -2.712304,0.0487 -3.621819,0.12993 -0.129931,0.065 -0.129931,0.32483 -0.01624,0.40603 l 0.519723,0.065 c 0.665895,0.0812 0.714619,0.35731 0.714619,1.90023 l 0,5.83065 z m 1.33179,-7.30861 c 0,-0.45475 0.04872,-0.51972 1.055688,-0.51972 1.802789,0 2.598615,1.2181 2.598615,2.50117 0,1.10441 -0.373551,1.67285 -0.812068,2.01392 -0.470999,0.35731 -1.08817,0.42228 -1.672858,0.42228 -0.828308,0 -1.071929,-0.0325 -1.120653,-0.0812 -0.04872,-0.065 -0.04872,-0.24362 -0.04872,-0.53596 l 0,-3.80048 z"/>
    <use x="52.176961" y="174.50115" xlink:href="#path55"/>
    <use x="58.67883" y="171.62643" xlink:href="#path57"/>
    <use x="62.675721" y="171.62643" xlink:href="#path57"/>
    <use x="71.674947" y="179.14617" xlink:href="#path61"/>
    <use x="87.169184" y="171.62643" xlink:href="#path63"/>
    <use x="90.153788" y="179.30859" xlink:href="#path65"/>
    <use x="97.865377" y="176.96983" xlink:href="#path67"/>
    <use x="101.21897" y="181.355" xlink:href="#path69"/>
    <path id="path71" style="" d="m 113.83849,181.38748 c 3.13458,0 5.63574,-2.38748 5.63574,-5.66823 0,-2.85848 -1.88399,-5.57078 -5.63574,-5.57078 -3.34572,0 -5.78192,2.48493 -5.78192,5.73319 0,2.92345 2.17634,5.50582 5.78192,5.50582 z m 0.21113,-0.50348 c -3.19954,0 -4.36892,-3.11834 -4.36892,-5.52206 0,-3.55685 2.19258,-4.70999 3.88168,-4.70999 3.1021,0 4.28772,2.89096 4.28772,5.57078 0,3.19955 -1.85152,4.66127 -3.80048,4.66127 z"/>
    <use x="121.71656" y="179.30859" xlink:href="#path73"/>
    <use x="134.63477" y="178.46404" xlink:href="#path75"/>
    <use x="146.91804" y="179.14617" xlink:href="#path61"/>
    <path id="path79" style="" d="m 153.3009,179.14617 c -0.51973,0 -0.79583,0.35731 -0.79583,0.73086 0,0.1949 0.065,0.35731 0.2761,0.471 0.14618,0.0812 0.92576,0.25987 0.92576,0.942 0,0.84455 -0.82831,1.25058 -1.33179,1.413 -0.0974,0.0812 -0.0487,0.34107 0.0975,0.38979 1.13689,-0.34107 2.11137,-1.07193 2.11137,-2.35499 0,-1.07193 -0.71462,-1.59166 -1.28306,-1.59166 z"/>
    <use x="161.17794" y="179.30859" xlink:href="#path65"/>
    <use x="168.53223" y="175.41067" xlink:href="#path83"/>
    <use x="14.403152" y="194.73787" xlink:href="#path65"/>
    <use x="20.019611" y="189.93043" xlink:href="#path87"/>
    <use x="31.051797" y="190.83995" xlink:href="#path83"/>
    <use x="32.86499" y="194.73787" xlink:href="#path65"/>
    <path id="path93" style="" d="m 45.660123,194.73787 c 0,1.16938 -0.01624,1.31555 -0.617171,1.413 l -0.292344,0.0487 c -0.11369,0.0812 -0.08121,0.35731 0.03248,0.40603 0.454757,-0.0325 0.893273,-0.0487 1.477962,-0.0487 0.568447,0 1.039446,0.0162 1.57541,0.0487 0.113689,-0.0487 0.146172,-0.32482 0.03248,-0.40603 l -0.389793,-0.0487 c -0.584688,-0.0812 -0.617171,-0.24362 -0.617171,-1.413 l 0,-2.79351 c 0,-1.12065 -0.633412,-2.01393 -1.932719,-2.01393 -0.763343,0 -1.559169,0.37355 -2.208823,0.82831 -0.146172,0.0975 -0.259861,0.16241 -0.406033,0.12993 -0.454758,-0.66589 -0.909516,-0.95824 -1.721583,-0.95824 -0.779584,0 -1.542927,0.38979 -2.160098,0.82831 -0.11369,0 -0.178655,-0.0812 -0.178655,-0.17865 0,-0.14618 0,-0.3898 0.03248,-0.76335 -0.03248,-0.0812 -0.11369,-0.11369 -0.178655,-0.11369 -0.324827,0.24362 -1.250584,0.6659 -1.624134,0.79583 -0.08121,0.0487 -0.08121,0.22738 -0.01624,0.29234 l 0.146172,0.0974 c 0.438517,0.29235 0.438517,0.37355 0.438517,1.00696 l 0,2.84224 c 0,1.16938 -0.01624,1.33179 -0.617171,1.413 l -0.389793,0.0487 c -0.113689,0.0812 -0.08121,0.35731 0.03248,0.40603 0.503482,-0.0325 0.990722,-0.0487 1.57541,-0.0487 0.568447,0 1.039446,0.0162 1.477962,0.0487 0.11369,-0.0487 0.146172,-0.32482 0.03248,-0.40603 l -0.292344,-0.0487 c -0.584688,-0.0975 -0.617171,-0.24362 -0.617171,-1.413 l 0,-2.51741 c 0,-0.51972 0.08121,-0.73086 0.24362,-0.92575 0.24362,-0.29235 0.698378,-0.58469 1.364273,-0.58469 1.006963,0 1.494203,0.58469 1.494203,1.67286 l 0,2.35499 c 0,1.16938 -0.01624,1.31555 -0.617171,1.413 l -0.292344,0.0487 c -0.113689,0.0812 -0.08121,0.35731 0.03248,0.40603 0.454757,-0.0325 0.893274,-0.0487 1.477962,-0.0487 0.568447,0 1.039446,0.0162 1.526686,0.0487 0.11369,-0.0487 0.146172,-0.32482 0.03248,-0.40603 l -0.341068,-0.0487 c -0.584689,-0.0812 -0.617171,-0.24362 -0.617171,-1.413 l 0,-2.48493 c 0,-0.56844 0.04872,-0.73086 0.24362,-0.97448 0.227379,-0.29234 0.73086,-0.56844 1.348031,-0.56844 1.023205,0 1.510445,0.56844 1.510445,1.67286 l 0,2.35499 z"/>
    <use x="53.360297" y="192.39912" xlink:href="#path67"/>
    <use x="63.502763" y="190.83995" xlink:href="#path83"/>
    <use x="67.752157" y="189.93043" xlink:href="#path55"/>
    <use x="80.441975" y="190.83995" xlink:href="#path101"/>
    <use x="82.960395" y="191.45712" xlink:href="#path103"/>
    <use x="91.320123" y="187.05571" xlink:href="#path57"/>
    <path id="path107" style="" d="m 94.228841,194.73787 c 0,1.16938 -0.01624,1.33179 -0.617171,1.413 l -0.373551,0.0487 c -0.11369,0.0812 -0.08121,0.35731 0.03248,0.40603 0.48724,-0.0325 0.97448,-0.0487 1.559168,-0.0487 0.568447,0 1.039446,0.0162 1.705341,0.0487 0.11369,-0.0487 0.146172,-0.32482 0.03248,-0.40603 l -0.519723,-0.0487 c -0.584688,-0.0487 -0.617171,-0.24362 -0.617171,-1.413 l 0,-3.39444 c 0,-0.38979 0.03248,-0.50348 0.308586,-0.50348 l 2.030167,0 c 0.698378,0 0.812068,0.0812 0.812068,1.07193 l 0,2.82599 c 0,1.16938 -0.01624,1.33179 -0.617171,1.413 l -0.341069,0.0487 c -0.113689,0.0812 -0.08121,0.35731 0.03248,0.40603 0.454758,-0.0325 0.941998,-0.0487 1.526686,-0.0487 0.568447,0 1.03945,0.0162 1.52669,0.0487 0.11369,-0.0487 0.14617,-0.32482 0.0325,-0.40603 l -0.34107,-0.0487 c -0.584687,-0.0812 -0.61717,-0.24362 -0.61717,-1.413 l 0,-2.7123 c 0,-0.6659 0.03248,-1.44548 0.06497,-2.03017 -0.03248,-0.0487 -0.09745,-0.0812 -0.162413,-0.0812 -0.389792,0.14617 -1.412997,0.24362 -2.127616,0.24362 l -1.81903,0 c -0.276103,0 -0.308586,-0.0975 -0.308586,-0.50348 l 0,-0.17866 c 0,-2.5174 0.584688,-3.91416 1.851513,-3.91416 0.422275,0 1.055687,0.2761 1.526686,1.07193 0.08121,0.12993 0.194896,0.24362 0.422275,0.24362 0.24362,0 0.665895,-0.17865 0.665895,-0.6659 0,-0.68213 -0.909515,-1.26682 -2.013926,-1.26682 -1.819031,0 -2.809752,1.36427 -3.150821,2.19258 -0.373551,0.86079 -0.503481,1.80279 -0.503481,2.72855 0,0.16241 -0.11369,0.25986 -0.24362,0.32482 l -0.698378,0.34107 c -0.06497,0.0974 -0.04872,0.24362 0.04872,0.30859 l 0.568447,0 c 0.324827,0 0.324827,0.0325 0.324827,0.471 l 0,3.42692 z"/>
    <use x="103.78662" y="187.05571" xlink:href="#path57"/>
    <use x="107.78351" y="187.05571" xlink:href="#path57"/>
    <path id="path113" style="" d="m 114.31406,200.60099 c 0.37355,0 0.76334,-0.14617 1.03945,-0.76334 0.79582,-1.7703 2.12761,-4.5963 2.66358,-5.68447 l 0.90951,-1.86775 c 0.55221,-1.15314 0.84455,-1.62414 1.38051,-1.72159 l 0.27611,-0.0487 c 0.11369,-0.0975 0.0975,-0.34107 -0.0325,-0.40603 -0.45476,0.0325 -0.82831,0.0487 -1.23435,0.0487 -0.42227,0 -0.90951,-0.0162 -1.42924,-0.0487 -0.12993,0.0487 -0.14617,0.32482 -0.0325,0.40603 l 0.50348,0.0812 c 0.29235,0.0487 0.3898,0.16241 0.3898,0.2761 0,0.17866 -0.21114,0.77958 -0.56845,1.62413 l -0.55221,1.28307 c -0.29234,0.6659 -0.5522,1.16938 -0.60093,1.20186 -0.065,-0.0325 -0.37355,-0.89327 -0.471,-1.15314 l -0.51972,-1.4942 c -0.0974,-0.2761 -0.471,-1.33179 -0.471,-1.52669 0,-0.11368 0.12993,-0.16241 0.35731,-0.21113 l 0.40604,-0.0812 c 0.11369,-0.0812 0.0974,-0.35731 -0.0325,-0.40603 -0.51972,0.0325 -0.97448,0.0487 -1.41299,0.0487 -0.53597,0 -1.02321,-0.0162 -1.54293,-0.0487 -0.12993,0.0487 -0.14617,0.32482 -0.0487,0.40603 l 0.40604,0.0812 c 0.56845,0.11369 0.68213,0.50348 0.95824,1.26682 l 1.26682,3.47565 c 0.21114,0.60093 0.27611,0.79583 0.27611,1.12065 0,0.22738 -0.11369,0.56845 -0.16242,0.69838 -0.14617,0.38979 -0.471,1.07193 -0.942,1.80279 -0.11369,0.17865 -0.2761,0.29234 -0.53596,0.29234 l -0.30859,0 c -0.35731,0 -0.64965,0.21114 -0.64965,0.64966 0,0.40603 0.24362,0.69837 0.71462,0.69837 z"/>
    <use x="124.24792" y="189.93043" xlink:href="#path55"/>
    <use x="130.70106" y="191.45712" xlink:href="#path103"/>
    <use x="138.02134" y="194.73787" xlink:href="#path119"/>
    <use x="147.26317" y="198.87941" xlink:href="#path121"/>
    <use x="156.04669" y="193.89332" xlink:href="#path75"/>
    <use x="162.28819" y="194.73787" xlink:href="#path119"/>
    <use x="170.97477" y="190.83995" xlink:href="#path83"/>
    <use x="24.547647" y="205.35971" xlink:href="#path55"/>
    <use x="33.177129" y="206.26922" xlink:href="#path101"/>
    <use x="41.932228" y="206.26922" xlink:href="#path83"/>
    <use x="43.583008" y="210.16715" xlink:href="#path135"/>
    <use x="55.644236" y="207.82839" xlink:href="#path67"/>
    <path id="path139" style="" d="m 62.246089,210.57318 c 0,0.84455 -0.01624,1.15313 -0.03248,1.38051 0.03248,0.065 0.09745,0.0975 0.162413,0.0975 0.03248,0 0.04872,0 0.06497,-0.0162 0.08121,-0.11369 0.211137,-0.24362 0.341068,-0.24362 0.129931,0 0.341068,0.0975 0.682136,0.21114 0.324827,0.0975 0.779585,0.21113 1.380515,0.21113 2.176339,0 3.735508,-1.51044 3.735508,-3.67054 0,-1.78655 -1.250583,-3.1833 -3.102096,-3.1833 -0.795826,0 -1.44548,0.29234 -1.867754,0.53596 -0.09745,0 -0.162414,-0.065 -0.162414,-0.34107 l 0,-3.06961 c 0,-0.71462 0.03248,-1.44548 0.06497,-2.01393 -0.03248,-0.065 -0.09745,-0.0974 -0.162413,-0.0974 -0.617171,0.32482 -1.396755,0.53596 -1.770306,0.68213 -0.08121,0.0487 -0.08121,0.2761 0,0.32483 l 0.162413,0.0974 c 0.48724,0.29234 0.503482,0.38979 0.503482,1.34803 l 0,7.74712 z m 1.201859,-3.32948 c 0,-0.63341 0.03248,-0.81206 0.194896,-0.92575 0.227379,-0.14617 0.617171,-0.25986 1.104412,-0.25986 1.607892,0 2.468684,1.2993 2.468684,2.97216 0,1.39676 -0.60093,2.69606 -2.127616,2.69606 -0.519723,0 -0.95824,-0.19489 -1.234342,-0.53596 -0.276103,-0.34107 -0.406034,-0.84455 -0.406034,-1.413 l 0,-2.53365 z"/>
    <use x="71.065137" y="209.3226" xlink:href="#path75"/>
    <use x="77.306632" y="210.16715" xlink:href="#path119"/>
    <path id="path145" style="" d="m 87.035706,205.9444 c -0.357309,0 -0.470999,-0.0325 -0.990722,-0.25987 -0.373551,-0.16241 -0.941998,-0.32482 -1.559169,-0.32482 -1.445479,0 -2.647339,1.05569 -2.647339,2.45244 0,1.03945 0.665896,1.67286 1.218101,1.9652 0,0.0812 -0.08121,0.21114 -0.162413,0.30859 -0.276103,0.29234 -0.584689,0.56845 -0.860791,0.7471 -0.178655,0.12993 -0.243621,0.1949 -0.243621,0.2761 0,0.56845 0.552206,1.12066 1.185618,1.28307 0.146173,0.0974 0.01624,0.24362 -0.12993,0.38979 -0.373551,0.37355 -0.828309,0.79583 -1.104412,1.08817 -0.113689,0.12993 -0.178654,0.34107 -0.178654,0.60093 0,0.81207 0.698377,1.884 2.696063,1.884 2.111374,0 4.044094,-1.29931 4.044094,-3.06962 0,-1.62413 -1.364273,-1.78654 -2.273788,-1.78654 -0.714619,0 -1.380514,0.0487 -1.93272,0.0487 -0.763343,0 -1.136894,-0.30859 -1.136894,-0.68214 0,-0.471 0.519723,-0.77958 0.714619,-0.89327 0.194896,0.0162 0.422275,0.0487 0.714619,0.0487 2.062651,0 2.728546,-1.46172 2.728546,-2.58237 0,-0.2761 0,-0.55221 -0.03248,-0.82831 l 1.169377,0 c 0.24362,-0.0325 0.276103,-0.58469 0.09745,-0.66589 l -1.315549,0 z m -1.526686,6.5615 c 1.169377,0 1.851513,0.42227 1.851513,1.413 0,0.92575 -0.958239,1.73782 -2.403719,1.73782 -1.477962,0 -2.17634,-0.73086 -2.17634,-1.60789 0,-0.61717 0.389793,-1.12066 0.779585,-1.36428 0.227379,-0.14617 0.877032,-0.17865 1.396755,-0.17865 l 0.552206,0 z m -0.877033,-2.95593 c -0.779584,0 -1.477962,-0.7471 -1.477962,-1.90023 0,-1.10441 0.584689,-1.81903 1.364273,-1.81903 0.990722,0 1.445479,0.92575 1.445479,2.03016 0,0.99073 -0.454757,1.6891 -1.33179,1.6891 z"/>
    <use x="90.25657" y="209.3226" xlink:href="#path75"/>
    <use x="96.498065" y="210.16715" xlink:href="#path65"/>
    <use x="100.68528" y="210.16715" xlink:href="#path73"/>
    <path id="path153" style="" d="m 109.46195,210.00473 c -0.51972,0 -0.79582,0.35731 -0.79582,0.73086 0,0.1949 0.065,0.35731 0.2761,0.471 0.14617,0.0812 0.92576,0.25986 0.92576,0.942 0,0.84455 -0.82831,1.25058 -1.33179,1.413 -0.0974,0.0812 -0.0487,0.34106 0.0975,0.38979 1.13689,-0.34107 2.11137,-1.07193 2.11137,-2.355 0,-1.07193 -0.71462,-1.59165 -1.28307,-1.59165 z m 0.1949,-2.56613 c 0.55221,0 0.90951,-0.37355 0.90951,-0.89327 0,-0.51973 -0.3573,-0.95824 -0.90951,-0.95824 -0.51972,0 -0.90952,0.40603 -0.90952,0.95824 0,0.5522 0.43852,0.89327 0.90952,0.89327 z"/>
    <path id="path155" style="" d="m 121.33438,206.26922 c 0.29234,0 0.30858,0.0487 0.30858,0.32483 l 0,3.5731 c 0,1.16937 -0.0162,1.33179 -0.61717,1.41299 l -0.37355,0.0487 c -0.11369,0.0812 -0.0812,0.35731 0.0325,0.40603 0.48724,-0.0325 0.97448,-0.0487 1.55917,-0.0487 0.56845,0 1.03945,0.0162 1.57541,0.0487 0.11369,-0.0487 0.14618,-0.32483 0.0325,-0.40603 l -0.3898,-0.0487 c -0.58468,-0.0812 -0.61717,-0.24362 -0.61717,-1.41299 l 0,-7.30861 c 0,-0.69838 0.0162,-1.70534 0.0487,-2.41996 -0.0487,-0.0487 -0.11369,-0.065 -0.1949,-0.065 l -0.42227,0.42227 c -0.471,-0.29234 -0.99073,-0.42227 -1.51045,-0.42227 -1.73782,0 -2.67982,1.2181 -3.03713,2.09513 -0.37355,0.90951 -0.43852,1.80279 -0.43852,2.82599 0,0.16242 -0.11369,0.25986 -0.24362,0.32483 l -0.69837,0.34107 c -0.065,0.0974 -0.0487,0.24362 0.0487,0.30858 l 0.56845,0 c 0.32482,0 0.32482,0.0325 0.32482,0.471 l 0,3.42693 c 0,1.16937 -0.0162,1.33179 -0.61717,1.41299 l -0.37355,0.0487 c -0.11369,0.0812 -0.0812,0.35731 0.0325,0.40603 0.48724,-0.0325 0.97448,-0.0487 1.55917,-0.0487 0.56845,0 1.03945,0.0162 1.6891,0.0487 0.11369,-0.0487 0.14617,-0.32483 0.0325,-0.40603 l -0.50349,-0.0487 c -0.58468,-0.0487 -0.61717,-0.24362 -0.61717,-1.41299 l 0,-3.39445 c 0,-0.50348 0.0162,-0.50348 0.30859,-0.50348 l 2.53365,0 z m 0.30858,-1.00696 c 0,0.29234 -0.065,0.32483 -0.30858,0.32483 l -2.53365,0 c -0.2761,0 -0.30859,-0.0162 -0.30859,-0.34107 l 0,-0.50348 c 0,-1.36428 0.0812,-3.8492 1.884,-3.8492 0.43851,0 0.81207,0.29234 0.99072,0.51972 0.1949,0.25986 0.2761,0.68214 0.2761,1.23434 l 0,2.61486 z"/>
    <use x="125.80861" y="210.16715" xlink:href="#path65"/>
    <use x="129.78469" y="214.30869" xlink:href="#path121"/>
    <use x="145.47078" y="206.26922" xlink:href="#path83"/>
    <use x="147.12157" y="210.16715" xlink:href="#path135"/>
    <use x="155.65843" y="210.16715" xlink:href="#path65"/>
    <use x="161.27488" y="205.35971" xlink:href="#path87"/>
    <path id="path169" style="" d="m 81.229298,220.78898 c -2.696063,0 -3.930405,1.86776 -3.930405,3.62182 0,1.05569 0.373551,1.85152 0.941998,2.40372 0.568447,0.55221 1.364273,0.82831 2.225064,0.82831 0.941998,0 2.160099,-0.45476 2.712304,-1.65662 -0.01624,-0.14617 -0.162413,-0.25986 -0.292344,-0.22738 -0.373551,0.55221 -0.860791,0.97448 -1.802789,0.97448 -1.737824,0 -2.614856,-1.51044 -2.614856,-2.77726 0,-1.72159 1.104411,-2.61486 2.241305,-2.61486 0.665895,0 1.266825,0.42227 1.624134,0.86079 0.06497,0.0812 0.146172,0.11369 0.227379,0.11369 0.194896,0 0.35731,-0.30859 0.35731,-0.60093 0,-0.2761 -0.11369,-0.53596 -0.24362,-0.64965 -0.438517,-0.1949 -1.071929,-0.27611 -1.44548,-0.27611 z"/>
    <use x="85.133565" y="224.75187" xlink:href="#path75"/>
    <use x="91.375063" y="225.59642" xlink:href="#path119"/>
    <use x="101.84032" y="217.91427" xlink:href="#path63"/>
    <use x="105.26344" y="227.64283" xlink:href="#path69"/>
  </g>
  <g id="text4147" style="fill:#000000;fill-opacity:1;stroke:none;stroke-width:1px;stroke-linecap:butt;stroke-linejoin:miter;stroke-opacity:1">
    <path id="path180" style="" d="m 37.020574,16.079937 c -0.81875,0 -1.575,0.2875 -2.1,0.7625 -0.5125,0.4625 -0.89375,1.15625 -0.89375,1.88125 0,1.3125 0.9375,1.68125 1.75,1.68125 0.21875,0 0.425,-0.04375 0.60625,-0.075 0.1875,-0.03125 0.35625,-0.06875 0.49375,-0.06875 0.2125,-0.38125 0.35,-0.7125 0.40625,-0.88125 -0.01875,-0.05625 -0.0875,-0.06875 -0.15,-0.04375 -0.3,0.49375 -0.69375,0.875 -1.34375,0.875 -0.79375,0 -1.2125,-0.48125 -1.2125,-1.36875 0,-0.825 0.425,-1.55625 0.7375,-1.86875 0.575,-0.5625 1.15625,-0.7 1.6,-0.7 0.64375,0 0.8,0.29375 0.68125,0.8375 0.01875,0.05 0.14375,0.05625 0.16875,0.0062 0.05625,-0.23125 0.18125,-0.59375 0.28125,-0.8375 -0.15625,-0.0625 -0.5375,-0.2 -1.025,-0.2 z"/>
    <use x="39.267352" y="17.754937" xlink:href="#path182"/>
    <use x="41.500164" y="18.011187" xlink:href="#path184"/>
    <path id="path186" style="" d="m 45.549871,17.948687 c -0.06875,-0.13125 -0.21875,-0.19375 -0.31875,-0.19375 -0.3,0 -0.69375,0.175 -1.11875,0.55625 -0.49375,0.44375 -0.83125,1.1875 -0.83125,1.63125 0,0.25 0.13125,0.45 0.375,0.45 0.60625,0 1.075,-0.60625 1.50625,-1.18125 l 0.025,0.0063 -0.21875,0.61875 c -0.0625,0.18125 -0.08125,0.28125 -0.08125,0.35625 0,0.1 0.06875,0.2 0.2,0.2 0.325,0 0.89375,-0.5125 1.0625,-0.85625 -0.0062,-0.05625 -0.0375,-0.08125 -0.09375,-0.08125 -0.19375,0.24375 -0.5875,0.5625 -0.6875,0.5625 -0.05625,0 -0.0625,-0.0625 -0.0375,-0.14375 0.05625,-0.1875 0.35,-1.1875 0.96875,-2.89375 0.1875,-0.51875 0.28125,-0.75625 0.39375,-1.10625 l -0.025,-0.0375 c -0.26875,-0.0063 -0.61875,0.075 -0.7375,0.11875 -0.025,0.025 -0.03125,0.0625 -0.01875,0.0875 l 0.14375,0.1 c 0.0875,0.0625 0.06875,0.16875 -0.05625,0.51875 l -0.45,1.2875 z m -0.33125,-0.0062 c 0.15625,0 0.2375,0.1875 0.1625,0.45 -0.09375,0.33125 -0.275,0.70625 -0.7625,1.20625 -0.43125,0.44375 -0.75,0.55625 -0.84375,0.55625 -0.05625,0 -0.11875,-0.05625 -0.11875,-0.13125 0,-0.08125 0,-0.19375 0.19375,-0.59375 0.19375,-0.39375 0.64375,-0.9875 0.89375,-1.21875 0.1625,-0.15 0.33125,-0.26875 0.475,-0.26875 z"/>
    <use x="46.39743" y="20.167437" xlink:href="#path188"/>
    <path id="path190" style="" d="m 49.912078,18.142437 c 0.08125,-0.04375 0.11875,-0.16875 0.075,-0.23125 l -0.68125,0 0.18125,-0.6125 c -0.05,-0.0625 -0.175,-0.075 -0.2375,-0.0375 l -0.35,0.61875 -0.5,0.0875 c -0.0625,0.025 -0.08125,0.1125 -0.06875,0.175 l 0.4875,0 -0.5875,1.725 c -0.0625,0.1875 -0.0875,0.275 -0.0875,0.35625 0,0.075 0.08125,0.16875 0.16875,0.16875 0.2625,0 0.85,-0.38125 1.2,-0.9 0.0125,-0.075 -0.025,-0.1125 -0.0875,-0.1125 -0.20625,0.2375 -0.61875,0.5625 -0.7125,0.5625 -0.05,0 -0.08125,-0.0375 -0.04375,-0.15625 l 0.5625,-1.64375 0.68125,0 z"/>
    <use x="49.900848" y="20.167437" xlink:href="#path188"/>
    <use x="53.146746" y="17.754937" xlink:href="#path182"/>
    <use x="55.379559" y="18.011187" xlink:href="#path184"/>
  </g>
<defs><path id="path25" d="m 0,0 0,-0.39 -0.5,-0.08 q -0.08,-0.11 -0.1,-0.36 -0.02,-0.26 -0.02,-0.59 0.01,-0.33 0.03,-0.71 0.03,-0.38 0.03,-0.7399999 0.01,-0.36 -0.01,-0.66 -0.01,-0.31 -0.07,-0.49 l -0.4,-0.34 q -0.29,-0.04 -0.53,-0.06 -0.24,-0.03 -0.56,-0.01 -0.08,0.01 -0.15,0.05 -0.06,0.03 -0.15,0.02 -0.08,0.08 -0.18,0.11 -0.09,0.02 -0.19,0.07 l 0.01,0.02 -0.08,0.07 -0.12,0 -0.1,0.11 -0.23,0.02 q -0.12,0.14 -0.18,0.21 -0.06,0.07 -0.08,0.15 -0.02,0.07 -0.01,0.18 0.01,0.1 0.04,0.29 l -0.04,0.04 0.61,0 q 0.05,-0.09 0.13,-0.1 0.09,-0.02 0.18,-0.06 -0.02,-0.12 0,-0.2 0.02,-0.08 0.07,-0.14 0.05,-0.07 0.12,-0.13 0.07,-0.07 0.13,-0.15 0.11,0.01 0.15,-0.04 0.04,-0.05 0.12,-0.06 0.08,0.01 0.15,0.08 l 0.36,0.09 q 0.06,0.11 0.13,0.2 0.08,0.09 0.18,0.15 0.03,0.22 0.01,0.32 -0.01,0.1 -0.07,0.18 -0.05,0.07 -0.14,0.16 -0.09,0.08 -0.21,0.2599999 l -0.3,0.02 q 0,0.08 -0.14,0.2 -0.14,0.11 -0.33,0.24 -0.18,0.12 -0.36,0.24 -0.18,0.12 -0.26,0.19 -0.17,0.16 -0.26,0.31 -0.08,0.15 -0.12,0.31 -0.03,0.16 -0.03,0.35 0,0.19 0,0.43 0.05,0.06 0.14,0.16 0.1,0.09 0.2,0.18 0.11,0.09 0.21,0.16 0.1,0.07 0.17,0.07 0.42,0 0.58,-0.02 0.17,-0.02 0.26,-0.07 0.09,-0.05 0.19,-0.14 0.1,-0.09 0.39,-0.23 0.08,0.06 0.15,0.12 0.07,0.05 0.07,0.16 l 0.11,0.11 0.44,0 q 0.08,-0.12 0.2,-0.14 0.13,-0.02 0.23,-0.11 l 0.13,-0.01 z m -1.12,-1.17 q 0,0.16 -0.04,0.32 -0.04,0.15 -0.11,0.3 -0.05,0.03 -0.16,0.11 -0.11,0.07 -0.12,0.14 l -0.46,0 -0.01,-0.07 q -0.06,-0.04 -0.11,-0.04 -0.05,-0.06 -0.1,-0.1 -0.05,-0.04 -0.13,-0.02 -0.1,-0.24 -0.11,-0.44 -0.01,-0.2 0.13,-0.43 0.01,-0.01 0.03,-0.06 0.03,-0.05 0.06,-0.1 0.03,-0.05 0.05,-0.09 0.03,-0.05 0.04,-0.06 0.1,-0.09 0.22,-0.17 0.12,-0.09 0.23,-0.17 l 0.52,0 q -0.02,0.05 -0.05,0.08 0.02,0.02 0.03,0.11 0.01,0.09 0.02,0.2 0.01,0.1 0.01,0.2 0,0.09 0,0.12 0,0.05 0.03,0.09 0.03,0.03 0.03,0.08 z"/><path id="path55" d="m 0,0 c -1.916479,0 -3.459406,1.46172 -3.459406,3.50813 0,2.03017 1.461721,3.34572 3.329475,3.34572 2.030168,0 3.426923,-1.46172 3.426923,-3.49189 0,-1.99769 -1.477962,-3.36196 -3.296992,-3.36196 z m 1.900237,3.62182 c 0,1.25058 -0.438516,2.74479 -1.867755,2.74479 -1.429238,0 -2.095133,-1.59165 -2.095133,-3.06962 0,-1.78654 0.795826,-2.80975 1.867755,-2.80975 1.542927,0 2.095133,1.75407 2.095133,3.13458 z"/><path id="path57" d="m 0,0 c 0,-0.71462 0.03248,-1.52668 0.04872,-2.01392 -0.03248,-0.065 -0.09745,-0.0974 -0.162414,-0.0974 -0.584688,0.30858 -1.348031,0.5522 -1.754065,0.68213 -0.08121,0.0487 -0.08121,0.27611 0,0.32483 l 0.162414,0.0975 c 0.48724,0.29234 0.503481,0.38979 0.503481,1.34803 l 0,7.34109 c 0,1.16937 -0.01624,1.33179 -0.617171,1.41299 l -0.373551,0.0487 c -0.113689,0.0812 -0.08121,0.35731 0.03248,0.40603 0.48724,-0.0325 0.974481,-0.0487 1.559169,-0.0487 0.568447,0 1.039446,0.0162 1.57541,0.0487 0.11369,-0.0487 0.146172,-0.32482 0.03248,-0.40603 l -0.389792,-0.0487 c -0.584689,-0.0812 -0.617171,-0.24362 -0.617171,-1.41299 l 0,-7.68216 z"/><path id="path61" d="m 0,0 c 0,1.25059 -0.01624,1.52669 -0.698378,1.57541 l -0.665895,0.0487 c -0.09745,0.0975 -0.08121,0.35731 0.03248,0.40603 0.633412,-0.0325 1.364272,-0.0487 1.948961,-0.0487 0.568447,0 1.299307,0.0162 1.932719,0.0487 0.11369,-0.0487 0.129931,-0.30858 0.03248,-0.40603 l -0.682136,-0.0487 c -0.665895,-0.0487 -0.698378,-0.32482 -0.698378,-1.57541 l 0,-6.30164 c 0,-0.92575 0.03248,-1.73782 0.06497,-2.03016 -0.03248,-0.0487 -0.09745,-0.0812 -0.162413,-0.0812 -0.422275,0.2761 -1.315549,0.69838 -2.679822,0.942 -0.12993,0.065 -0.113689,0.29234 0.01624,0.35731 l 0.779584,0.065 c 0.730861,0.065 0.779585,0.42228 0.779585,1.52669 l 0,5.52205 z"/><path id="path63" d="m 0,0 c 0,-0.71462 0.03248,-1.52668 0.04872,-2.01392 -0.03248,-0.065 -0.09745,-0.0974 -0.162413,-0.0974 -0.584689,0.30858 -1.348032,0.5522 -1.754065,0.68213 -0.08121,0.0487 -0.08121,0.27611 0,0.32483 l 0.162413,0.0975 c 0.48724,0.29234 0.503482,0.38979 0.503482,1.34803 l 0,2.45244 c 0,0.12993 -0.01624,0.22738 -0.09745,0.22738 -0.178655,-0.065 -0.535965,-0.14617 -1.08817,-0.14617 -2.208823,0 -3.930405,1.46172 -3.930405,3.73551 0,1.70534 1.201859,3.11834 3.004648,3.11834 0.779585,0 1.33179,-0.25986 2.046409,-0.7471 l 0.06497,0 c 0.03248,0.065 0.03248,0.25986 0.03248,0.50348 l 0,0.2761 c 0,0.0812 0.08121,0.12993 0.178655,0.12993 0.454758,-0.17865 1.461721,-0.42227 2.143857,-0.51972 0.146173,-0.0812 0.129931,-0.48724 0.01624,-0.51973 -0.24362,0.0812 -0.519723,0.16242 -0.698378,0.16242 -0.454758,0 -0.470999,-0.60093 -0.470999,-1.884 l 0,-7.12995 z m -1.201859,7.8933 c 0,0.25986 -0.01624,0.50348 -0.11369,0.60092 -0.259861,0.25987 -0.812067,0.45476 -1.250583,0.45476 -1.591652,0 -2.41996,-1.39675 -2.41996,-2.87472 0,-1.41299 0.763343,-2.69606 2.241305,-2.69606 0.633413,0 1.120653,0.34107 1.364273,0.68214 0.113689,0.16241 0.178655,0.30858 0.178655,0.63341 l 0,3.19955 z"/><path id="path65" d="m 0,0 c 0,1.16937 -0.01624,1.33179 -0.617171,1.41299 l -0.341068,0.0487 c -0.11369,0.0812 -0.08121,0.35731 0.03248,0.40603 0.454757,-0.0325 0.941997,-0.0487 1.526686,-0.0487 0.568447,0 1.039446,0.0162 1.526686,0.0487 0.113689,-0.0487 0.146172,-0.32482 0.03248,-0.40603 l -0.341069,-0.0487 c -0.584688,-0.0812 -0.617171,-0.24362 -0.617171,-1.41299 l 0,-2.92344 c 0,-0.6659 0.03248,-1.44548 0.06497,-2.01393 -0.01624,-0.065 -0.08121,-0.0974 -0.162414,-0.0974 -0.37355,0.24362 -1.299307,0.6659 -1.672858,0.79583 -0.08121,0.0487 -0.08121,0.22738 -0.01624,0.29234 l 0.146172,0.0975 c 0.438516,0.29234 0.438516,0.37355 0.438516,1.00696 l 0,2.84224 z m 0.535964,-8.31557 c -0.48724,0 -0.877032,0.34107 -0.877032,0.87703 0,0.43852 0.324827,0.81207 0.828308,0.81207 0.454758,0 0.860792,-0.25986 0.860792,-0.84455 0,-0.45476 -0.324827,-0.84455 -0.812068,-0.84455 z"/><path id="path67" d="m 0,0 c 0.682137,0 0.909515,-0.0162 0.958239,-0.11368 0.03248,-0.065 0.06497,-0.1949 0.06497,-0.42228 0,-0.97448 -0.909515,-1.93272 -2.306271,-1.93272 -1.948961,0 -3.26451,1.67286 -3.26451,3.67054 0,0.71462 0.194896,1.47797 0.682137,2.11138 0.470999,0.61717 1.299307,1.07193 2.354994,1.07193 0.84455,0 2.013927,-0.40604 2.549891,-1.51045 -0.01624,-0.14617 -0.129931,-0.24362 -0.292344,-0.19489 -0.503482,0.63341 -0.958239,0.79582 -1.494204,0.79582 -1.737823,0 -2.696062,-1.39675 -2.696062,-3.03713 0,-0.40603 0.01624,-0.43852 0.438516,-0.43852 l 3.004648,0 z m -3.15082,-0.48724 c -0.11369,0 -0.11369,-0.0487 -0.11369,-0.0812 0.01624,-0.53597 0.84455,-1.413 1.802789,-1.413 0.941998,0 1.250584,0.56845 1.250584,1.02321 0,0.21113 -0.04872,0.2761 -0.09745,0.30858 -0.129931,0.0975 -0.487241,0.16241 -1.6891,0.16241 l -1.153135,0 z"/><path id="path69" d="m 0,0 c 0.5522,0 0.90951,-0.37355 0.90951,-0.89328 0,-0.51972 -0.35731,-0.95824 -0.90951,-0.95824 -0.51973,0 -0.90952,0.40604 -0.90952,0.95824 0,0.55221 0.43852,0.89328 0.90952,0.89328 z"/><path id="path73" d="m 0,0 c 0,1.16937 -0.0162,1.33179 -0.61718,1.41299 l -0.34106,0.0487 c -0.11369,0.0812 -0.0812,0.35731 0.0325,0.40603 0.45476,-0.0325 0.942,-0.0487 1.52668,-0.0487 0.56845,0 1.03945,0.0162 1.47797,0.0487 0.11369,-0.0487 0.14617,-0.32482 0.0325,-0.40603 l -0.29234,-0.0487 c -0.58469,-0.0974 -0.61718,-0.24362 -0.61718,-1.41299 l 0,-2.48493 c 0,-0.471 0.0325,-0.69838 0.24362,-0.97448 0.22738,-0.30858 0.76335,-0.56845 1.38052,-0.56845 1.10441,0 1.52668,0.68214 1.52668,1.6079 l 0,2.41996 c 0,1.16937 -0.0162,1.31555 -0.61717,1.41299 l -0.30858,0.0487 c -0.11369,0.0812 -0.0812,0.35731 0.0325,0.40603 0.43852,-0.0325 0.92576,-0.0487 1.51045,-0.0487 0.56844,0 1.03944,0.0162 1.52668,0.0487 0.11369,-0.0487 0.14617,-0.32482 0.0325,-0.40603 l -0.3573,-0.0487 c -0.58469,-0.0812 -0.61718,-0.24362 -0.61718,-1.41299 l 0,-2.79351 c 0,-1.08817 -0.5522,-2.01393 -1.90023,-2.01393 -0.82831,0 -1.59165,0.40603 -2.27379,0.82831 -0.11369,0 -0.17866,-0.0812 -0.17866,-0.17866 0,-0.14617 0,-0.38979 0.0325,-0.76334 -0.0325,-0.0812 -0.11369,-0.11369 -0.17866,-0.11369 -0.32482,0.24362 -1.25058,0.6659 -1.62413,0.79583 -0.0812,0.0487 -0.0812,0.22738 -0.0162,0.29234 l 0.14617,0.0975 c 0.43852,0.29234 0.43852,0.37355 0.43852,1.00696 l 0,2.84224 z"/><path id="path75" d="m 0,0 c -1.03945,0.37355 -1.34804,0.7471 -1.34804,1.38051 0,0.45476 0.1949,0.86079 0.50349,1.1369 0.2761,0.24362 0.66589,0.37355 1.13689,0.37355 0.45476,0 0.81207,-0.21114 1.16938,-0.40604 0.32482,-0.17865 0.51972,-0.32482 0.63341,-0.32482 0.0975,0 0.1949,0.12993 0.25986,0.22738 0.2761,0.3573 0.6659,0.50348 1.05569,0.50348 0.79582,0 1.36427,-0.63342 1.36427,-0.71462 0,-0.11369 -0.0487,-0.21114 -0.11369,-0.21114 -0.0487,0 -0.12993,0.065 -0.21114,0.11369 -0.0974,0.0487 -0.24362,0.0974 -0.40603,0.0974 -0.63341,0 -0.77958,-0.6659 -0.7471,-1.413 l 0.0975,-2.82599 c 0.0487,-1.2181 -0.51973,-1.90024 -1.6891,-1.90024 -1.18562,0 -3.02089,1.15314 -3.02089,1.99769 0,0.14617 0.0812,0.22737 0.22738,0.22737 0.24362,0 0.68213,-0.11369 0.92575,-0.30858 0.12993,-0.0975 0.14617,-0.29235 0.16242,-0.55221 0.0325,-0.50348 0.58468,-0.73086 1.03944,-0.73086 1.00696,0 1.20186,0.81207 1.18562,1.413 l -0.0162,0.7471 c 0,0.24362 -0.0325,0.38979 -0.2761,0.471 l -1.93272,0.69838 z m -0.0975,1.18562 c 0,-0.63342 0.471,-0.87704 1.42924,-1.20186 0.29234,-0.0975 0.56844,-0.16242 0.66589,-0.16242 0.0974,0 0.16241,0.0325 0.16241,0.21114 l -0.0325,0.95824 c -0.0162,0.34107 -0.0162,0.56845 -0.21114,0.76334 -0.16241,0.16242 -0.66589,0.40604 -0.99072,0.40604 -0.82831,0 -1.0232,-0.69838 -1.0232,-0.97448 z"/><path id="path83" d="m 0,0 c 0.14617,-0.0975 0.17865,-0.53597 -0.0162,-0.68214 l -1.80279,0 c -0.2761,0 -0.29234,-0.0162 -0.29234,-0.30859 l 0,-0.73086 c -0.065,-0.11369 -0.25987,-0.11369 -0.34107,-0.0812 -0.16242,0.32482 -0.471,0.76334 -0.68214,0.95824 -0.16241,0.14617 -0.56845,0.35731 -1.03945,0.50348 -0.065,0.0974 -0.0487,0.2761 0.0487,0.34107 l 0.45476,0 c 0.32482,0 0.34106,0.0325 0.34106,0.47099 l 0,3.71927 c 0,0.97448 0.29235,1.75407 1.6891,1.75407 0.82831,0 1.413,-0.40604 1.70535,-0.7471 0.0325,-0.0975 -0.0325,-0.27611 -0.16242,-0.27611 -0.0487,0 -0.25986,0.17866 -0.40603,0.22738 -0.12993,0.0487 -0.2761,0.0812 -0.43852,0.0812 -1.07193,0 -1.18562,-0.86079 -1.18562,-1.80279 l 0,-3.03713 c 0,-0.34107 0.0163,-0.38979 0.29235,-0.38979 l 1.83527,0 z"/><path id="path87" d="m 0,0 c -1.234342,0 -2.208822,0.6659 -2.208822,1.85152 0,0.89327 0.665895,1.46172 1.607893,1.99768 0.600929,0.34107 1.250583,0.7471 1.250583,1.4942 0,0.69838 -0.503481,1.03945 -1.08817,1.03945 -0.925756,0 -1.445479,-0.77958 -1.721582,-1.67286 -0.08121,-0.0975 -0.292344,-0.0812 -0.373551,0.0162 -0.03248,0.53597 0.06497,1.33179 0.194896,1.64038 0.406034,0.32483 0.974481,0.48724 1.737824,0.48724 1.201859,0 2.338753,-0.61717 2.338753,-1.85151 0,-1.15314 -0.795826,-1.70535 -1.656617,-2.19259 -0.568447,-0.32482 -1.250583,-0.68213 -1.250583,-1.34803 0,-0.58469 0.406033,-0.99072 1.039446,-0.99072 0.665895,0 1.153135,0.471 1.429238,1.18562 0.08121,0.0975 0.324827,0.065 0.389792,-0.0487 0,-0.43852 -0.113689,-0.95824 -0.259861,-1.31555 -0.146173,-0.12993 -0.747102,-0.29235 -1.429239,-0.29235 z"/><path id="path101" d="m 0,0 c 0.178655,-0.065 0.292345,-0.51973 0.11369,-0.68214 l -1.851513,0 c -0.276103,0 -0.276103,-0.0162 -0.276103,-0.45476 l 0,-0.471 c 0,-0.81206 0.06497,-1.99768 0.357309,-2.74478 0.243621,-0.58469 0.649654,-0.89328 1.153136,-0.89328 0.535964,0 0.990722,0.35731 1.299307,0.71462 0.11369,0.12993 0.211138,0.1949 0.389792,0.1949 0.308586,0 0.617171,-0.25986 0.617171,-0.58469 0,-0.58469 -0.73086,-0.97448 -1.591651,-0.97448 -1.607893,0 -2.517408,1.13689 -2.923442,2.06265 -0.389792,0.90952 -0.503481,1.91648 -0.503481,2.85848 0,0.16241 -0.11369,0.25986 -0.243621,0.32482 l -0.698377,0.34107 c -0.06497,0.0974 -0.04872,0.24362 0.04872,0.30859 l 0.568447,0 c 0.324827,0 0.324827,0.0325 0.324827,0.471 l 0,3.42692 c 0,1.16938 -0.01624,1.33179 -0.617171,1.413 l -0.373551,0.0487 c -0.11369,0.0812 -0.08121,0.35731 0.03248,0.40603 0.487241,-0.0325 0.974481,-0.0487 1.559169,-0.0487 0.568447,0 1.039446,0.0162 1.770307,0.0487 0.113689,-0.0487 0.146172,-0.32482 0.03248,-0.40603 l -0.584688,-0.0487 c -0.584688,-0.0487 -0.617171,-0.24362 -0.617171,-1.413 l 0,-3.42692 c 0,-0.43852 0,-0.471 0.276103,-0.471 l 1.737823,0 z"/><path id="path103" d="m 0,0 c 0,-0.79583 0.01624,-1.1369 0.04872,-1.413 -0.01624,-0.065 -0.06497,-0.0974 -0.162414,-0.11369 -0.357309,0.12993 -0.990721,0.27611 -1.737823,0.29235 -0.11369,0.0487 -0.129931,0.2761 -0.03248,0.35731 l 0.194896,0.0812 c 0.48724,0.21114 0.48724,0.35731 0.48724,1.38052 l 0,2.7123 c 0,1.31555 0.535965,2.03017 1.965203,2.03017 0.958239,0 1.754065,-0.53597 2.241305,-0.84455 0.09745,0 0.146172,0.0812 0.146172,0.22738 l 0,0.66589 c 0.03248,0.065 0.11369,0.11369 0.194896,0.11369 0.552206,-0.30858 1.494204,-0.471 2.127616,-0.60093 0.129931,-0.065 0.11369,-0.38979 0.01624,-0.471 -0.227379,0.0487 -0.438517,0.0812 -0.633413,0.0812 -0.454757,0 -0.503481,-0.48724 -0.503481,-1.77031 l 0,-2.72854 c 0,-0.60093 0.01624,-1.10441 0.04872,-1.413 -0.01624,-0.065 -0.06497,-0.0974 -0.146172,-0.11369 -0.35731,0.16242 -1.250584,0.27611 -1.900238,0.29235 -0.12993,0.065 -0.12993,0.29234 -0.01624,0.35731 l 0.211138,0.0812 c 0.48724,0.1949 0.600929,0.22738 0.600929,1.28307 l 0,2.66358 c 0,0.50348 -0.113689,0.7471 -0.324827,0.942 -0.357309,0.30858 -0.877032,0.48724 -1.315548,0.48724 -1.234342,0 -1.510445,-0.7471 -1.510445,-1.86776 l 0,-2.7123 z"/><path id="path119" d="m 0,0 c 0,1.16938 -0.0162,1.31555 -0.61717,1.413 l -0.30859,0.0487 c -0.11369,0.0812 -0.0812,0.35731 0.0325,0.40603 0.42227,-0.0325 0.90951,-0.0487 1.4942,-0.0487 0.56845,0 1.03944,0.0162 1.80279,0.0487 0.11369,-0.0487 0.14617,-0.32482 0.0325,-0.40603 l -0.58469,-0.0487 c -0.61717,-0.0487 -0.64965,-0.24362 -0.64965,-1.413 l 0,-2.20882 c 0,-0.55221 0.0487,-1.02321 0.21114,-1.25059 0.12993,-0.17865 0.32482,-0.32482 0.58468,-0.32482 0.22738,0 0.471,0.0974 0.71462,0.25986 0.11369,0.065 0.1949,0.11369 0.35731,0.11369 0.25986,0 0.69838,-0.21114 0.69838,-0.7471 0,-0.3898 -0.32483,-0.64966 -0.73086,-0.64966 -0.60093,0 -1.2181,0.50348 -1.78655,0.97448 -0.0325,-0.0162 -0.0487,-0.065 -0.0487,-0.14617 l 0,-0.942 c 0,-0.065 -0.0487,-0.0975 -0.12993,-0.11369 -0.40604,0.24362 -1.26683,0.6659 -1.64038,0.79583 -0.0812,0.0487 -0.0812,0.22738 -0.0162,0.29234 l 0.14617,0.0974 c 0.43852,0.29235 0.43852,0.37355 0.43852,1.00696 l 0,2.84224 z"/><path id="path121" d="m 0,0 c 0,1.16938 -0.0162,1.33179 -0.61717,1.413 l -0.34107,0.0487 c -0.11369,0.0812 -0.0812,0.35731 0.0325,0.40604 0.45476,-0.0325 0.942,-0.0487 1.52669,-0.0487 0.56844,0 1.03944,0.0162 1.81903,0.0487 0.11369,-0.0487 0.14617,-0.32483 0.0325,-0.40604 l -0.63341,-0.0812 c -0.58469,-0.0812 -0.61717,-0.22738 -0.61717,-1.38052 l 0,-1.70534 c 0,-0.34107 0.0812,-0.42227 0.22737,-0.45476 0.14618,0.0325 0.60093,0.065 0.89328,0.065 2.30627,0 3.96289,-1.62414 3.96289,-3.88168 0,-1.64038 -1.05569,-2.97217 -2.69607,-2.97217 -1.03944,0 -2.06265,0.6659 -2.27378,0.76335 -0.11369,0 -0.14618,-0.0975 -0.14618,-0.21114 0,-0.21114 0.0325,-0.45476 0.065,-0.7471 -0.0325,-0.0812 -0.0975,-0.11369 -0.1949,-0.11369 -0.42227,0.30858 -1.18562,0.69837 -1.60789,0.87703 -0.0812,0.0487 -0.0812,0.22738 -0.0162,0.29234 l 0.14617,0.0974 c 0.43852,0.29235 0.43852,0.37355 0.43852,1.00696 l 0,6.98378 z m 1.20186,-6.7564 c 0,-0.53596 0.0487,-0.77958 0.19489,-0.95824 0.17866,-0.19489 0.68214,-0.45475 1.38052,-0.45475 1.46172,0 2.19258,1.31555 2.19258,2.61485 0,1.6891 -0.77959,2.92344 -2.11138,2.92344 -0.34107,0 -0.84455,-0.11368 -1.16937,-0.3573 -0.32483,-0.25987 -0.48724,-0.45476 -0.48724,-0.97449 l 0,-2.79351 z"/><path id="path135" d="m 0,0 c 0,1.16937 -0.01624,1.34803 -0.617171,1.41299 l -0.406033,0.0487 c -0.11369,0.0812 -0.08121,0.35731 0.03248,0.40603 0.519723,-0.0325 1.006964,-0.0487 1.591652,-0.0487 0.568447,0 1.039446,0.0162 1.526686,0.0487 0.113689,-0.0487 0.146172,-0.34107 0.03248,-0.40603 l -0.341068,-0.0487 c -0.584689,-0.0812 -0.617171,-0.24362 -0.617171,-1.41299 l 0,-2.72855 c 0,-0.56845 0.04872,-0.64965 0.341068,-0.89327 0.292344,-0.24362 0.714619,-0.43852 1.266824,-0.43852 1.039446,0 1.542928,0.69838 1.542928,1.73782 l 0,2.32252 c 0,1.16937 -0.01624,1.31554 -0.617171,1.41299 l -0.324827,0.0487 c -0.113689,0.0812 -0.08121,0.35731 0.03248,0.40603 0.438516,-0.0325 0.925756,-0.0487 1.510445,-0.0487 0.568447,0 1.039446,0.0162 1.624134,0.0487 0.113689,-0.0487 0.146172,-0.32483 0.03248,-0.40603 l -0.438517,-0.0487 c -0.584688,-0.065 -0.617171,-0.24362 -0.617171,-1.41299 l 0,-2.71231 c 0,-1.13689 -0.552205,-2.09513 -2.095133,-2.09513 -0.828308,0 -1.607893,0.38979 -2.192581,0.84455 -0.04872,-0.0325 -0.06496,-0.16242 -0.06496,-0.30859 l 0,-3.41068 c 0,-0.71462 0.03248,-1.52669 0.04872,-2.01393 -0.03248,-0.065 -0.09745,-0.0974 -0.162414,-0.0974 -0.584688,0.30858 -1.348031,0.5522 -1.754065,0.68213 -0.08121,0.0487 -0.08121,0.2761 0,0.32483 l 0.162414,0.0974 c 0.48724,0.29234 0.503481,0.38979 0.503481,1.34803 l 0,7.34109 z"/><path id="path182" d="m 0,0 c -0.25625,0 -0.5375,0.09375 -0.8625,0.40625 -0.425,0.40625 -0.65625,1.0125 -0.68125,1.4 -0.0375,0.5375 0.225,0.83125 0.625,0.83125 0.16875,0 0.50625,-0.03125 0.89375,-0.43125 0.4625,-0.475 0.64375,-1.075 0.6625,-1.41875 0.025,-0.45625 -0.19375,-0.7875 -0.6375,-0.7875 z m -0.04375,0.1875 c 0.21875,0 0.25625,0.21875 0.25,0.4125 -0.0125,0.33125 -0.30625,1.15625 -0.58125,1.525 -0.2,0.26875 -0.35625,0.325 -0.49375,0.325 -0.18125,0 -0.26875,-0.18125 -0.25625,-0.4 0.01875,-0.33125 0.2625,-1.075 0.625,-1.5625 0.18125,-0.24375 0.33125,-0.3 0.45625,-0.3 z"/><path id="path184" d="m 0,0 c 0.05625,-0.14375 -0.0125,-0.25625 -0.1625,-0.25625 -0.3125,0 -0.69375,0.25625 -0.93125,0.58125 -0.0063,0.05 0.025,0.09375 0.075,0.09375 0.20625,-0.18125 0.425,-0.3125 0.56875,-0.3125 0.05,0 0.05,0.0625 0.01875,0.14375 -0.03125,0.0875 -0.69375,1.8875 -0.725,1.96875 -0.05625,0.14375 0.1125,0.1625 0.18125,0.1625 0.05625,0 0.08125,-0.01875 0.1125,-0.075 0.36875,-0.6875 0.625,-1.175 0.95625,-1.5875 0.34375,-0.43125 0.7125,-0.74375 0.8625,-0.74375 0.09375,0 0.1,0.075 0.1,0.15 0,0.125 -0.08125,0.34375 -0.13125,0.45625 -0.14375,0.3125 -0.375,0.925 -0.50625,1.23125 -0.13125,0.3125 -0.15,0.35625 -0.15,0.4125 0,0.075 0.09375,0.15625 0.15,0.15625 0.34375,0 0.8375,-0.3 1.075,-0.7 0,-0.05 -0.0125,-0.1 -0.1,-0.0875 -0.18125,0.21875 -0.48125,0.425 -0.5875,0.425 -0.04375,0 -0.0375,-0.05625 -0.0125,-0.11875 0.01875,-0.05 0.46875,-1.06875 0.58125,-1.38125 0.05,-0.14375 0.1,-0.3375 0.1,-0.4375 0,-0.20625 -0.10625,-0.3375 -0.35,-0.3375 -0.46875,0 -1.0875,0.6875 -1.53125,1.3625 l -0.01875,-0.0125 0.425,-1.09375 z"/><path id="path188" d="m 0,0 c -0.03125,0.06875 -0.0125,0.125 0.025,0.16875 0.03125,0.0375 0.06875,0.05625 0.1,0.05625 0.43125,0 1.075,-0.5625 1.16875,-0.74375 0,-0.05625 -0.03125,-0.1 -0.09375,-0.10625 -0.2125,0.24375 -0.54375,0.4625 -0.65,0.4625 -0.05,0 -0.04375,-0.075 -0.01875,-0.1375 l 0.74375,-1.775 c 0.075,-0.18125 0.075,-0.2375 0.0375,-0.275 -0.025,-0.025 -0.05625,-0.0625 -0.1,-0.0625 -0.20625,0 -0.6875,0.23125 -1.03125,0.625 -0.0125,0.05 0.025,0.1 0.08125,0.10625 0.3125,-0.25625 0.475,-0.33125 0.51875,-0.33125 0.04375,0 0.04375,0.05 0.0125,0.11875 l -0.79375,1.89375 z m 1.325,-3.7 c -0.24375,0 -0.33125,0.25625 -0.33125,0.39375 0,0.10625 0.05625,0.23125 0.21875,0.23125 0.1875,0 0.325,-0.19375 0.325,-0.3875 0,-0.1375 -0.06875,-0.2375 -0.2125,-0.2375 z"/></defs></svg>
