<?xml version="1.0" encoding="UTF-8" standalone="no"?>
<svg xmlns:dc="http://purl.org/dc/elements/1.1/" xmlns:cc="http://creativecommons.org/ns#" xmlns:rdf="http://www.w3.org/1999/02/22-rdf-syntax-ns#" xmlns:svg="http://www.w3.org/2000/svg" xmlns="http://www.w3.org/2000/svg" xmlns:xlink="http://www.w3.org/1999/xlink" viewBox="0 0 90 139" height="139" width="90" version="1.1" id="svg2">
  <metadata id="metadata8">
    <rdf:RDF>
      <cc:Work rdf:about="">
        <dc:format>image/svg+xml</dc:format>
        <dc:type rdf:resource="http://purl.org/dc/dcmitype/StillImage"/>
        <dc:title/>
      </cc:Work>
    </rdf:RDF>
  </metadata>
  <defs id="defs6"/>
  <image xlink:href="condition-image-1.png" id="card-image" x="0" y="0" width="90" height="139" preserveAspectRatio="none"/>
  <g id="flowRoot4138" style="fill:#000000;fill-opacity:1;stroke:none;stroke-width:1px;stroke-linecap:butt;stroke-linejoin:miter;stroke-opacity:1" transform="translate(0,-0.20823695)">
    <path id="path29" style="" d="m 43.246797,9.7303041 0,-1.47 q -0.16,-0.19 -0.29,-0.44 -0.12,-0.25 -0.25,-0.52 -0.12,-0.28 -0.26,-0.56 -0.14,-0.28 -0.33,-0.52 -0.24,-0.09 -0.44,-0.22 -0.2,-0.14 -0.4,-0.28 -0.2,-0.14 -0.42,-0.27 -0.21,-0.13 -0.47,-0.22 l -0.03,-0.09 -1.22,0 -0.07,-0.08 -1.73,0 -0.03,0.08 -0.12,-0.08 -1.23,0 -0.07,0.08 -0.56,0 q -0.07,0.22 -0.07,0.3 0,0.08 0.04,0.11 0.05,0.03 0.13,0.06 0.08,0.02 0.18,0.14 l 0.29,0.02 0.04,0.09 q 0.19,0.04 0.39,0.19 0.03,0.2 -0.01,0.49 -0.03,0.28 -0.07,0.61 -0.03,0.32 -0.03,0.67 0,0.34 0.11,0.66 -0.04,0.09 -0.05,0.34 0,0.24 0.01,0.57 0.01,0.33 0.03,0.7199999 0.02,0.39 0.03,0.77 0.02,0.38 0.01,0.71 0,0.33 -0.04,0.55 l -0.2,0.2 -0.37,0.03 q 0.03,0.02 0,0.04 -0.02,0.02 -0.04,0.02 l -0.56,0 q -0.05,0.19 -0.07,0.33 -0.01,0.14 0.15,0.3 l 0.91,0 0.08,-0.07 q 0.06,0 0.23,0.02 0.17,0.01 0.36,0.03 0.2,0.01 0.37,0.02 0.18,0 0.24,-0.02 -0.03,-0.01 -0.01,-0.03 0.03,-0.02 0.05,-0.02 l 0.94,0 0.08,0.07 1.7,0 0.08,-0.08 0.47,0 0.03,-0.1 q 0.25,-0.01 0.46,-0.09 0.21,-0.08 0.39,-0.19 0.19,-0.12 0.37,-0.25 0.18,-0.14 0.38,-0.26 0.11,-0.23 0.23,-0.47 0.13,-0.24 0.19,-0.49 0.13,-0.05 0.22,-0.22 0.09,-0.17 0.13,-0.38 0.05,-0.21 0.06,-0.41 0.01,-0.1999999 -0.01,-0.3199999 l 0.07,-0.07 z m -0.97,-2.35 q 0.04,0.32 0.02,0.63 -0.02,0.3 -0.07,0.6 -0.04,0.3 -0.08,0.61 -0.04,0.31 -0.04,0.63 l 0.07,0.12 q -0.03,0.1 -0.14,0.2899999 -0.1,0.19 -0.23,0.4 -0.12,0.21 -0.25,0.41 -0.12,0.19 -0.18,0.31 -0.14,0.06 -0.26,0.19 -0.11,0.12 -0.22,0.26 -0.11,0.13 -0.24,0.26 -0.12,0.12 -0.28,0.18 -0.14,0.05 -0.31,0.08 -0.17,0.02 -0.32,0.07 -0.06,-0.02 -0.12,-0.02 -0.06,0 -0.12,0 l -0.19,0.14 -0.76,0 -0.03,-0.1 q -0.19,-0.01 -0.36,-0.05 -0.17,-0.05 -0.34,-0.13 -0.11,-0.21 -0.15,-0.38 -0.04,-0.18 -0.05,-0.35 0,-0.18 0.01,-0.38 0.02,-0.21 0.02,-0.48 -0.05,-0.07 -0.08,-0.43 -0.03,-0.3599999 -0.05,-0.8599999 -0.02,-0.51 -0.03,-1.1 0,-0.59 0,-1.11 0,-0.52 0.01,-0.91 0.01,-0.4 0.03,-0.51 l 0.14,-0.16 q 0.2,0.02 0.41,-0.04 0.21,-0.06 0.44,-0.04 l 0.12,-0.08 0.61,0.28 -0.1,-0.21 0.36,0.16 -0.02,-0.23 1.19,0.6 0.22,0.17 q 0.04,0.1 0.16,0.17 0.12,0.06 0.27,0.11 0.15,0.04 0.3,0.09 0.15,0.04 0.27,0.1 l 0.05,0.33 0.09,0.04 q 0.09,0.19 0.23,0.34 z"/>
    <path id="path31" style="" d="m 47.84625,10.130304 q 0.04,-0.1899999 0.06,-0.2599999 0.03,-0.07 0.03,-0.12 0,-0.05 -0.03,-0.12 -0.02,-0.07 -0.06,-0.27 l -0.07,-0.04 q -0.06,-0.24 -0.18,-0.37 -0.12,-0.14 -0.26,-0.23 -0.13,-0.09 -0.26,-0.16 -0.12,-0.07 -0.2,-0.18 -0.29,-0.04 -0.55,-0.06 -0.25,-0.02 -0.56,-0.02 l -0.8,0.49 q -0.03,0.14 -0.13,0.23 -0.1,0.09 -0.21,0.17 -0.06,0.22 -0.16,0.43 -0.1,0.21 -0.16,0.4299999 -0.14,0.05 -0.18,0.27 -0.04,0.22 -0.03,0.49 0.02,0.27 0.06,0.54 0.04,0.26 0.07,0.39 0.11,0.07 0.12,0.15 0.02,0.07 0.05,0.18 l 0.07,0.04 0.09,0.29 q 0.12,0.09 0.22,0.19 0.11,0.1 0.19,0.22 0.3,0.13 0.41,0.19 0.11,0.05 0.21,0.06 0.11,0.02 0.28,0.01 0.18,-0.01 0.61,-0.01 0.21,-0.18 0.31,-0.21 0.11,-0.04 0.21,-0.09 0.11,-0.05 0.27,-0.18 0.17,-0.13 0.5,-0.5 l 0,-0.22 q -0.05,-0.02 -0.11,-0.04 -0.06,-0.03 -0.12,-0.06 -0.05,0.11 -0.14,0.13 -0.08,0.02 -0.19,0.04 l -0.1,0.15 -0.17,0.02 q -0.08,0.12 -0.19,0.1 -0.11,-0.03 -0.24,0 0.03,0.02 0,0.04 -0.02,0.02 -0.04,0.02 -0.09,0 -0.2,0.02 -0.11,0.01 -0.21,0.01 -0.1,-0.01 -0.19,-0.05 -0.08,-0.04 -0.13,-0.14 -0.17,-0.05 -0.3,-0.18 -0.13,-0.13 -0.24,-0.26 -0.02,-0.14 -0.04,-0.27 -0.01,-0.13 -0.06,-0.26 l -0.08,-0.04 0,-0.75 q 0.15,-0.12 0.29,-0.26 l 0.41,0 q 0.03,0.02 0.04,0.04 0.01,0.01 0.03,0.02 l 0.85,0 0.04,0.09 0.19,0.02 q -0.01,0.06 0.09,0.07 0.11,0.01 0.26,0 0.15,-0.02 0.3,-0.04 0.15,-0.03 0.23,-0.05 l 0.1,-0.1 z m -0.72,-0.7099999 q 0,0.05 -0.05,0.11 -0.04,0.06 -0.11,0.11 -0.06,0.04 -0.13,0.07 -0.07,0.03 -0.12,0.03 l -0.43,0 q -0.03,0 -0.03,-0.03 0.01,-0.03 -0.03,-0.03 l -0.46,0 q -0.12,-0.13 -0.25,-0.25 0.07,-0.1 0.13,-0.19 0.06,-0.1 0.12,-0.19 0.18,-0.06 0.3,-0.18 l 0.64,0 q 0.05,0 0.07,0.06 0.03,0.06 0.04,0.1 0.04,0.01 0.07,0.02 0.03,0 0.06,0 0.04,0.05 0.11,0.18 0.07,0.13 0.07,0.19 z"/>
    <path id="path33" style="" d="m 52.164766,8.9403041 q -0.01,-0.02 -0.09,-0.08 -0.08,-0.07 -0.18,-0.14 -0.1,-0.08 -0.2,-0.15 -0.09,-0.08 -0.13,-0.11 l -0.49,0 q -0.02,-0.02 -0.04,-0.03 -0.01,-0.02 -0.03,-0.04 -0.28,-0.01 -0.45,0.02 -0.17,0.02 -0.29,0.09 -0.12,0.07 -0.23,0.2 -0.11,0.13 -0.27,0.32 l 0.11,0.07 q 0.14,-0.04 0.25,-0.11 0.11,-0.07 0.21,-0.13 0.11,-0.07 0.23,-0.11 0.12,-0.05 0.28,-0.05 0.08,0.07 0.17,0.14 0.1,0.06 0.2,0.1 l 0.04,0.08 q 0.17,0.05 0.23,0.11 0.07,0.06 0.18,0.17 0.04,0.2 0.06,0.39 0.03,0.19 0.08,0.3799999 l 0.02,-0.04 q 0.07,0.12 0.09,0.34 0.02,0.22 -0.01,0.48 -0.02,0.26 -0.09,0.54 -0.06,0.28 -0.16,0.52 -0.1,0.24 -0.24,0.41 -0.13,0.16 -0.29,0.19 l -0.04,0.08 q -0.11,0.02 -0.22,0.07 -0.11,0.05 -0.23,0.08 -0.44,-0.23 -0.79,-0.57 -0.35,-0.34 -0.49,-0.83 0.02,-0.05 0.05,-0.11 0.04,-0.07 0.05,-0.12 0.05,-0.33 0.05,-0.62 0.01,-0.3 0.09,-0.6499999 0.01,-0.04 0.04,-0.16 0.03,-0.12 0.05,-0.25 0.03,-0.14 0.04,-0.26 0.01,-0.12 0,-0.15 -0.03,-0.08 -0.09,-0.15 -0.05,-0.07 -0.08,-0.14 -0.03,-0.08 -0.03,-0.16 0,-0.08 0.07,-0.19 0,-0.18 0,-0.31 0,-0.14 0.07,-0.3 l -0.11,-0.4 0.11,-0.4 -0.07,-0.2 q 0.02,-0.12 0.06,-0.34 0.04,-0.23 0.06,-0.47 0.02,-0.25 0.01,-0.47 -0.01,-0.23 -0.08,-0.34 -0.11,-0.08 -0.27,-0.08 -0.15,-0.01 -0.28,0 -0.19,0.17 -0.33,0.26 -0.14,0.08 -0.37,0.15 -0.11,0.23 -0.06,0.37 0.05,0.14 0.14,0.26 0.09,0.11 0.18,0.23 0.09,0.12 0.06,0.31 -0.05,0.34 -0.05,0.86 0,0.52 0.01,1.1 0.02,0.57 0.03,1.13 0.01,0.5599999 -0.01,0.9599999 0,0.08 -0.01,0.28 0,0.19 -0.01,0.44 0,0.24 -0.01,0.51 0,0.26 0,0.49 0.01,0.23 0.02,0.4 0.02,0.16 0.05,0.19 l -0.07,0.06 q 0.24,0 0.41,-0.01 0.18,-0.02 0.4,-0.08 l 0.05,-0.61 q 0,0 0.06,0.1 0.06,0.1 0.15,0.22 0.09,0.12 0.19,0.22 0.1,0.1 0.18,0.1 l 0.05,0.06 q 0.29,0 0.54,-0.02 0.26,-0.02 0.53,-0.06 0.12,-0.14 0.26,-0.21 0.15,-0.08 0.28,-0.27 0.13,-0.01 0.22,-0.09 0.09,-0.09 0.15,-0.19 0.27,-0.42 0.42,-0.82 0.16,-0.4 0.17,-0.8 0.02,-0.4 -0.12,-0.8099999 -0.13,-0.41 -0.44,-0.85 z"/>
    <path id="path35" style="" d="m 56.119922,8.4003041 q -0.01,-0.19 -0.07,-0.25 -0.05,-0.07 -0.19,-0.19 l -0.86,0 -0.14,0.1 q -0.15,-0.05 -0.23,-0.12 -0.07,-0.08 -0.1,-0.18 -0.03,-0.1 -0.05,-0.21 -0.01,-0.12 -0.04,-0.24 l -0.26,0 -0.07,0.06 -0.11,0.01 q 0,0.1 -0.01,0.14 -0.06,0.02 -0.11,0.08 -0.04,0.05 -0.09,0.12 -0.05,0.07 -0.12,0.14 -0.07,0.07 -0.17,0.11 l -0.08,0.12 -0.14,0.05 q 0,-0.01 -0.03,-0.01 -0.01,0.08 -0.1,0.17 -0.09,0.09 -0.09,0.14 0,0.06 0.03,0.08 0.03,0.01 0.08,0.02 0.06,0 0.13,0.02 0.07,0.02 0.13,0.11 l 0.23,0.04 q 0,0.3 -0.01,0.64 -0.01,0.34 -0.03,0.6999999 -0.01,0.35 -0.03,0.7 -0.02,0.34 -0.04,0.64 l -0.06,0.08 q 0.06,0.13 0.09,0.37 0.04,0.23 0.11,0.46 0.07,0.23 0.18,0.41 0.12,0.18 0.34,0.19 l 0.04,0.08 q 0.16,0.07 0.31,0.08 0.16,0.02 0.31,0 0.15,-0.01 0.3,-0.03 0.16,-0.03 0.32,-0.05 0.1,-0.08 0.22,-0.12 0.12,-0.04 0.2,-0.14 0.19,-0.01 0.28,-0.07 0.09,-0.06 0.09,-0.15 0.01,-0.09 -0.05,-0.2 -0.06,-0.12 -0.17,-0.23 l 0,0.04 q -0.02,0.02 -0.1,0.08 -0.07,0.05 -0.1,0.05 -0.28,0 -0.44,0.02 -0.15,0.01 -0.26,0 -0.11,-0.02 -0.22,-0.08 -0.1,-0.06 -0.28,-0.2 -0.04,-0.13 -0.07,-0.38 -0.02,-0.26 -0.04,-0.57 -0.02,-0.32 -0.04,-0.65 -0.01,-0.34 -0.02,-0.6399999 0,-0.3 -0.01,-0.52 0,-0.23 0,-0.32 0,-0.02 0.05,-0.09 0.05,-0.08 0.07,-0.1 l 0.88,0 q 0.09,0 0.2,0.03 0.12,0.02 0.22,0.01 0.1,-0.01 0.16,-0.08 0.07,-0.07 0.06,-0.27 z"/>
  </g>
  <g id="text4146" style="fill:#000000;fill-opacity:1;stroke:none;stroke-width:1px;stroke-linecap:butt;stroke-linejoin:miter;stroke-opacity:1">
    <path id="path38" style="" d="m 20.707995,83.010775 c -0.2175,0.6975 -0.2775,0.7575 -0.6,0.81 l -0.2175,0.0375 c -0.105,0.015 -0.1125,0.21 -0.0375,0.255 0.375,-0.015 0.7125,-0.0225 1.0725,-0.0225 0.1275,0 0.2775,0.0075 0.45,0.0225 0.1725,0.0075 0.375,0.0225 0.5925,0.0225 0.795,0 2.1,-0.1125 3.015,-1.05 0.48,-0.495 0.765,-1.1775 0.765,-1.875 0,-0.7425 -0.33,-1.305 -0.8175,-1.635 -0.495,-0.33 -1.14,-0.45 -1.965,-0.4575 -0.7125,0 -1.23,0.03 -1.635,0.0675 -0.09,0.0375 -0.1125,0.195 -0.045,0.255 l 0.2175,0.0525 c 0.2625,0.06 0.2475,0.18 0.09,0.69 l -0.885,2.8275 z m 2.0175,-3.2025 c 0.0975,-0.3225 0.135,-0.345 0.45,-0.345 1.2975,0 1.4475,1.005 1.4475,1.5225 0,0.7125 -0.3,1.6425 -1.02,2.235 -0.5775,0.48 -1.095,0.57 -1.47,0.57 -0.33,0 -0.5025,-0.135 -0.495,-0.3375 0,-0.12 0.015,-0.2475 0.105,-0.525 l 0.9825,-3.12 z"/>
    <path id="path40" style="" d="m 27.484128,80.378275 c -0.219375,0 -0.50625,-0.0056 -0.770625,-0.01687 -0.07875,0.02813 -0.09,0.1575 -0.03937,0.196875 l 0.135,0.0225 c 0.264375,0.045 0.25875,0.151875 0.118125,0.6075 l -0.658125,2.0925 c -0.163125,0.523125 -0.208125,0.5625 -0.4725,0.601875 l -0.19125,0.02813 c -0.07875,0.0225 -0.08438,0.163125 -0.02813,0.196875 0.28125,-0.01125 0.534375,-0.01688 0.815625,-0.01688 l 0.73125,0 c 0.230625,0 0.48375,0 0.72,0.0056 0.23625,0 0.46125,0.0056 0.635625,0.01125 0.12375,-0.151875 0.3375,-0.6075 0.433125,-0.88875 -0.03375,-0.0675 -0.163125,-0.07875 -0.225,-0.03375 -0.46125,0.63 -0.658125,0.646875 -1.1475,0.646875 -0.410625,0 -0.500625,-0.03938 -0.55125,-0.135 -0.045,-0.09562 -0.0056,-0.27 0.07875,-0.534375 l 0.21375,-0.68625 c 0.045,-0.151875 0.0675,-0.16875 0.21375,-0.16875 l 0.37125,0 c 0.2925,0 0.34875,0.045 0.315,0.315 l -0.01687,0.140625 c 0.0225,0.045 0.16875,0.03938 0.21375,-0.0056 0.05063,-0.18 0.10125,-0.3825 0.16875,-0.59625 0.07312,-0.21375 0.140625,-0.421875 0.208125,-0.59625 -0.01687,-0.05062 -0.1575,-0.05625 -0.21375,-0.0056 l -0.07313,0.135 c -0.14625,0.27 -0.219375,0.315 -0.511875,0.315 l -0.37125,0 c -0.14625,0 -0.1575,-0.01125 -0.106875,-0.16875 l 0.309375,-0.97875 c 0.0675,-0.21375 0.08438,-0.225 0.275625,-0.225 l 0.43875,0 c 0.28125,0 0.4275,0.0675 0.4725,0.196875 0.0225,0.0675 0.03937,0.230625 0.0225,0.433125 0.03937,0.045 0.185625,0.03937 0.21375,-0.0225 0.10125,-0.3825 0.2475,-0.7875 0.286875,-0.883125 -0.08438,0.01125 -0.405,0.01687 -0.765,0.01687 l -1.24875,0 z"/>
    <path id="path42" style="" d="m 30.930583,82.819525 c 0.174375,0 0.185625,0.0056 0.18,0.118125 l -0.0225,0.714375 c -0.0056,0.135 -0.03375,0.208125 -0.2925,0.241875 l -0.129375,0.01687 c -0.03375,0.03937 -0.045,0.174375 0.02812,0.196875 0.174375,-0.01125 0.4275,-0.01688 0.7425,-0.01688 0.28125,0 0.585,0.0056 0.793125,0.01688 0.05062,-0.0225 0.06187,-0.163125 0.01687,-0.196875 l -0.135,-0.01687 c -0.27,-0.03375 -0.27,-0.129375 -0.27,-0.523125 0,-0.995625 0.03937,-1.996875 0.03937,-2.9925 0,-0.06188 -0.045,-0.09 -0.10125,-0.09 l -0.01125,0 c -0.0056,0 -0.27,0.219375 -0.585,0.241875 -0.0225,0.106875 -0.185625,0.34875 -0.36,0.613125 -0.500625,0.7425 -1.0125,1.485 -1.513125,2.2275 -0.286875,0.41625 -0.354375,0.466875 -0.635625,0.511875 l -0.135,0.0225 c -0.05063,0.03937 -0.05063,0.174375 0.02813,0.2025 0.1575,-0.01125 0.343125,-0.01688 0.54,-0.01688 0.2475,0 0.4275,0.0056 0.70875,0.01688 0.0675,-0.02813 0.08438,-0.163125 0.02812,-0.2025 l -0.151875,-0.0225 c -0.10125,-0.01687 -0.140625,-0.045 -0.140625,-0.09 0,-0.03375 0.01687,-0.09 0.1125,-0.25875 l 0.34875,-0.601875 c 0.0675,-0.118125 0.07875,-0.1125 0.2475,-0.1125 l 0.669375,0 z M 30.463708,82.5214 c -0.1575,0 -0.174375,-0.0225 -0.106875,-0.12375 l 0.46125,-0.714375 c 0.135,-0.208125 0.241875,-0.388125 0.32625,-0.523125 l 0.01125,0 c 0,0.106875 0.0056,0.34875 0,0.5175 l -0.03375,0.691875 c -0.0056,0.140625 -0.01125,0.151875 -0.14625,0.151875 l -0.511875,0 z"/>
    <path id="path44" style="" d="m 34.415885,81.188275 c 0.163125,-0.523125 0.208125,-0.556875 0.45,-0.601875 l 0.14625,-0.02813 c 0.07312,-0.0225 0.08438,-0.163125 0.01687,-0.196875 -0.241875,0.01125 -0.495,0.01687 -0.765,0.01687 -0.27,0 -0.5625,-0.0056 -0.855,-0.01687 -0.07313,0.0225 -0.09563,0.163125 -0.03937,0.196875 l 0.14625,0.0225 c 0.286875,0.045 0.28125,0.151875 0.140625,0.6075 l -0.658125,2.0925 c -0.163125,0.523125 -0.208125,0.5625 -0.45,0.601875 l -0.185625,0.02813 c -0.07875,0.0225 -0.07313,0.163125 -0.01125,0.196875 0.298125,-0.01125 0.55125,-0.01688 0.82125,-0.01688 l 0.646875,0 c 0.230625,0 0.48375,0.0056 0.72,0.0056 0.241875,0.0056 0.466875,0.0056 0.64125,0.01125 0.118125,-0.151875 0.3375,-0.6075 0.4275,-0.88875 -0.02812,-0.0675 -0.163125,-0.07875 -0.225,-0.03375 -0.46125,0.63 -0.658125,0.646875 -1.1475,0.646875 -0.3825,0 -0.48375,-0.03938 -0.5175,-0.140625 -0.03375,-0.10125 -0.01125,-0.264375 0.07313,-0.52875 l 0.624375,-1.974375 z"/>
    <path id="path46" style="" d="m 37.066755,82.729525 -0.10125,0.388125 5.625,0 0.10125,-0.388125 -5.625,0 z"/>
    <path id="path48" style="" d="m 44.646823,82.238275 c -0.0075,1.125 0.75,1.9725 2.2875,1.9725 0.6525,0 1.0575,-0.1575 1.3425,-0.1875 0.12,-0.195 0.39,-0.735 0.5325,-1.185 -0.0225,-0.0825 -0.195,-0.105 -0.2775,-0.045 -0.5175,0.69 -0.9525,1.0725 -1.575,1.0725 -0.555,0 -1.17,-0.345 -1.17,-1.5675 0,-1.3875 1.0125,-2.9325 2.295,-2.9325 0.6975,0 0.9825,0.33 0.915,1.095 0.03,0.0825 0.2325,0.0825 0.285,0 0.105,-0.3975 0.2025,-0.7875 0.3675,-1.1625 -0.225,-0.09 -0.75,-0.2775 -1.5,-0.2775 -1.1325,0 -1.95,0.4425 -2.43,0.87 -0.5625,0.5025 -1.065,1.3725 -1.0725,2.3475 z"/>
    <use x="49.412721" y="82.6789" xlink:href="#path50"/>
    <use x="53.855417" y="82.932025" xlink:href="#path52"/>
    <use x="58.832223" y="82.932025" xlink:href="#path52"/>
    <use x="63.62903" y="82.6789" xlink:href="#path50"/>
    <path id="path58" style="" d="m 68.1786,82.6789 c -0.1125,0.365625 -0.225,0.6975 -0.264375,0.81 -0.09562,0.264375 -0.185625,0.3375 -0.444375,0.39375 l -0.129375,0.02813 c -0.0675,0.03937 -0.06188,0.163125 -0.01125,0.196875 0.253125,-0.01125 0.410625,-0.01688 0.646875,-0.01688 0.21375,0 0.405,0.0056 0.70875,0.01688 0.06188,-0.03938 0.05625,-0.14625 0.02813,-0.196875 l -0.16875,-0.02813 c -0.286875,-0.045 -0.28125,-0.118125 -0.23625,-0.399375 0.01687,-0.10125 0.106875,-0.43875 0.219375,-0.804375 l 0.331875,-1.096875 c 0.09,-0.30375 0.1125,-0.37125 0.140625,-0.43875 0.07875,0.1575 0.25875,0.590625 0.365625,0.838125 l 0.601875,1.366875 c 0.1575,0.354375 0.309375,0.7875 0.320625,0.7875 0.14625,0 0.309375,-0.0225 0.354375,-0.06188 0.05063,-0.185625 0.135,-0.5175 0.264375,-0.939375 L 71.31735,81.79015 c 0.1125,-0.365625 0.230625,-0.6975 0.27,-0.81 0.10125,-0.275625 0.19125,-0.343125 0.444375,-0.39375 l 0.135,-0.02813 c 0.05062,-0.03937 0.05625,-0.163125 0.01125,-0.196875 -0.25875,0.01125 -0.410625,0.01687 -0.6525,0.01687 -0.21375,0 -0.399375,-0.0056 -0.6975,-0.01687 -0.07312,0.03937 -0.09,0.14625 -0.03937,0.196875 l 0.16875,0.0225 c 0.286875,0.03937 0.2925,0.12375 0.23625,0.405 -0.0225,0.10125 -0.1125,0.43875 -0.219375,0.804375 l -0.241875,0.81 c -0.03937,0.129375 -0.09,0.286875 -0.129375,0.34875 -0.06188,-0.118125 -0.1575,-0.315 -0.354375,-0.75375 l -0.264375,-0.585 c -0.264375,-0.590625 -0.466875,-1.035 -0.43875,-1.24875 -0.12375,0.01125 -0.309375,0.01687 -0.45,0.01687 -0.21375,0 -0.41625,-0.0056 -0.70875,-0.01687 -0.0675,0.03375 -0.09,0.163125 -0.03937,0.196875 l 0.1575,0.0225 c 0.286875,0.03937 0.275625,0.151875 0.135,0.6075 L 68.1786,82.6789 Z"/>
  </g>
  <g id="flowRoot4150" style="fill:#000000;fill-opacity:1;stroke:none;stroke-width:1px;stroke-linecap:butt;stroke-linejoin:miter;stroke-opacity:1" transform="matrix(0.50053315,0,0,0.5,-0.3191755,2.829137)">
    <path id="path61" style="" d="m 18.529805,172.64281 c 0,-1.395 0.09,-1.515 0.765,-1.62 l 0.39,-0.06 c 0.12,-0.09 0.12,-0.435 0,-0.525 -0.75,0.03 -1.5,0.045 -2.22,0.045 -0.72,0 -1.47,-0.015 -2.25,-0.045 -0.18,0.09 -0.18,0.435 -0.03,0.525 l 0.435,0.06 c 0.675,0.09 0.765,0.225 0.765,1.62 l 0,5.58 c 0,1.395 -0.09,1.515 -0.765,1.605 l -0.57,0.075 c -0.12,0.09 -0.09,0.435 0.045,0.525 0.93,-0.03 1.68,-0.045 2.37,-0.045 l 2.01,0 c 1.23,0 2.67,0.015 3.465,0.045 0.21,-0.405 0.57,-1.65 0.645,-2.43 -0.105,-0.18 -0.45,-0.24 -0.57,-0.09 -0.885,1.74 -1.305,1.785 -2.67,1.785 -1.095,0 -1.365,-0.12 -1.56,-0.375 -0.195,-0.24 -0.255,-0.72 -0.255,-1.425 l 0,-5.25 z"/>
    <use x="27.288867" y="180.59281" xlink:href="#path63"/>
    <use x="35.413242" y="174.17281" xlink:href="#path65"/>
    <path id="path67" style="" d="m 43.108477,176.34781 c 0.075,-1.545 -0.66,-2.175 -1.92,-2.175 -1.065,0 -2.01,0.51 -2.52,0.915 -0.36,0.285 -0.72,0.765 -0.72,1.155 0,0.21 0.09,0.375 0.345,0.375 0.27,0 0.855,-0.18 1.08,-0.345 0.135,-0.105 0.225,-0.24 0.255,-0.48 0.105,-0.645 0.42,-0.855 0.78,-0.855 0.645,0 0.87,0.72 0.87,1.29 0,0.18 -0.015,0.345 -0.03,0.51 -0.015,0.12 -0.09,0.225 -0.36,0.3 -0.42,0.12 -0.84,0.24 -1.41,0.42 -1.095,0.33 -1.56,0.795 -1.56,1.56 0,1.05 0.81,1.575 1.68,1.575 0.555,0 1.005,-0.285 1.275,-0.48 0.15,-0.105 0.24,-0.165 0.315,-0.165 0.075,0 0.135,0.03 0.24,0.12 0.405,0.345 0.735,0.525 1.26,0.525 0.855,0 1.56,-0.57 1.74,-0.81 0.045,-0.135 -0.045,-0.315 -0.18,-0.345 -0.24,0.135 -0.39,0.18 -0.57,0.18 -0.3,0 -0.735,-0.27 -0.675,-1.29 l 0.105,-1.98 z m -1.935,2.535 c -0.015,0.465 -0.105,0.735 -0.57,0.735 -0.42,0 -0.765,-0.42 -0.765,-0.9 0,-0.705 0.585,-0.96 1.26,-1.05 0.105,-0.015 0.12,0.03 0.105,0.27 l -0.03,0.945 z"/>
    <path id="path69" style="" d="m 45.228867,178.64281 c 0,1.05 -0.06,1.185 -0.555,1.23 l -0.285,0.03 c -0.12,0.09 -0.12,0.435 0.015,0.525 0.525,-0.03 1.155,-0.045 1.8,-0.045 0.675,0 1.305,0.015 1.8,0.045 0.135,-0.09 0.135,-0.435 0.015,-0.525 l -0.255,-0.03 c -0.525,-0.06 -0.585,-0.18 -0.585,-1.23 l 0,-6.69 c 0,-0.945 0.015,-1.575 0.045,-2.19 -0.06,-0.075 -0.165,-0.105 -0.255,-0.105 -0.75,0.33 -1.65,0.69 -2.295,0.84 -0.105,0.09 -0.105,0.36 0,0.45 l 0.255,0.15 c 0.3,0.18 0.3,0.345 0.3,0.945 l 0,6.6 z"/>
    <path id="path71" style="" d="m 56.712539,176.99281 c 0.525,0 0.645,0.03 0.72,0.27 l 0.405,1.29 c 0.18,0.555 0.285,0.915 0.285,1.02 0,0.09 -0.06,0.195 -0.405,0.255 l -0.48,0.075 c -0.165,0.12 -0.135,0.435 0.03,0.525 0.69,-0.03 1.275,-0.045 2.025,-0.045 0.78,0 1.59,0.015 2.31,0.045 0.135,-0.09 0.105,-0.45 0.015,-0.525 l -0.57,-0.09 c -0.555,-0.09 -0.69,-0.435 -1.005,-1.335 l -2.04,-5.88 c -0.375,-1.065 -0.555,-1.62 -0.675,-2.055 -0.06,-0.225 -0.15,-0.3 -0.345,-0.3 -0.03,0 -0.585,0.735 -1.305,0.9 0.045,0.435 -0.24,0.96 -0.585,1.905 l -1.35,3.66 c -0.405,1.08 -0.675,1.8 -0.93,2.4 -0.255,0.585 -0.555,0.705 -0.915,0.75 l -0.405,0.045 c -0.105,0.12 -0.12,0.435 0.045,0.525 0.69,0 1.035,-0.045 1.545,-0.045 0.63,0.015 1.23,0.015 1.755,0.045 0.15,-0.075 0.12,-0.42 0.03,-0.525 l -0.45,-0.075 c -0.42,-0.075 -0.54,-0.165 -0.54,-0.255 0,-0.12 0.015,-0.24 0.105,-0.54 l 0.555,-1.74 c 0.09,-0.285 0.135,-0.3 0.495,-0.3 l 1.68,0 z m -1.38,-0.795 c -0.375,0 -0.45,-0.045 -0.315,-0.45 l 0.375,-1.125 c 0.225,-0.69 0.465,-1.32 0.615,-1.65 0.135,0.315 0.33,0.93 0.54,1.575 l 0.39,1.215 c 0.12,0.39 0.045,0.435 -0.3,0.435 l -1.305,0 z"/>
    <use x="65.325352" y="174.17281" xlink:href="#path65"/>
    <path id="path75" style="" d="m 72.015586,175.19281 c 0.15,-0.09 0.195,-0.36 0.195,-0.525 0,-0.135 -0.045,-0.225 -0.12,-0.285 l -1.335,0 c -0.27,0 -0.285,-0.015 -0.285,-0.3 l 0,-1.125 c -0.075,-0.12 -0.345,-0.135 -0.45,-0.075 -0.465,0.66 -0.84,0.975 -1.11,1.17 -0.36,0.24 -0.78,0.51 -1.245,0.675 -0.12,0.105 -0.075,0.405 0.09,0.465 l 0.465,0 c 0.27,0 0.285,0.03 0.285,0.345 l 0,3.345 c 0,0.99 0.435,1.71 1.68,1.71 0.93,0 1.74,-0.42 2.16,-0.87 0.03,-0.18 -0.06,-0.345 -0.21,-0.39 -0.18,0.12 -0.42,0.225 -0.63,0.225 -1.05,0 -1.05,-0.93 -1.05,-1.77 l 0,-2.25 c 0,-0.33 0.015,-0.345 0.21,-0.345 l 1.35,0 z"/>
    <path id="path77" style="" d="m 75.39457,175.88281 c 0,-0.675 0.015,-1.335 0.045,-1.785 -0.06,-0.09 -0.15,-0.135 -0.27,-0.135 -0.45,0.27 -1.515,0.675 -2.22,0.87 -0.105,0.09 -0.105,0.36 0,0.45 l 0.21,0.135 c 0.285,0.18 0.285,0.36 0.285,0.96 l 0,2.265 c 0,1.05 -0.06,1.185 -0.555,1.23 l -0.285,0.03 c -0.12,0.09 -0.12,0.435 0.015,0.525 0.495,-0.03 1.125,-0.045 1.8,-0.045 0.69,0 1.275,0.015 1.8,0.045 0.135,-0.09 0.135,-0.435 0.015,-0.525 l -0.285,-0.03 c -0.495,-0.045 -0.555,-0.18 -0.555,-1.23 l 0,-2.76 z m -0.93,-5.085 c -0.6,0 -1.125,0.435 -1.125,1.095 0,0.615 0.39,1.065 1.05,1.065 0.57,0 1.125,-0.375 1.125,-1.095 0,-0.6 -0.42,-1.065 -1.05,-1.065 z"/>
    <use x="80.286914" y="180.59281" xlink:href="#path63"/>
    <path id="path81" style="" d="m 85.456289,178.64281 c 0,1.05 -0.06,1.17 -0.6,1.23 l -0.24,0.03 c -0.12,0.09 -0.12,0.435 0.015,0.525 0.525,-0.03 1.14,-0.045 1.77,-0.045 0.72,0 1.2,0.015 1.665,0.045 0.135,-0.09 0.135,-0.435 0.015,-0.525 l -0.24,-0.03 c -0.375,-0.045 -0.435,-0.18 -0.435,-1.005 l 0,-2.685 c 0,-0.27 0.03,-0.45 0.12,-0.555 0.12,-0.165 0.42,-0.36 0.84,-0.36 0.75,0 1.05,0.48 1.05,1.065 l 0,2.535 c 0,0.825 -0.06,0.93 -0.405,0.99 l -0.27,0.045 c -0.12,0.09 -0.12,0.435 0.015,0.525 0.435,-0.03 1.02,-0.045 1.62,-0.045 0.72,0 1.35,0.015 1.815,0.045 0.135,-0.09 0.135,-0.435 0.015,-0.525 l -0.24,-0.03 c -0.54,-0.06 -0.6,-0.18 -0.6,-1.23 l 0,-2.58 c 0,-1.035 -0.63,-1.89 -1.875,-1.89 -0.69,0 -1.395,0.405 -1.725,0.6 -0.09,0.045 -0.24,0.12 -0.285,0.12 -0.045,0 -0.075,-0.03 -0.075,-0.12 0,-0.105 0.045,-0.465 0.045,-0.675 -0.06,-0.09 -0.15,-0.135 -0.27,-0.135 -0.435,0.27 -1.515,0.675 -2.22,0.87 -0.105,0.09 -0.105,0.36 0,0.45 l 0.21,0.135 c 0.285,0.18 0.285,0.36 0.285,0.96 l 0,2.265 z"/>
    <path id="path83" style="" d="m 94.408008,180.59281 c 0.72,0 1.215,-0.525 1.215,-1.215 0,-0.645 -0.495,-1.245 -1.215,-1.245 -0.675,0 -1.215,0.54 -1.215,1.245 0,0.735 0.615,1.215 1.215,1.215 z m 0,-3.66 c 0.72,0 1.215,-0.495 1.215,-1.17 0,-0.69 -0.495,-1.29 -1.215,-1.29 -0.675,0 -1.215,0.555 -1.215,1.29 0,0.72 0.615,1.17 1.215,1.17 z"/>
    <path id="path85" style="" d="m 104.95066,171.45781 c 0,-0.495 -0.015,-0.51 0.435,-0.51 l 1.065,0 c 0.825,0 1.395,0.12 1.74,0.375 0.225,0.165 0.33,0.72 0.375,1.095 0.075,0.09 0.33,0.09 0.39,-0.03 -0.045,-0.45 0.06,-1.665 0.225,-2.28 -0.03,-0.06 -0.195,-0.075 -0.27,-0.045 -0.225,0.39 -0.36,0.42 -1.17,0.42 l -6.075,0 c -0.69,0 -1.185,0.015 -1.275,-0.465 -0.045,-0.045 -0.24,-0.03 -0.285,0 -0.105,0.6 -0.329996,1.56 -0.569996,2.235 0.06,0.12 0.27,0.195 0.39,0.105 0.164996,-0.375 0.314996,-0.705 0.674996,-1.035 0.375,-0.345 1.2,-0.375 1.845,-0.375 l 0.825,0 c 0.45,0 0.45,0.015 0.45,0.48 l 0,6.705 c 0,1.575 -0.075,1.8 -0.93,1.875 l -0.54,0.045 c -0.12,0.075 -0.09,0.33 0,0.375 0.96,-0.03 1.485,-0.045 2.085,-0.045 0.6,0 1.11,0.015 1.965,0.045 0.09,-0.045 0.12,-0.315 0.03,-0.375 l -0.48,-0.045 c -0.87,-0.075 -0.9,-0.3 -0.9,-1.875 l 0,-6.675 z"/>
    <use x="112.2709" y="176.54281" xlink:href="#path87"/>
    <use x="116.28316" y="174.26281" xlink:href="#path89"/>
    <use x="122.72215" y="175.10281" xlink:href="#path91"/>
    <path id="path93" style="" d="m 151.05176,175.37281 q 0.03,0.3 -0.03,0.615 -0.06,0.315 -0.15,0.615 -0.225,0.72 -0.555,1.365 -0.09,0.195 -0.255,0.36 -0.165,0.165 -0.33,0.285 -0.255,0.21 -0.525,0.375 -0.255,0.15 -0.495,0.345 -0.195,0.12 -0.45,-0.015 -0.3,-0.12 -0.555,-0.27 -0.255,-0.165 -0.495,-0.375 -0.105,-0.06 -0.195,0 -0.105,0.075 -0.21,0.135 -0.09,0.06 -0.165,0.15 -0.21,0.21 -0.45,0.09 -0.285,-0.165 -0.54,-0.315 -0.24,-0.165 -0.405,-0.435 -0.09,-0.135 -0.255,-0.03 -0.405,0.255 -0.825,0.465 -0.42,0.195 -0.9,0.3 -0.12,0.015 -0.195,0.06 -0.06,0.03 -0.075,0.18 -0.045,0.45 -0.405,0.78 -0.345,0.33 -0.795,0.345 -0.15,0 -0.285,0.045 -0.12,0.045 -0.24,0.165 -0.255,0.3 -0.585,0.33 -0.33,0.03 -0.675,-0.075 -0.18,-0.03 -0.3,-0.03 -0.12,0.015 -0.27,0.105 -0.105,0.045 -0.225,0.075 -0.12,0.03 -0.225,0 -0.21,-0.015 -0.42,-0.075 -0.21,-0.045 -0.42,-0.09 -0.15,-0.03 -0.24,0.015 -0.21,0.12 -0.45,0.135 -0.225,0.03 -0.45,-0.045 -0.225,-0.075 -0.405,-0.225 -0.18,-0.15 -0.285,-0.36 -0.03,-0.075 -0.09,-0.15 -0.045,-0.09 -0.09,-0.165 -0.03,0.015 -0.03,0.09 -0.21,0.03 -0.39,0.09 -0.165,0.045 -0.375,0.045 -0.21,0.015 -0.36,-0.12 -0.15,-0.15 -0.21,-0.33 -0.075,-0.18 -0.105,-0.39 -0.015,-0.21 -0.06,-0.435 -0.18,0 -0.36,-0.06 -0.165,-0.075 -0.285,-0.27 -0.09,-0.15 -0.15,-0.345 -0.045,-0.195 -0.105,-0.42 -0.045,0 -0.15,-0.03 -0.105,-0.03 -0.225,-0.045 -0.495,-0.075 -0.495,-0.555 0,-0.165 -0.165,-0.225 -0.225,-0.09 -0.45,-0.165 -0.225,-0.075 -0.435,-0.165 -0.15,-0.06 -0.21,-0.015 -0.06,0.045 -0.12,0.165 -0.165,0.435 -0.36,0.9 -0.18,0.465 -0.39,0.9 -0.09,0.27 -0.225,0.555 -0.12,0.285 -0.45,0.255 -0.45,-0.045 -0.855,-0.21 -0.39,-0.165 -0.795,-0.33 -0.06,-0.03 -0.105,-0.075 -0.045,-0.045 -0.09,-0.09 -0.45,-0.63 -0.75,-1.32 -0.3,-0.705 -0.42,-1.485 -0.12,-0.57 0,-1.11 0.135,-0.54 0.33,-1.065 0.435,-1.17 1.215,-1.995 0.795,-0.84 1.86,-1.47 0.345,-0.21 0.705,-0.39 0.36,-0.195 0.705,-0.39 0.075,-0.03 0.165,-0.015 0.09,0.015 0.15,0.045 0.45,0.21 0.885,0.435 0.45,0.21 0.9,0.42 0.18,0.075 0.315,0.21 0.135,0.12 0.195,0.3 0.03,0.135 0.135,0.255 0.12,0.105 0.255,0.18 0.135,0.075 0.285,0.12 0.15,0.045 0.27,0.015 0.06,-0.03 0.09,-0.045 0.045,-0.015 0.075,-0.06 0.885,-0.84 1.98,-0.42 0.39,0.135 0.705,0.06 0.33,-0.075 0.66,-0.24 0.27,-0.12 0.54,0.075 0.225,0.15 0.45,0.3 0.24,0.135 0.495,0.27 0.03,0.015 0.12,0.015 0.255,-0.03 0.45,0.075 0.195,0.09 0.405,0.255 0.33,0.3 0.69,0.555 0.36,0.24 0.72,0.495 0.12,0.075 0.195,0.075 0.09,-0.015 0.18,-0.165 0.09,-0.15 0.225,-0.255 0.15,-0.12 0.285,-0.21 0.765,-0.54 1.53,-1.065 0.78,-0.525 1.56,-1.065 0.135,-0.09 0.24,-0.105 0.12,-0.03 0.27,0.075 0.63,0.39 1.215,0.81 0.585,0.405 1.065,0.96 0.63,0.765 1.005,1.62 0.39,0.84 0.51,1.845 z m -18.255,-0.18 q 0.255,-0.54 0.51,-1.065 0.27,-0.525 0.345,-1.14 0.075,-0.39 0.15,-0.78 0.09,-0.39 0.18,-0.795 -0.03,-0.045 -0.06,-0.09 -0.015,-0.06 -0.06,-0.12 -0.345,-0.27 -0.585,-0.18 -0.225,0.075 -0.3,0.525 0,0.03 0,0.075 0,0.045 -0.03,0.075 -0.06,0.21 -0.12,0.435 -0.045,0.21 -0.12,0.405 -0.12,0.405 -0.255,0.81 -0.135,0.39 -0.255,0.78 -0.105,0.345 -0.195,0.705 -0.075,0.36 -0.195,0.72 -0.15,0.39 0.075,0.525 0.3,0.18 0.54,-0.18 0.105,-0.165 0.18,-0.345 0.09,-0.195 0.195,-0.36 z m 1.14,1.905 q 0.045,-0.15 0,-0.27 -0.03,-0.375 -0.375,-0.405 -0.27,-0.03 -0.375,0.12 -0.105,0.135 -0.135,0.48 0.03,0.075 0.015,0.18 0,0.105 0.045,0.165 0.285,0.21 0.6,0.105 0.165,-0.03 0.195,-0.135 0.03,-0.12 0.03,-0.24 z m 0.33,1.38 q 0.195,0.06 0.39,0.045 0.21,-0.03 0.255,-0.12 0.15,-0.255 0.24,-0.495 -0.015,0 -0.03,-0.015 -0.015,-0.03 -0.03,-0.03 l 0,-0.18 q -0.03,-0.225 -0.195,-0.36 -0.15,-0.15 -0.375,-0.135 -0.21,0 -0.33,0.15 -0.12,0.135 -0.135,0.39 0,0.09 -0.015,0.18 0,0.075 0,0.18 -0.015,0.24 0.225,0.39 z m 1.155,1.395 q 0.18,0.015 0.315,-0.12 0.15,-0.135 0.165,-0.33 0,-0.09 -0.06,-0.195 -0.06,-0.12 -0.15,-0.21 -0.075,-0.09 -0.18,-0.15 -0.09,-0.06 -0.18,-0.06 -0.195,0 -0.33,0.135 -0.12,0.135 -0.12,0.375 0,0.24 0.135,0.405 0.15,0.15 0.405,0.15 z m 6.645,-0.555 q 0.045,-0.165 0.03,-0.345 0,-0.18 -0.075,-0.315 -0.21,-0.405 -0.465,-0.765 -0.24,-0.375 -0.42,-0.78 -0.345,-0.72 -0.66,-1.44 -0.3,-0.72 -0.63,-1.47 -0.015,-0.03 -0.06,-0.075 -0.045,-0.06 -0.09,-0.06 -0.195,-0.045 -0.39,-0.09 -0.195,-0.045 -0.405,-0.075 -0.09,-0.015 -0.195,-0.015 -0.09,0 -0.18,-0.03 -0.09,-0.03 -0.165,0 -0.06,0.015 -0.135,0.075 -0.315,0.285 -0.69,0.39 -0.36,0.09 -0.765,-0.045 -0.165,-0.075 -0.33,-0.165 -0.15,-0.105 -0.33,-0.18 -0.135,-0.075 -0.24,-0.165 -0.105,-0.105 -0.105,-0.27 -0.015,-0.195 0.09,-0.27 0.12,-0.09 0.285,-0.15 0.69,-0.21 1.11,-0.765 0.15,-0.21 0.345,-0.315 0.21,-0.105 0.48,-0.06 0.15,0.015 0.3,0 0.15,-0.03 0.315,-0.06 0.3,-0.03 0.57,-0.135 0.285,-0.105 0.585,-0.255 -0.3,-0.105 -0.555,-0.27 -0.165,-0.06 -0.375,0 -0.345,0.165 -0.72,0.3 -0.36,0.135 -0.765,0.06 -0.345,-0.075 -0.66,0 -0.3,0.06 -0.63,0.18 -0.165,0.075 -0.315,0.105 -0.15,0.03 -0.345,-0.015 -0.12,-0.03 -0.285,-0.03 -0.15,0 -0.24,0.21 -0.165,0.345 -0.33,0.69 -0.165,0.33 -0.33,0.66 -0.3,0.555 -0.6,1.095 -0.3,0.54 -0.6,1.095 -0.12,0.21 -0.105,0.33 0.015,0.12 0.225,0.255 0.075,0.045 0.165,0.06 0.105,0 0.18,-0.03 0.165,-0.015 0.315,0.045 0.165,0.06 0.255,0.225 0.075,0.12 0.12,0.225 0.06,0.105 0.12,0.24 0.12,0.015 0.255,0.03 0.15,0 0.3,0.075 0.135,0.075 0.285,0.18 0.15,0.105 0.18,0.225 0.09,0.27 0.12,0.57 0.045,0.285 -0.06,0.57 0.27,0.075 0.45,0.255 0.18,0.18 0.315,0.405 0.06,0.09 0.06,0.21 0,0.12 0.015,0.24 0,0.045 -0.015,0.105 0,0.06 0.015,0.09 0.12,0.135 0.24,0.285 0.135,0.15 0.3,0.27 0.09,0.03 0.225,0.015 0.135,0 0.255,0 -0.015,-0.09 -0.015,-0.18 0,-0.105 -0.03,-0.21 -0.015,-0.045 -0.045,-0.105 -0.03,-0.06 -0.03,-0.12 0,-0.045 0.015,-0.12 0.03,-0.075 0.06,-0.105 0.09,-0.03 0.24,0.03 0.045,0.03 0.075,0.075 0.03,0.045 0.06,0.105 0.18,0.195 0.405,0.345 0.225,0.15 0.51,0.18 0.345,0.045 0.405,-0.285 0.03,-0.165 -0.03,-0.285 -0.045,-0.135 -0.15,-0.27 -0.075,-0.105 -0.06,-0.165 0.015,-0.06 0.09,-0.15 0.09,-0.09 0.165,-0.045 0.075,0.03 0.15,0.09 0.18,0.195 0.36,0.375 0.195,0.18 0.39,0.39 0.18,0.165 0.39,0.21 0.21,0.03 0.42,-0.09 0.12,-0.075 0.15,-0.15 0.03,-0.075 -0.075,-0.195 -0.3,-0.33 -0.39,-0.72 -0.075,-0.405 -0.075,-0.81 0,-0.075 0.06,-0.105 0.06,-0.045 0.105,-0.12 0.03,0.075 0.06,0.135 0.045,0.06 0.045,0.09 -0.03,0.345 0.075,0.63 0.12,0.27 0.33,0.495 0.12,0.135 0.27,0.24 0.15,0.105 0.3,0.12 0.18,0.015 0.33,-0.105 0.15,-0.135 0.195,-0.3 z m 2.955,-2.595 q 0.24,-0.21 0.285,-0.345 0.045,-0.15 -0.06,-0.42 -0.045,-0.09 -0.075,-0.165 -0.03,-0.09 -0.06,-0.165 -0.285,-0.465 -0.57,-0.93 -0.27,-0.465 -0.555,-0.945 -0.045,-0.105 -0.135,-0.195 -0.075,-0.09 -0.15,-0.18 -0.105,-0.12 -0.315,-0.045 -0.135,0.03 -0.3,0.03 -0.15,0 -0.27,-0.03 -0.48,-0.21 -0.945,-0.435 -0.45,-0.24 -0.825,-0.6 -0.21,-0.21 -0.42,-0.27 -0.27,-0.09 -0.57,-0.06 -0.345,0.03 -0.69,0.105 -0.33,0.075 -0.675,0.06 -0.435,-0.015 -0.78,0.135 -0.33,0.15 -0.585,0.51 -0.105,0.165 -0.27,0.255 -0.15,0.075 -0.33,0.135 -0.12,0.015 -0.24,0.045 -0.105,0.015 -0.21,0.045 -0.075,0.045 -0.12,0.12 -0.045,0.06 -0.06,0.09 0,0.075 0.045,0.135 0.045,0.06 0.075,0.12 0.06,0.03 0.12,0.03 0.06,0 0.135,0 0.405,0 0.735,-0.15 0.345,-0.165 0.66,-0.42 0.15,-0.105 0.285,-0.105 0.09,0 0.195,0.045 0.105,0.045 0.195,0.03 0.39,-0.06 0.78,-0.12 0.39,-0.075 0.78,-0.12 0.03,-0.015 0.09,0 0.075,0 0.105,0.03 0.015,0.03 0.015,0.09 0,0.045 0,0.12 0,0.105 -0.015,0.21 -0.015,0.105 0.015,0.21 0.03,0.135 0.09,0.27 0.075,0.12 0.12,0.285 0.15,0.465 0.555,0.735 0.075,0.06 0.12,0.12 0.06,0.045 0.135,0.12 0.3,0.3 0.6,0.54 0.315,0.24 0.78,0.315 0.045,0.015 0.12,0.06 0.09,0.03 0.165,0.06 l 0,0.075 q -0.075,0.03 -0.135,0.06 -0.045,0.015 -0.105,0.045 -0.09,0.075 -0.195,0.135 -0.09,0.045 -0.12,0.12 -0.12,0.315 -0.18,0.66 -0.045,0.33 0.075,0.675 0.06,0.225 0.255,0.33 0.21,0.09 0.42,0.015 0.375,-0.18 0.705,-0.39 0.33,-0.21 0.63,-0.495 0.18,-0.15 0.345,-0.3 0.165,-0.15 0.33,-0.285 z m 2.04,1.02 q 0.12,-0.06 0.195,-0.165 0.09,-0.105 0.075,-0.315 0,-0.015 -0.015,-0.075 -0.015,-0.075 -0.06,-0.12 -0.165,-0.405 -0.36,-0.81 -0.18,-0.405 -0.39,-0.78 -0.42,-0.75 -0.855,-1.47 -0.435,-0.72 -0.87,-1.44 -0.12,-0.21 -0.27,-0.255 -0.135,-0.045 -0.345,0.075 -0.075,0.03 -0.135,0.075 -0.06,0.03 -0.105,0.06 -0.225,0.12 -0.255,0.24 -0.015,0.12 0.135,0.3 0.195,0.21 0.39,0.42 0.195,0.21 0.345,0.435 0.285,0.465 0.525,0.93 0.24,0.45 0.54,0.915 0.255,0.375 0.405,0.795 0.15,0.405 0.255,0.84 0.075,0.39 0.21,0.45 0.15,0.06 0.495,-0.06 0.06,-0.015 0.09,-0.045 z"/>
    <use x="154.3916" y="180.59281" xlink:href="#path95"/>
    <path id="path97" style="" d="m 161.9366,178.10281 c 0,1.59 -0.03,1.8 -0.915,1.905 l -0.375,0.045 c -0.09,0.09 -0.06,0.33 0.03,0.375 0.75,-0.03 1.26,-0.045 1.89,-0.045 0.6,0 1.11,0.015 1.86,0.045 0.09,-0.045 0.12,-0.315 0.03,-0.375 l -0.375,-0.045 c -0.885,-0.105 -0.915,-0.315 -0.915,-1.905 l 0,-5.34 c 0,-1.59 0.03,-1.845 0.915,-1.92 l 0.375,-0.03 c 0.09,-0.06 0.06,-0.33 -0.03,-0.375 -0.75,0.03 -1.26,0.045 -1.86,0.045 -0.63,0 -1.14,-0.015 -1.89,-0.045 -0.09,0.045 -0.12,0.315 -0.03,0.375 l 0.375,0.03 c 0.885,0.075 0.915,0.33 0.915,1.92 l 0,5.34 z"/>
    <path id="path99" style="" d="m 169.39207,175.10281 c 0.165,-0.06 0.27,-0.48 0.105,-0.63 l -1.71,0 c -0.255,0 -0.255,-0.015 -0.255,-0.42 l 0,-0.435 c 0,-0.75 0.06,-1.845 0.33,-2.535 0.225,-0.54 0.6,-0.825 1.065,-0.825 0.495,0 0.915,0.33 1.2,0.66 0.105,0.12 0.195,0.18 0.36,0.18 0.285,0 0.57,-0.24 0.57,-0.54 0,-0.54 -0.675,-0.9 -1.47,-0.9 -1.485,0 -2.325,1.05 -2.7,1.905 -0.36,0.84 -0.465,1.77 -0.465,2.64 0,0.15 -0.105,0.24 -0.225,0.3 l -0.645,0.315 c -0.06,0.09 -0.045,0.225 0.045,0.285 l 0.525,0 c 0.3,0 0.3,0.03 0.3,0.435 l 0,3.165 c 0,1.08 -0.015,1.23 -0.57,1.305 l -0.345,0.045 c -0.105,0.075 -0.075,0.33 0.03,0.375 0.45,-0.03 0.9,-0.045 1.44,-0.045 0.525,0 0.96,0.015 1.635,0.045 0.105,-0.045 0.135,-0.3 0.03,-0.375 l -0.54,-0.045 c -0.54,-0.045 -0.57,-0.225 -0.57,-1.305 l 0,-3.165 c 0,-0.405 0,-0.435 0.255,-0.435 l 1.605,0 z"/>
    <use x="16.192852" y="198.36781" xlink:href="#path101"/>
    <use x="25.367461" y="188.51281" xlink:href="#path103"/>
    <use x="31.327383" y="189.92281" xlink:href="#path105"/>
    <use x="41.643164" y="196.77781" xlink:href="#path107"/>
    <use x="49.755352" y="192.17281" xlink:href="#path109"/>
    <use x="56.839805" y="188.51281" xlink:href="#path89"/>
    <use x="61.673789" y="188.51281" xlink:href="#path89"/>
    <path id="path115" style="" d="m 65.412773,192.80281 c -0.48,0 -0.735,0.33 -0.735,0.675 0,0.18 0.06,0.33 0.255,0.435 0.135,0.075 0.855,0.24 0.855,0.87 0,0.78 -0.765,1.155 -1.23,1.305 -0.09,0.075 -0.045,0.315 0.09,0.36 1.05,-0.315 1.95,-0.99 1.95,-2.175 0,-0.99 -0.66,-1.47 -1.185,-1.47 z"/>
    <use x="77.577773" y="185.85781" xlink:href="#path117"/>
    <use x="80.334258" y="192.95281" xlink:href="#path119"/>
    <use x="85.521445" y="188.51281" xlink:href="#path89"/>
    <use x="91.73543" y="188.51281" xlink:href="#path123"/>
    <use x="95.341289" y="192.17281" xlink:href="#path109"/>
    <use x="101.10574" y="192.95281" xlink:href="#path127"/>
    <use x="110.77113" y="185.85781" xlink:href="#path117"/>
    <use x="120.20262" y="189.35281" xlink:href="#path91"/>
    <use x="121.72723" y="192.95281" xlink:href="#path133"/>
    <use x="129.6116" y="192.95281" xlink:href="#path119"/>
    <use x="134.79879" y="188.51281" xlink:href="#path89"/>
    <use x="144.76277" y="188.51281" xlink:href="#path123"/>
    <use x="148.36863" y="192.17281" xlink:href="#path109"/>
    <use x="154.13309" y="192.95281" xlink:href="#path127"/>
    <use x="163.79848" y="185.85781" xlink:href="#path117"/>
    <use x="166.95996" y="194.84281" xlink:href="#path95"/>
    <path id="path149" style="" d="m 23.742539,202.58344 q -0.54,0.9 -0.975,1.62 -0.18,0.315 -0.375,0.615 -0.18,0.3 -0.33,0.54 -0.135,0.24 -0.24,0.405 -0.105,0.165 -0.135,0.195 0.06,-0.015 0.36,-0.03 0.315,-0.015 0.66,-0.045 0.405,-0.03 0.915,-0.045 l -5.115,2.925 1.62,0.75 -5.265,1.86 2.07,-1.725 -0.765,-0.54 3.735,-5.925 -0.465,2.22 4.305,-2.82 z m -2.91,7.065 q 0.12,0.825 -0.045,1.635 -0.15,0.795 -0.555,1.5 -0.39,0.705 -1.005,1.26 -0.615,0.555 -1.425,0.885 -0.96,0.405 -1.95,0.375 -0.975,-0.015 -1.86,-0.39 -0.87,-0.36 -1.575,-1.065 -0.705,-0.69 -1.08,-1.65 -0.405,-0.945 -0.39,-1.935 0.03,-0.99 0.39,-1.86 0.375,-0.885 1.05,-1.59 0.69,-0.705 1.635,-1.095 0.96,-0.375 1.92,-0.345 0.975,0.015 1.86,0.345 l -1.32,2.145 q -0.225,-0.57 -0.3,-1.11 -0.075,-0.555 0,-0.99 -0.15,0.75 -0.51,1.215 -0.36,0.45 -0.795,0.57 -0.435,0.105 -0.885,-0.135 -0.435,-0.24 -0.75,-0.885 0.315,0.645 0.255,1.275 -0.045,0.615 -0.375,1.08 -0.33,0.465 -0.87,0.69 -0.54,0.225 -1.185,0.075 0.645,0.15 1.065,0.525 0.42,0.375 0.57,0.87 0.15,0.48 0,1.02 -0.15,0.54 -0.63,1.02 0.525,-0.315 1.02,-0.3 0.51,0 0.87,0.285 0.375,0.27 0.57,0.78 0.195,0.51 0.105,1.2 0.09,-0.69 0.465,-1.11 0.375,-0.405 0.885,-0.495 0.51,-0.105 1.05,0.12 0.555,0.21 0.99,0.795 -0.435,-0.585 -0.45,-1.125 -0.015,-0.54 0.285,-0.915 0.3,-0.39 0.87,-0.555 0.585,-0.18 1.335,0 -0.48,-0.105 -0.96,-0.405 -0.465,-0.315 -0.9,-0.795 l 2.205,-0.765 0.42,-0.15 z m -0.315,-1.11 q 0.135,0.33 0.24,0.675 l -0.33,-0.135 -0.84,-0.39 0.795,-0.435 q 0.03,0.075 0.06,0.15 0.045,0.06 0.075,0.135 z"/>
    <path id="path151" style="" d="m 25.866211,209.57344 c 0.51,0 0.84,-0.345 0.84,-0.825 0,-0.48 -0.33,-0.885 -0.84,-0.885 -0.48,0 -0.84,0.375 -0.84,0.885 0,0.51 0.405,0.825 0.84,0.825 z m 0,4.41 c 0.51,0 0.84,-0.345 0.84,-0.825 0,-0.48 -0.33,-0.885 -0.84,-0.885 -0.48,0 -0.84,0.375 -0.84,0.885 0,0.51 0.405,0.825 0.84,0.825 z"/>
    <path id="path153" style="" d="m 38.046211,211.23844 c 0,-1.425 -0.93,-2.295 -1.875,-2.88 l -1.2,-0.75 c -0.555,-0.345 -1.275,-0.975 -1.275,-1.845 0,-0.69 0.315,-1.665 1.785,-1.665 1.44,0 1.845,0.975 2.04,1.695 0.075,0.09 0.315,0.045 0.375,-0.045 0,-0.63 -0.135,-1.47 -0.27,-1.83 -0.12,0 -0.33,-0.03 -0.525,-0.09 -0.39,-0.105 -0.93,-0.195 -1.395,-0.195 -1.95,0 -3.06,1.155 -3.06,2.58 0,1.23 0.87,2.085 1.62,2.58 l 1.425,0.93 c 1.095,0.705 1.23,1.44 1.23,2.1 0,0.9 -0.615,1.725 -1.875,1.725 -1.74,0 -2.355,-1.47 -2.58,-2.235 -0.06,-0.09 -0.285,-0.06 -0.36,0.045 0.03,0.705 0.225,1.77 0.405,2.1 0.285,0.165 1.08,0.555 2.34,0.555 1.95,0 3.195,-1.125 3.195,-2.775 z"/>
    <use x="42.359648" y="207.65344" xlink:href="#path103"/>
    <use x="55.35457" y="212.09344" xlink:href="#path157"/>
    <use x="62.466211" y="209.93344" xlink:href="#path87"/>
    <use x="76.858477" y="212.09344" xlink:href="#path157"/>
    <use x="83.970117" y="209.93344" xlink:href="#path87"/>
    <use x="86.662383" y="212.09344" xlink:href="#path165"/>
    <use x="98.143242" y="212.09344" xlink:href="#path133"/>
    <use x="106.32762" y="211.31344" xlink:href="#path109"/>
    <path id="path171" style="" d="m 113.11207,212.39344 c 0.225,0.555 0.45,1.14 0.57,1.56 0.045,0.045 0.12,0.06 0.195,0.06 0.06,0 0.12,-0.015 0.15,-0.06 0.195,-0.51 0.345,-0.855 0.495,-1.23 0.24,-0.615 1.17,-2.79 1.38,-3.195 0.435,-0.84 0.57,-1.23 1.095,-1.305 l 0.225,-0.03 c 0.09,-0.09 0.075,-0.315 -0.03,-0.375 -0.42,0.03 -0.675,0.045 -1.05,0.045 -0.285,0 -0.66,-0.015 -1.125,-0.045 -0.105,0.06 -0.12,0.27 -0.03,0.375 l 0.345,0.045 c 0.18,0.03 0.27,0.09 0.27,0.225 0,0.09 -0.06,0.405 -0.27,0.93 -0.15,0.39 -0.66,1.695 -0.855,2.205 -0.12,0.315 -0.225,0.525 -0.285,0.57 -0.045,-0.045 -0.105,-0.18 -0.24,-0.48 -0.345,-0.78 -0.78,-1.83 -1.125,-2.865 -0.15,-0.45 -0.135,-0.525 0.33,-0.6 l 0.18,-0.03 c 0.105,-0.075 0.09,-0.315 -0.015,-0.375 -0.51,0.03 -0.81,0.045 -1.215,0.045 -0.51,0 -1.035,-0.015 -1.41,-0.045 -0.12,0.045 -0.135,0.255 -0.045,0.375 l 0.3,0.045 c 0.54,0.075 0.675,0.555 0.9,1.11 l 1.26,3.045 z"/>
    <use x="121.73379" y="209.93344" xlink:href="#path87"/>
    <use x="130.87605" y="207.65344" xlink:href="#path123"/>
    <use x="136.43191" y="207.65344" xlink:href="#path103"/>
    <use x="149.42684" y="212.09344" xlink:href="#path157"/>
    <use x="156.53848" y="209.93344" xlink:href="#path87"/>
    <use x="165.90574" y="208.49344" xlink:href="#path91"/>
    <use x="169.83035" y="207.65344" xlink:href="#path103"/>
    <use x="36.408281" y="221.90344" xlink:href="#path123"/>
    <use x="41.964141" y="221.90344" xlink:href="#path103"/>
    <use x="47.969062" y="219.24844" xlink:href="#path191"/>
    <use x="51.660469" y="219.24844" xlink:href="#path191"/>
    <use x="57.646875" y="224.18344" xlink:href="#path87"/>
    <use x="63.039141" y="221.90344" xlink:href="#path123"/>
    <use x="69.27" y="222.74344" xlink:href="#path91"/>
    <use x="76.944609" y="221.90344" xlink:href="#path103"/>
    <use x="81.989531" y="226.34344" xlink:href="#path165"/>
    <use x="93.170391" y="231.75844" xlink:href="#path101"/>
    <use x="102.345" y="221.90344" xlink:href="#path103"/>
    <use x="108.30492" y="223.31344" xlink:href="#path105"/>
    <use x="115.0657" y="226.34344" xlink:href="#path127"/>
    <use x="128.68617" y="219.24844" xlink:href="#path117"/>
    <use x="134.69766" y="224.18344" xlink:href="#path87"/>
    <path id="path217" style="" d="m 137.04492,226.71844 c 0,0.78 -0.015,1.065 -0.03,1.275 0.03,0.06 0.09,0.09 0.15,0.09 0.03,0 0.045,0 0.06,-0.015 0.075,-0.105 0.195,-0.225 0.315,-0.225 0.12,0 0.315,0.09 0.63,0.195 0.3,0.09 0.72,0.195 1.275,0.195 2.01,0 3.45,-1.395 3.45,-3.39 0,-1.65 -1.155,-2.94 -2.865,-2.94 -0.735,0 -1.335,0.27 -1.725,0.495 -0.09,0 -0.15,-0.06 -0.15,-0.315 l 0,-2.835 c 0,-0.66 0.03,-1.335 0.06,-1.86 -0.03,-0.06 -0.09,-0.09 -0.15,-0.09 -0.57,0.3 -1.29,0.495 -1.635,0.63 -0.075,0.045 -0.075,0.255 0,0.3 l 0.15,0.09 c 0.45,0.27 0.465,0.36 0.465,1.245 l 0,7.155 z m 1.11,-3.075 c 0,-0.585 0.03,-0.75 0.18,-0.855 0.21,-0.135 0.57,-0.24 1.02,-0.24 1.485,0 2.28,1.2 2.28,2.745 0,1.29 -0.555,2.49 -1.965,2.49 -0.48,0 -0.885,-0.18 -1.14,-0.495 -0.255,-0.315 -0.375,-0.78 -0.375,-1.305 l 0,-2.34 z"/>
    <use x="147.81492" y="222.74344" xlink:href="#path91"/>
    <use x="149.89453" y="228.23344" xlink:href="#path95"/>
    <path id="path223" style="" d="m 55.280859,233.43844 c 0,-0.57 0,-0.6 0.45,-0.6 l 0.915,0 c 0.63,0 1.125,0 1.455,0.09 0.75,0.195 0.93,0.75 1.05,1.425 0.105,0.09 0.315,0.045 0.36,-0.045 -0.03,-0.57 -0.045,-1.29 -0.045,-1.98 -0.195,0.045 -1.065,0.045 -2.025,0.045 l -2.76,0 c -0.6,0 -1.11,-0.015 -1.74,-0.045 -0.09,0.045 -0.12,0.315 -0.03,0.375 l 0.24,0.03 c 0.87,0.105 0.9,0.315 0.9,1.89 l 0,5.4 c 0,1.575 -0.03,1.77 -0.9,1.875 l -0.375,0.045 c -0.09,0.09 -0.06,0.33 0.03,0.375 0.705,-0.03 1.215,-0.045 1.875,-0.045 0.6,0 1.11,0.015 1.995,0.045 0.09,-0.045 0.12,-0.315 0.03,-0.375 l -0.51,-0.045 c -0.885,-0.075 -0.915,-0.3 -0.915,-1.875 l 0,-2.085 c 0,-0.39 0.045,-0.405 0.495,-0.405 l 1.02,0 c 0.57,0 0.945,0.015 1.155,0.075 0.285,0.09 0.405,0.3 0.48,0.57 l 0.15,0.585 c 0.105,0.09 0.33,0.09 0.39,0 0,-0.345 -0.06,-0.915 -0.06,-1.455 0,-0.555 0.06,-1.155 0.06,-1.515 -0.06,-0.09 -0.315,-0.09 -0.39,0 l -0.135,0.6 c -0.09,0.39 -0.21,0.465 -0.375,0.525 -0.18,0.06 -0.66,0.09 -1.275,0.09 l -1.02,0 c -0.45,0 -0.495,0 -0.495,-0.405 l 0,-3.165 z"/>
    <use x="62.353828" y="233.49844" xlink:href="#path191"/>
    <use x="65.085234" y="240.59344" xlink:href="#path119"/>
    <use x="68.757422" y="244.41844" xlink:href="#path107"/>
    <use x="83.244609" y="236.99344" xlink:href="#path91"/>
    <use x="84.769219" y="240.59344" xlink:href="#path133"/>
    <use x="92.653594" y="240.59344" xlink:href="#path119"/>
    <use x="97.840781" y="236.15344" xlink:href="#path89"/>
    <use x="107.80477" y="236.15344" xlink:href="#path123"/>
    <use x="111.41062" y="239.81344" xlink:href="#path109"/>
    <use x="117.17508" y="240.59344" xlink:href="#path127"/>
    <use x="126.84047" y="233.49844" xlink:href="#path117"/>
    <use x="130.00195" y="242.48344" xlink:href="#path95"/>
  </g>
  <g id="text4147" style="fill:#000000;fill-opacity:1;stroke:none;stroke-width:1px;stroke-linecap:butt;stroke-linejoin:miter;stroke-opacity:1">
    <path id="path250" style="" d="m 37.020574,16.079937 c -0.81875,0 -1.575,0.2875 -2.1,0.7625 -0.5125,0.4625 -0.89375,1.15625 -0.89375,1.88125 0,1.3125 0.9375,1.68125 1.75,1.68125 0.21875,0 0.425,-0.04375 0.60625,-0.075 0.1875,-0.03125 0.35625,-0.06875 0.49375,-0.06875 0.2125,-0.38125 0.35,-0.7125 0.40625,-0.88125 -0.01875,-0.05625 -0.0875,-0.06875 -0.15,-0.04375 -0.3,0.49375 -0.69375,0.875 -1.34375,0.875 -0.79375,0 -1.2125,-0.48125 -1.2125,-1.36875 0,-0.825 0.425,-1.55625 0.7375,-1.86875 0.575,-0.5625 1.15625,-0.7 1.6,-0.7 0.64375,0 0.8,0.29375 0.68125,0.8375 0.01875,0.05 0.14375,0.05625 0.16875,0.0062 0.05625,-0.23125 0.18125,-0.59375 0.28125,-0.8375 -0.15625,-0.0625 -0.5375,-0.2 -1.025,-0.2 z"/>
    <use x="39.267352" y="17.754937" xlink:href="#path252"/>
    <use x="41.500164" y="18.011187" xlink:href="#path254"/>
    <path id="path256" style="" d="m 45.549871,17.948687 c -0.06875,-0.13125 -0.21875,-0.19375 -0.31875,-0.19375 -0.3,0 -0.69375,0.175 -1.11875,0.55625 -0.49375,0.44375 -0.83125,1.1875 -0.83125,1.63125 0,0.25 0.13125,0.45 0.375,0.45 0.60625,0 1.075,-0.60625 1.50625,-1.18125 l 0.025,0.0063 -0.21875,0.61875 c -0.0625,0.18125 -0.08125,0.28125 -0.08125,0.35625 0,0.1 0.06875,0.2 0.2,0.2 0.325,0 0.89375,-0.5125 1.0625,-0.85625 -0.0062,-0.05625 -0.0375,-0.08125 -0.09375,-0.08125 -0.19375,0.24375 -0.5875,0.5625 -0.6875,0.5625 -0.05625,0 -0.0625,-0.0625 -0.0375,-0.14375 0.05625,-0.1875 0.35,-1.1875 0.96875,-2.89375 0.1875,-0.51875 0.28125,-0.75625 0.39375,-1.10625 l -0.025,-0.0375 c -0.26875,-0.0063 -0.61875,0.075 -0.7375,0.11875 -0.025,0.025 -0.03125,0.0625 -0.01875,0.0875 l 0.14375,0.1 c 0.0875,0.0625 0.06875,0.16875 -0.05625,0.51875 l -0.45,1.2875 z m -0.33125,-0.0062 c 0.15625,0 0.2375,0.1875 0.1625,0.45 -0.09375,0.33125 -0.275,0.70625 -0.7625,1.20625 -0.43125,0.44375 -0.75,0.55625 -0.84375,0.55625 -0.05625,0 -0.11875,-0.05625 -0.11875,-0.13125 0,-0.08125 0,-0.19375 0.19375,-0.59375 0.19375,-0.39375 0.64375,-0.9875 0.89375,-1.21875 0.1625,-0.15 0.33125,-0.26875 0.475,-0.26875 z"/>
    <use x="46.39743" y="20.167437" xlink:href="#path258"/>
    <path id="path260" style="" d="m 49.912078,18.142437 c 0.08125,-0.04375 0.11875,-0.16875 0.075,-0.23125 l -0.68125,0 0.18125,-0.6125 c -0.05,-0.0625 -0.175,-0.075 -0.2375,-0.0375 l -0.35,0.61875 -0.5,0.0875 c -0.0625,0.025 -0.08125,0.1125 -0.06875,0.175 l 0.4875,0 -0.5875,1.725 c -0.0625,0.1875 -0.0875,0.275 -0.0875,0.35625 0,0.075 0.08125,0.16875 0.16875,0.16875 0.2625,0 0.85,-0.38125 1.2,-0.9 0.0125,-0.075 -0.025,-0.1125 -0.0875,-0.1125 -0.20625,0.2375 -0.61875,0.5625 -0.7125,0.5625 -0.05,0 -0.08125,-0.0375 -0.04375,-0.15625 l 0.5625,-1.64375 0.68125,0 z"/>
    <use x="49.900848" y="20.167437" xlink:href="#path258"/>
    <use x="53.146746" y="17.754937" xlink:href="#path252"/>
    <use x="55.379559" y="18.011187" xlink:href="#path254"/>
  </g>
<defs><path id="path50" d="m 0,0 c 0,0.613125 0.315,1.501875 1.603125,1.501875 0.68625,0 1.254375,-0.34875 1.54125,-0.64125 0.41625,-0.4275 0.691875,-1.074375 0.691875,-1.665 0,-1.215 -0.860625,-1.58625 -1.546875,-1.58625 -0.410625,0 -0.9225,0.12375 -1.389375,0.50625 -0.556875,0.455625 -0.9,1.175625 -0.9,1.884375 z m 2.35125,-2.131875 c 0.39375,0 0.680625,0.27 0.680625,0.928125 0,0.68625 -0.225,1.45125 -0.736875,2.041875 -0.264375,0.30375 -0.545625,0.405 -0.770625,0.405 -0.4725,0 -0.72,-0.399375 -0.72,-0.939375 0,-0.9225 0.495,-1.83375 0.945,-2.19375 0.18,-0.140625 0.388125,-0.241875 0.601875,-0.241875 z"/><path id="path52" d="m 0,0 c -0.208125,0.556875 -0.298125,0.736875 -0.399375,0.8325 -0.0675,0.05625 -0.1575,0.09562 -0.32625,0.12375 l -0.135,0.0225 c -0.05625,0.03375 -0.05625,0.151875 -0.01125,0.196875 0.196875,-0.0056 0.37125,-0.01688 0.61875,-0.01688 0.25875,0 0.500625,0.01125 0.7425,0.01688 0.045,-0.02813 0.05625,-0.14625 0.02813,-0.196875 l -0.27,-0.05062 c -0.118125,-0.0225 -0.140625,-0.07875 -0.135,-0.135 0.0056,-0.1125 0.05062,-0.253125 0.30375,-0.97875 l 0.286875,-0.815625 c 0.140625,-0.39375 0.253125,-0.691875 0.331875,-0.88875 l 0.01125,0 c 0.0225,0.196875 0.0675,0.57375 0.09562,0.961875 l 0.06188,0.826875 c 0.03937,0.50625 0.0675,0.945 0.05625,1.1475 0.05625,0.05625 0.18,0.0675 0.253125,0.0225 0.25875,-0.421875 0.511875,-0.82125 0.79875,-1.231875 l 0.804375,-1.15875 c 0.19125,-0.275625 0.2925,-0.39375 0.4275,-0.568125 l 0.01125,0.01125 c -0.05063,0.174375 -0.08438,0.298125 -0.174375,0.601875 l -0.495,1.625625 c -0.163125,0.52875 -0.225,0.5625 -0.466875,0.601875 l -0.163125,0.02813 c -0.07875,0.0225 -0.08437,0.16875 -0.01125,0.196875 0.275625,-0.01125 0.523125,-0.01688 0.793125,-0.01688 0.27,0 0.556875,0.0056 0.855,0.01688 0.05625,-0.03375 0.07312,-0.163125 0.045,-0.196875 l -0.1575,-0.02813 c -0.286875,-0.05062 -0.264375,-0.140625 -0.140625,-0.601875 l 0.545625,-2.01375 c 0.163125,-0.6075 0.25875,-0.6525 0.495,-0.68625 l 0.1575,-0.0225 c 0.07312,-0.0225 0.09,-0.163125 0.0225,-0.196875 -0.28125,0.01125 -0.5175,0.01687 -0.793125,0.01687 -0.208125,0 -0.421875,-0.0056 -0.545625,-0.01687 -0.03937,0.10125 -0.106875,0.309375 -0.45,0.793125 l -0.6525,0.916875 c -0.225,0.315 -0.365625,0.50625 -0.478125,0.66375 -0.03375,-0.2025 -0.06188,-0.489375 -0.09562,-0.815625 l -0.045,-0.46125 c -0.02813,-0.275625 -0.10125,-0.815625 0.01125,-1.096875 -0.2025,0.01125 -0.320625,0.01687 -0.5175,0.01687 -0.27,0 -0.556875,-0.0056 -0.86625,-0.01687 -0.07875,0.03375 -0.09562,0.163125 -0.045,0.196875 l 0.1575,0.0225 c 0.27,0.03937 0.28125,0.1575 0.1125,0.601875 l -0.6525,1.749375 z"/><path id="path63" d="m 0,0 c 1.845,0 3.45,-1.035 3.45,-3.225 0,-2.115 -1.59,-3.195 -3.36,-3.195 -1.77,0 -3.465,1.185 -3.45,3.33 0.015,2.07 1.575,3.09 3.36,3.09 z m 0,-5.73 c 0.855,0 1.275,1.26 1.29,2.715 0.015,1.35 -0.27,2.325 -1.125,2.325 -0.87,0 -1.365,-1.155 -1.365,-2.73 0,-1.635 0.54,-2.31 1.2,-2.31 z"/><path id="path65" d="m 0,0 c -2.025,0 -3.75,1.26 -3.75,3.39 0,1.77 1.29,3.03 3.18,3.03 1.425,0 2.325,-0.855 2.655,-1.605 0,-0.24 -0.21,-0.345 -0.39,-0.33 -0.33,0.555 -0.78,0.735 -1.335,0.735 -1.38,0 -2.145,-1.2 -2.145,-2.385 0,-1.035 0.525,-2.145 1.5,-2.145 0.54,0 1.125,0.525 1.545,1.125 0.03,0.045 0.165,0.075 0.24,0.075 0.18,0 0.39,-0.405 0.39,-0.855 0,-0.405 -0.12,-0.615 -0.315,-0.78 -0.405,-0.15 -1.065,-0.255 -1.575,-0.255 z"/><path id="path87" d="m 0,0 c 0.63,0 0.84,-0.015 0.885,-0.105 0.03,-0.06 0.06,-0.18 0.06,-0.39 0,-0.9 -0.84,-1.785 -2.13,-1.785 -1.8,0 -3.015,1.545 -3.015,3.39 0,0.66 0.18,1.365 0.63,1.95 0.435,0.57 1.2,0.99 2.175,0.99 0.78,0 1.86,-0.375 2.355,-1.395 -0.015,-0.135 -0.12,-0.225 -0.27,-0.18 -0.465,0.585 -0.885,0.735 -1.38,0.735 -1.605,0 -2.49,-1.29 -2.49,-2.805 0,-0.375 0.015,-0.405 0.405,-0.405 l 2.775,0 z m -2.91,-0.45 c -0.105,0 -0.105,-0.045 -0.105,-0.075 0.015,-0.495 0.78,-1.305 1.665,-1.305 0.87,0 1.155,0.525 1.155,0.945 0,0.195 -0.045,0.255 -0.09,0.285 -0.12,0.09 -0.45,0.15 -1.56,0.15 l -1.065,0 z"/><path id="path89" d="m 0,0 c -1.14,0 -2.04,0.615 -2.04,1.71 0,0.825 0.615,1.35 1.485,1.845 0.555,0.315 1.155,0.69 1.155,1.38 0,0.645 -0.465,0.96 -1.005,0.96 -0.855,0 -1.335,-0.72 -1.59,-1.545 -0.075,-0.09 -0.27,-0.075 -0.345,0.015 -0.03,0.495 0.06,1.23 0.18,1.515 0.375,0.3 0.9,0.45 1.605,0.45 1.11,0 2.16,-0.57 2.16,-1.71 0,-1.065 -0.735,-1.575 -1.53,-2.025 -0.525,-0.3 -1.155,-0.63 -1.155,-1.245 0,-0.54 0.375,-0.915 0.96,-0.915 0.615,0 1.065,0.435 1.32,1.095 0.075,0.09 0.3,0.06 0.36,-0.045 0,-0.405 -0.105,-0.885 -0.24,-1.215 -0.135,-0.12 -0.69,-0.27 -1.32,-0.27 z"/><path id="path91" d="m 0,0 c 0.135,-0.09 0.165,-0.495 -0.015,-0.63 l -1.665,0 c -0.255,0 -0.27,-0.015 -0.27,-0.285 l 0,-0.675 c -0.06,-0.105 -0.24,-0.105 -0.315,-0.075 -0.15,0.3 -0.435,0.705 -0.63,0.885 -0.15,0.135 -0.525,0.33 -0.96,0.465 -0.06,0.09 -0.045,0.255 0.045,0.315 l 0.42,0 c 0.3,0 0.315,0.03 0.315,0.435 l 0,3.435 c 0,0.9 0.27,1.62 1.56,1.62 0.765,0 1.305,-0.375 1.575,-0.69 0.03,-0.09 -0.03,-0.255 -0.15,-0.255 -0.045,0 -0.24,0.165 -0.375,0.21 -0.12,0.045 -0.255,0.075 -0.405,0.075 -0.99,0 -1.095,-0.795 -1.095,-1.665 l 0,-2.805 c 0,-0.315 0.015,-0.36 0.27,-0.36 l 1.695,0 z"/><path id="path95" d="m 0,0 c 0.51,0 0.84,-0.345 0.84,-0.825 0,-0.48 -0.33,-0.885 -0.84,-0.885 -0.48,0 -0.84,0.375 -0.84,0.885 0,0.51 0.405,0.825 0.84,0.825 z"/><path id="path101" d="m 0,0 c 0.345,0 0.705,-0.135 0.96,-0.705 0.735,-1.635 1.965,-4.245 2.46,-5.25 l 0.84,-1.725 c 0.51,-1.065 0.78,-1.5 1.275,-1.59 l 0.255,-0.045 c 0.105,-0.09 0.09,-0.315 -0.03,-0.375 -0.42,0.03 -0.765,0.045 -1.14,0.045 -0.39,0 -0.84,-0.015 -1.32,-0.045 -0.12,0.045 -0.135,0.3 -0.03,0.375 l 0.465,0.075 c 0.27,0.045 0.36,0.15 0.36,0.255 0,0.165 -0.195,0.72 -0.525,1.5 l -0.51,1.185 c -0.27,0.615 -0.51,1.08 -0.555,1.11 -0.06,-0.03 -0.345,-0.825 -0.435,-1.065 l -0.48,-1.38 c -0.09,-0.255 -0.435,-1.23 -0.435,-1.41 0,-0.105 0.12,-0.15 0.33,-0.195 l 0.375,-0.075 c 0.105,-0.075 0.09,-0.33 -0.03,-0.375 -0.48,0.03 -0.9,0.045 -1.305,0.045 -0.495,0 -0.945,-0.015 -1.425,-0.045 -0.12,0.045 -0.135,0.3 -0.045,0.375 l 0.375,0.075 c 0.525,0.105 0.63,0.465 0.885,1.17 l 1.17,3.21 c 0.195,0.555 0.255,0.735 0.255,1.035 0,0.21 -0.105,0.525 -0.15,0.645 -0.135,0.36 -0.435,0.99 -0.87,1.665 -0.105,0.165 -0.255,0.27 -0.495,0.27 l -0.285,0 c -0.33,0 -0.6,0.195 -0.6,0.6 0,0.375 0.225,0.645 0.66,0.645 z"/><path id="path103" d="m 0,0 c -1.77,0 -3.195,1.35 -3.195,3.24 0,1.875 1.35,3.09 3.075,3.09 1.875,0 3.165,-1.35 3.165,-3.225 0,-1.845 -1.365,-3.105 -3.045,-3.105 z m 1.755,3.345 c 0,1.155 -0.405,2.535 -1.725,2.535 -1.32,0 -1.935,-1.47 -1.935,-2.835 0,-1.65 0.735,-2.595 1.725,-2.595 1.425,0 1.935,1.62 1.935,2.895 z"/><path id="path105" d="m 0,0 c 0,-0.735 0.015,-1.05 0.045,-1.305 -0.015,-0.06 -0.06,-0.09 -0.15,-0.105 -0.33,0.12 -0.915,0.255 -1.605,0.27 -0.105,0.045 -0.12,0.255 -0.03,0.33 l 0.18,0.075 c 0.45,0.195 0.45,0.33 0.45,1.275 l 0,2.505 c 0,1.215 0.495,1.875 1.815,1.875 0.885,0 1.62,-0.495 2.07,-0.78 0.09,0 0.135,0.075 0.135,0.21 l 0,0.615 c 0.03,0.06 0.105,0.105 0.18,0.105 0.51,-0.285 1.38,-0.435 1.965,-0.555 0.12,-0.06 0.105,-0.36 0.015,-0.435 -0.21,0.045 -0.405,0.075 -0.585,0.075 -0.42,0 -0.465,-0.45 -0.465,-1.635 l 0,-2.52 c 0,-0.555 0.015,-1.02 0.045,-1.305 -0.015,-0.06 -0.06,-0.09 -0.135,-0.105 -0.33,0.15 -1.155,0.255 -1.755,0.27 -0.12,0.06 -0.12,0.27 -0.015,0.33 l 0.195,0.075 c 0.45,0.18 0.555,0.21 0.555,1.185 l 0,2.46 c 0,0.465 -0.105,0.69 -0.3,0.87 -0.33,0.285 -0.81,0.45 -1.215,0.45 -1.14,0 -1.395,-0.69 -1.395,-1.725 l 0,-2.505 z"/><path id="path107" d="m 0,0 c 0,1.08 -0.015,1.23 -0.57,1.305 l -0.315,0.045 c -0.105,0.075 -0.075,0.33 0.03,0.375 0.42,-0.03 0.87,-0.045 1.41,-0.045 0.525,0 0.96,0.015 1.68,0.045 0.105,-0.045 0.135,-0.3 0.03,-0.375 l -0.585,-0.075 c -0.54,-0.075 -0.57,-0.21 -0.57,-1.275 l 0,-1.575 c 0,-0.315 0.075,-0.39 0.21,-0.42 0.135,0.03 0.555,0.06 0.825,0.06 2.13,0 3.66,-1.5 3.66,-3.585 0,-1.515 -0.975,-2.745 -2.49,-2.745 -0.96,0 -1.905,0.615 -2.1,0.705 -0.105,0 -0.135,-0.09 -0.135,-0.195 0,-0.195 0.03,-0.42 0.06,-0.69 -0.03,-0.075 -0.09,-0.105 -0.18,-0.105 -0.39,0.285 -1.095,0.645 -1.485,0.81 -0.075,0.045 -0.075,0.21 -0.015,0.27 l 0.135,0.09 c 0.405,0.27 0.405,0.345 0.405,0.93 l 0,6.45 z m 1.11,-6.24 c 0,-0.495 0.045,-0.72 0.18,-0.885 0.165,-0.18 0.63,-0.42 1.275,-0.42 1.35,0 2.025,1.215 2.025,2.415 0,1.56 -0.72,2.7 -1.95,2.7 -0.315,0 -0.78,-0.105 -1.08,-0.33 -0.3,-0.24 -0.45,-0.42 -0.45,-0.9 l 0,-2.58 z"/><path id="path109" d="m 0,0 c -0.96,0.345 -1.245,0.69 -1.245,1.275 0,0.42 0.18,0.795 0.465,1.05 0.255,0.225 0.615,0.345 1.05,0.345 0.42,0 0.75,-0.195 1.08,-0.375 0.3,-0.165 0.48,-0.3 0.585,-0.3 0.09,0 0.18,0.12 0.24,0.21 0.255,0.33 0.615,0.465 0.975,0.465 0.735,0 1.26,-0.585 1.26,-0.66 0,-0.105 -0.045,-0.195 -0.105,-0.195 -0.045,0 -0.12,0.06 -0.195,0.105 -0.09,0.045 -0.225,0.09 -0.375,0.09 -0.585,0 -0.72,-0.615 -0.69,-1.305 l 0.09,-2.61 c 0.045,-1.125 -0.48,-1.755 -1.56,-1.755 -1.095,0 -2.79,1.065 -2.79,1.845 0,0.135 0.075,0.21 0.21,0.21 0.225,0 0.63,-0.105 0.855,-0.285 0.12,-0.09 0.135,-0.27 0.15,-0.51 0.03,-0.465 0.54,-0.675 0.96,-0.675 0.93,0 1.11,0.75 1.095,1.305 l -0.015,0.69 c 0,0.225 -0.03,0.36 -0.255,0.435 l -1.785,0.645 z m -0.09,1.095 c 0,-0.585 0.435,-0.81 1.32,-1.11 0.27,-0.09 0.525,-0.15 0.615,-0.15 0.09,0 0.15,0.03 0.15,0.195 l -0.03,0.885 c -0.015,0.315 -0.015,0.525 -0.195,0.705 -0.15,0.15 -0.615,0.375 -0.915,0.375 -0.765,0 -0.945,-0.645 -0.945,-0.9 z"/><path id="path117" d="m 0,0 c 0,-0.66 0.03,-1.41 0.045,-1.86 -0.03,-0.06 -0.09,-0.09 -0.15,-0.09 -0.54,0.285 -1.245,0.51 -1.62,0.63 -0.075,0.045 -0.075,0.255 0,0.3 l 0.15,0.09 c 0.45,0.27 0.465,0.36 0.465,1.245 l 0,2.265 c 0,0.12 -0.015,0.21 -0.09,0.21 -0.165,-0.06 -0.495,-0.135 -1.005,-0.135 -2.04,0 -3.63,1.35 -3.63,3.45 0,1.575 1.11,2.88 2.775,2.88 0.72,0 1.23,-0.24 1.89,-0.69 l 0.06,0 c 0.03,0.06 0.03,0.24 0.03,0.465 l 0,0.255 c 0,0.075 0.075,0.12 0.165,0.12 0.42,-0.165 1.35,-0.39 1.98,-0.48 0.135,-0.075 0.12,-0.45 0.015,-0.48 -0.225,0.075 -0.48,0.15 -0.645,0.15 -0.42,0 -0.435,-0.555 -0.435,-1.74 l 0,-6.585 z m -1.11,7.29 c 0,0.24 -0.015,0.465 -0.105,0.555 -0.24,0.24 -0.75,0.42 -1.155,0.42 -1.47,0 -2.235,-1.29 -2.235,-2.655 0,-1.305 0.705,-2.49 2.07,-2.49 0.585,0 1.035,0.315 1.26,0.63 0.105,0.15 0.165,0.285 0.165,0.585 l 0,2.955 z"/><path id="path119" d="m 0,0 c 0,1.08 -0.015,1.23 -0.57,1.305 l -0.315,0.045 c -0.105,0.075 -0.075,0.33 0.03,0.375 0.42,-0.03 0.87,-0.045 1.41,-0.045 0.525,0 0.96,0.015 1.41,0.045 0.105,-0.045 0.135,-0.3 0.03,-0.375 l -0.315,-0.045 c -0.54,-0.075 -0.57,-0.225 -0.57,-1.305 l 0,-2.7 c 0,-0.615 0.03,-1.335 0.06,-1.86 -0.015,-0.06 -0.075,-0.09 -0.15,-0.09 -0.345,0.225 -1.2,0.615 -1.545,0.735 -0.075,0.045 -0.075,0.21 -0.015,0.27 l 0.135,0.09 c 0.405,0.27 0.405,0.345 0.405,0.93 l 0,2.625 z m 0.495,-7.68 c -0.45,0 -0.81,0.315 -0.81,0.81 0,0.405 0.3,0.75 0.765,0.75 0.42,0 0.795,-0.24 0.795,-0.78 0,-0.42 -0.3,-0.78 -0.75,-0.78 z"/><path id="path123" d="m 0,0 c -2.49,0 -3.63,1.725 -3.63,3.345 0,0.975 0.345,1.71 0.87,2.22 0.525,0.51 1.26,0.765 2.055,0.765 0.87,0 1.995,-0.42 2.505,-1.53 -0.015,-0.135 -0.15,-0.24 -0.27,-0.21 -0.345,0.51 -0.795,0.9 -1.665,0.9 -1.605,0 -2.415,-1.395 -2.415,-2.565 0,-1.59 1.02,-2.415 2.07,-2.415 0.615,0 1.17,0.39 1.5,0.795 0.06,0.075 0.135,0.105 0.21,0.105 0.18,0 0.33,-0.285 0.33,-0.555 0,-0.255 -0.105,-0.495 -0.225,-0.6 -0.405,-0.18 -0.99,-0.255 -1.335,-0.255 z"/><path id="path127" d="m 0,0 c 0,1.08 -0.015,1.215 -0.57,1.305 l -0.285,0.045 c -0.105,0.075 -0.075,0.33 0.03,0.375 0.39,-0.03 0.84,-0.045 1.38,-0.045 0.525,0 0.96,0.015 1.665,0.045 0.105,-0.045 0.135,-0.3 0.03,-0.375 l -0.54,-0.045 c -0.57,-0.045 -0.6,-0.225 -0.6,-1.305 l 0,-2.04 c 0,-0.51 0.045,-0.945 0.195,-1.155 0.12,-0.165 0.3,-0.3 0.54,-0.3 0.21,0 0.435,0.09 0.66,0.24 0.105,0.06 0.18,0.105 0.33,0.105 0.24,0 0.645,-0.195 0.645,-0.69 0,-0.36 -0.3,-0.6 -0.675,-0.6 -0.555,0 -1.125,0.465 -1.65,0.9 -0.03,-0.015 -0.045,-0.06 -0.045,-0.135 l 0,-0.87 c 0,-0.06 -0.045,-0.09 -0.12,-0.105 -0.375,0.225 -1.17,0.615 -1.515,0.735 -0.075,0.045 -0.075,0.21 -0.015,0.27 l 0.135,0.09 c 0.405,0.27 0.405,0.345 0.405,0.93 l 0,2.625 z"/><path id="path133" d="m 0,0 c 0,1.08 -0.015,1.245 -0.57,1.305 l -0.375,0.045 c -0.105,0.075 -0.075,0.33 0.03,0.375 0.48,-0.03 0.93,-0.045 1.47,-0.045 0.525,0 0.96,0.015 1.41,0.045 0.105,-0.045 0.135,-0.315 0.03,-0.375 l -0.315,-0.045 c -0.54,-0.075 -0.57,-0.225 -0.57,-1.305 l 0,-2.52 c 0,-0.525 0.045,-0.6 0.315,-0.825 0.27,-0.225 0.66,-0.405 1.17,-0.405 0.96,0 1.425,0.645 1.425,1.605 l 0,2.145 c 0,1.08 -0.015,1.215 -0.57,1.305 l -0.3,0.045 c -0.105,0.075 -0.075,0.33 0.03,0.375 0.405,-0.03 0.855,-0.045 1.395,-0.045 0.525,0 0.96,0.015 1.5,0.045 0.105,-0.045 0.135,-0.3 0.03,-0.375 l -0.405,-0.045 c -0.54,-0.06 -0.57,-0.225 -0.57,-1.305 l 0,-2.505 c 0,-1.05 -0.51,-1.935 -1.935,-1.935 -0.765,0 -1.485,0.36 -2.025,0.78 -0.045,-0.03 -0.06,-0.15 -0.06,-0.285 l 0,-3.15 c 0,-0.66 0.03,-1.41 0.045,-1.86 -0.03,-0.06 -0.09,-0.09 -0.15,-0.09 -0.54,0.285 -1.245,0.51 -1.62,0.63 -0.075,0.045 -0.075,0.255 0,0.3 l 0.15,0.09 c 0.45,0.27 0.465,0.36 0.465,1.245 l 0,6.78 z"/><path id="path157" d="m 0,0 c 0,1.08 -0.015,1.215 -0.57,1.305 l -0.27,0.045 c -0.105,0.075 -0.075,0.33 0.03,0.375 0.42,-0.03 0.825,-0.045 1.365,-0.045 0.525,0 0.96,0.015 1.455,0.045 0.105,-0.045 0.135,-0.3 0.03,-0.375 l -0.36,-0.045 c -0.54,-0.075 -0.57,-0.225 -0.57,-1.305 l 0,-2.58 c 0,-1.035 -0.585,-1.86 -1.785,-1.86 -0.705,0 -1.44,0.345 -2.04,0.765 -0.135,0.09 -0.24,0.15 -0.375,0.12 -0.42,-0.615 -0.84,-0.885 -1.59,-0.885 -0.72,0 -1.425,0.36 -1.995,0.765 -0.105,0 -0.165,-0.075 -0.165,-0.165 0,-0.135 0,-0.36 0.03,-0.705 -0.03,-0.075 -0.105,-0.105 -0.165,-0.105 -0.3,0.225 -1.155,0.615 -1.5,0.735 -0.075,0.045 -0.075,0.21 -0.015,0.27 l 0.135,0.09 c 0.405,0.27 0.405,0.345 0.405,0.93 l 0,2.625 c 0,1.08 -0.015,1.23 -0.57,1.305 l -0.36,0.045 c -0.105,0.075 -0.075,0.33 0.03,0.375 0.465,-0.03 0.915,-0.045 1.455,-0.045 0.525,0 0.96,0.015 1.365,0.045 0.105,-0.045 0.135,-0.3 0.03,-0.375 l -0.27,-0.045 c -0.54,-0.09 -0.57,-0.225 -0.57,-1.305 l 0,-2.325 c 0,-0.48 0.075,-0.675 0.225,-0.855 0.225,-0.27 0.645,-0.54 1.26,-0.54 0.93,0 1.38,0.54 1.38,1.545 l 0,2.175 c 0,1.08 -0.015,1.215 -0.57,1.305 l -0.27,0.045 c -0.105,0.075 -0.075,0.33 0.03,0.375 0.42,-0.03 0.825,-0.045 1.365,-0.045 0.525,0 0.96,0.015 1.41,0.045 0.105,-0.045 0.135,-0.3 0.03,-0.375 l -0.315,-0.045 c -0.54,-0.075 -0.57,-0.225 -0.57,-1.305 l 0,-2.295 c 0,-0.525 0.045,-0.675 0.225,-0.9 0.21,-0.27 0.675,-0.525 1.245,-0.525 0.945,0 1.395,0.525 1.395,1.545 l 0,2.175 z"/><path id="path165" d="m 0,0 c 0,1.08 -0.015,1.23 -0.57,1.305 l -0.315,0.045 c -0.105,0.075 -0.075,0.33 0.03,0.375 0.42,-0.03 0.87,-0.045 1.41,-0.045 0.525,0 0.96,0.015 1.365,0.045 0.105,-0.045 0.135,-0.3 0.03,-0.375 l -0.27,-0.045 c -0.54,-0.09 -0.57,-0.225 -0.57,-1.305 l 0,-2.295 c 0,-0.435 0.03,-0.645 0.225,-0.9 0.21,-0.285 0.705,-0.525 1.275,-0.525 1.02,0 1.41,0.63 1.41,1.485 l 0,2.235 c 0,1.08 -0.015,1.215 -0.57,1.305 l -0.285,0.045 c -0.105,0.075 -0.075,0.33 0.03,0.375 0.405,-0.03 0.855,-0.045 1.395,-0.045 0.525,0 0.96,0.015 1.41,0.045 0.105,-0.045 0.135,-0.3 0.03,-0.375 l -0.33,-0.045 c -0.54,-0.075 -0.57,-0.225 -0.57,-1.305 l 0,-2.58 c 0,-1.005 -0.51,-1.86 -1.755,-1.86 -0.765,0 -1.47,0.375 -2.1,0.765 -0.105,0 -0.165,-0.075 -0.165,-0.165 0,-0.135 0,-0.36 0.03,-0.705 -0.03,-0.075 -0.105,-0.105 -0.165,-0.105 -0.3,0.225 -1.155,0.615 -1.5,0.735 -0.075,0.045 -0.075,0.21 -0.015,0.27 l 0.135,0.09 c 0.405,0.27 0.405,0.345 0.405,0.93 l 0,2.625 z"/><path id="path191" d="m 0,0 c 0,-0.66 0.03,-1.41 0.045,-1.86 -0.03,-0.06 -0.09,-0.09 -0.15,-0.09 -0.540001,0.285 -1.245001,0.51 -1.620001,0.63 -0.075,0.045 -0.075,0.255 0,0.3 l 0.15,0.09 c 0.45,0.27 0.465,0.36 0.465,1.245 l 0,6.78 c 0,1.08 -0.015,1.23 -0.57,1.305 l -0.345,0.045 c -0.105,0.075 -0.075,0.33 0.03,0.375 0.449999,-0.03 0.899999,-0.045 1.439999,-0.045 0.525,0 0.96,0.015 1.455,0.045 0.105001,-0.045 0.135001,-0.3 0.03,-0.375 l -0.36,-0.045 c -0.54,-0.075 -0.57,-0.225 -0.57,-1.305 l 0,-7.095 z"/><path id="path252" d="m 0,0 c -0.25625,0 -0.5375,0.09375 -0.8625,0.40625 -0.425,0.40625 -0.65625,1.0125 -0.68125,1.4 -0.0375,0.5375 0.225,0.83125 0.625,0.83125 0.16875,0 0.50625,-0.03125 0.89375,-0.43125 0.4625,-0.475 0.64375,-1.075 0.6625,-1.41875 0.025,-0.45625 -0.19375,-0.7875 -0.6375,-0.7875 z m -0.04375,0.1875 c 0.21875,0 0.25625,0.21875 0.25,0.4125 -0.0125,0.33125 -0.30625,1.15625 -0.58125,1.525 -0.2,0.26875 -0.35625,0.325 -0.49375,0.325 -0.18125,0 -0.26875,-0.18125 -0.25625,-0.4 0.01875,-0.33125 0.2625,-1.075 0.625,-1.5625 0.18125,-0.24375 0.33125,-0.3 0.45625,-0.3 z"/><path id="path254" d="m 0,0 c 0.05625,-0.14375 -0.0125,-0.25625 -0.1625,-0.25625 -0.3125,0 -0.69375,0.25625 -0.93125,0.58125 -0.0063,0.05 0.025,0.09375 0.075,0.09375 0.20625,-0.18125 0.425,-0.3125 0.56875,-0.3125 0.05,0 0.05,0.0625 0.01875,0.14375 -0.03125,0.0875 -0.69375,1.8875 -0.725,1.96875 -0.05625,0.14375 0.1125,0.1625 0.18125,0.1625 0.05625,0 0.08125,-0.01875 0.1125,-0.075 0.36875,-0.6875 0.625,-1.175 0.95625,-1.5875 0.34375,-0.43125 0.7125,-0.74375 0.8625,-0.74375 0.09375,0 0.1,0.075 0.1,0.15 0,0.125 -0.08125,0.34375 -0.13125,0.45625 -0.14375,0.3125 -0.375,0.925 -0.50625,1.23125 -0.13125,0.3125 -0.15,0.35625 -0.15,0.4125 0,0.075 0.09375,0.15625 0.15,0.15625 0.34375,0 0.8375,-0.3 1.075,-0.7 0,-0.05 -0.0125,-0.1 -0.1,-0.0875 -0.18125,0.21875 -0.48125,0.425 -0.5875,0.425 -0.04375,0 -0.0375,-0.05625 -0.0125,-0.11875 0.01875,-0.05 0.46875,-1.06875 0.58125,-1.38125 0.05,-0.14375 0.1,-0.3375 0.1,-0.4375 0,-0.20625 -0.10625,-0.3375 -0.35,-0.3375 -0.46875,0 -1.0875,0.6875 -1.53125,1.3625 l -0.01875,-0.0125 0.425,-1.09375 z"/><path id="path258" d="m 0,0 c -0.03125,0.06875 -0.0125,0.125 0.025,0.16875 0.03125,0.0375 0.06875,0.05625 0.1,0.05625 0.43125,0 1.075,-0.5625 1.16875,-0.74375 0,-0.05625 -0.03125,-0.1 -0.09375,-0.10625 -0.2125,0.24375 -0.54375,0.4625 -0.65,0.4625 -0.05,0 -0.04375,-0.075 -0.01875,-0.1375 l 0.74375,-1.775 c 0.075,-0.18125 0.075,-0.2375 0.0375,-0.275 -0.025,-0.025 -0.05625,-0.0625 -0.1,-0.0625 -0.20625,0 -0.6875,0.23125 -1.03125,0.625 -0.0125,0.05 0.025,0.1 0.08125,0.10625 0.3125,-0.25625 0.475,-0.33125 0.51875,-0.33125 0.04375,0 0.04375,0.05 0.0125,0.11875 l -0.79375,1.89375 z m 1.325,-3.7 c -0.24375,0 -0.33125,0.25625 -0.33125,0.39375 0,0.10625 0.05625,0.23125 0.21875,0.23125 0.1875,0 0.325,-0.19375 0.325,-0.3875 0,-0.1375 -0.06875,-0.2375 -0.2125,-0.2375 z"/></defs></svg>
