<?xml version="1.0" encoding="UTF-8" standalone="no"?>
<svg xmlns:dc="http://purl.org/dc/elements/1.1/" xmlns:cc="http://creativecommons.org/ns#" xmlns:rdf="http://www.w3.org/1999/02/22-rdf-syntax-ns#" xmlns:svg="http://www.w3.org/2000/svg" xmlns="http://www.w3.org/2000/svg" xmlns:xlink="http://www.w3.org/1999/xlink" viewBox="0 0 90 139" height="139" width="90" version="1.1" id="svg2">
  <metadata id="metadata8">
    <rdf:RDF>
      <cc:Work rdf:about="">
        <dc:format>image/svg+xml</dc:format>
        <dc:type rdf:resource="http://purl.org/dc/dcmitype/StillImage"/>
        <dc:title/>
      </cc:Work>
    </rdf:RDF>
  </metadata>
  <defs id="defs6"/>
  <image xlink:href="condition-image-10.png" id="card-image" x="0" y="0" width="90" height="139" preserveAspectRatio="none"/>
  <g id="flowRoot4138" style="fill:#000000;fill-opacity:1;stroke:none;stroke-width:1px;stroke-linecap:butt;stroke-linejoin:miter;stroke-opacity:1" transform="translate(0,-0.20823695)">
    <path id="path30" style="" d="m 37.756328,7.0803041 0,-0.55 q -0.15,-0.23 -0.16,-0.44 0,-0.22 0,-0.49 -0.03,-0.03 -0.06,-0.11 -0.02,-0.08 -0.05,-0.17 -0.02,-0.09 -0.05,-0.17 -0.02,-0.08 -0.04,-0.12 l -0.32,0 q -0.02,0.03 -0.04,0.11 -0.02,0.07 -0.05,0.15 -0.03,0.08 -0.07,0.15 -0.03,0.07 -0.06,0.08 -0.19,-0.05 -0.32,-0.18 -0.22,-0.02 -0.34,-0.19 -0.54,-0.13 -1.09,-0.11 -0.54,0.02 -1.09,0.02 -0.24,0.15 -0.49,0.29 -0.25,0.14 -0.51,0.26 l -0.04,0.09 q -0.49,0.14 -0.63,0.63 -0.26,0.21 -0.42,0.4 -0.15,0.19 -0.25,0.41 -0.09,0.21 -0.15,0.46 -0.05,0.25 -0.1,0.57 l -0.18,0.19 q 0,0.51 0.02,0.98 0.03,0.46 0.08,0.9499999 l 0.12,0.09 q 0.02,0.24 0.11,0.43 0.09,0.18 0.2,0.34 0.11,0.16 0.22,0.32 0.12,0.16 0.19,0.35 l -0.02,0.05 0.2,0 q 0.05,0.22 0.17,0.34 0.13,0.12 0.34,0.21 l 0.04,0.09 q 0.16,0.02 0.31,0.08 0.16,0.06 0.27,0.18 l 0.41,0.11 0.03,0.1 q 0.23,0 0.4,0.02 0.18,0.01 0.4,0.06 0.26,-0.06 0.5,-0.07 0.24,-0.01 0.53,-0.01 l 0.2,-0.13 q 0.24,0.01 0.38,-0.01 0.14,-0.02 0.24,-0.06 0.11,-0.05 0.22,-0.12 0.12,-0.07 0.32,-0.16 0.07,-0.17 0.16,-0.33 0.1,-0.16 0.19,-0.32 0.09,-0.17 0.15,-0.34 0.06,-0.18 0.06,-0.36 l -0.38,0 q -0.1,0.13 -0.2,0.26 -0.1,0.12 -0.19,0.26 -0.08,0.01 -0.26,0.13 -0.17,0.11 -0.38,0.25 -0.21,0.14 -0.43,0.26 -0.22,0.11 -0.38,0.12 l -0.04,0.08 q -0.24,0.04 -0.43,0.07 -0.18,0.02 -0.5,0.02 l -0.07,-0.07 -0.47,0 -0.44,-0.57 -0.33,-0.1 q -0.05,-0.06 -0.17,-0.25 -0.12,-0.2 -0.25,-0.41 -0.13,-0.21 -0.23,-0.37 -0.1,-0.17 -0.11,-0.17 l 0,-1.0399999 q -0.03,-0.06 -0.05,-0.07 -0.01,-0.02 -0.01,-0.03 0,-0.02 0.01,-0.04 0.02,-0.03 0.06,-0.09 -0.06,-0.25 -0.04,-0.41 0.03,-0.16 0.05,-0.41 l 0.09,-0.05 q 0.05,-0.26 0.1,-0.52 0.05,-0.27 0.08,-0.54 0.01,-0.01 0.15,-0.2 0.14,-0.2 0.32,-0.45 0.19,-0.25 0.37,-0.49 0.19,-0.24 0.29,-0.33 0.31,0.02 0.45,-0.28 0.06,0.01 0.17,0.02 0.12,0 0.25,-0.01 0.13,-0.01 0.24,-0.03 0.12,-0.03 0.17,-0.09 0.21,0.11 0.46,0.13 0.26,0.02 0.5,0.06 l 0.05,0.09 q 0.2,0.11 0.35,0.26 0.16,0.14 0.35,0.25 0.02,0.1 0.11,0.2 0.1,0.09 0.19,0.14 l 0.1,0.33 0.36,0.22 0.16,-0.2 z"/>
    <path id="path32" style="" d="m 41.992812,12.610304 q -0.03,-0.1 -0.09,-0.18 -0.05,-0.09 -0.1,-0.18 -0.140001,0 -0.240001,-0.07 -0.05,-0.16 0,-0.27 0.05,-0.12 0.05,-0.26 0,-0.07 -0.04,-0.14 -0.03,-0.07 -0.03,-0.14 -0.01,-0.45 0.04,-0.92 0.06,-0.4799999 0.169999,-0.8999999 -0.05,-0.17 -0.05,-0.25 0,-0.09 0.01,-0.15 0.02,-0.06 0.04,-0.12 0.03,-0.07 0.03,-0.21 -0.01,-0.11 -0.05,-0.22 -0.04,-0.11 -0.06,-0.22 -0.04,-0.02 -0.11,-0.01 -0.06,0.01 -0.119999,0.01 -0.06,0 -0.120001,-0.01 -0.05,-0.02 -0.07,-0.1 -0.06,0 -0.21,0.01 -0.14,0.01 -0.29,0.01 -0.15,0 -0.279999,-0.02 -0.130001,-0.02 -0.160001,-0.07 -0.11,0.05 -0.229999,0.09 -0.11,0.04 -0.190001,0.1 -0.08,0.05 -0.11,0.15 -0.03,0.09 0.02,0.24 l 0.479999,0.08 q 0.02,0.03 0.07,0.08 0.06,0.04 0.120001,0.1 0.06,0.05 0.1,0.1 0.05,0.04 0.05,0.07 l 0,2.0299999 q 0,0.06 -0.05,0.24 -0.04,0.18 -0.11,0.37 -0.07,0.18 -0.15,0.33 -0.07,0.14 -0.13,0.14 l -0.79,0 -0.25,-0.2 -0.09,-0.27 -0.09,-0.04 0,-2.5199999 q 0.04,-0.06 0.06,-0.14 0.03,-0.08 0.05,-0.15 0.03,-0.08 0.06,-0.14 0.04,-0.06 0.11,-0.08 l 0,-0.41 q -0.08,-0.01 -0.15,-0.1 l -0.66,0 -0.11,-0.07 -0.66,0 0,0.33 q 0.140001,0.08 0.280001,0.16 0.149999,0.07 0.309999,0.12 0,0.22 -0.01,0.4 0,0.17 -0.05,0.37 -0.02,-0.02 -0.04,0 -0.01,0.02 -0.01,0.04 l 0,1.7899999 q 0.09,0.11 0.09,0.23 0.01,0.12 -0.02,0.24 -0.02,0.11 -0.05,0.22 -0.03,0.11 0,0.2 0.08,0.11 0.18,0.23 0.11,0.12 0.16,0.25 0.1,0.04 0.18,0.1 0.09,0.05 0.2,0.1 l 0.03,0.09 0.47,0 0.11,-0.11 q 0.19,0.01 0.3,-0.05 0.110001,-0.07 0.2,-0.13 0.1,-0.07 0.22,-0.11 0.120001,-0.04 0.340001,0.02 -0.01,0.18 0.07,0.38 l 0.289999,0.07 q 0.08,-0.03 0.16,-0.05 0.09,-0.01 0.18,-0.03 l 0.04,-0.08 q 0.24,-0.02 0.400001,-0.08 0.159999,-0.06 0.299999,-0.29 z"/>
    <path id="path34" style="" d="m 45.866953,8.4803041 q -0.17,-0.07 -0.23,-0.1 -0.05,-0.04 -0.1,-0.05 -0.04,-0.02 -0.13,-0.02 -0.08,-0.01 -0.3,-0.01 -0.13,0.13 -0.21,0.18 -0.08,0.05 -0.26,0.07 l -0.25,0.22 -0.14,0.01 -0.02,0.1 -0.03,-0.52 0.04,-0.05 -0.27,0 -0.07,0.06 -0.51,0 q -0.08,0.09 -0.2,0.22 -0.12,0.12 -0.19,0.24 -0.06,0.12 -0.01,0.23 0.05,0.1 0.32,0.16 0.11,0.23 0.13,0.32 0.03,0.09 0.02,0.15 -0.01,0.05 -0.04,0.11 -0.03,0.06 -0.03,0.2299999 l 0,0.79 q 0,0.03 0.03,0.08 0.04,0.04 0.06,0.06 0.03,0.04 0.04,0.28 0.01,0.24 0,0.52 -0.01,0.27 -0.04,0.51 -0.03,0.24 -0.07,0.28 -0.06,0.06 -0.15,0.07 -0.08,0 -0.15,0.01 -0.07,0.01 -0.12,0.06 -0.05,0.04 -0.05,0.17 0.03,0.05 0.06,0.1 0.04,0.05 0.08,0.1 0.1,0 0.36,0.01 0.26,0.01 0.54,0.01 0.29,0 0.53,-0.02 0.25,-0.02 0.33,-0.08 0.06,0.03 0.11,0.08 l 0,-0.23 -0.15,-0.17 q -0.05,-0.01 -0.13,-0.02 -0.08,-0.02 -0.16,-0.05 -0.07,-0.03 -0.12,-0.08 -0.05,-0.05 -0.05,-0.12 l 0,-2.8399999 q 0,-0.11 0.13,-0.23 0.13,-0.13 0.21,-0.2 l 0.69,0 q 0.01,0.01 0.04,0.08 0.04,0.07 0.11,0.14 0.08,0.07 0.15,0.05 0.08,-0.02 0.13,-0.11 0.05,-0.09 0.05,-0.09 0.04,-0.13 0.06,-0.21 0.03,-0.08 0.03,-0.14 0.01,-0.07 -0.01,-0.14 -0.02,-0.08 -0.06,-0.22 z"/>
    <path id="path36" style="" d="m 49.430234,11.270304 q 0,-0.09 -0.01,-0.09 -0.02,-0.38 -0.2,-0.65 -0.17,-0.27 -0.59,-0.33 l -0.05,-0.08 -0.25,-0.02 q 0,-0.04 -0.04,-0.06 -0.17,0 -0.35,0.01 -0.17,0.01 -0.31,-0.08 -0.02,-0.06 -0.07,-0.1 -0.04,-0.05 -0.09,-0.1 -0.05,-0.06 -0.09,-0.14 -0.03,-0.08 -0.03,-0.21 0,-0.22 0.14,-0.43 0.15,-0.21 0.39,-0.21 0.04,-0.07 0.14,-0.09 0.2,0.06 0.37,0.25 0.18,0.19 0.26,0.39 0.1,0.02 0.17,0.1 0.07,0.07 0.12,0.15 l 0.29,0 q 0.06,-0.17 0.08,-0.27 0.02,-0.1 0.01,-0.18 0,-0.08 -0.03,-0.17 -0.03,-0.1 -0.07,-0.26 -0.12,-0.09 -0.2,-0.13 -0.08,-0.05 -0.17,-0.08 -0.08,-0.03 -0.17,-0.05 -0.09,-0.02 -0.22,-0.06 l -0.04,-0.08 q -0.02,0 -0.08,0 -0.05,-0.01 -0.12,-0.02 -0.06,-0.01 -0.11,0 -0.05,0 -0.06,0.01 l -0.47,0 -0.02,0.09 q -0.09,0 -0.16,0.04 -0.07,0.03 -0.14,0.09 -0.07,0.05 -0.14,0.1 -0.07,0.05 -0.15,0.08 -0.14,0.17 -0.22,0.4 -0.07,0.23 -0.08,0.48 0,0.24 0.07,0.4699999 0.07,0.23 0.22,0.39 0.15,0.01 0.23,0.16 0.14,0.06 0.33,0.09 l 0.03,0.09 q 0.42,0 0.65,0 0.24,0 0.36,0.09 0.12,0.08 0.15,0.29 0.03,0.21 0.03,0.64 0,0.13 -0.07,0.25 -0.06,0.12 -0.16,0.22 -0.09,0.09 -0.21,0.16 -0.12,0.06 -0.23,0.08 l -0.07,-0.06 -0.41,0 q -0.07,0.05 -0.14,0.06 -0.07,0 -0.15,-0.01 -0.06,-0.06 -0.09,-0.14 0.08,-0.03 0.17,-0.1 -0.08,-0.24 -0.17,-0.47 -0.09,-0.24 -0.2,-0.47 l -0.22,0 q -0.1,0.2 -0.16,0.33 -0.05,0.12 -0.07,0.23 -0.02,0.11 0,0.25 0.02,0.14 0.07,0.36 0.1,0.11 0.17,0.23 0.21,0.1 0.32,0.18 0.12,0.07 0.2,0.12 0.09,0.04 0.16,0.06 0.08,0.02 0.21,0.01 0.13,0 0.34,-0.02 0.21,-0.03 0.56,-0.08 0,0 0.09,-0.04 0.1,-0.05 0.22,-0.12 0.13,-0.08 0.27,-0.18 0.14,-0.1 0.23,-0.22 l 0.01,-0.87 q 0,0 0,-0.06 0,-0.06 0,-0.12 0.01,-0.07 0.01,-0.13 0,-0.06 0,-0.06 0.01,0.03 0.01,0.09 z m 0,0 q 0,-0.06 -0.01,-0.09 0.01,0 0.01,0.09 z"/>
    <path id="path38" style="" d="m 54.09625,10.130304 q 0.04,-0.1899999 0.06,-0.2599999 0.03,-0.07 0.03,-0.12 0,-0.05 -0.03,-0.12 -0.02,-0.07 -0.06,-0.27 l -0.07,-0.04 q -0.06,-0.24 -0.18,-0.37 -0.12,-0.14 -0.26,-0.23 -0.13,-0.09 -0.26,-0.16 -0.12,-0.07 -0.2,-0.18 -0.29,-0.04 -0.55,-0.06 -0.25,-0.02 -0.56,-0.02 l -0.8,0.49 q -0.03,0.14 -0.13,0.23 -0.1,0.09 -0.21,0.17 -0.06,0.22 -0.16,0.43 -0.1,0.21 -0.16,0.4299999 -0.14,0.05 -0.18,0.27 -0.04,0.22 -0.03,0.49 0.02,0.27 0.06,0.54 0.04,0.26 0.07,0.39 0.11,0.07 0.12,0.15 0.02,0.07 0.05,0.18 l 0.07,0.04 0.09,0.29 q 0.12,0.09 0.22,0.19 0.11,0.1 0.19,0.22 0.3,0.13 0.41,0.19 0.11,0.05 0.21,0.06 0.11,0.02 0.28,0.01 0.18,-0.01 0.61,-0.01 0.21,-0.18 0.31,-0.21 0.11,-0.04 0.21,-0.09 0.11,-0.05 0.27,-0.18 0.17,-0.13 0.5,-0.5 l 0,-0.22 q -0.05,-0.02 -0.11,-0.04 -0.06,-0.03 -0.12,-0.06 -0.05,0.11 -0.14,0.13 -0.08,0.02 -0.19,0.04 l -0.1,0.15 -0.17,0.02 q -0.08,0.12 -0.19,0.1 -0.11,-0.03 -0.24,0 0.03,0.02 0,0.04 -0.02,0.02 -0.04,0.02 -0.09,0 -0.2,0.02 -0.11,0.01 -0.21,0.01 -0.1,-0.01 -0.19,-0.05 -0.08,-0.04 -0.13,-0.14 -0.17,-0.05 -0.3,-0.18 -0.13,-0.13 -0.24,-0.26 -0.02,-0.14 -0.04,-0.27 -0.01,-0.13 -0.06,-0.26 l -0.08,-0.04 0,-0.75 q 0.15,-0.12 0.29,-0.26 l 0.41,0 q 0.03,0.02 0.04,0.04 0.01,0.01 0.03,0.02 l 0.85,0 0.04,0.09 0.19,0.02 q -0.01,0.06 0.09,0.07 0.11,0.01 0.26,0 0.15,-0.02 0.3,-0.04 0.15,-0.03 0.23,-0.05 l 0.1,-0.1 z m -0.72,-0.7099999 q 0,0.05 -0.05,0.11 -0.04,0.06 -0.11,0.11 -0.06,0.04 -0.13,0.07 -0.07,0.03 -0.12,0.03 l -0.43,0 q -0.03,0 -0.03,-0.03 0.01,-0.03 -0.03,-0.03 l -0.46,0 q -0.12,-0.13 -0.25,-0.25 0.07,-0.1 0.13,-0.19 0.06,-0.1 0.12,-0.19 0.18,-0.06 0.3,-0.18 l 0.64,0 q 0.05,0 0.07,0.06 0.03,0.06 0.04,0.1 0.04,0.01 0.07,0.02 0.03,0 0.06,0 0.04,0.05 0.11,0.18 0.07,0.13 0.07,0.19 z"/>
    <path id="path40" style="" d="m 59.808203,12.400304 q -0.1,0.02 -0.2,0.06 -0.1,0.03 -0.21,0 -0.15,-0.13 -0.21,-0.43 -0.05,-0.31 -0.06,-0.7 -0.01,-0.4 0.01,-0.84 0.03,-0.45 0.05,-0.8499999 0.02,-0.41 0.01,-0.73 0,-0.32 -0.07,-0.48 0.1,-0.28 0.11,-0.57 0.02,-0.3 0,-0.59 -0.01,-0.29 -0.02,-0.58 0,-0.29 0.07,-0.58 l 0.01,0.01 q 0.02,-0.22 0,-0.44 -0.01,-0.22 -0.08,-0.43 -0.13,-0.11 -0.25,-0.14 -0.11,-0.04 -0.23,-0.03 -0.11,0 -0.23,0.03 -0.12,0.02 -0.27,0.03 l -0.03,0.08 -0.5,0.09 0,0.23 0.08,0.1 0.31,0.09 q 0.09,0.1 0.1,0.24 0.02,0.13 0.04,0.25 0.02,-0.03 0.04,0 0.02,0.02 0.02,0.04 l 0,0.79 q 0,0.18 0.02,0.46 0.03,0.28 0.01,0.53 -0.02,0.25 -0.13,0.42 -0.1,0.16 -0.36,0.11 -0.07,-0.07 -0.17,-0.11 -0.09,-0.05 -0.18,-0.07 l -0.03,-0.09 q -0.32,0 -0.57,-0.03 -0.25,-0.03 -0.56,0.04 0,0.03 -0.05,0.06 -0.04,0.02 -0.11,0.05 -0.07,0.03 -0.14,0.07 -0.06,0.03 -0.09,0.07 l -0.39,0.16 q -0.04,0.2 -0.16,0.45 -0.12,0.25 -0.25,0.39 0.02,0.11 -0.04,0.23 -0.05,0.11 -0.13,0.19 -0.03,0.09 0.01,0.1899999 0.05,0.1 0.08,0.18 -0.03,0.06 -0.08,0.12 -0.04,0.05 -0.09,0.1 -0.02,0.23 0,0.41 0.03,0.18 0.08,0.39 l 0.08,0.04 q 0.03,0.39 0.18,0.63 0.15,0.24 0.36,0.41 0.21,0.16 0.47,0.3 0.26,0.13 0.52,0.31 l 0.87,0 q 0.06,-0.04 0.18,-0.12 0.12,-0.08 0.25,-0.17 0.13,-0.09 0.23,-0.17 0.11,-0.08 0.14,-0.13 l 0.13,0 q 0.07,0.17 0.1,0.39 l 0.17,0.2 q 0.31,0.03 0.57,-0.01 0.26,-0.05 0.56,0.01 0.22,-0.12 0.28,-0.24 0.07,-0.13 0.04,-0.23 -0.03,-0.1 -0.12,-0.15 -0.08,-0.05 -0.17,-0.04 z m -1.41,-2.6699999 q 0,0.05 0,0.24 0,0.1799999 0,0.3899999 0,0.21 -0.01,0.39 0,0.17 -0.01,0.18 0,0 -0.02,-0.01 -0.02,-0.01 -0.02,0.01 0,0.13 -0.04,0.36 -0.03,0.22 -0.1,0.45 -0.06,0.22 -0.17,0.4 -0.1,0.18 -0.24,0.24 -0.1,0.04 -0.22,0.06 -0.11,0.01 -0.22,0.03 -0.05,0.11 -0.18,0.09 -0.13,-0.03 -0.28,-0.11 -0.15,-0.08 -0.29,-0.18 -0.14,-0.1 -0.2,-0.13 -0.04,-0.07 -0.1,-0.17 -0.05,-0.11 -0.1,-0.22 -0.05,-0.11 -0.09,-0.22 -0.04,-0.11 -0.05,-0.19 l -0.09,-0.02 0,-1.24 q 0,-0.02 0.02,-0.05 0.03,-0.03 0.05,-0.05 0.11,-0.11 0.14,-0.26 0.03,-0.16 0.04,-0.3 l 0.08,-0.04 0.03,-0.23 q 0.12,-0.09 0.22,-0.2 0.1,-0.12 0.19,-0.24 l 0.89,0 q 0.06,0.07 0.14,0.15 0.08,0.08 0.16,0.17 0.08,0.08 0.14,0.17 0.06,0.09 0.06,0.18 l 0.08,0.04 q 0.05,0.17 0.1,0.28 l 0.09,0.03 z"/>
  </g>
  <g id="text4146" style="fill:#000000;fill-opacity:1;stroke:none;stroke-width:1px;stroke-linecap:butt;stroke-linejoin:miter;stroke-opacity:1">
    <path id="path43" style="" d="m 38.736735,73.010775 c -0.2175,0.6975 -0.27,0.75 -0.6075,0.81 l -0.2175,0.0375 c -0.0975,0.015 -0.105,0.21 -0.0375,0.255 0.3825,-0.015 0.7275,-0.0225 1.0275,-0.0225 0.0825,0 0.2175,0.0075 0.3675,0.015 0.15,0.0075 0.3225,0.015 0.48,0.015 0.4575,0 0.8325,-0.015 1.2675,-0.105 0.795,-0.1575 1.425,-0.7125 1.425,-1.545 0,-0.48 -0.3,-0.8625 -0.705,-1.0125 -0.12,-0.045 -0.165,-0.06 -0.15,-0.0825 -0.0075,-0.015 0.03,-0.0375 0.2175,-0.075 0.495,-0.09 1.035,-0.4275 1.035,-1.0425 0,-0.315 -0.12,-0.5925 -0.3975,-0.8025 -0.3075,-0.2325 -0.8475,-0.3375 -1.605,-0.3375 -0.63,0 -1.065,0.03 -1.4775,0.0675 -0.09,0.0375 -0.1125,0.195 -0.045,0.255 l 0.2175,0.045 c 0.2625,0.0525 0.2475,0.1875 0.09,0.6975 l -0.885,2.8275 z m 1.965,-3.27 c 0.0825,-0.2625 0.105,-0.2775 0.36,-0.2775 0.495,0 0.7575,0.3075 0.7575,0.6975 0,0.66 -0.5325,1.14 -1.29,1.14 -0.3,0 -0.3225,-0.0225 -0.2625,-0.21 l 0.435,-1.35 z m -0.6675,2.115 c 0.0675,-0.21 0.09,-0.225 0.4125,-0.225 0.585,0 0.915,0.3075 0.915,0.84 0,0.795 -0.6525,1.305 -1.335,1.305 -0.375,0 -0.54,-0.1875 -0.3825,-0.6825 l 0.39,-1.2375 z"/>
    <path id="path45" style="" d="m 44.575602,72.819525 c 0.174375,0 0.185625,0.0056 0.18,0.118125 l -0.0225,0.714375 c -0.0056,0.135 -0.03375,0.208125 -0.2925,0.241875 l -0.129375,0.01687 c -0.03375,0.03937 -0.045,0.174375 0.02812,0.196875 0.174375,-0.01125 0.4275,-0.01688 0.7425,-0.01688 0.28125,0 0.585,0.0056 0.793125,0.01688 0.05062,-0.0225 0.06188,-0.163125 0.01687,-0.196875 l -0.135,-0.01687 c -0.27,-0.03375 -0.27,-0.129375 -0.27,-0.523125 0,-0.995625 0.03937,-1.996875 0.03937,-2.9925 0,-0.06188 -0.045,-0.09 -0.10125,-0.09 l -0.01125,0 c -0.0056,0 -0.27,0.219375 -0.585,0.241875 -0.0225,0.106875 -0.185625,0.34875 -0.36,0.613125 -0.500625,0.7425 -1.0125,1.485 -1.513125,2.2275 -0.286875,0.41625 -0.354375,0.466875 -0.635625,0.511875 l -0.135,0.0225 c -0.05063,0.03937 -0.05063,0.174375 0.02812,0.2025 0.1575,-0.01125 0.343125,-0.01688 0.54,-0.01688 0.2475,0 0.4275,0.0056 0.70875,0.01688 0.0675,-0.02813 0.08438,-0.163125 0.02813,-0.2025 l -0.151875,-0.0225 c -0.10125,-0.01687 -0.140625,-0.045 -0.140625,-0.09 0,-0.03375 0.01687,-0.09 0.1125,-0.25875 l 0.34875,-0.601875 c 0.0675,-0.118125 0.07875,-0.1125 0.2475,-0.1125 l 0.669375,0 z M 44.108727,72.5214 c -0.1575,0 -0.174375,-0.0225 -0.106875,-0.12375 l 0.46125,-0.714375 c 0.135,-0.208125 0.241875,-0.388125 0.32625,-0.523125 l 0.01125,0 c 0,0.106875 0.0056,0.34875 0,0.5175 l -0.03375,0.691875 c -0.0056,0.140625 -0.01125,0.151875 -0.14625,0.151875 l -0.511875,0 z"/>
    <path id="path47" style="" d="m 46.80653,72.6789 c -0.1125,0.365625 -0.225,0.6975 -0.264375,0.81 -0.09562,0.264375 -0.185625,0.3375 -0.444375,0.39375 l -0.129375,0.02813 c -0.0675,0.03937 -0.06188,0.163125 -0.01125,0.196875 0.253125,-0.01125 0.410625,-0.01688 0.646875,-0.01688 0.21375,0 0.405,0.0056 0.70875,0.01688 0.06188,-0.03938 0.05625,-0.14625 0.02813,-0.196875 l -0.16875,-0.02813 c -0.286875,-0.045 -0.28125,-0.118125 -0.23625,-0.399375 0.01687,-0.10125 0.106875,-0.43875 0.219375,-0.804375 l 0.331875,-1.096875 c 0.09,-0.30375 0.1125,-0.37125 0.140625,-0.43875 0.07875,0.1575 0.25875,0.590625 0.365625,0.838125 l 0.601875,1.366875 c 0.1575,0.354375 0.309375,0.7875 0.320625,0.7875 0.14625,0 0.309375,-0.0225 0.354375,-0.06188 0.05063,-0.185625 0.135,-0.5175 0.264375,-0.939375 L 49.94528,71.79015 c 0.1125,-0.365625 0.230625,-0.6975 0.27,-0.81 0.10125,-0.275625 0.19125,-0.343125 0.444375,-0.39375 l 0.135,-0.02813 c 0.05063,-0.03937 0.05625,-0.163125 0.01125,-0.196875 -0.25875,0.01125 -0.410625,0.01687 -0.6525,0.01687 -0.21375,0 -0.399375,-0.0056 -0.6975,-0.01687 -0.07313,0.03937 -0.09,0.14625 -0.03937,0.196875 l 0.16875,0.0225 c 0.286875,0.03937 0.2925,0.12375 0.23625,0.405 -0.0225,0.10125 -0.1125,0.43875 -0.219375,0.804375 l -0.241875,0.81 c -0.03937,0.129375 -0.09,0.286875 -0.129375,0.34875 -0.06188,-0.118125 -0.1575,-0.315 -0.354375,-0.75375 l -0.264375,-0.585 c -0.264375,-0.590625 -0.466875,-1.035 -0.43875,-1.24875 -0.12375,0.01125 -0.309375,0.01687 -0.45,0.01687 -0.21375,0 -0.41625,-0.0056 -0.70875,-0.01687 -0.0675,0.03375 -0.09,0.163125 -0.03937,0.196875 l 0.1575,0.0225 c 0.286875,0.03937 0.275625,0.151875 0.135,0.6075 L 46.80653,72.6789 Z"/>
    <path id="path49" style="" d="m 51.917721,70.378275 c -0.219375,0 -0.50625,-0.0056 -0.770625,-0.01687 -0.07875,0.02813 -0.09,0.1575 -0.03937,0.196875 l 0.135,0.0225 c 0.264375,0.045 0.25875,0.151875 0.118125,0.6075 l -0.658125,2.0925 c -0.163125,0.523125 -0.208125,0.5625 -0.4725,0.601875 l -0.19125,0.02813 c -0.07875,0.0225 -0.08437,0.163125 -0.02812,0.196875 0.28125,-0.01125 0.534375,-0.01688 0.815625,-0.01688 l 0.73125,0 c 0.230625,0 0.48375,0 0.72,0.0056 0.23625,0 0.46125,0.0056 0.635625,0.01125 0.12375,-0.151875 0.3375,-0.6075 0.433125,-0.88875 -0.03375,-0.0675 -0.163125,-0.07875 -0.225,-0.03375 -0.46125,0.63 -0.658125,0.646875 -1.1475,0.646875 -0.410625,0 -0.500625,-0.03938 -0.55125,-0.135 -0.045,-0.09562 -0.0056,-0.27 0.07875,-0.534375 l 0.21375,-0.68625 c 0.045,-0.151875 0.0675,-0.16875 0.21375,-0.16875 l 0.37125,0 c 0.2925,0 0.34875,0.045 0.315,0.315 l -0.01687,0.140625 c 0.0225,0.045 0.16875,0.03938 0.21375,-0.0056 0.05063,-0.18 0.10125,-0.3825 0.16875,-0.59625 0.07312,-0.21375 0.140625,-0.421875 0.208125,-0.59625 -0.01687,-0.05062 -0.1575,-0.05625 -0.21375,-0.0056 l -0.07312,0.135 c -0.14625,0.27 -0.219375,0.315 -0.511875,0.315 l -0.37125,0 c -0.14625,0 -0.1575,-0.01125 -0.106875,-0.16875 l 0.309375,-0.97875 c 0.0675,-0.21375 0.08438,-0.225 0.275625,-0.225 l 0.43875,0 c 0.28125,0 0.4275,0.0675 0.4725,0.196875 0.0225,0.0675 0.03937,0.230625 0.0225,0.433125 0.03937,0.045 0.185625,0.03937 0.21375,-0.0225 0.10125,-0.3825 0.2475,-0.7875 0.286875,-0.883125 -0.08438,0.01125 -0.405,0.01687 -0.765,0.01687 l -1.24875,0 z"/>
  </g>
  <g id="flowRoot4150" style="fill:#000000;fill-opacity:1;stroke:none;stroke-width:1px;stroke-linecap:butt;stroke-linejoin:miter;stroke-opacity:1" transform="matrix(0.50053315,0,0,0.5,-0.3191755,-8.8367586)">
    <use x="24.104102" y="178.75729" xlink:href="#path52"/>
    <use x="30.167383" y="177.15729" xlink:href="#path54"/>
    <use x="37.534766" y="171.24479" xlink:href="#path56"/>
    <use x="39.435938" y="181.66979" xlink:href="#path58"/>
    <use x="47.679687" y="175.60729" xlink:href="#path60"/>
    <path id="path62" style="" d="m 54.904688,169.80729 c -0.350001,0 -0.537501,0.025 -0.537501,0.3 0,0.0875 0.025,0.225 0.0625,0.4875 l 0.325001,2.0125 c 0.1,0.1 0.199999,0.1 0.299999,0 l 0.325001,-2.0125 c 0.0375,-0.2625 0.0625,-0.4 0.0625,-0.4875 0,-0.275 -0.1875,-0.3 -0.5375,-0.3 z"/>
    <use x="58.684375" y="173.45729" xlink:href="#path64"/>
    <use x="66.987695" y="173.45729" xlink:href="#path66"/>
    <use x="71.617578" y="173.45729" xlink:href="#path68"/>
    <use x="76.58418" y="174.63229" xlink:href="#path70"/>
    <use x="82.218164" y="177.15729" xlink:href="#path54"/>
    <use x="91.223047" y="174.15729" xlink:href="#path74"/>
    <use x="95.993555" y="176.50729" xlink:href="#path76"/>
    <use x="101.89727" y="173.45729" xlink:href="#path64"/>
    <use x="109.05059" y="173.45729" xlink:href="#path64"/>
    <use x="112.74141" y="174.63229" xlink:href="#path70"/>
    <use x="120.62539" y="173.45729" xlink:href="#path66"/>
    <use x="125.63027" y="173.45729" xlink:href="#path66"/>
    <use x="131.09766" y="175.35729" xlink:href="#path88"/>
    <use x="134.44121" y="173.45729" xlink:href="#path64"/>
    <use x="138.46953" y="173.45729" xlink:href="#path64"/>
    <use x="144.11035" y="175.35729" xlink:href="#path88"/>
    <use x="147.45391" y="173.45729" xlink:href="#path64"/>
    <use x="155.38223" y="173.45729" xlink:href="#path68"/>
    <use x="159.58633" y="177.15729" xlink:href="#path54"/>
    <use x="68.378809" y="193.54479" xlink:href="#path58"/>
    <use x="76.024316" y="185.33229" xlink:href="#path68"/>
    <use x="80.990918" y="186.50729" xlink:href="#path70"/>
    <use x="86.624902" y="189.03229" xlink:href="#path108"/>
    <use x="96.337793" y="186.03229" xlink:href="#path74"/>
    <use x="100.4458" y="187.23229" xlink:href="#path88"/>
    <use x="103.78936" y="185.33229" xlink:href="#path64"/>
    <use x="109.15518" y="186.03229" xlink:href="#path74"/>
    <use x="111.65068" y="185.33229" xlink:href="#path64"/>
    <use x="114.9165" y="190.60729" xlink:href="#path120"/>
    <use x="11.951074" y="204.15729" xlink:href="#path122"/>
    <use x="18.163965" y="201.65729" xlink:href="#path124"/>
    <use x="22.089746" y="209.16979" xlink:href="#path58"/>
    <use x="29.735254" y="200.95729" xlink:href="#path68"/>
    <use x="34.701855" y="202.13229" xlink:href="#path70"/>
    <use x="44.32334" y="205.16979" xlink:href="#path132"/>
    <use x="53.587793" y="200.95729" xlink:href="#path68"/>
    <use x="58.554395" y="202.13229" xlink:href="#path70"/>
    <use x="64.988379" y="198.74479" xlink:href="#path56"/>
    <use x="71.339551" y="198.74479" xlink:href="#path140"/>
    <use x="80.099121" y="201.40729" xlink:href="#path142"/>
    <use x="82.578027" y="204.00729" xlink:href="#path76"/>
    <use x="87.381738" y="204.65729" xlink:href="#path146"/>
    <use x="90.604395" y="204.65729" xlink:href="#path54"/>
    <use x="100.54678" y="204.00729" xlink:href="#path76"/>
    <use x="105.35049" y="204.65729" xlink:href="#path54"/>
    <use x="113.79287" y="200.95729" xlink:href="#path68"/>
    <use x="120.43447" y="201.65729" xlink:href="#path74"/>
    <use x="121.70498" y="204.65729" xlink:href="#path158"/>
    <use x="130.98779" y="202.85729" xlink:href="#path88"/>
    <use x="133.23135" y="204.65729" xlink:href="#path108"/>
    <path id="path164" style="" d="m 139.83174,201.98229 c 0,1.6125 0.775,2.75 1.775,3.4375 0.9125,0.6125 1.9875,0.8375 3.1125,0.8375 0.8,0 1.7,-0.1875 1.975,-0.2875 0.1375,-0.05 0.2875,-0.1 0.4375,-0.125 0.1875,-0.2375 0.5125,-1.0625 0.6,-1.7125 -0.05,-0.0875 -0.2375,-0.1125 -0.325,-0.05 -0.2875,0.7375 -1,1.7875 -2.6125,1.7875 -2.05,0 -3.7125,-1.45 -3.7125,-4.075 0,-2.5875 1.625,-3.8 3.5375,-3.8 1.8125,0 2.375,0.975 2.5625,1.825 0.0875,0.075 0.275,0.0625 0.3375,-0.025 -0.1,-0.7625 -0.1625,-1.55 -0.175,-1.8375 -0.1125,0.0125 -0.2,-0.0125 -0.35,-0.05 -0.5875,-0.1625 -1.5375,-0.3 -2.2125,-0.3 -1.3,0 -2.4625,0.35 -3.375,1.0625 -0.95,0.7375 -1.575,1.925 -1.575,3.3125 z"/>
    <use x="149.74092" y="202.13229" xlink:href="#path70"/>
    <use x="155.3749" y="204.65729" xlink:href="#path108"/>
    <use x="160.62529" y="200.95729" xlink:href="#path64"/>
    <use x="166.26611" y="202.85729" xlink:href="#path88"/>
    <use x="172.58467" y="198.74479" xlink:href="#path140"/>
    <use x="18.599023" y="212.83229" xlink:href="#path66"/>
    <use x="23.228906" y="212.83229" xlink:href="#path68"/>
    <use x="27.433008" y="216.53229" xlink:href="#path54"/>
    <use x="38.075391" y="210.61979" xlink:href="#path140"/>
    <use x="40.372461" y="216.53229" xlink:href="#path146"/>
    <use x="46.032617" y="213.53229" xlink:href="#path74"/>
    <use x="47.428125" y="216.53229" xlink:href="#path146"/>
    <use x="52.525781" y="212.83229" xlink:href="#path68"/>
    <use x="56.729883" y="216.53229" xlink:href="#path54"/>
    <use x="63.484766" y="216.40729" xlink:href="#path194"/>
    <path id="path196" style="" d="m 72.622266,213.53229 c 0.225,0 0.2375,0.0375 0.2375,0.25 l 0,2.75 c 0,0.9 -0.0125,1.025 -0.475,1.0875 l -0.2875,0.0375 c -0.0875,0.0625 -0.0625,0.275 0.025,0.3125 0.375,-0.025 0.75,-0.0375 1.2,-0.0375 0.4375,0 0.8,0.0125 1.2125,0.0375 0.0875,-0.0375 0.1125,-0.25 0.025,-0.3125 l -0.3,-0.0375 c -0.45,-0.0625 -0.475,-0.1875 -0.475,-1.0875 l 0,-5.625 c 0,-0.5375 0.0125,-1.3125 0.0375,-1.8625 -0.0375,-0.0375 -0.0875,-0.05 -0.15,-0.05 l -0.325,0.325 c -0.3625,-0.225 -0.7625,-0.325 -1.1625,-0.325 -1.3375,0 -2.0625,0.9375 -2.3375,1.6125 -0.2875,0.7 -0.3375,1.3875 -0.3375,2.175 0,0.125 -0.0875,0.2 -0.1875,0.25 l -0.5375,0.2625 c -0.05,0.075 -0.0375,0.1875 0.0375,0.2375 l 0.4375,0 c 0.25,0 0.25,0.025 0.25,0.3625 l 0,2.6375 c 0,0.9 -0.0125,1.025 -0.475,1.0875 l -0.2875,0.0375 c -0.0875,0.0625 -0.0625,0.275 0.025,0.3125 0.375,-0.025 0.75,-0.0375 1.2,-0.0375 0.4375,0 0.8,0.0125 1.3,0.0375 0.0875,-0.0375 0.1125,-0.25 0.025,-0.3125 l -0.3875,-0.0375 c -0.45,-0.0375 -0.475,-0.1875 -0.475,-1.0875 l 0,-2.6125 c 0,-0.3875 0.0125,-0.3875 0.2375,-0.3875 l 1.95,0 z m 0.2375,-0.775 c 0,0.225 -0.05,0.25 -0.2375,0.25 l -1.95,0 c -0.2125,0 -0.2375,-0.0125 -0.2375,-0.2625 l 0,-0.3875 c 0,-1.05 0.0625,-2.9625 1.45,-2.9625 0.3375,0 0.625,0.225 0.7625,0.4 0.15,0.2 0.2125,0.525 0.2125,0.95 l 0,2.0125 z"/>
    <use x="76.06582" y="216.53229" xlink:href="#path146"/>
    <path id="path200" style="" d="m 79.125977,219.71979 c 0,0.9 -0.0125,1.025 -0.475,1.0875 l -0.2625,0.0375 c -0.0875,0.0625 -0.0625,0.275 0.025,0.3125 0.35,-0.025 0.725,-0.0375 1.175,-0.0375 0.4375,0 0.8,0.0125 1.4,0.0375 0.0875,-0.0375 0.1125,-0.25 0.025,-0.3125 l -0.4875,-0.0625 c -0.45,-0.0625 -0.475,-0.175 -0.475,-1.0625 l 0,-1.3125 c 0,-0.2625 0.0625,-0.325 0.175,-0.35 0.1125,0.025 0.4625,0.05 0.6875,0.05 1.775,0 3.05,-1.25 3.05,-2.9875 0,-1.2625 -0.8125,-2.2875 -2.075,-2.2875 -0.8,0 -1.5875,0.5125 -1.75,0.5875 -0.0875,0 -0.1125,-0.075 -0.1125,-0.1625 0,-0.1625 0.025,-0.35 0.05,-0.575 -0.025,-0.0625 -0.075,-0.0875 -0.15,-0.0875 -0.325,0.2375 -0.9125,0.5375 -1.2375,0.675 -0.0625,0.0375 -0.0625,0.175 -0.0125,0.225 l 0.1125,0.075 c 0.3375,0.225 0.3375,0.2875 0.3375,0.775 l 0,5.375 z m 0.925,-5.2 c 0,-0.4125 0.0375,-0.6 0.15,-0.7375 0.1375,-0.15 0.525,-0.35 1.0625,-0.35 1.125,0 1.6875,1.0125 1.6875,2.0125 0,1.3 -0.6,2.25 -1.625,2.25 -0.2625,0 -0.65,-0.0875 -0.9,-0.275 -0.25,-0.2 -0.375,-0.35 -0.375,-0.75 l 0,-2.15 z"/>
    <use x="91.198633" y="213.53229" xlink:href="#path74"/>
    <use x="92.469141" y="216.53229" xlink:href="#path158"/>
    <use x="99.039453" y="216.53229" xlink:href="#path146"/>
    <use x="103.36211" y="212.83229" xlink:href="#path64"/>
    <use x="111.66543" y="212.83229" xlink:href="#path66"/>
    <use x="114.67031" y="215.88229" xlink:href="#path76"/>
    <use x="119.47402" y="216.53229" xlink:href="#path108"/>
    <use x="127.52852" y="210.61979" xlink:href="#path140"/>
    <use x="132.95059" y="216.53229" xlink:href="#path146"/>
    <use x="136.17324" y="216.53229" xlink:href="#path54"/>
    <use x="143.84062" y="212.83229" xlink:href="#path64"/>
    <use x="149.20645" y="213.53229" xlink:href="#path74"/>
    <use x="153.31445" y="214.73229" xlink:href="#path88"/>
    <use x="155.80801" y="215.88229" xlink:href="#path76"/>
    <use x="164.68672" y="210.61979" xlink:href="#path140"/>
    <use x="167.32129" y="218.10729" xlink:href="#path120"/>
    <use x="27.734766" y="231.65729" xlink:href="#path122"/>
    <use x="33.947656" y="229.15729" xlink:href="#path124"/>
    <use x="37.873438" y="236.66979" xlink:href="#path58"/>
    <use x="45.518945" y="228.45729" xlink:href="#path68"/>
    <use x="50.485547" y="229.63229" xlink:href="#path70"/>
    <use x="60.107031" y="232.66979" xlink:href="#path132"/>
    <use x="69.371484" y="228.45729" xlink:href="#path68"/>
    <use x="74.338086" y="229.63229" xlink:href="#path70"/>
    <use x="80.77207" y="226.24479" xlink:href="#path56"/>
    <use x="87.123242" y="226.24479" xlink:href="#path140"/>
    <use x="95.882812" y="228.90729" xlink:href="#path142"/>
    <use x="98.361719" y="231.50729" xlink:href="#path76"/>
    <use x="103.16543" y="232.15729" xlink:href="#path146"/>
    <use x="106.38809" y="232.15729" xlink:href="#path54"/>
    <use x="116.33047" y="231.50729" xlink:href="#path76"/>
    <path id="path264" style="" d="m 124.63418,231.68229 c 0,1.3125 -0.025,1.45 -0.6875,1.5625 l -0.225,0.0375 c -0.075,0.075 -0.05,0.275 0.025,0.3125 0.4625,-0.0125 0.8875,-0.0375 1.4375,-0.0375 0.525,0 1.1375,0.0375 1.5,0.0375 2.25,0 3.325,-0.975 3.325,-2.425 0,-1.3375 -1,-1.9625 -1.675,-2.0875 -0.1375,-0.025 -0.2375,-0.0625 -0.2375,-0.1875 0.75,-0.35 1.275,-0.8125 1.275,-1.7125 0,-0.8 -0.4125,-1.3 -0.95,-1.5625 -0.5625,-0.2875 -1.3125,-0.35 -2.1,-0.35 -1.1625,0 -2.0125,0.0375 -2.6875,0.1 -0.1,0.05 -0.1125,0.2375 -0.0125,0.3125 l 0.4,0.0375 c 0.5625,0.05 0.6125,0.2875 0.6125,1.2125 l 0,4.75 z m 1.025,-2.0375 c 0,-0.25 0.05,-0.325 0.725,-0.325 1.9875,0 2.4875,1.15 2.4875,2.1375 0,1.25 -0.85,1.75 -1.9625,1.75 -0.375,0 -0.75,-0.0625 -0.9875,-0.35 -0.2375,-0.275 -0.2625,-0.9125 -0.2625,-1.3625 l 0,-1.85 z m 0,-3.5875 c 0,-0.225 0.05,-0.2875 0.175,-0.325 0.1125,-0.05 0.3,-0.075 0.575,-0.075 0.95,0 1.8625,0.4625 1.8625,1.6875 0,1.175 -0.6875,1.55 -1.9625,1.6 -0.6375,0.025 -0.65,0 -0.65,-0.35 l 0,-2.5375 z"/>
    <use x="132.48105" y="226.24479" xlink:href="#path56"/>
    <use x="137.46973" y="230.35729" xlink:href="#path88"/>
    <use x="140.81328" y="228.45729" xlink:href="#path64"/>
    <use x="144.8416" y="228.45729" xlink:href="#path64"/>
    <use x="150.48242" y="230.35729" xlink:href="#path88"/>
    <use x="156.80098" y="226.24479" xlink:href="#path140"/>
    <use x="29.768457" y="240.33229" xlink:href="#path66"/>
    <use x="34.39834" y="240.33229" xlink:href="#path68"/>
    <use x="38.602441" y="244.03229" xlink:href="#path54"/>
    <use x="49.244824" y="238.11979" xlink:href="#path140"/>
    <use x="51.541895" y="244.03229" xlink:href="#path146"/>
    <use x="57.202051" y="241.03229" xlink:href="#path74"/>
    <use x="58.597559" y="244.03229" xlink:href="#path146"/>
    <use x="63.695215" y="240.33229" xlink:href="#path68"/>
    <use x="67.899316" y="244.03229" xlink:href="#path54"/>
    <use x="74.654199" y="243.90729" xlink:href="#path194"/>
    <use x="84.791699" y="238.11979" xlink:href="#path140"/>
    <use x="87.08877" y="244.03229" xlink:href="#path146"/>
    <use x="91.411426" y="240.33229" xlink:href="#path64"/>
    <use x="96.589746" y="240.33229" xlink:href="#path66"/>
    <use x="99.594629" y="243.38229" xlink:href="#path76"/>
    <use x="104.39834" y="244.03229" xlink:href="#path108"/>
    <use x="112.45283" y="238.11979" xlink:href="#path140"/>
    <use x="120.3124" y="241.03229" xlink:href="#path74"/>
    <use x="121.58291" y="244.03229" xlink:href="#path158"/>
    <use x="128.15322" y="244.03229" xlink:href="#path146"/>
    <use x="132.47588" y="240.33229" xlink:href="#path64"/>
    <use x="140.7792" y="240.33229" xlink:href="#path66"/>
    <use x="143.78408" y="243.38229" xlink:href="#path76"/>
    <use x="148.58779" y="244.03229" xlink:href="#path108"/>
    <use x="156.64229" y="238.11979" xlink:href="#path140"/>
    <use x="74.649805" y="255.90729" xlink:href="#path146"/>
    <use x="77.872461" y="255.90729" xlink:href="#path54"/>
    <use x="85.539844" y="252.20729" xlink:href="#path64"/>
    <use x="90.905664" y="252.90729" xlink:href="#path74"/>
    <use x="95.013672" y="254.10729" xlink:href="#path88"/>
    <use x="97.507227" y="255.25729" xlink:href="#path76"/>
    <use x="106.38594" y="249.99479" xlink:href="#path140"/>
    <use x="109.02051" y="257.48229" xlink:href="#path120"/>
    <path id="path344" style="" d="m 21.984668,263.93281 q -0.45,0.75 -0.8125,1.35 -0.15,0.2625 -0.3125,0.5125 -0.15,0.25 -0.275,0.45 -0.1125,0.2 -0.2,0.3375 -0.0875,0.1375 -0.1125,0.1625 0.05,-0.0125 0.3,-0.025 0.2625,-0.0125 0.55,-0.0375 0.3375,-0.025 0.7625,-0.0375 l -4.2625,2.4375 1.35,0.625 -4.3875,1.55 1.725,-1.4375 -0.6375,-0.45 3.1125,-4.9375 -0.3875,1.85 3.5875,-2.35 z m -2.425,5.8875 q 0.1,0.6875 -0.0375,1.3625 -0.125,0.6625 -0.4625,1.25 -0.325,0.5875 -0.8375,1.05 -0.5125,0.4625 -1.1875,0.7375 -0.8,0.3375 -1.625,0.3125 -0.8125,-0.0125 -1.55,-0.325 -0.725,-0.3 -1.3125,-0.8875 -0.5875,-0.575 -0.9,-1.375 -0.3375,-0.7875 -0.325,-1.6125 0.025,-0.825 0.325,-1.55 0.3125,-0.7375 0.875,-1.325 0.575,-0.5875 1.3625,-0.9125 0.8,-0.3125 1.6,-0.2875 0.8125,0.0125 1.55,0.2875 l -1.1,1.7875 q -0.1875,-0.475 -0.25,-0.925 -0.0625,-0.4625 0,-0.825 -0.125,0.625 -0.425,1.0125 -0.3,0.375 -0.6625,0.475 -0.3625,0.0875 -0.7375,-0.1125 -0.3625,-0.2 -0.625,-0.7375 0.2625,0.5375 0.2125,1.0625 -0.0375,0.5125 -0.3125,0.9 -0.275,0.3875 -0.725,0.575 -0.45,0.1875 -0.9875,0.0625 0.5375,0.125 0.8875,0.4375 0.35,0.3125 0.475,0.725 0.125,0.4 0,0.85 -0.125,0.45 -0.525,0.85 0.4375,-0.2625 0.85,-0.25 0.425,0 0.725,0.2375 0.3125,0.225 0.475,0.65 0.1625,0.425 0.0875,1 0.075,-0.575 0.3875,-0.925 0.3125,-0.3375 0.7375,-0.4125 0.425,-0.0875 0.875,0.1 0.4625,0.175 0.825,0.6625 -0.3625,-0.4875 -0.375,-0.9375 -0.0125,-0.45 0.2375,-0.7625 0.25,-0.325 0.725,-0.4625 0.4875,-0.15 1.1125,0 -0.4,-0.0875 -0.8,-0.3375 -0.3875,-0.2625 -0.75,-0.6625 l 1.8375,-0.6375 0.35,-0.125 z m -0.2625,-0.925 q 0.1125,0.275 0.2,0.5625 l -0.275,-0.1125 -0.7,-0.325 0.6625,-0.3625 q 0.025,0.0625 0.05,0.125 0.0375,0.05 0.0625,0.1125 z"/>
    <path id="path346" style="" d="m 23.754395,269.75781 c 0.425,0 0.7,-0.2875 0.7,-0.6875 0,-0.4 -0.275,-0.7375 -0.7,-0.7375 -0.4,0 -0.7,0.3125 -0.7,0.7375 0,0.425 0.3375,0.6875 0.7,0.6875 z m 0,3.675 c 0.425,0 0.7,-0.2875 0.7,-0.6875 0,-0.4 -0.275,-0.7375 -0.7,-0.7375 -0.4,0 -0.7,0.3125 -0.7,0.7375 0,0.425 0.3375,0.6875 0.7,0.6875 z"/>
    <path id="path348" style="" d="m 30.041895,271.38281 c 0,1.3125 -0.025,1.475 -0.75,1.5625 l -0.3125,0.0375 c -0.075,0.0875 -0.05,0.275 0.025,0.3125 0.5875,-0.025 1.0375,-0.0375 1.5625,-0.0375 0.5,0 0.925,0.0125 1.4875,0.0375 0.075,-0.0375 0.1,-0.25 0.025,-0.3125 l -0.2625,-0.0375 c -0.725,-0.1 -0.75,-0.25 -0.75,-1.5625 l 0,-1.575 c 0,-0.2625 0.025,-0.275 0.5875,-0.275 0.5,0 0.7,0.125 0.8875,0.4 0.3875,0.5625 0.9,1.425 1.225,1.8875 0.8875,1.2625 1.525,1.575 2.5875,1.575 0.2375,0 0.4375,-0.025 0.55,-0.0625 0.0625,-0.05 0.05,-0.15 -0.0125,-0.175 -0.3375,-0.025 -0.65,-0.1625 -0.8625,-0.35 -0.85,-0.7125 -1.5125,-1.7125 -2.5125,-3.325 -0.0625,-0.1 -0.125,-0.225 -0.0625,-0.3 0.625,-0.25 1.5625,-0.9 1.5625,-2.0875 0,-0.875 -0.4375,-1.4375 -1.0375,-1.75 -0.575,-0.3125 -1.3125,-0.375 -2.0875,-0.375 -1.225,0 -2.0875,0.0375 -2.7875,0.1 -0.1,0.05 -0.1,0.25 -0.0125,0.3125 l 0.4,0.05 c 0.5125,0.0625 0.55,0.275 0.55,1.4625 l 0,4.4875 z m 1.025,-5.625 c 0,-0.35 0.0375,-0.4 0.8125,-0.4 1.3875,0 2,0.9375 2,1.925 0,0.85 -0.2875,1.2875 -0.625,1.55 -0.3625,0.275 -0.8375,0.325 -1.2875,0.325 -0.6375,0 -0.825,-0.025 -0.8625,-0.0625 -0.0375,-0.05 -0.0375,-0.1875 -0.0375,-0.4125 l 0,-2.925 z"/>
    <use x="39.452051" y="268.15781" xlink:href="#path68"/>
    <use x="44.456152" y="265.94531" xlink:href="#path56"/>
    <use x="47.532324" y="265.94531" xlink:href="#path56"/>
    <path id="path356" style="" d="m 54.458496,271.73281 c 0,0.9625 -0.0125,1.175 -0.5375,1.2125 l -0.5125,0.0375 c -0.075,0.075 -0.0625,0.275 0.025,0.3125 0.4875,-0.025 1.05,-0.0375 1.5,-0.0375 0.4375,0 1,0.0125 1.4875,0.0375 0.0875,-0.0375 0.1,-0.2375 0.025,-0.3125 l -0.525,-0.0375 c -0.5125,-0.0375 -0.5375,-0.25 -0.5375,-1.2125 l 0,-4.85 c 0,-0.7125 0.025,-1.3375 0.05,-1.5625 -0.025,-0.0375 -0.075,-0.0625 -0.125,-0.0625 -0.325,0.2125 -1.0125,0.5375 -2.0625,0.725 -0.1,0.05 -0.0875,0.225 0.0125,0.275 l 0.6,0.05 c 0.5625,0.05 0.6,0.325 0.6,1.175 l 0,4.25 z"/>
    <use x="66.383496" y="265.94531" xlink:href="#path140"/>
    <use x="68.680566" y="271.85781" xlink:href="#path146"/>
    <use x="74.615723" y="270.05781" xlink:href="#path88"/>
    <use x="77.196777" y="273.43281" xlink:href="#path120"/>
    <use x="86.909277" y="273.45781" xlink:href="#path52"/>
    <use x="92.972559" y="271.85781" xlink:href="#path54"/>
    <use x="102.91494" y="271.20781" xlink:href="#path76"/>
    <path id="path372" style="" d="m 113.03115,270.89531 c 0.325,0 0.3625,0.0125 0.3625,0.3125 l 0,0.525 c 0,0.9625 -0.0375,1.175 -0.5625,1.2125 l -0.5625,0.0375 c -0.075,0.075 -0.0625,0.275 0.025,0.3125 0.55,-0.025 1.1125,-0.0375 1.5625,-0.0375 0.3875,0 0.85,0.0125 1.3,0.0375 0.0875,-0.0375 0.1,-0.2375 0.025,-0.3125 l -0.325,-0.0375 c -0.5125,-0.0625 -0.5375,-0.225 -0.5375,-1.2125 l 0,-0.5625 c 0,-0.2625 0.0625,-0.275 0.375,-0.275 l 0.675,0 c 0.1125,-0.1125 0.1125,-0.4375 0,-0.525 l -0.8,0 c -0.2125,0 -0.25,-0.05 -0.25,-0.2875 l 0,-2.4125 c 0,-0.25 0,-0.4 -0.175,-0.3875 -0.2,0.0125 -0.4875,0.1125 -0.6375,0.2125 -0.1,0.0625 -0.1125,0.1625 -0.1125,0.25 l 0,2.3 c 0,0.2875 -0.05,0.325 -0.35,0.325 l -1.9375,0 c -0.325,0 -0.5,0 -0.35,-0.2 l 3.975,-5.5 c 0.0375,-0.05 0.0625,-0.1 0.0625,-0.1375 0,-0.0625 -0.0625,-0.1 -0.1875,-0.1 l -0.2125,0 c -0.125,0 -0.2,0.0625 -0.2875,0.175 l -4.0125,5.6 c -0.175,0.25 -0.225,0.325 -0.225,0.475 0,0.125 0.0625,0.2125 0.175,0.2125 l 2.9875,0 z"/>
    <use x="117.28115" y="271.73281" xlink:href="#path194"/>
    <path id="path376" style="" d="m 123.09365,268.07031 c -0.0875,0.2875 -0.075,0.3875 0.1125,0.3875 1.475,0.025 3.3625,0.475 3.3625,2.25 0,1.7125 -1.65,2.9 -3.5875,3.0125 -0.1125,0.0875 -0.1,0.3375 0.0375,0.3875 1.9875,-0.0625 4.475,-1.5625 4.475,-3.725 0,-1.9 -1.75,-2.5875 -3.3125,-2.7375 l -0.2625,-0.025 c -0.175,-0.0125 -0.225,-0.075 -0.175,-0.225 l 0.225,-0.75 c 0.075,-0.2375 0.1375,-0.3 0.425,-0.3375 l 2.3625,-0.3375 c 0.175,-0.1875 0.3625,-0.5 0.45,-0.775 0,-0.05 -0.0375,-0.125 -0.1125,-0.1125 l -3.0125,0.425 c -0.2,0.025 -0.2625,0.1375 -0.325,0.3375 l -0.6625,2.225 z"/>
    <use x="129.78115" y="271.73281" xlink:href="#path194"/>
    <use x="137.71865" y="268.15781" xlink:href="#path68"/>
    <use x="141.92275" y="271.85781" xlink:href="#path108"/>
    <use x="45.580078" y="282.18282" xlink:href="#path60"/>
    <use x="52.742578" y="283.60782" xlink:href="#path194"/>
    <use x="62.880078" y="277.82032" xlink:href="#path140"/>
    <use x="65.177148" y="283.73282" xlink:href="#path146"/>
    <use x="69.499805" y="280.03282" xlink:href="#path64"/>
    <use x="74.678125" y="280.03282" xlink:href="#path66"/>
    <use x="77.683008" y="283.08282" xlink:href="#path76"/>
    <use x="82.486719" y="283.73282" xlink:href="#path108"/>
    <use x="90.541211" y="277.82032" xlink:href="#path140"/>
    <use x="98.400781" y="280.73282" xlink:href="#path74"/>
    <use x="99.671289" y="283.73282" xlink:href="#path158"/>
    <use x="106.2416" y="283.73282" xlink:href="#path146"/>
    <use x="110.56426" y="280.03282" xlink:href="#path64"/>
    <use x="118.86758" y="280.03282" xlink:href="#path66"/>
    <use x="121.87246" y="283.08282" xlink:href="#path76"/>
    <use x="126.67617" y="283.73282" xlink:href="#path108"/>
    <use x="134.73066" y="277.82032" xlink:href="#path140"/>
    <use x="137.36523" y="285.30782" xlink:href="#path120"/>
  </g>
  <g id="text4147" style="fill:#000000;fill-opacity:1;stroke:none;stroke-width:1px;stroke-linecap:butt;stroke-linejoin:miter;stroke-opacity:1">
    <path id="path421" style="" d="m 37.020574,16.079937 c -0.81875,0 -1.575,0.2875 -2.1,0.7625 -0.5125,0.4625 -0.89375,1.15625 -0.89375,1.88125 0,1.3125 0.9375,1.68125 1.75,1.68125 0.21875,0 0.425,-0.04375 0.60625,-0.075 0.1875,-0.03125 0.35625,-0.06875 0.49375,-0.06875 0.2125,-0.38125 0.35,-0.7125 0.40625,-0.88125 -0.01875,-0.05625 -0.0875,-0.06875 -0.15,-0.04375 -0.3,0.49375 -0.69375,0.875 -1.34375,0.875 -0.79375,0 -1.2125,-0.48125 -1.2125,-1.36875 0,-0.825 0.425,-1.55625 0.7375,-1.86875 0.575,-0.5625 1.15625,-0.7 1.6,-0.7 0.64375,0 0.8,0.29375 0.68125,0.8375 0.01875,0.05 0.14375,0.05625 0.16875,0.0062 0.05625,-0.23125 0.18125,-0.59375 0.28125,-0.8375 -0.15625,-0.0625 -0.5375,-0.2 -1.025,-0.2 z"/>
    <use x="39.267352" y="17.754937" xlink:href="#path423"/>
    <use x="41.500164" y="18.011187" xlink:href="#path425"/>
    <path id="path427" style="" d="m 45.549871,17.948687 c -0.06875,-0.13125 -0.21875,-0.19375 -0.31875,-0.19375 -0.3,0 -0.69375,0.175 -1.11875,0.55625 -0.49375,0.44375 -0.83125,1.1875 -0.83125,1.63125 0,0.25 0.13125,0.45 0.375,0.45 0.60625,0 1.075,-0.60625 1.50625,-1.18125 l 0.025,0.0063 -0.21875,0.61875 c -0.0625,0.18125 -0.08125,0.28125 -0.08125,0.35625 0,0.1 0.06875,0.2 0.2,0.2 0.325,0 0.89375,-0.5125 1.0625,-0.85625 -0.0062,-0.05625 -0.0375,-0.08125 -0.09375,-0.08125 -0.19375,0.24375 -0.5875,0.5625 -0.6875,0.5625 -0.05625,0 -0.0625,-0.0625 -0.0375,-0.14375 0.05625,-0.1875 0.35,-1.1875 0.96875,-2.89375 0.1875,-0.51875 0.28125,-0.75625 0.39375,-1.10625 l -0.025,-0.0375 c -0.26875,-0.0063 -0.61875,0.075 -0.7375,0.11875 -0.025,0.025 -0.03125,0.0625 -0.01875,0.0875 l 0.14375,0.1 c 0.0875,0.0625 0.06875,0.16875 -0.05625,0.51875 l -0.45,1.2875 z m -0.33125,-0.0062 c 0.15625,0 0.2375,0.1875 0.1625,0.45 -0.09375,0.33125 -0.275,0.70625 -0.7625,1.20625 -0.43125,0.44375 -0.75,0.55625 -0.84375,0.55625 -0.05625,0 -0.11875,-0.05625 -0.11875,-0.13125 0,-0.08125 0,-0.19375 0.19375,-0.59375 0.19375,-0.39375 0.64375,-0.9875 0.89375,-1.21875 0.1625,-0.15 0.33125,-0.26875 0.475,-0.26875 z"/>
    <use x="46.39743" y="20.167437" xlink:href="#path429"/>
    <path id="path431" style="" d="m 49.912078,18.142437 c 0.08125,-0.04375 0.11875,-0.16875 0.075,-0.23125 l -0.68125,0 0.18125,-0.6125 c -0.05,-0.0625 -0.175,-0.075 -0.2375,-0.0375 l -0.35,0.61875 -0.5,0.0875 c -0.0625,0.025 -0.08125,0.1125 -0.06875,0.175 l 0.4875,0 -0.5875,1.725 c -0.0625,0.1875 -0.0875,0.275 -0.0875,0.35625 0,0.075 0.08125,0.16875 0.16875,0.16875 0.2625,0 0.85,-0.38125 1.2,-0.9 0.0125,-0.075 -0.025,-0.1125 -0.0875,-0.1125 -0.20625,0.2375 -0.61875,0.5625 -0.7125,0.5625 -0.05,0 -0.08125,-0.0375 -0.04375,-0.15625 l 0.5625,-1.64375 0.68125,0 z"/>
    <use x="49.900848" y="20.167437" xlink:href="#path429"/>
    <use x="53.146746" y="17.754937" xlink:href="#path423"/>
    <use x="55.379559" y="18.011187" xlink:href="#path425"/>
  </g>
<defs><path id="path52" d="m 0,0 c 2.4125,0 4.3375,-1.8375 4.3375,-4.3625 0,-2.2 -1.45,-4.2875 -4.3375,-4.2875 -2.575,0 -4.45,1.9125 -4.45,4.4125 0,2.25 1.675,4.2375 4.45,4.2375 z m 0.1625,-0.3875 c -2.4625,0 -3.3625,-2.4 -3.3625,-4.25 0,-2.7375 1.6875,-3.625 2.9875,-3.625 2.3875,0 3.3,2.225 3.3,4.2875 0,2.4625 -1.425,3.5875 -2.925,3.5875 z"/><path id="path54" d="m 0,0 c 0,0.9 -0.0125,1.025 -0.475,1.0875 l -0.2625,0.0375 c -0.0875,0.0625 -0.0625,0.275 0.025,0.3125 0.35,-0.025 0.725,-0.0375 1.175,-0.0375 0.4375,0 0.8,0.0125 1.1375,0.0375 0.0875,-0.0375 0.1125,-0.25 0.025,-0.3125 l -0.225,-0.0375 c -0.45,-0.075 -0.475,-0.1875 -0.475,-1.0875 l 0,-1.9125 c 0,-0.3625 0.025,-0.5375 0.1875,-0.75 0.175,-0.2375 0.5875,-0.4375 1.0625,-0.4375 0.85,0 1.175,0.525 1.175,1.2375 l 0,1.8625 c 0,0.9 -0.0125,1.0125 -0.475,1.0875 l -0.2375,0.0375 c -0.0875,0.0625 -0.0625,0.275 0.025,0.3125 0.3375,-0.025 0.7125,-0.0375 1.1625,-0.0375 0.4375,0 0.8,0.0125 1.175,0.0375 0.0875,-0.0375 0.1125,-0.25 0.025,-0.3125 l -0.275,-0.0375 c -0.45,-0.0625 -0.475,-0.1875 -0.475,-1.0875 l 0,-2.15 c 0,-0.8375 -0.425,-1.55 -1.4625,-1.55 -0.6375,0 -1.225,0.3125 -1.75,0.6375 -0.0875,0 -0.1375,-0.0625 -0.1375,-0.1375 0,-0.1125 0,-0.3 0.025,-0.5875 -0.025,-0.0625 -0.0875,-0.0875 -0.1375,-0.0875 -0.25,0.1875 -0.9625,0.5125 -1.25,0.6125 -0.0625,0.0375 -0.0625,0.175 -0.0125,0.225 l 0.1125,0.075 c 0.3375,0.225 0.3375,0.2875 0.3375,0.775 l 0,2.1875 z"/><path id="path56" d="m 0,0 c 0,-0.55 0.025,-1.175 0.0375,-1.55 -0.025,-0.05 -0.075,-0.075 -0.125,-0.075 -0.45,0.2375 -1.0375,0.425 -1.35,0.525 -0.0625,0.0375 -0.0625,0.2125 0,0.25 l 0.125,0.075 c 0.375,0.225 0.3875,0.3 0.3875,1.0375 l 0,5.65 c 0,0.9 -0.0125,1.025 -0.475,1.0875 l -0.2875,0.0375 c -0.0875,0.0625 -0.0625,0.275 0.025,0.3125 0.375,-0.025 0.75,-0.0375 1.2,-0.0375 0.4375,0 0.8,0.0125 1.2125,0.0375 0.0875,-0.0375 0.1125,-0.25 0.025,-0.3125 l -0.3,-0.0375 c -0.45,-0.0625 -0.475,-0.1875 -0.475,-1.0875 l 0,-5.9125 z"/><path id="path58" d="m 0,0 c 0.2875,0 0.587499,-0.1125 0.799999,-0.5875 0.612501,-1.3625 1.637501,-3.5375 2.050001,-4.375 l 0.699999,-1.4375 c 0.425001,-0.8875 0.65,-1.25 1.0625,-1.325 l 0.2125,-0.0375 c 0.0875,-0.075 0.075,-0.2625 -0.025,-0.3125 -0.35,0.025 -0.637499,0.0375 -0.949999,0.0375 -0.325001,0 -0.700001,-0.0125 -1.1,-0.0375 -0.100001,0.0375 -0.112501,0.25 -0.025,0.3125 l 0.387499,0.0625 c 0.225,0.0375 0.300001,0.125 0.300001,0.2125 0,0.1375 -0.1625,0.6 -0.4375,1.25 l -0.425001,0.9875 c -0.225,0.5125 -0.424999,0.9 -0.4625,0.925 -0.05,-0.025 -0.2875,-0.6875 -0.362499,-0.8875 l -0.400001,-1.15 c -0.075,-0.2125 -0.3625,-1.025 -0.3625,-1.175 0,-0.0875 0.100001,-0.125 0.275,-0.1625 l 0.3125,-0.0625 c 0.0875,-0.0625 0.075,-0.275 -0.025,-0.3125 -0.399999,0.025 -0.75,0.0375 -1.087499,0.0375 -0.412501,0 -0.787501,-0.0125 -1.1875,-0.0375 -0.100001,0.0375 -0.112501,0.25 -0.0375,0.3125 l 0.3125,0.0625 c 0.4375,0.0875 0.525,0.3875 0.7375,0.975 l 0.975,2.675 c 0.1625,0.4625 0.2125,0.6125 0.2125,0.8625 0,0.175 -0.0875,0.4375 -0.125,0.5375 -0.1125,0.3 -0.3625,0.825 -0.724999,1.3875 -0.0875,0.1375 -0.212501,0.225 -0.4125,0.225 l -0.237501,0 c -0.275,0 -0.5,0.1625 -0.5,0.5 0,0.3125 0.1875,0.5375 0.550001,0.5375 z"/><path id="path60" d="m 0,0 c 0,1.7 0.8625,3.125 2.6875,3.125 1.5625,0 2.637501,-1.15 2.637501,-2.6125 0,-1.275 -0.7875,-2.2375 -1.987501,-2.2375 -0.487499,0 -0.862499,0.15 -1.225,0.375 -0.05,0.075 -0.0375,0.1625 0.0375,0.2 0.125,-0.0375 0.325001,-0.1 0.575001,-0.1 1.0625,0 1.5375,1.025 1.5375,2.0875 0,1.0625 -0.475,1.9125 -1.4125,1.9125 -1.237501,0 -1.737501,-1.3375 -1.737501,-2.7875 0,-1.2875 0.362501,-2.6625 1.425001,-3.7875 0.899999,-0.9625 1.975,-1.325 2.774999,-1.6 0.0625,-0.0625 0.0375,-0.225 -0.05,-0.2625 -0.762501,0.1 -2.2875,0.5 -3.587501,1.775 -1.324999,1.3 -1.675,2.85 -1.675,3.9125 z"/><path id="path64" d="m 0,0 c -0.95,0 -1.7,0.5125 -1.7,1.425 0,0.6875 0.5125,1.125 1.2375,1.5375 0.4625,0.2625 0.9625,0.575 0.9625,1.15 0,0.5375 -0.3875,0.8 -0.8375,0.8 -0.7125,0 -1.1125,-0.6 -1.325,-1.2875 -0.0625,-0.075 -0.225,-0.0625 -0.2875,0.0125 -0.025,0.4125 0.05,1.025 0.15,1.2625 0.3125,0.25 0.75,0.375 1.3375,0.375 0.925,0 1.8,-0.475 1.8,-1.425 0,-0.8875 -0.6125,-1.3125 -1.275,-1.6875 -0.4375,-0.25 -0.9625,-0.525 -0.9625,-1.0375 0,-0.45 0.3125,-0.7625 0.8,-0.7625 0.5125,0 0.8875,0.3625 1.1,0.9125 0.0625,0.075 0.25,0.05 0.3,-0.0375 0,-0.3375 -0.0875,-0.7375 -0.2,-1.0125 -0.1125,-0.1 -0.575,-0.225 -1.1,-0.225 z"/><path id="path66" d="m 0,0 c -2.075,0 -3.025,1.4375 -3.025,2.7875 0,0.8125 0.2875,1.425 0.725,1.85 0.4375,0.425 1.05,0.6375 1.7125,0.6375 0.725,0 1.6625,-0.35 2.0875,-1.275 -0.0125,-0.1125 -0.125,-0.2 -0.225,-0.175 -0.2875,0.425 -0.6625,0.75 -1.3875,0.75 -1.3375,0 -2.0125,-1.1625 -2.0125,-2.1375 0,-1.325 0.85,-2.0125 1.725,-2.0125 0.5125,0 0.975,0.325 1.25,0.6625 0.05,0.0625 0.1125,0.0875 0.175,0.0875 0.15,0 0.275,-0.2375 0.275,-0.4625 0,-0.2125 -0.0875,-0.4125 -0.1875,-0.5 -0.3375,-0.15 -0.825,-0.2125 -1.1125,-0.2125 z"/><path id="path68" d="m 0,0 c -1.475,0 -2.6625,1.125 -2.6625,2.7 0,1.5625 1.125,2.575 2.5625,2.575 1.5625,0 2.6375,-1.125 2.6375,-2.6875 0,-1.5375 -1.1375,-2.5875 -2.5375,-2.5875 z m 1.4625,2.7875 c 0,0.9625 -0.3375,2.1125 -1.4375,2.1125 -1.1,0 -1.6125,-1.225 -1.6125,-2.3625 0,-1.375 0.6125,-2.1625 1.4375,-2.1625 1.1875,0 1.6125,1.35 1.6125,2.4125 z"/><path id="path70" d="m 0,0 c 0,-0.6125 0.0125,-0.875 0.0375,-1.0875 -0.0125,-0.05 -0.05,-0.075 -0.125,-0.0875 -0.275,0.1 -0.7625,0.2125 -1.3375,0.225 -0.0875,0.0375 -0.1,0.2125 -0.025,0.275 l 0.15,0.0625 c 0.375,0.1625 0.375,0.275 0.375,1.0625 l 0,2.0875 c 0,1.0125 0.4125,1.5625 1.5125,1.5625 0.7375,0 1.35,-0.4125 1.725,-0.65 0.075,0 0.1125,0.0625 0.1125,0.175 l 0,0.5125 c 0.025,0.05 0.0875,0.0875 0.15,0.0875 0.425,-0.2375 1.15,-0.3625 1.6375,-0.4625 0.1,-0.05 0.0875,-0.3 0.0125,-0.3625 -0.175,0.0375 -0.3375,0.0625 -0.4875,0.0625 -0.35,0 -0.3875,-0.375 -0.3875,-1.3625 l 0,-2.1 c 0,-0.4625 0.0125,-0.85 0.0375,-1.0875 -0.0125,-0.05 -0.05,-0.075 -0.1125,-0.0875 -0.275,0.125 -0.9625,0.2125 -1.4625,0.225 -0.1,0.05 -0.1,0.225 -0.0125,0.275 l 0.1625,0.0625 c 0.375,0.15 0.4625,0.175 0.4625,0.9875 l 0,2.05 c 0,0.3875 -0.0875,0.575 -0.25,0.725 -0.275,0.2375 -0.675,0.375 -1.0125,0.375 -0.95,0 -1.1625,-0.575 -1.1625,-1.4375 l 0,-2.0875 z"/><path id="path74" d="m 0,0 c 0.1125,-0.075 0.1375,-0.4125 -0.0125,-0.525 l -1.3875,0 c -0.2125,0 -0.225,-0.0125 -0.225,-0.2375 l 0,-0.5625 c -0.05,-0.0875 -0.2,-0.0875 -0.2625,-0.0625 -0.125,0.25 -0.3625,0.5875 -0.525,0.7375 -0.125,0.1125 -0.4375,0.275 -0.8,0.3875 -0.05,0.075 -0.0375,0.2125 0.0375,0.2625 l 0.35,0 c 0.25,0 0.2625,0.025 0.2625,0.3625 l 0,2.8625 c 0,0.75 0.225,1.35 1.3,1.35 0.6375,0 1.0875,-0.3125 1.3125,-0.575 0.025,-0.075 -0.025,-0.2125 -0.125,-0.2125 -0.0375,0 -0.2,0.1375 -0.3125,0.175 -0.1,0.0375 -0.2125,0.0625 -0.3375,0.0625 -0.825,0 -0.9125,-0.6625 -0.9125,-1.3875 l 0,-2.3375 c 0,-0.2625 0.0125,-0.3 0.225,-0.3 l 1.4125,0 z"/><path id="path76" d="m 0,0 c -0.8,0.2875 -1.0375,0.575 -1.0375,1.0625 0,0.35 0.15,0.6625 0.3875,0.875 0.2125,0.1875 0.5125,0.2875 0.875,0.2875 0.35,0 0.625,-0.1625 0.9,-0.3125 0.25,-0.1375 0.4,-0.25 0.4875,-0.25 0.075,0 0.15,0.1 0.2,0.175 0.2125,0.275 0.5125,0.3875 0.8125,0.3875 0.6125,0 1.05,-0.4875 1.05,-0.55 0,-0.0875 -0.0375,-0.1625 -0.0875,-0.1625 -0.0375,0 -0.1,0.05 -0.1625,0.0875 -0.075,0.0375 -0.1875,0.075 -0.3125,0.075 -0.4875,0 -0.6,-0.5125 -0.575,-1.0875 l 0.075,-2.175 c 0.0375,-0.9375 -0.4,-1.4625 -1.3,-1.4625 -0.9125,0 -2.325,0.8875 -2.325,1.5375 0,0.1125 0.0625,0.175 0.175,0.175 0.1875,0 0.525,-0.0875 0.7125,-0.2375 0.1,-0.075 0.1125,-0.225 0.125,-0.425 0.025,-0.3875 0.45,-0.5625 0.8,-0.5625 0.775,0 0.925,0.625 0.9125,1.0875 l -0.0125,0.575 c 0,0.1875 -0.025,0.3 -0.2125,0.3625 l -1.4875,0.5375 z m -0.075,0.9125 c 0,-0.4875 0.3625,-0.675 1.1,-0.925 0.225,-0.075 0.4375,-0.125 0.5125,-0.125 0.075,0 0.125,0.025 0.125,0.1625 l -0.025,0.7375 c -0.0125,0.2625 -0.0125,0.4375 -0.1625,0.5875 -0.125,0.125 -0.5125,0.3125 -0.7625,0.3125 -0.6375,0 -0.7875,-0.5375 -0.7875,-0.75 z"/><path id="path88" d="m 0,0 c 0.525,0 0.7,-0.0125 0.7375,-0.0875 0.025,-0.05 0.05,-0.15 0.05,-0.325 0,-0.75 -0.7,-1.4875 -1.775,-1.4875 -1.5,0 -2.5125,1.2875 -2.5125,2.825 0,0.55 0.15,1.1375 0.525,1.625 0.3625,0.475 1,0.825 1.8125,0.825 0.65,0 1.55,-0.3125 1.9625,-1.1625 -0.0125,-0.1125 -0.1,-0.1875 -0.225,-0.15 -0.3875,0.4875 -0.7375,0.6125 -1.15,0.6125 -1.3375,0 -2.075,-1.075 -2.075,-2.3375 0,-0.3125 0.0125,-0.3375 0.3375,-0.3375 l 2.3125,0 z m -2.425,-0.375 c -0.0875,0 -0.0875,-0.0375 -0.0875,-0.0625 0.0125,-0.4125 0.65,-1.0875 1.3875,-1.0875 0.725,0 0.9625,0.4375 0.9625,0.7875 0,0.1625 -0.0375,0.2125 -0.075,0.2375 -0.1,0.075 -0.375,0.125 -1.3,0.125 l -0.8875,0 z"/><path id="path108" d="m 0,0 c 0,0.9 -0.0125,1.0125 -0.475,1.0875 l -0.2375,0.0375 c -0.0875,0.0625 -0.0625,0.275 0.025,0.3125 0.325,-0.025 0.7,-0.0375 1.15,-0.0375 0.4375,0 0.8,0.0125 1.3875,0.0375 0.0875,-0.0375 0.1125,-0.25 0.025,-0.3125 l -0.45,-0.0375 c -0.475,-0.0375 -0.5,-0.1875 -0.5,-1.0875 l 0,-1.7 c 0,-0.425 0.0375,-0.7875 0.1625,-0.9625 0.1,-0.1375 0.25,-0.25 0.45,-0.25 0.175,0 0.3625,0.075 0.55,0.2 0.0875,0.05 0.15,0.0875 0.275,0.0875 0.2,0 0.5375,-0.1625 0.5375,-0.575 0,-0.3 -0.25,-0.5 -0.5625,-0.5 -0.4625,0 -0.9375,0.3875 -1.375,0.75 -0.025,-0.0125 -0.0375,-0.05 -0.0375,-0.1125 l 0,-0.725 c 0,-0.05 -0.0375,-0.075 -0.1,-0.0875 -0.3125,0.1875 -0.975,0.5125 -1.2625,0.6125 -0.0625,0.0375 -0.0625,0.175 -0.0125,0.225 l 0.1125,0.075 c 0.3375,0.225 0.3375,0.2875 0.3375,0.775 l 0,2.1875 z"/><path id="path120" d="m 0,0 c 0.425,0 0.7,-0.2875 0.7,-0.6875 0,-0.4 -0.275,-0.7375 -0.7,-0.7375 -0.4,0 -0.7,0.3125 -0.7,0.7375 0,0.425 0.3375,0.6875 0.7,0.6875 z"/><path id="path122" d="m 0,0 c 0,1.325 -0.025,1.5 -0.7625,1.5875 l -0.3125,0.0375 c -0.075,0.075 -0.05,0.275 0.025,0.3125 0.625,-0.025 1.05,-0.0375 1.575,-0.0375 0.5,0 0.925,0.0125 1.55,0.0375 0.075,-0.0375 0.1,-0.2625 0.025,-0.3125 l -0.3125,-0.0375 c -0.7375,-0.0875 -0.7625,-0.2625 -0.7625,-1.5875 l 0,-4.45 c 0,-1.325 0.025,-1.5375 0.7625,-1.6 l 0.3125,-0.025 c 0.075,-0.05 0.05,-0.275 -0.025,-0.3125 -0.625,0.025 -1.05,0.0375 -1.55,0.0375 -0.525,0 -0.95,-0.0125 -1.575,-0.0375 -0.075,0.0375 -0.1,0.2625 -0.025,0.3125 l 0.3125,0.025 c 0.7375,0.0625 0.7625,0.275 0.7625,1.6 l 0,4.45 z"/><path id="path124" d="m 0,0 c 0.1375,-0.05 0.225,-0.4 0.0875,-0.525 l -1.425,0 c -0.2125,0 -0.2125,-0.0125 -0.2125,-0.35 l 0,-0.3625 c 0,-0.625 0.05,-1.5375 0.275,-2.1125 0.1875,-0.45 0.5,-0.6875 0.8875,-0.6875 0.4125,0 0.7625,0.275 1,0.55 0.0875,0.1 0.1625,0.15 0.3,0.15 0.2375,0 0.475,-0.2 0.475,-0.45 0,-0.45 -0.5625,-0.75 -1.225,-0.75 -1.2375,0 -1.9375,0.875 -2.25,1.5875 -0.3,0.7 -0.3875,1.475 -0.3875,2.2 0,0.125 -0.0875,0.2 -0.1875,0.25 l -0.5375,0.2625 c -0.05,0.075 -0.0375,0.1875 0.0375,0.2375 l 0.4375,0 c 0.25,0 0.25,0.025 0.25,0.3625 l 0,2.6375 c 0,0.9 -0.0125,1.025 -0.475,1.0875 l -0.2875,0.0375 c -0.0875,0.0625 -0.0625,0.275 0.025,0.3125 0.375,-0.025 0.75,-0.0375 1.2,-0.0375 0.4375,0 0.8,0.0125 1.3625,0.0375 0.0875,-0.0375 0.1125,-0.25 0.025,-0.3125 l -0.45,-0.0375 c -0.45,-0.0375 -0.475,-0.1875 -0.475,-1.0875 l 0,-2.6375 c 0,-0.3375 0,-0.3625 0.2125,-0.3625 l 1.3375,0 z"/><path id="path132" d="m 0,0 c 0.1,0.2625 0.3,0.775 0.375,1.0375 0.0375,0.0375 0.1,0.05 0.15,0.05 0.0625,0 0.1125,-0.0125 0.15,-0.05 0.1,-0.2875 0.275,-0.7375 0.5,-1.275 l 0.65,-1.5625 c 0.0875,-0.225 0.2625,-0.6125 0.275,-0.6125 0.0125,0 0.2,0.4125 0.2875,0.6375 l 0.6,1.4375 c 0.2125,0.5 0.4375,1.15 0.5125,1.375 0.0375,0.0375 0.0875,0.05 0.1375,0.05 0.0625,0 0.1125,-0.0125 0.1625,-0.05 0.1,-0.325 0.25,-0.6875 0.425,-1.1375 0.2375,-0.6375 0.8375,-2.1375 1.175,-2.8375 0.2625,-0.55 0.375,-0.725 0.675,-0.7875 l 0.25,-0.05 c 0.075,-0.0625 0.0625,-0.25 -0.0375,-0.3 -0.275,0.025 -0.575,0.0375 -0.8125,0.0375 -0.3125,0 -0.625,-0.0125 -0.9875,-0.0375 -0.0875,0.0375 -0.1125,0.2375 -0.0125,0.3 l 0.3125,0.05 c 0.15,0.025 0.225,0.0875 0.225,0.1625 0,0.0875 -0.025,0.25 -0.125,0.5375 -0.1875,0.525 -0.6875,1.85 -0.85,2.2125 -0.0875,0.2 -0.15,0.325 -0.175,0.35 -0.0375,-0.025 -0.0875,-0.1625 -0.1625,-0.35 -0.1375,-0.3375 -0.8125,-1.925 -0.95,-2.3375 -0.15,-0.4375 -0.175,-0.475 0.325,-0.575 l 0.2625,-0.05 c 0.075,-0.0625 0.075,-0.2625 -0.0375,-0.3 -0.425,0.025 -0.8,0.0375 -1.1875,0.0375 -0.325,0 -0.725,-0.0125 -1.0375,-0.0375 -0.1,0.0375 -0.125,0.225 -0.0375,0.3 l 0.2,0.05 c 0.275,0.0625 0.4625,0.1625 0.575,0.4375 0.0625,0.1625 0.05,0.325 -0.1125,0.725 l -0.6125,1.5125 c -0.15,0.3625 -0.25,0.575 -0.2875,0.6 0,-0.025 -0.1125,-0.25 -0.225,-0.5375 l -0.775,-1.9125 c -0.1375,-0.3375 -0.2,-0.575 -0.2,-0.65 0,-0.075 0.1,-0.15 0.275,-0.175 l 0.2875,-0.05 c 0.0875,-0.0625 0.075,-0.25 -0.025,-0.3 -0.3375,0.025 -0.7,0.0375 -1.0875,0.0375 -0.375,0 -0.725,-0.0125 -1.1125,-0.0375 -0.1125,0.05 -0.1,0.2375 -0.0375,0.3 l 0.2,0.05 c 0.3125,0.075 0.4625,0.2 0.75,0.9 l 1.15,2.825 z"/><path id="path140" d="m 0,0 c 0,-0.55 0.025,-1.175 0.0375,-1.55 -0.025,-0.05 -0.075,-0.075 -0.125,-0.075 -0.45,0.2375 -1.0375,0.425 -1.35,0.525 -0.0625,0.0375 -0.0625,0.2125 0,0.25 l 0.125,0.075 c 0.375,0.225 0.3875,0.3 0.3875,1.0375 l 0,1.8875 c 0,0.1 -0.0125,0.175 -0.075,0.175 -0.1375,-0.05 -0.4125,-0.1125 -0.8375,-0.1125 -1.7,0 -3.025,1.125 -3.025,2.875 0,1.3125 0.925,2.4 2.3125,2.4 0.6,0 1.025,-0.2 1.575,-0.575 l 0.05,0 c 0.025,0.05 0.025,0.2 0.025,0.3875 l 0,0.2125 c 0,0.0625 0.0625,0.1 0.1375,0.1 0.35,-0.1375 1.125,-0.325 1.65,-0.4 0.1125,-0.0625 0.1,-0.375 0.0125,-0.4 -0.1875,0.0625 -0.4,0.125 -0.5375,0.125 -0.35,0 -0.3625,-0.4625 -0.3625,-1.45 l 0,-5.4875 z m -0.925,6.075 c 0,0.2 -0.0125,0.3875 -0.0875,0.4625 -0.2,0.2 -0.625,0.35 -0.9625,0.35 -1.225,0 -1.8625,-1.075 -1.8625,-2.2125 0,-1.0875 0.5875,-2.075 1.725,-2.075 0.4875,0 0.8625,0.2625 1.05,0.525 0.0875,0.125 0.1375,0.2375 0.1375,0.4875 l 0,2.4625 z"/><path id="path142" d="m 0,0 c -0.275,0 -0.3625,-0.025 -0.7625,-0.2 -0.2875,-0.125 -0.725,-0.25 -1.2,-0.25 -1.1125,0 -2.0375,0.8125 -2.0375,1.8875 0,0.8 0.5125,1.2875 0.9375,1.5125 0,0.0625 -0.0625,0.1625 -0.125,0.2375 -0.2125,0.225 -0.45,0.4375 -0.6625,0.575 -0.1375,0.1 -0.1875,0.15 -0.1875,0.2125 0,0.4375 0.425,0.8625 0.9125,0.9875 0.1125,0.075 0.0125,0.1875 -0.1,0.3 -0.2875,0.2875 -0.6375,0.6125 -0.85,0.8375 -0.0875,0.1 -0.1375,0.2625 -0.1375,0.4625 0,0.625 0.5375,1.45 2.075,1.45 1.625,0 3.1125,-1 3.1125,-2.3625 0,-1.25 -1.05,-1.375 -1.75,-1.375 -0.55,0 -1.0625,0.0375 -1.4875,0.0375 -0.5875,0 -0.875,-0.2375 -0.875,-0.525 0,-0.3625 0.4,-0.6 0.55,-0.6875 0.15,0.0125 0.325,0.0375 0.55,0.0375 1.5875,0 2.1,-1.125 2.1,-1.9875 0,-0.2125 0,-0.425 -0.025,-0.6375 l 0.9,0 c 0.1875,-0.025 0.2125,-0.45 0.075,-0.5125 l -1.0125,0 z m -1.175,5.05 c 0.9,0 1.425,0.325 1.425,1.0875 0,0.7125 -0.7375,1.3375 -1.85,1.3375 -1.1375,0 -1.675,-0.5625 -1.675,-1.2375 0,-0.475 0.3,-0.8625 0.6,-1.05 0.175,-0.1125 0.675,-0.1375 1.075,-0.1375 l 0.425,0 z m -0.675,-2.275 c -0.6,0 -1.1375,-0.575 -1.1375,-1.4625 0,-0.85 0.45,-1.4 1.05,-1.4 0.7625,0 1.1125,0.7125 1.1125,1.5625 0,0.7625 -0.35,1.3 -1.025,1.3 z"/><path id="path146" d="m 0,0 c 0,0.9 -0.0125,1.025 -0.475,1.0875 l -0.2625,0.0375 c -0.0875,0.0625 -0.0625,0.275 0.025,0.3125 0.35,-0.025 0.725,-0.0375 1.175,-0.0375 0.4375,0 0.8,0.0125 1.175,0.0375 0.0875,-0.0375 0.1125,-0.25 0.025,-0.3125 l -0.2625,-0.0375 c -0.45,-0.0625 -0.475,-0.1875 -0.475,-1.0875 l 0,-2.25 c 0,-0.5125 0.025,-1.1125 0.05,-1.55 -0.0125,-0.05 -0.0625,-0.075 -0.125,-0.075 -0.2875,0.1875 -1,0.5125 -1.2875,0.6125 -0.0625,0.0375 -0.0625,0.175 -0.0125,0.225 l 0.1125,0.075 c 0.3375,0.225 0.3375,0.2875 0.3375,0.775 l 0,2.1875 z m 0.4125,-6.4 c -0.375,0 -0.675,0.2625 -0.675,0.675 0,0.3375 0.25,0.625 0.6375,0.625 0.35,0 0.6625,-0.2 0.6625,-0.65 0,-0.35 -0.25,-0.65 -0.625,-0.65 z"/><path id="path158" d="m 0,0 c 0,0.9 -0.0125,1.0375 -0.475,1.0875 l -0.3125,0.0375 c -0.0875,0.0625 -0.0625,0.275 0.025,0.3125 0.4,-0.025 0.775,-0.0375 1.225,-0.0375 0.4375,0 0.8,0.0125 1.175,0.0375 0.0875,-0.0375 0.1125,-0.2625 0.025,-0.3125 l -0.2625,-0.0375 c -0.45,-0.0625 -0.475,-0.1875 -0.475,-1.0875 l 0,-2.1 c 0,-0.4375 0.0375,-0.5 0.2625,-0.6875 0.225,-0.1875 0.55,-0.3375 0.975,-0.3375 0.8,0 1.1875,0.5375 1.1875,1.3375 l 0,1.7875 c 0,0.9 -0.0125,1.0125 -0.475,1.0875 l -0.25,0.0375 c -0.0875,0.0625 -0.0625,0.275 0.025,0.3125 0.3375,-0.025 0.7125,-0.0375 1.1625,-0.0375 0.4375,0 0.8,0.0125 1.25,0.0375 0.0875,-0.0375 0.1125,-0.25 0.025,-0.3125 l -0.3375,-0.0375 c -0.45,-0.05 -0.475,-0.1875 -0.475,-1.0875 l 0,-2.0875 c 0,-0.875 -0.425,-1.6125 -1.6125,-1.6125 -0.6375,0 -1.2375,0.3 -1.6875,0.65 -0.0375,-0.025 -0.05,-0.125 -0.05,-0.2375 l 0,-2.625 c 0,-0.55 0.025,-1.175 0.0375,-1.55 -0.025,-0.05 -0.075,-0.075 -0.125,-0.075 -0.45,0.2375 -1.0375,0.425 -1.35,0.525 -0.0625,0.0375 -0.0625,0.2125 0,0.25 l 0.125,0.075 c 0.375,0.225 0.3875,0.3 0.3875,1.0375 l 0,5.65 z"/><path id="path194" d="m 0,0 c -0.4,0 -0.6125,0.275 -0.6125,0.5625 0,0.15 0.05,0.275 0.2125,0.3625 0.1125,0.0625 0.7125,0.2 0.7125,0.725 0,0.65 -0.6375,0.9625 -1.025,1.0875 -0.075,0.0625 -0.0375,0.2625 0.075,0.3 0.875,-0.2625 1.625,-0.825 1.625,-1.8125 0,-0.825 -0.55,-1.225 -0.9875,-1.225 z"/><path id="path423" d="m 0,0 c -0.25625,0 -0.5375,0.09375 -0.8625,0.40625 -0.425,0.40625 -0.65625,1.0125 -0.68125,1.4 -0.0375,0.5375 0.225,0.83125 0.625,0.83125 0.16875,0 0.50625,-0.03125 0.89375,-0.43125 0.4625,-0.475 0.64375,-1.075 0.6625,-1.41875 0.025,-0.45625 -0.19375,-0.7875 -0.6375,-0.7875 z m -0.04375,0.1875 c 0.21875,0 0.25625,0.21875 0.25,0.4125 -0.0125,0.33125 -0.30625,1.15625 -0.58125,1.525 -0.2,0.26875 -0.35625,0.325 -0.49375,0.325 -0.18125,0 -0.26875,-0.18125 -0.25625,-0.4 0.01875,-0.33125 0.2625,-1.075 0.625,-1.5625 0.18125,-0.24375 0.33125,-0.3 0.45625,-0.3 z"/><path id="path425" d="m 0,0 c 0.05625,-0.14375 -0.0125,-0.25625 -0.1625,-0.25625 -0.3125,0 -0.69375,0.25625 -0.93125,0.58125 -0.0063,0.05 0.025,0.09375 0.075,0.09375 0.20625,-0.18125 0.425,-0.3125 0.56875,-0.3125 0.05,0 0.05,0.0625 0.01875,0.14375 -0.03125,0.0875 -0.69375,1.8875 -0.725,1.96875 -0.05625,0.14375 0.1125,0.1625 0.18125,0.1625 0.05625,0 0.08125,-0.01875 0.1125,-0.075 0.36875,-0.6875 0.625,-1.175 0.95625,-1.5875 0.34375,-0.43125 0.7125,-0.74375 0.8625,-0.74375 0.09375,0 0.1,0.075 0.1,0.15 0,0.125 -0.08125,0.34375 -0.13125,0.45625 -0.14375,0.3125 -0.375,0.925 -0.50625,1.23125 -0.13125,0.3125 -0.15,0.35625 -0.15,0.4125 0,0.075 0.09375,0.15625 0.15,0.15625 0.34375,0 0.8375,-0.3 1.075,-0.7 0,-0.05 -0.0125,-0.1 -0.1,-0.0875 -0.18125,0.21875 -0.48125,0.425 -0.5875,0.425 -0.04375,0 -0.0375,-0.05625 -0.0125,-0.11875 0.01875,-0.05 0.46875,-1.06875 0.58125,-1.38125 0.05,-0.14375 0.1,-0.3375 0.1,-0.4375 0,-0.20625 -0.10625,-0.3375 -0.35,-0.3375 -0.46875,0 -1.0875,0.6875 -1.53125,1.3625 l -0.01875,-0.0125 0.425,-1.09375 z"/><path id="path429" d="m 0,0 c -0.03125,0.06875 -0.0125,0.125 0.025,0.16875 0.03125,0.0375 0.06875,0.05625 0.1,0.05625 0.43125,0 1.075,-0.5625 1.16875,-0.74375 0,-0.05625 -0.03125,-0.1 -0.09375,-0.10625 -0.2125,0.24375 -0.54375,0.4625 -0.65,0.4625 -0.05,0 -0.04375,-0.075 -0.01875,-0.1375 l 0.74375,-1.775 c 0.075,-0.18125 0.075,-0.2375 0.0375,-0.275 -0.025,-0.025 -0.05625,-0.0625 -0.1,-0.0625 -0.20625,0 -0.6875,0.23125 -1.03125,0.625 -0.0125,0.05 0.025,0.1 0.08125,0.10625 0.3125,-0.25625 0.475,-0.33125 0.51875,-0.33125 0.04375,0 0.04375,0.05 0.0125,0.11875 l -0.79375,1.89375 z m 1.325,-3.7 c -0.24375,0 -0.33125,0.25625 -0.33125,0.39375 0,0.10625 0.05625,0.23125 0.21875,0.23125 0.1875,0 0.325,-0.19375 0.325,-0.3875 0,-0.1375 -0.06875,-0.2375 -0.2125,-0.2375 z"/></defs></svg>
