<svg xmlns:rdf="http://www.w3.org/1999/02/22-rdf-syntax-ns#" xmlns:xlink="http://www.w3.org/1999/xlink" width="112" xmlns:svg="http://www.w3.org/2000/svg" id="svg5147" viewBox="0 0 111.99999 30" height="30" xmlns:dc="http://purl.org/dc/elements/1.1/" xmlns:cc="http://creativecommons.org/ns#" xmlns="http://www.w3.org/2000/svg" version="1.1">
  <defs id="defs5149"/>
  <metadata id="metadata5152">
    <rdf:RDF>
      <cc:Work rdf:about="">
        <dc:format>image/svg+xml</dc:format>
        <dc:type rdf:resource="http://purl.org/dc/dcmitype/StillImage"/>
        <dc:title/>
      </cc:Work>
    </rdf:RDF>
  </metadata>
  <g id="layer1" transform="translate(0,-1022.3622)">
    <g id="g5124" transform="translate(-176.17848,-99.833019)">
      <path style="opacity:1;fill:#e7d3a8;fill-opacity:0.47;fill-rule:nonzero;stroke:#6a6250;stroke-width:2.00872231;stroke-linecap:butt;stroke-linejoin:miter;stroke-miterlimit:4;stroke-dasharray:none;stroke-opacity:1" d="m 179.02158,1123.6996 106.22253,0 c 1.01866,0 1.83874,0.8138 1.83874,1.8247 l 0,23.8416 c 0,1.0109 -0.82008,1.8247 -1.83874,1.8247 l -106.22253,0 c -1.01866,0 -1.83873,-0.8138 -1.83873,-1.8247 l 0,-23.8416 c 0,-1.0109 0.82007,-1.8247 1.83873,-1.8247 z" id="rect5100"/>
      <g style="fill:#000000;fill-opacity:1;stroke:none;stroke-width:1px;stroke-linecap:butt;stroke-linejoin:miter;stroke-opacity:1" id="flowRoot5114" transform="translate(-1.4739468,8.1664658)">
        <path style="" d="m 191.51904,1119.7217 0,2.8235 -0.2362,0 q -0.73609,-1.1426 -1.69739,-1.7798 -1.35132,-0.8954 -2.85095,-0.8954 -0.87342,0 -1.42823,0.3021 -0.30212,0.1593 -0.4779,0.4614 -0.10437,0.1868 -0.10437,0.3846 0,0.3295 0.28564,0.5822 0.25269,0.2252 0.90088,0.3791 0.38452,0.099 1.13159,0.2197 l 1.92261,0.3076 q 1.56006,0.2472 2.3346,0.7086 1.0382,0.6207 1.0382,1.8787 0,0.8679 -0.52734,1.4831 -0.52185,0.6098 -1.55456,0.8625 -0.62073,0.1538 -1.34583,0.1538 -1.58752,0 -2.87292,-0.7416 -0.30762,-0.1758 -0.8075,-0.5383 l -1.47217,1.0931 -0.26367,0 0,-3.0872 0.26367,0 q 0.63721,1.0657 1.80725,1.9007 0.79651,0.5658 1.59851,0.8404 0.79102,0.2747 1.72486,0.2747 0.92834,0 1.50512,-0.2637 0.53284,-0.2527 0.53284,-0.791 0,-0.5933 -0.84045,-0.8899 -0.60425,-0.2142 -1.49964,-0.3406 l -2.15881,-0.3131 q -1.4502,-0.2032 -2.26318,-0.747 -0.91187,-0.6043 -0.91187,-1.7359 0,-1.2195 1.07117,-1.9501 1.02173,-0.6976 2.44446,-0.6976 1.70837,0 3.24096,1.1371 l 1.33484,-1.0217 0.17578,0 z m -7.34436,1.4227 q 0.0824,-0.3461 0.29114,-0.6482 -0.401,0.2472 -0.65369,0.6482 l 0.36255,0 z m -0.033,0.1868 -0.43396,0 q -0.10986,0.2307 -0.1593,0.4889 l 0.67017,0 q -0.0824,-0.2253 -0.0824,-0.3626 0,-0.044 0.005,-0.1263 z m 0.17578,0.6756 -0.7965,0 q -0.0165,0.1428 -0.0165,0.2362 0,0.099 0.0165,0.2527 l 1.34582,0 q -0.34057,-0.1648 -0.54932,-0.4889 z m 1.06568,0.6757 -1.82922,0 q 0.0659,0.2527 0.18127,0.4889 l 4.57031,0 -1.78528,-0.2637 q -0.75805,-0.1099 -1.13708,-0.2252 z m 4.04297,0.6756 -5.57007,0 q 0.22522,0.2967 0.51636,0.4889 l 6.38305,0 q -0.50537,-0.2966 -1.32934,-0.4889 z m 1.61499,0.6757 -6.33362,0 q 0.59875,0.2966 1.82922,0.4889 l 4.93836,0 q -0.17029,-0.2802 -0.43396,-0.4889 z m 0.52734,0.6757 -3.73535,0 0.5658,0.082 q 1.15905,0.1593 1.83471,0.401 l 1.46668,0 q -0.0385,-0.2582 -0.13184,-0.4834 z m 0.14832,0.6756 -1.06018,0 q 0.28564,0.1703 0.4779,0.4834 l 0.53284,0 q 0.0494,-0.2362 0.0494,-0.4834 z m -0.0989,0.6702 -0.41748,0 q 0.022,0.1428 0.022,0.2032 0,0.2637 -0.18677,0.6208 0.39551,-0.2527 0.58228,-0.824 z m -0.75806,-5.246 0,-0.4504 -0.55481,0.4504 0.55481,0 z m 0,0.1868 -0.5603,0 q 0.2417,0.2197 0.5603,0.5658 l 0,-0.5658 z m -7.14111,5.4767 0,0.6921 0.89539,-0.6921 -0.89539,0 z m 0,-0.1923 0.92285,0 q -0.49988,-0.3625 -0.92285,-0.9448 l 0,0.9448 z" id="path17"/>
        <path style="" d="m 193.30432,1121.051 5.57556,0 q 0.94483,0 1.4502,0.1209 0.77453,0.1922 1.15906,0.7086 0.35156,0.4669 0.35156,1.0052 0,0.6208 -0.45593,1.1316 -0.42847,0.4779 -1.2909,0.6207 -0.43945,0.077 -1.21399,0.077 l -1.96106,0 0,1.3623 q 0,0.4119 0.0494,0.5932 0.0879,0.3351 0.48889,0.4065 0.18128,0.033 0.52185,0.033 l 0.31311,0 0,0.2417 -4.98779,0 0,-0.2417 0.31311,0 q 0.61524,0.01 0.83496,-0.1648 0.17029,-0.1374 0.20874,-0.456 0.0165,-0.1318 0.0165,-0.4119 l 0,-3.7519 q -0.005,-0.4065 -0.0494,-0.5932 -0.0824,-0.3351 -0.48889,-0.4065 -0.18127,-0.033 -0.52185,-0.033 l -0.31311,0 0,-0.2417 z m 7.18506,0.6921 q -0.19226,-0.1702 -0.39001,-0.2691 -0.29114,-0.1483 -1.01075,-0.1923 0.21424,0.039 0.4834,0.4614 l 0.91736,0 z m 0.18127,0.1923 -1.00524,0 q 0.0824,0.2252 0.12084,0.4834 l 1.14258,0 q -0.0769,-0.2637 -0.25818,-0.4834 z m 0.29664,0.6702 -1.16456,0 q 0.0165,0.2197 0.0165,0.3076 0,0.06 -0.005,0.1813 l 1.16455,0 q 0.0165,-0.1429 0.0165,-0.2143 0,-0.099 -0.0275,-0.2746 z m -0.0165,0.6756 -1.15357,0 q -0.0384,0.2747 -0.10437,0.4889 l 1.03821,0 q 0.15381,-0.2362 0.21973,-0.4889 z m -0.38453,0.6757 -0.9613,0 q -0.18677,0.3296 -0.4834,0.5328 0.88989,0.016 1.4447,-0.5328 z m -5.65246,2.7026 q -0.0714,0.2857 -0.26917,0.4505 l 1.70838,0 q -0.14282,-0.1868 -0.17029,-0.4505 l -1.26892,0 z m 0.0275,-0.1867 1.23597,0 0,-0.4889 -1.22498,0 0,0.2252 q 0,0.1373 -0.011,0.2637 z m 0.011,-0.6757 1.22498,0 0,-0.4889 -1.22498,0 0,0.4889 z m 0,-0.6757 1.22498,0 0,-0.4888 -1.22498,0 0,0.4888 z m 0,-0.6756 1.22498,0 0,-0.4889 -1.22498,0 0,0.4889 z m 0,-0.6757 1.22498,0 0,-0.4889 -1.22498,0 0,0.4889 z m 0,-0.6756 1.22498,0 0,-0.4889 -1.22498,0 0,0.4889 z m 0,-0.6757 1.22498,0 0,-0.4834 -1.23597,0 q 0.011,0.1483 0.011,0.2637 l 0,0.2197 z m -0.0385,-0.6757 1.26892,0 q 0.0275,-0.2526 0.18677,-0.4779 l -1.74683,0 q 0.21973,0.2033 0.29114,0.4779 z m 2.005,2.7686 1.35681,-0.027 q 0.59327,-0.01 0.8844,-0.3131 0.38453,-0.4065 0.38453,-1.2799 0,-1.1481 -0.6427,-1.4776 -0.23072,-0.1209 -0.79651,-0.1209 -0.58777,-0.01 -0.85694,0.1318 -0.21972,0.1264 -0.29113,0.412 -0.0385,0.1703 -0.0385,0.5054 l 0,2.1698 z" id="path19"/>
        <use x="205.98254" y="1125.6103" xlink:href="#path21"/>
        <path style="" d="m 218.50146,1124.9017 0.73609,-1.5985 q 0.19775,-0.434 0.19775,-0.7745 0,-0.6537 -0.58227,-1.0492 -0.22522,-0.1538 -0.53284,-0.1868 l 0,-0.2417 3.32336,0 0,0.2417 q -1.203,0.022 -2.02697,1.8622 l -2.03797,4.433 -0.17578,0 -2.43896,-4.7351 -2.19178,4.7351 -0.17578,0 -2.60925,-5.0537 q -0.24719,-0.4834 -0.34058,-0.6317 -0.29113,-0.456 -0.75256,-0.5658 -0.16479,-0.044 -0.43396,-0.044 l -0.19775,0 0,-0.2417 4.62524,0 0,0.2417 -0.22522,0 q -0.59875,0 -0.59875,0.2802 0,0.1263 0.11535,0.357 l 1.51062,2.9718 1.10413,-2.373 q -0.3241,-0.6592 -0.57678,-0.9064 -0.31311,-0.2911 -0.83496,-0.3296 l 0,-0.2417 4.31213,0 0,0.2417 -0.22522,0 q -0.59326,0 -0.59326,0.2747 0,0.1428 0.10986,0.3625 l 1.51611,2.9718 z m 1.52161,-3.1586 q 0.0934,-0.1373 0.25818,-0.3515 l 0.0769,-0.099 -1.35681,0 q 0.25269,0.2087 0.44495,0.4504 l 0.57678,0 z m -0.12085,0.1923 -0.34607,0 q 0.0934,0.2033 0.12085,0.412 0.0989,-0.2033 0.22522,-0.412 z m -3.83423,-0.1923 q -0.011,-0.077 -0.011,-0.1263 0,-0.1318 0.0989,-0.3241 l -2.01599,0 q 0.30213,0.1978 0.4834,0.4504 l 1.4447,0 z m 0.0494,0.1923 -1.37878,0 q 0.11535,0.2197 0.25268,0.4834 l 1.3678,0 q -0.15381,-0.2856 -0.2417,-0.4834 z m 0.34058,0.6702 -1.3678,0 0.25269,0.4889 1.3623,0 -0.24719,-0.4889 z m 0.34057,0.6756 -1.3623,0 0.25268,0.4889 1.35682,0 -0.2472,-0.4889 z m 0.34607,0.6757 -1.35681,0 0.24719,0.4889 1.35682,0 -0.2472,-0.4889 z m 0.34058,0.6757 -1.35132,0 0.25269,0.4888 1.35132,0 -0.25269,-0.4888 z m 0.34607,0.6756 -1.35132,0 0.25269,0.4889 1.34582,0 -0.24719,-0.4889 z m 0.18677,0.6757 -1.18653,0 0.25269,0.4889 0.71411,0 0.21973,-0.4889 z m -0.30762,0.6756 -0.53284,0 0.28565,0.5493 0.24719,-0.5493 z m -6.44898,-4.9164 q -0.011,-0.082 -0.011,-0.1263 0,-0.1318 0.0989,-0.3241 l -2.016,0 q 0.29663,0.1978 0.47791,0.4504 l 1.45019,0 z m 0.0494,0.1923 -1.37878,0 q 0.11536,0.2142 0.25268,0.4834 l 1.3678,0 q -0.15381,-0.2856 -0.2417,-0.4834 z m 0.34058,0.6702 -1.3678,0 0.25269,0.4889 1.3623,0 -0.24719,-0.4889 z m 0.34058,0.6756 -1.36231,0 0.25269,0.4889 1.3623,0 -0.25268,-0.4889 z m 0.34606,0.6757 -1.35681,0 0.25269,0.4889 1.35132,0 -0.2472,-0.4889 z m 0.34058,0.6757 -1.35132,0 0.25269,0.4888 1.35132,0 -0.25269,-0.4888 z m 0.34607,0.6756 -1.35132,0 0.25269,0.4889 1.34033,0 -0.2417,-0.4889 z m 0.18677,0.6757 -1.18653,0 0.25269,0.4889 0.71411,0 0.21973,-0.4889 z m -0.30762,0.6756 -0.53284,0 0.28565,0.5493 0.24719,-0.5493 z" id="path23"/>
        <use x="225.26904" y="1121.051" xlink:href="#path25"/>
        <use x="239.11731" y="1127.11" xlink:href="#path27"/>
        <use x="243.39648" y="1121.051" xlink:href="#path25"/>
        <use x="254.43225" y="1127.11" xlink:href="#path27"/>
        <use x="262.75989" y="1121.051" xlink:href="#path33"/>
        <use x="268.12122" y="1127.11" xlink:href="#path27"/>
        <use x="272.55969" y="1125.6103" xlink:href="#path21"/>
        <use x="276.66858" y="1127.3517" xlink:href="#path39"/>
        <path style="" d="m 190.05237,1130.4971 0.11535,2.7465 -0.29113,0.05 q -0.42298,-0.8679 -1.16455,-1.6315 -0.98877,-1.0162 -2.26868,-1.0162 -0.91736,0 -1.35132,0.7251 -0.62622,1.0382 -0.62622,2.9553 0,1.8732 0.61523,2.9004 0.43946,0.7306 1.41724,0.7306 1.14258,0 1.43372,-0.846 0.13733,-0.39 0.13733,-1.1206 0,-0.6866 -0.14832,-0.9558 -0.19775,-0.357 -1.03821,-0.357 l -0.42297,0 0,-0.2582 5.88318,0 0,0.2636 -0.53833,0 q -0.47791,0 -0.68665,0.1044 -0.31311,0.1648 -0.41748,0.6207 -0.0604,0.2802 -0.0604,0.8405 0,1.236 0.10986,1.7578 l -0.14282,0.099 q -0.53284,-0.39 -1.32385,-0.39 -0.51087,0 -1.32935,0.2417 -0.67017,0.1977 -1.06567,0.2582 -0.39551,0.066 -0.94483,0.066 -1.14807,0 -2.22473,-0.4999 -1.13708,-0.5328 -1.74133,-1.5711 -0.53284,-0.9118 -0.53284,-1.994 0,-1.7468 1.2854,-2.8784 1.18652,-1.0437 3.10364,-1.0437 0.89538,0 1.6095,0.2527 0.18676,0.071 0.58227,0.2472 0.45593,0.2142 0.75256,0.2142 0.31311,0 0.71412,-0.2472 0.14831,-0.088 0.34057,-0.2636 l 0.21973,0 z m -5.61951,0.6591 q 0.20325,-0.2472 0.54382,-0.5438 -0.86792,0.093 -1.57653,0.5438 l 1.03271,0 z m -0.14831,0.1868 -1.14258,0 q -0.29114,0.2252 -0.51087,0.4889 l 1.35132,0 q 0.13733,-0.2472 0.30213,-0.4889 z m -0.39551,0.6757 -1.40625,0 q -0.17029,0.2362 -0.30213,0.4889 l 1.51062,0 q 0.0879,-0.2527 0.19776,-0.4889 z m -0.25818,0.6756 -1.54358,0 q -0.10986,0.2417 -0.18677,0.4889 l 1.61499,0 q 0.0494,-0.2527 0.11536,-0.4889 z m -0.14832,0.6757 -1.63147,0 q -0.0604,0.2527 -0.0879,0.4889 l 1.65894,0 q 0.022,-0.2692 0.0604,-0.4889 z m -0.0714,0.6756 -1.65893,0 q -0.005,0.1154 -0.005,0.1813 0,0.1154 0.011,0.3076 l 1.64246,0 q 0,-0.1043 0,-0.1593 0,-0.066 0.011,-0.3296 z m 0,0.6757 -1.63147,0 q 0.0385,0.2307 0.10437,0.4889 l 1.56555,0 q -0.0275,-0.2362 -0.0384,-0.4889 z m 0.0714,0.6757 -1.53808,0 q 0.0879,0.2526 0.20325,0.4834 l 1.4392,0 q -0.0714,-0.2637 -0.10437,-0.4834 z m 0.15381,0.6756 -1.38977,0 q 0.14832,0.2582 0.3241,0.4834 l 1.24695,0 q -0.10437,-0.2472 -0.18128,-0.4834 z m 0.26917,0.6702 -1.17554,0 q 0.25818,0.2856 0.5603,0.4889 l 0.8899,0 q -0.14832,-0.2198 -0.27466,-0.4889 z m 0.40649,0.6756 -0.7196,0 q 0.43945,0.2417 1.09314,0.4285 -0.22522,-0.2307 -0.37354,-0.4285 z m 5.03723,-6.0754 0,-0.2417 q -0.28564,0.1758 -0.6372,0.1703 l 0.0714,0.071 0.56579,0 z m 0.0165,0.1923 -0.41198,0 q 0.28564,0.3296 0.43396,0.5493 l -0.022,-0.5493 z m 0.54932,3.4826 q 0.033,-0.1208 0.13733,-0.3351 l -2.12036,0 q 0.13733,0.1429 0.2362,0.3351 l 1.74683,0 z m -0.0439,0.1923 -1.64245,0 q 0.0549,0.2362 0.0659,0.4834 l 1.53808,0 q 0.005,-0.2692 0.0385,-0.4834 z m -0.0385,0.6702 -1.53259,0 q 0,0.1922 -0.005,0.4888 l 1.53808,0 0,-0.4888 z m 0,0.6756 -1.54907,0 q -0.033,0.3021 -0.0769,0.4889 l 1.62597,0 0,-0.4889 z m 0,0.6757 -1.68091,0 q -0.0989,0.2582 -0.29663,0.5108 0.85144,-0.2526 1.41175,-0.2526 0.24169,0 0.56579,0.06 l 0,-0.3186 z" id="path41"/>
        <use x="196.33655" y="1136.2978" xlink:href="#path21"/>
        <use x="208.17981" y="1131.7385" xlink:href="#path33"/>
        <use x="216.57886" y="1131.7385" xlink:href="#path47"/>
        <use x="224.49451" y="1131.6286" xlink:href="#path49"/>
        <path style="" d="m 235.88733,1136.0671 0.7196,0.9888 q 0.26368,0.3625 0.36255,0.4504 0.30762,0.2637 1.13159,0.2692 l 0.40101,0 0,0.2637 -4.05945,0 -0.38452,-0.5329 q -1.30738,0.7746 -2.53785,0.7746 -0.75805,0 -1.42273,-0.3296 -0.62072,-0.3131 -0.9613,-0.8734 -0.25818,-0.423 -0.25818,-0.9613 0,-0.8844 0.70313,-1.4447 0.4834,-0.3901 1.56555,-0.6757 0.10437,-0.028 0.34607,-0.082 l -0.26917,-0.3845 q -0.51086,-0.7306 -0.51086,-1.4063 0,-0.8624 0.74707,-1.3842 0.63171,-0.445 1.61499,-0.445 1.05469,0 1.65893,0.4779 0.53833,0.4285 0.53833,1.1316 0,0.7141 -0.53833,1.2415 -0.19226,0.1922 -0.59875,0.4339 l 1.57654,2.2302 q 0.18127,-0.1867 0.26367,-0.3021 0.21423,-0.2966 0.21423,-0.7031 0,-0.8679 -1.02173,-1.0162 l 0,-0.2637 3.33436,0 0,0.2637 q -0.36255,0.082 -0.71961,0.3515 -0.46143,0.3571 -1.17554,1.1371 l -0.7196,0.791 z m -5.61951,-0.8569 q 0,-0.3131 0.0989,-0.7196 -0.65918,0.2582 -0.97229,0.7196 l 0.87341,0 z m 0.011,0.1868 -0.98877,0 q -0.10437,0.2471 -0.13733,0.4834 l 1.21948,0 q -0.0659,-0.2417 -0.0934,-0.4834 z m 0.14831,0.6756 -1.2854,0 q 0.006,0.2307 0.0659,0.4834 l 1.41174,0 q -0.10986,-0.2362 -0.19226,-0.4834 z m 0.29114,0.6702 -1.43921,0 q 0.13184,0.2637 0.33509,0.4889 l 1.42822,0 q -0.17578,-0.2252 -0.3241,-0.4889 z m 0.4834,0.6756 -1.38428,0 q 0.74158,0.5988 1.61499,0.5988 0.1648,0 0.43396,-0.033 -0.35156,-0.2197 -0.66467,-0.5658 z m 0.8075,-6.2622 q 0.0604,-0.2307 0.24719,-0.5328 -0.58228,0.1703 -0.91187,0.5328 l 0.66468,0 z m -0.033,0.1868 -0.77454,0 q -0.13733,0.2307 -0.19775,0.4889 l 0.98877,0 q -0.0275,-0.1758 -0.0275,-0.2966 0,-0.061 0.011,-0.1923 z m 0.0659,0.6757 -1.06018,0 q -0.005,0.066 -0.005,0.1043 0,0.1648 0.0494,0.3846 l 1.24695,0 q -0.15381,-0.2637 -0.23072,-0.4889 z m 0.34607,0.6756 -1.30737,0 q 0.0934,0.2692 0.2417,0.4889 l 1.41174,0 q -0.20324,-0.2911 -0.34607,-0.4889 z m 0.47791,0.6757 -1.41174,0 0.34607,0.4889 1.41174,0 -0.34607,-0.4889 z m 0.4779,0.6756 -1.41174,0 0.34058,0.4889 1.41723,0 -0.34607,-0.4889 z m 0.47791,0.6757 -1.41174,0 0.34057,0.4889 1.41175,0 -0.34058,-0.4889 z m 0.47241,0.6757 -1.41174,0 0.34607,0.4834 1.41174,0 -0.34607,-0.4834 z m 0.47791,0.6756 -1.41175,0 0.34058,0.4834 1.41724,0 -0.34607,-0.4834 z m 0.4779,0.6702 -1.41723,0 0.34607,0.4889 1.41723,0 -0.34607,-0.4889 z m 0.47791,0.6756 -1.41724,0 0.24719,0.3461 1.41724,0 -0.24719,-0.3461 z m 1.21399,-3.3343 0.17578,-0.2966 -1.15906,0 q 0.15381,0.1263 0.29114,0.2966 l 0.69214,0 z m -0.10987,0.1868 -0.4779,0 q 0.10986,0.2746 0.10986,0.5218 0,0.028 0,0.093 l 0.36804,-0.6152 z m -5.15258,-0.099 q -0.61524,0.1373 -0.61524,0.7086 0,0.4285 0.29663,1.0602 0.39002,0.8185 0.85144,1.2909 0.36804,0.3735 0.75806,0.3735 0.37903,0 0.89538,-0.3461 l -2.18627,-3.0871 z m 2.27966,-0.835 q 1.02173,-0.5658 1.02173,-1.4886 0,-0.5493 -0.42298,-0.9064 -0.44494,-0.3735 -1.0437,-0.3735 -0.68664,0 -0.68664,0.736 0,0.4505 0.53283,1.1976 l 0.59876,0.8349 z" id="path51"/>
        <path style="" d="m 250.41125,1130.4806 0.14832,3.1311 -0.17578,0.038 q -0.43396,-0.9283 -0.87891,-1.5435 -0.46142,-0.6318 -1.03821,-0.9943 -0.75256,-0.4724 -1.53808,-0.4724 -0.51087,0 -0.91736,0.357 -0.51086,0.4395 -0.74707,1.4997 -0.17578,0.78 -0.17578,1.8017 0,1.5106 0.42297,2.5379 0.45594,1.1151 1.51062,1.1151 0.76905,0 1.57105,-0.3955 0.87341,-0.4285 1.56006,-1.4283 0.21423,-0.3186 0.38452,-0.6701 l 0.21423,0.1044 q -0.401,0.9008 -1.18652,1.6424 -1.14807,1.0767 -2.98828,1.0767 -1.78528,0 -3.04322,-0.9943 -0.68115,-0.5383 -1.06567,-1.3074 -0.401,-0.813 -0.401,-1.7413 0,-1.2634 0.73608,-2.2687 0.7251,-0.9833 1.84571,-1.3733 0.85693,-0.3021 1.76879,-0.3021 0.99427,0 1.95008,0.4889 0.43396,0.2197 0.7251,0.2197 0.61523,0 1.12609,-0.5218 l 0.19226,0 z m -5.36132,0.6756 q 0.23071,-0.2636 0.60424,-0.5713 -0.86792,0.077 -1.64245,0.5713 l 1.03821,0 z m -1.30188,0.1868 q -0.27466,0.2197 -0.51087,0.4889 l 1.35132,0 q 0.13184,-0.2417 0.30762,-0.4889 l -1.14807,0 z m -0.65918,0.6757 q -0.1648,0.2197 -0.30213,0.4889 l 1.51612,0 q 0.0879,-0.2527 0.19226,-0.4889 l -1.40625,0 z m -0.39551,0.6756 q -0.10437,0.2417 -0.17578,0.4889 l 1.6095,0 q 0.0494,-0.2472 0.12084,-0.4889 l -1.55456,0 z m -0.22522,0.6757 q -0.0549,0.2472 -0.0824,0.4889 l 1.64795,0 q 0.022,-0.2362 0.0604,-0.4889 l -1.62598,0 z m -0.0934,0.6756 q -0.006,0.1319 -0.006,0.2033 0,0.1044 0.011,0.2856 l 1.63147,0 0,-0.1483 q 0,-0.1648 0.005,-0.3406 l -1.64245,0 z m 0.022,0.6757 q 0.0275,0.2307 0.0934,0.4889 l 1.57654,0 q -0.033,-0.2417 -0.0439,-0.4889 l -1.62598,0 z m 0.14831,0.6757 q 0.0934,0.2636 0.20325,0.4834 l 1.46118,0 q -0.0659,-0.2253 -0.10986,-0.4834 l -1.55457,0 z m 0.30213,0.6756 q 0.14282,0.2472 0.33508,0.4834 l 1.26892,0 q -0.10437,-0.2362 -0.18677,-0.4834 l -1.41723,0 z m 0.49988,0.6702 q 0.25817,0.2746 0.55481,0.4889 l 0.91735,0 q -0.1593,-0.2417 -0.28015,-0.4889 l -1.19201,0 z m 0.84045,0.6756 q 0.5658,0.3461 1.19751,0.4779 -0.26917,-0.2581 -0.43396,-0.4779 l -0.76355,0 z m 5.55908,-6.0754 -0.0165,-0.2801 q -0.29663,0.1538 -0.6372,0.1538 -0.0549,0 -0.0824,-0.01 0.0934,0.077 0.15381,0.1318 l 0.58227,0 z m -0.39001,0.1923 q 0.25818,0.2801 0.43396,0.5713 l -0.033,-0.5713 -0.401,0 z" id="path53"/>
        <use x="251.50989" y="1138.0392" xlink:href="#path39"/>
        <path style="" d="m 265.51196,1131.7385 3.03223,0 0,0.2417 q -0.47791,0.039 -0.802,0.3076 -0.52735,0.456 -0.53284,1.3733 l 0,1.7523 q 0,0.9009 -0.20874,1.3898 -0.60425,1.4392 -3.10364,1.4392 -1.59301,0 -2.32361,-0.8295 -0.37902,-0.4339 -0.4779,-1.0601 -0.0494,-0.2967 -0.0494,-0.8789 l 0,-2.461 q -0.005,-0.4065 -0.0494,-0.5932 -0.0824,-0.3351 -0.48889,-0.4065 -0.18677,-0.033 -0.52185,-0.033 l -0.31311,0 0,-0.2417 4.98779,0 0,0.2417 -0.31311,0 q -0.61523,-0.01 -0.83496,0.1648 -0.17029,0.1428 -0.20874,0.4614 -0.0165,0.1319 -0.0165,0.4065 l 0,3.3563 q 0,0.6812 0.30762,1.0492 0.42847,0.5109 1.16455,0.5109 0.75256,0 1.38428,-0.4614 0.58777,-0.4285 0.71411,-1.2085 0.0494,-0.2966 0.0494,-0.9229 l 0,-1.6754 q -0.006,-1.0437 -0.57129,-1.4447 -0.36255,-0.2417 -0.82398,-0.2362 l 0,-0.2417 z m -3.65295,5.6085 q 0.3241,0.3131 0.81299,0.4999 0.37353,0.1373 0.73059,0.1373 -0.41199,-0.2362 -0.63721,-0.6372 l -0.90637,0 z m -0.1648,-0.1867 0.98328,0 q -0.0879,-0.2308 -0.11536,-0.4889 l -1.1206,0 q 0.0879,0.2472 0.25268,0.4889 z m -0.30212,-0.6757 1.15906,0 q -0.005,-0.1428 -0.005,-0.2801 l 0,-0.2088 -1.21948,0 q 0.022,0.2747 0.0659,0.4889 z m -0.0714,-0.6757 1.22497,0 0,-0.4888 -1.22497,0 q 0,0.2856 0,0.4888 z m 0,-0.6756 1.22497,0 0,-0.4889 -1.22497,0 0,0.4889 z m 0,-0.6757 1.22497,0 0,-0.4889 -1.22497,0 0,0.4889 z m 0,-0.6756 1.22497,0 0,-0.4889 -1.22497,0 0,0.4889 z m 0,-0.6757 1.22497,0 0,-0.4834 -1.23596,0 q 0.011,0.1428 0.011,0.2637 l 0,0.2197 z m -0.0384,-0.6757 1.26892,0 q 0.0275,-0.2691 0.17029,-0.4504 l -1.70838,0 q 0.19226,0.1593 0.26917,0.4504 z m 5.82824,-0.2252 q 0.0604,-0.1208 0.15931,-0.2252 l -0.87342,0 q 0.14282,0.093 0.27466,0.2252 l 0.43945,0 z m -0.0824,0.1923 -0.19226,0 q 0.0824,0.1044 0.13732,0.2472 0.0165,-0.1428 0.0549,-0.2472 z" id="path57"/>
        <use x="276.91577" y="1131.7385" xlink:href="#path47"/>
        <use x="284.83142" y="1131.6286" xlink:href="#path49"/>
      </g>
    </g>
  </g>
<defs><path d="m 0,0 -2.59826,0 q -0.0549,0.1648 -0.0549,0.3241 0,0.445 0.29663,0.7965 0.25268,0.3022 0.77453,0.3626 0.0824,0.01 0.28565,0.016 l 0,0.2417 -3.44971,0 0,-0.2417 q 0.93933,-0.033 1.84021,-1.6095 l 2.60925,-4.6198 0.23621,0 2.94983,5.2515 q 0.25268,0.4504 0.41748,0.6097 0.29114,0.3022 0.63721,0.3516 0.13732,0.016 0.32409,0.016 l 0.14282,0 0,0.2417 -4.9768,0 0,-0.2417 0.49988,0 q 0.28015,0 0.43945,-0.1264 0.14282,-0.1208 0.14282,-0.2911 0,-0.1373 -0.10437,-0.3296 l -0.41199,-0.7526 z m -3.66394,1.2744 q -0.1593,0.1374 -0.3186,0.2253 l 1.00525,0 q -0.0549,-0.077 -0.11536,-0.2253 l -0.57129,0 z m 0.19776,-0.1867 0.32409,0 q -0.0165,-0.1209 -0.0165,-0.1648 0,-0.05 0.0165,-0.2252 -0.14282,0.2032 -0.32409,0.39 z m 4.24072,-0.039 q 0,0.2692 -0.17029,0.4505 l 1.9336,0 -0.25269,-0.4505 -1.51062,0 z m -0.0439,-0.1867 1.4502,0 -0.27466,-0.4889 -1.43371,0 0.25817,0.4889 z m -0.36254,-0.6757 1.43371,0 -0.27466,-0.4889 -1.42822,0 0.26917,0.4889 z m -0.37354,-0.6757 1.42273,0 -0.27466,-0.4888 -1.41723,0 0.26916,0.4888 z m -0.37353,-0.6756 1.41723,0 -0.27466,-0.4889 -1.41723,0 0.27466,0.4889 z m -0.37903,-0.6757 1.41723,0 -0.27465,-0.4889 -1.41175,0 0.26917,0.4889 z m -0.36804,-0.6756 1.40625,0 -0.27466,-0.4889 -1.01075,0 -0.19775,0.3515 0.0769,0.1374 z m 0.23071,-0.6757 0.79651,0 -0.39551,-0.6976 -0.401,0.6976 z m 0.74158,2.9498 -1.18653,-2.1588 -1.17554,2.1588 2.36207,0 z" id="path21"/><path d="m 0,0 3.6969,3.4332 0,-1.5106 q -0.005,-1.0547 -0.57129,-1.4447 -0.37353,-0.2417 -0.82397,-0.2362 l 0,-0.2417 3.21899,0 0,0.2417 q -0.62622,0.01 -0.98877,0.3076 -0.52734,0.4615 -0.53283,1.3733 l 0,4.5813 -0.22522,0 -5.63599,-5.2789 0,3.1531 q 0.005,1.0546 0.57129,1.4392 0.37353,0.2472 0.82397,0.2417 l 0,0.2417 -3.21899,0 0,-0.2417 q 0.62622,-0.01 0.98877,-0.3076 0.52734,-0.4615 0.53284,-1.3733 l 0,-3.4003 -0.21973,-0.1978 q -0.13184,-0.1318 -0.48889,-0.346 -0.23621,-0.1374 -0.401,-0.1648 -0.15381,-0.028 -0.30213,-0.028 l -0.0494,0 0,-0.2417 3.62549,0 z m -0.36804,0.6921 -0.4834,-0.4504 -1.9281,0 q 0.20874,0.1154 0.6427,0.4504 l 1.7688,0 z m 0.20325,0.1923 -1.75781,0 0.52185,0.4834 1.75781,0 -0.52185,-0.4834 z m 0.7251,0.6702 -1.75782,0 0.52185,0.4889 1.75782,0 -0.52185,-0.4889 z m 0.7196,0.6756 -1.75232,0 0.52185,0.4889 1.75781,0 -0.52734,-0.4889 z m 0.7251,0.6757 -1.75232,0 0.52185,0.4889 1.75232,0 -0.52185,-0.4889 z m 0.7251,0.6757 -1.75232,0 0.52185,0.4888 1.75232,0 -0.52185,-0.4888 z m 0.72509,0.6756 -1.75781,0 0.52734,0.4889 1.5326,0 0,-0.2032 -0.30213,-0.2857 z m 0.30213,0.6757 -1.33484,0 0.52734,0.4889 0.8075,0 0,-0.4889 z m 0,0.6756 -0.60974,0 0.60974,0.5658 0,-0.5658 z m -6.22925,0.2582 q -0.14282,0.1264 -0.2417,0.1923 l 0.87891,0 q -0.0714,-0.071 -0.14832,-0.1923 l -0.48889,0 z m 0.16479,-0.1868 0.2417,0 q -0.0439,-0.1263 -0.0659,-0.2911 -0.0494,0.1373 -0.17579,0.2911 z m 5.69642,-5.2844 0.54931,0 q 0.0604,-0.088 0.12085,-0.1538 l -0.87341,0 q 0.0879,0.06 0.20325,0.1538 z m 0.18127,0.1868 q 0.0769,0.1098 0.18127,0.2966 0.0385,-0.1593 0.0934,-0.2966 l -0.27466,0 z" id="path25"/><path d="m 0,0 0,0.2417 -4.98779,0 0,-0.2417 0.31311,0 q 0.61523,0.01 0.83496,-0.1648 0.17029,-0.1374 0.20874,-0.456 0.0165,-0.1318 0.0165,-0.4119 l 0,-3.7519 q -0.006,-0.4065 -0.0494,-0.5932 -0.0824,-0.3351 -0.48889,-0.4065 -0.18128,-0.033 -0.52185,-0.033 l -0.31311,0 0,-0.2417 4.98779,0 0,0.2417 -0.31311,0 q -0.61524,-0.01 -0.83496,0.1648 -0.17578,0.1428 -0.20874,0.4614 -0.0165,0.1319 -0.0165,0.4065 l 0,3.7519 q 0,0.4119 0.0494,0.5932 0.0879,0.3351 0.48889,0.4065 0.18127,0.033 0.52185,0.033 l 0.31311,0 z m -2.10938,-5.3669 q 0.0275,-0.2636 0.17029,-0.4504 l -1.70837,0 q 0.19226,0.1648 0.26916,0.4504 l 1.26892,0 z m -0.005,0.1923 -1.23596,0 q 0.011,0.1483 0.011,0.2637 l 0,0.2197 1.22497,0 0,-0.4834 z m 0,0.6702 -1.22497,0 0,0.4889 1.22497,0 0,-0.4889 z m 0,0.6756 -1.22497,0 0,0.4889 1.22497,0 0,-0.4889 z m 0,0.6757 -1.22497,0 0,0.4889 1.22497,0 0,-0.4889 z m 0,0.6757 -1.22497,0 0,0.4888 1.22497,0 0,-0.4888 z m 0,0.6756 -1.22497,0 0,0.4889 1.22497,0 0,-0.4889 z m 0,0.6757 -1.22497,0 0,0.2252 q 0,0.1373 -0.011,0.2637 l 1.23596,0 0,-0.4889 z m 0.005,0.6756 -1.26892,0 q -0.0714,0.2857 -0.26916,0.4505 l 1.70837,0 q -0.14282,-0.1868 -0.17029,-0.4505 z" id="path27"/><path d="m 0,0 0,2.7905 -0.23621,0 q -0.10986,-0.4229 -0.52734,-1.0437 -0.44495,-0.6866 -1.13709,-1.2249 -0.36255,-0.2802 -0.81848,-0.2802 l -0.15381,0 0,4.7846 q 0,0.4064 0.0494,0.5932 0.0824,0.3351 0.48889,0.4065 0.18677,0.033 0.52185,0.033 l 0.31311,0 0,0.2417 -4.98779,0 0,-0.2417 0.31311,0 q 0.61524,0.01 0.83496,-0.1648 0.17029,-0.1374 0.20874,-0.456 0.0165,-0.1318 0.0165,-0.4119 l 0,-4.7846 -0.13733,0 q -0.45044,0.01 -0.78003,0.2362 -1.13708,0.8405 -1.69189,2.3126 l -0.23621,0 0,-2.7905 7.9596,0 z m -0.69214,0.6921 0,-0.4504 -1.21399,0 q 0.2417,0.1648 0.55481,0.4504 l 0.65918,0 z m 0,0.1923 -0.46692,0 q 0.25818,0.2692 0.46692,0.5603 l 0,-0.5603 z m -6.54236,-0.1923 q 0.25269,-0.2966 0.45044,-0.4504 l -0.93384,0 0,0.4504 0.4834,0 z m -0.14831,0.1923 -0.33509,0 0,0.4889 q 0.12085,-0.2087 0.33509,-0.4889 z m 2.50488,4.7241 q -0.0769,0.2857 -0.26917,0.4505 l 1.70838,0 q -0.14283,-0.1813 -0.17029,-0.4505 l -1.26892,0 z m 0.0275,-0.1867 1.23597,0 0,-0.4889 -1.22498,0 0,0.2252 q 0,0.1373 -0.011,0.2637 z m 0.011,-0.6757 1.22498,0 0,-0.4889 -1.22498,0 0,0.4889 z m 0,-0.6757 1.22498,0 0,-0.4888 -1.22498,0 0,0.4888 z m 0,-0.6756 1.22498,0 0,-0.4889 -1.22498,0 0,0.4889 z m 0,-0.6757 1.22498,0 0,-0.4889 -1.22498,0 0,0.4889 z m 0,-0.6756 1.22498,0 0,-0.4889 -1.22498,0 0,0.4889 z m 0,-0.6757 1.22498,0 0,-0.4834 -1.22498,0 0,0.4834 z m 0,-0.6757 1.22498,0 0,-0.4504 -1.22498,0 0,0.4504 z" id="path33"/><path d="m 0,0 0,-0.2417 0.31311,0 q 0.61523,0.01 0.83496,-0.1648 0.17029,-0.1374 0.20874,-0.456 0.0165,-0.1318 0.0165,-0.4119 l 0,-3.7519 q -0.005,-0.4065 -0.0494,-0.5932 -0.0824,-0.3351 -0.48889,-0.4065 -0.18127,-0.033 -0.52185,-0.033 l -0.31311,0 0,-0.2417 4.98779,0 0,0.2417 -0.31311,0 q -0.61523,-0.01 -0.83496,0.1648 -0.17578,0.1428 -0.20874,0.4614 -0.0165,0.1319 -0.0165,0.4065 l 0,4.7846 0.73059,0 q 0.63172,0 1.10413,-0.1813 0.64819,-0.2307 1.56006,-1.1096 0.401,-0.3955 0.70312,-0.7855 l 0.22522,0 0,2.3181 -7.93762,0 z m 2.87842,-5.6086 q 0.0275,-0.2636 0.17029,-0.4504 l -1.70838,0 q 0.19226,0.1648 0.26917,0.4504 l 1.26892,0 z m -0.006,0.1923 -1.23596,0 q 0.011,0.1483 0.011,0.2637 l 0,0.2197 1.22497,0 0,-0.4834 z m 0,0.6702 -1.22497,0 0,0.4889 1.22497,0 0,-0.4889 z m 0,0.6756 -1.22497,0 0,0.4889 1.22497,0 0,-0.4889 z m 0,0.6757 -1.22497,0 0,0.4889 1.22497,0 0,-0.4889 z m 0,0.6757 -1.22497,0 0,0.4888 1.22497,0 0,-0.4888 z m 0,0.6756 -1.22497,0 0,0.4889 1.22497,0 0,-0.4889 z m 0,0.6757 -1.22497,0 0,0.2252 q 0,0.1373 -0.011,0.2637 l 1.23596,0 0,-0.4889 z m 0,0.6756 -1.26342,0 q -0.0714,0.2857 -0.26917,0.4505 l 1.53259,0 0,-0.4505 z m 3.50464,0 q -0.40649,0.2967 -0.79101,0.4505 l 1.66992,0 0,-0.4505 -0.87891,0 z m 0.2417,-0.1867 0.63721,0 0,-0.5933 q -0.29114,0.3131 -0.63721,0.5933 z" id="path39"/><path d="m 0,0 0,2.2962 -0.21973,0 q -0.59875,-0.813 -1.46118,-1.4997 -0.59326,-0.4559 -1.0492,-0.5163 -0.21972,-0.039 -0.53283,-0.039 l -0.97229,0 0,2.6312 0.23071,0 q 1.0437,0.022 1.73035,-1.0931 l 0.2417,0 0,2.439 -0.2417,0 q -0.21424,-0.3846 -0.59326,-0.6867 -0.31311,-0.2417 -0.61524,-0.3461 -0.20874,-0.071 -0.52185,-0.071 l -0.23071,0 0,2.9444 0.73059,0 q 0.63721,0 1.10962,-0.1813 0.6372,-0.2252 1.54907,-1.1096 0.41748,-0.4065 0.70862,-0.7855 l 0.22522,0 0,2.3181 -7.93762,0 0,-0.2417 0.31311,0 q 0.61523,0.01 0.83496,-0.1648 0.17029,-0.1374 0.20874,-0.456 0.0165,-0.1318 0.0165,-0.4119 l 0,-3.7519 q -0.005,-0.4065 -0.0494,-0.5932 -0.0824,-0.3351 -0.48889,-0.4065 -0.18128,-0.033 -0.52185,-0.033 l -0.31311,0 0,-0.2417 7.84973,0 z m -0.68115,0.6921 0,-0.4504 -1.43921,0 q 0.33508,0.1923 0.65918,0.4504 l 0.78003,0 z m 0,0.1923 -0.55481,0 q 0.29113,0.2527 0.55481,0.5548 l 0,-0.5548 z m -0.79102,4.7241 q -0.40649,0.2967 -0.78552,0.4505 l 1.66443,0 0,-0.4505 -0.87891,0 z m 0.2417,-0.1867 0.63721,0 0,-0.5933 q -0.31311,0.3296 -0.63721,0.5933 z m -1.92261,-2.3291 q 0.37354,0.2087 0.58777,0.4394 l 0,-0.4394 -0.58777,0 z m 0.0165,-0.1868 0.57129,0 0,-0.4285 q -0.19775,0.2088 -0.57129,0.4285 z m -1.84021,-2.2138 0,-0.4504 -1.53259,0 q 0.19226,0.1648 0.26916,0.4504 l 1.26343,0 z m 0,0.1923 -1.23596,0 q 0.011,0.1428 0.011,0.2637 l 0,0.2197 1.22497,0 0,-0.4834 z m 0,0.6702 -1.22497,0 0,0.4889 1.22497,0 0,-0.4889 z m 0,0.6756 -1.22497,0 0,0.4889 1.22497,0 0,-0.4889 z m 0,0.6757 -1.22497,0 0,0.4889 1.22497,0 0,-0.4889 z m 0,0.6757 -1.22497,0 0,0.4888 1.22497,0 0,-0.4888 z m 0,0.6756 -1.22497,0 0,0.4889 1.22497,0 0,-0.4889 z m 0,0.6757 -1.22497,0 0,0.2252 q 0,0.1318 -0.011,0.2637 l 1.23596,0 0,-0.4889 z m 0,0.6756 -1.26343,0 q -0.0714,0.2857 -0.26916,0.4505 l 1.53259,0 0,-0.4505 z" id="path47"/><path d="m 0,0 0,2.3896 -0.21424,0 q -0.58777,-0.9394 -1.41723,-1.4942 -1.13159,-0.747 -2.37854,-0.747 -0.73059,0 -1.19202,0.2472 -0.25269,0.1373 -0.39551,0.3845 -0.0879,0.1538 -0.0879,0.3241 0,0.4065 0.45044,0.6097 0.41748,0.1868 1.48316,0.3571 l 1.60949,0.2581 q 1.30188,0.2088 1.95557,0.5988 0.87341,0.5219 0.87341,1.5875 0,0.7251 -0.44494,1.247 -0.43396,0.5053 -1.30188,0.7251 -0.52185,0.1263 -1.1316,0.1263 -1.33483,0 -2.41149,-0.6207 -0.23621,-0.1373 -0.67017,-0.4505 l -1.22498,0.9119 -0.2417,0 0,-2.6037 0.2417,0 q 0.56031,0.9173 1.51062,1.5875 1.31836,0.9338 2.77405,0.9338 0.78003,0 1.25794,-0.2252 0.43945,-0.2033 0.43945,-0.6482 0,-0.4834 -0.69763,-0.7306 -0.48889,-0.1758 -1.25244,-0.2856 l -1.80725,-0.2582 q -2.66968,-0.3845 -2.66968,-2.0929 0,-1.0217 0.90088,-1.637 0.86242,-0.5877 2.05993,-0.5877 1.41724,0 2.70813,0.9448 l 1.11512,-0.8515 0.1593,0 z m -6.19629,1.4777 q 0.005,-0.2362 0.0439,-0.3516 0.0439,-0.1428 0.20325,-0.4284 -0.42847,0.2856 -0.63721,0.78 l 0.39002,0 z m 0.033,0.1868 -0.4834,0 q -0.0549,0.2417 -0.0604,0.4889 l 0.82947,0 q -0.19775,-0.1978 -0.28564,-0.4889 z m 0.57129,0.6756 -1.09864,0 q 0.0439,0.2802 0.14283,0.4889 l 3.26843,0 -0.91187,-0.1373 q -1.02173,-0.1538 -1.40075,-0.3516 z m 3.55957,0.6757 -4.40552,0 q 0.21423,0.2966 0.53284,0.4889 l 5.3009,0 q -0.54382,-0.3296 -1.42822,-0.4889 z m 1.6864,0.6757 -5.18006,0 q 0.46143,0.1922 1.42273,0.3405 l 1.03821,0.1483 3.08167,0 q -0.12635,-0.2636 -0.36255,-0.4888 z m 0.42846,0.6756 -1.98303,0 q 1.03272,0.2142 1.33484,0.4889 l 0.70313,0 q 0.005,-0.071 0.005,-0.1099 0,-0.1812 -0.0604,-0.379 z m 0.0385,0.6757 -0.51636,0 q 0.14831,0.2087 0.14831,0.4175 0,0.2087 -0.13732,0.5053 0.3955,-0.2801 0.50537,-0.9228 z m -0.69214,-4.1638 0,-0.3132 -0.38452,0.3132 0.38452,0 z m 0,0.1867 -0.45044,0 q 0.18677,0.1758 0.45044,0.456 l 0,-0.456 z m -5.95459,4.5758 0,0.5768 0.74707,-0.5768 -0.74707,0 z m 0,-0.1867 0.67566,0 q -0.35157,-0.2857 -0.67566,-0.7087 l 0,0.7087 z" id="path49"/></defs></svg>