<?xml version="1.0" encoding="UTF-8" standalone="no"?>
<svg xmlns:dc="http://purl.org/dc/elements/1.1/" xmlns:cc="http://creativecommons.org/ns#" xmlns:rdf="http://www.w3.org/1999/02/22-rdf-syntax-ns#" xmlns:svg="http://www.w3.org/2000/svg" xmlns="http://www.w3.org/2000/svg" xmlns:xlink="http://www.w3.org/1999/xlink" viewBox="0 0 90 139" height="139" width="90" version="1.1" id="svg2">
  <metadata id="metadata8">
    <rdf:RDF>
      <cc:Work rdf:about="">
        <dc:format>image/svg+xml</dc:format>
        <dc:type rdf:resource="http://purl.org/dc/dcmitype/StillImage"/>
        <dc:title/>
      </cc:Work>
    </rdf:RDF>
  </metadata>
  <defs id="defs6"/>
  <image xlink:href="condition-image-3.png" id="card-image" x="0" y="0" width="90" height="139" preserveAspectRatio="none"/>
  <g id="flowRoot4138" style="fill:#000000;fill-opacity:1;stroke:none;stroke-width:1px;stroke-linecap:butt;stroke-linejoin:miter;stroke-opacity:1" transform="translate(0,-0.20823695)">
    <path id="path28" style="" d="m 34.399141,9.7303041 0,-1.47 q -0.16,-0.19 -0.29,-0.44 -0.12,-0.25 -0.25,-0.52 -0.12,-0.28 -0.26,-0.56 -0.14,-0.28 -0.33,-0.52 -0.24,-0.09 -0.44,-0.22 -0.2,-0.14 -0.4,-0.28 -0.2,-0.14 -0.42,-0.27 -0.21,-0.13 -0.47,-0.22 l -0.03,-0.09 -1.22,0 -0.07,-0.08 -1.73,0 -0.03,0.08 -0.12,-0.08 -1.23,0 -0.07,0.08 -0.56,0 q -0.07,0.22 -0.07,0.3 0,0.08 0.04,0.11 0.05,0.03 0.13,0.06 0.08,0.02 0.18,0.14 l 0.29,0.02 0.04,0.09 q 0.19,0.04 0.39,0.19 0.03,0.2 -0.01,0.49 -0.03,0.28 -0.07,0.61 -0.03,0.32 -0.03,0.67 0,0.34 0.11,0.66 -0.04,0.09 -0.05,0.34 0,0.24 0.01,0.57 0.01,0.33 0.03,0.7199999 0.02,0.39 0.03,0.77 0.02,0.38 0.01,0.71 0,0.33 -0.04,0.55 l -0.2,0.2 -0.37,0.03 q 0.03,0.02 0,0.04 -0.02,0.02 -0.04,0.02 l -0.56,0 q -0.05,0.19 -0.07,0.33 -0.01,0.14 0.15,0.3 l 0.91,0 0.08,-0.07 q 0.06,0 0.23,0.02 0.17,0.01 0.36,0.03 0.2,0.01 0.37,0.02 0.18,0 0.24,-0.02 -0.03,-0.01 -0.01,-0.03 0.03,-0.02 0.05,-0.02 l 0.94,0 0.08,0.07 1.7,0 0.08,-0.08 0.47,0 0.03,-0.1 q 0.25,-0.01 0.46,-0.09 0.21,-0.08 0.39,-0.19 0.19,-0.12 0.37,-0.25 0.18,-0.14 0.38,-0.26 0.11,-0.23 0.23,-0.47 0.13,-0.24 0.19,-0.49 0.13,-0.05 0.22,-0.22 0.09,-0.17 0.13,-0.38 0.05,-0.21 0.06,-0.41 0.01,-0.1999999 -0.01,-0.3199999 l 0.07,-0.07 z m -0.97,-2.35 q 0.04,0.32 0.02,0.63 -0.02,0.3 -0.07,0.6 -0.04,0.3 -0.08,0.61 -0.04,0.31 -0.04,0.63 l 0.07,0.12 q -0.03,0.1 -0.14,0.2899999 -0.1,0.19 -0.23,0.4 -0.12,0.21 -0.25,0.41 -0.12,0.19 -0.18,0.31 -0.14,0.06 -0.26,0.19 -0.11,0.12 -0.22,0.26 -0.11,0.13 -0.24,0.26 -0.12,0.12 -0.28,0.18 -0.14,0.05 -0.31,0.08 -0.17,0.02 -0.32,0.07 -0.06,-0.02 -0.12,-0.02 -0.06,0 -0.12,0 l -0.19,0.14 -0.76,0 -0.03,-0.1 q -0.19,-0.01 -0.36,-0.05 -0.17,-0.05 -0.34,-0.13 -0.11,-0.21 -0.15,-0.38 -0.04,-0.18 -0.05,-0.35 0,-0.18 0.01,-0.38 0.02,-0.21 0.02,-0.48 -0.05,-0.07 -0.08,-0.43 -0.03,-0.3599999 -0.05,-0.8599999 -0.02,-0.51 -0.03,-1.1 0,-0.59 0,-1.11 0,-0.52 0.01,-0.91 0.01,-0.4 0.03,-0.51 l 0.14,-0.16 q 0.2,0.02 0.41,-0.04 0.21,-0.06 0.44,-0.04 l 0.12,-0.08 0.61,0.28 -0.1,-0.21 0.36,0.16 -0.02,-0.23 1.19,0.6 0.22,0.17 q 0.04,0.1 0.16,0.17 0.12,0.06 0.27,0.11 0.15,0.04 0.3,0.09 0.15,0.04 0.27,0.1 l 0.05,0.33 0.09,0.04 q 0.09,0.19 0.23,0.34 z"/>
    <use x="38.998594" y="10.130304" xlink:href="#path30"/>
    <path id="path32" style="" d="m 42.487109,8.4003041 q -0.01,-0.19 -0.07,-0.25 -0.05,-0.07 -0.19,-0.19 l -0.86,0 -0.14,0.1 q -0.15,-0.05 -0.23,-0.12 -0.07,-0.08 -0.1,-0.18 -0.03,-0.1 -0.05,-0.21 -0.01,-0.12 -0.04,-0.24 l -0.26,0 -0.07,0.06 -0.11,0.01 q 0,0.1 -0.01,0.14 -0.06,0.02 -0.11,0.08 -0.04,0.05 -0.09,0.12 -0.05,0.07 -0.12,0.14 -0.07,0.07 -0.17,0.11 l -0.08,0.12 -0.14,0.05 q 0,-0.01 -0.03,-0.01 -0.01,0.08 -0.1,0.17 -0.09,0.09 -0.09,0.14 0,0.06 0.03,0.08 0.03,0.01 0.08,0.02 0.06,0 0.13,0.02 0.07,0.02 0.13,0.11 l 0.23,0.04 q 0,0.3 -0.01,0.64 -0.01,0.34 -0.03,0.6999999 -0.01,0.35 -0.03,0.7 -0.02,0.34 -0.04,0.64 l -0.06,0.08 q 0.06,0.13 0.09,0.37 0.04,0.23 0.11,0.46 0.07,0.23 0.18,0.41 0.12,0.18 0.34,0.19 l 0.04,0.08 q 0.16,0.07 0.31,0.08 0.16,0.02 0.31,0 0.15,-0.01 0.3,-0.03 0.16,-0.03 0.32,-0.05 0.1,-0.08 0.22,-0.12 0.12,-0.04 0.2,-0.14 0.19,-0.01 0.28,-0.07 0.09,-0.06 0.09,-0.15 0.01,-0.09 -0.05,-0.2 -0.06,-0.12 -0.17,-0.23 l 0,0.04 q -0.02,0.02 -0.1,0.08 -0.07,0.05 -0.1,0.05 -0.28,0 -0.44,0.02 -0.15,0.01 -0.26,0 -0.11,-0.02 -0.22,-0.08 -0.1,-0.06 -0.28,-0.2 -0.04,-0.13 -0.07,-0.38 -0.02,-0.26 -0.04,-0.57 -0.02,-0.32 -0.04,-0.65 -0.01,-0.34 -0.02,-0.6399999 0,-0.3 -0.01,-0.52 0,-0.23 0,-0.32 0,-0.02 0.05,-0.09 0.05,-0.08 0.07,-0.1 l 0.88,0 q 0.09,0 0.2,0.03 0.12,0.02 0.22,0.01 0.1,-0.01 0.16,-0.08 0.07,-0.07 0.06,-0.27 z"/>
    <path id="path34" style="" d="m 46.848516,12.730304 0,-0.39 -0.5,-0.08 q -0.08,-0.11 -0.1,-0.36 -0.02,-0.26 -0.02,-0.59 0.01,-0.33 0.03,-0.71 0.03,-0.38 0.03,-0.7399999 0.01,-0.36 -0.01,-0.66 -0.01,-0.31 -0.07,-0.49 l -0.4,-0.34 q -0.29,-0.04 -0.53,-0.06 -0.24,-0.03 -0.56,-0.01 -0.08,0.01 -0.15,0.05 -0.06,0.03 -0.15,0.02 -0.08,0.08 -0.18,0.11 -0.09,0.02 -0.19,0.07 l 0.01,0.02 -0.08,0.07 -0.12,0 -0.1,0.11 -0.23,0.02 q -0.12,0.14 -0.18,0.21 -0.06,0.07 -0.08,0.15 -0.02,0.07 -0.01,0.18 0.01,0.1 0.04,0.29 l -0.04,0.04 0.61,0 q 0.05,-0.09 0.13,-0.1 0.09,-0.02 0.18,-0.06 -0.02,-0.12 0,-0.2 0.02,-0.08 0.07,-0.14 0.05,-0.07 0.12,-0.13 0.07,-0.07 0.13,-0.15 0.11,0.01 0.15,-0.04 0.04,-0.05 0.12,-0.06 0.08,0.01 0.15,0.08 l 0.36,0.09 q 0.06,0.11 0.13,0.2 0.08,0.09 0.18,0.15 0.03,0.22 0.01,0.32 -0.01,0.1 -0.07,0.18 -0.05,0.07 -0.14,0.16 -0.09,0.08 -0.21,0.2599999 l -0.3,0.02 q 0,0.08 -0.14,0.2 -0.14,0.11 -0.33,0.24 -0.18,0.12 -0.36,0.24 -0.18,0.12 -0.26,0.19 -0.17,0.16 -0.26,0.31 -0.08,0.15 -0.12,0.31 -0.03,0.16 -0.03,0.35 0,0.19 0,0.43 0.05,0.06 0.14,0.16 0.1,0.09 0.2,0.18 0.11,0.09 0.21,0.16 0.1,0.07 0.17,0.07 0.42,0 0.58,-0.02 0.17,-0.02 0.26,-0.07 0.09,-0.05 0.19,-0.14 0.1,-0.09 0.39,-0.23 0.08,0.06 0.15,0.12 0.07,0.05 0.07,0.16 l 0.11,0.11 0.44,0 q 0.08,-0.12 0.2,-0.14 0.13,-0.02 0.23,-0.11 l 0.13,-0.01 z m -1.12,-1.17 q 0,0.16 -0.04,0.32 -0.04,0.15 -0.11,0.3 -0.05,0.03 -0.16,0.11 -0.11,0.07 -0.12,0.14 l -0.46,0 -0.01,-0.07 q -0.06,-0.04 -0.11,-0.04 -0.05,-0.06 -0.1,-0.1 -0.05,-0.04 -0.13,-0.02 -0.1,-0.24 -0.11,-0.44 -0.01,-0.2 0.13,-0.43 0.01,-0.01 0.03,-0.06 0.03,-0.05 0.06,-0.1 0.03,-0.05 0.05,-0.09 0.03,-0.05 0.04,-0.06 0.1,-0.09 0.22,-0.17 0.12,-0.09 0.23,-0.17 l 0.52,0 q -0.02,0.05 -0.05,0.08 0.02,0.02 0.03,0.11 0.01,0.09 0.02,0.2 0.01,0.1 0.01,0.2 0,0.09 0,0.12 0,0.05 0.03,0.09 0.03,0.03 0.03,0.08 z"/>
    <path id="path36" style="" d="m 49.301875,7.0003041 q 0,-0.18 -0.2,-0.29 -0.2,-0.12 -0.44,-0.14 -0.24,-0.02 -0.44,0.06 -0.2,0.07 -0.2,0.26 0,0.31 0.2,0.46 0.2,0.14 0.44,0.15 0.24,0 0.44,-0.13 0.2,-0.13 0.2,-0.37 z m 0.35,5.7699999 q -0.01,-0.11 -0.14,-0.16 -0.13,-0.05 -0.19,-0.1 -0.14,-0.12 -0.18,-0.3 -0.04,-0.18 -0.04,-0.35 0,-0.21 -0.01,-0.33 0,-0.12 -0.01,-0.21 0,-0.1 0.01,-0.21 0.01,-0.12 0.04,-0.33 0,-0.04 0.02,-0.23 0.02,-0.19 0.03,-0.45 0.02,-0.2599999 0.02,-0.5499999 0,-0.3 -0.04,-0.54 -0.03,-0.25 -0.11,-0.41 -0.07,-0.17 -0.2,-0.17 -0.06,0 -0.24,0.04 -0.17,0.04 -0.35,0.11 -0.18,0.06 -0.32,0.14 -0.13,0.07 -0.12,0.13 0.01,0.12 0.08,0.22 0.07,0.09 0.15,0.18 0.08,0.08 0.14,0.16 0.06,0.08 0.05,0.17 -0.05,0.4 -0.06,0.6899999 0,0.29 0.01,0.56 0.02,0.27 0.04,0.56 0.02,0.29 0.02,0.68 0,0.26 -0.09,0.39 -0.09,0.12 -0.2,0.19 -0.11,0.06 -0.22,0.11 -0.11,0.05 -0.17,0.17 0.04,0.03 0.11,0.07 0.08,0.04 0.15,0.08 0.08,0.04 0.15,0.06 0.08,0.03 0.14,0.02 0.12,-0.03 0.37,-0.01 0.26,0.02 0.52,0.01 0.26,-0.01 0.45,-0.09 0.2,-0.07 0.19,-0.3 z"/>
    <path id="path38" style="" d="m 54.904844,12.710304 -0.27,-0.22 -0.03,-0.37 q 0,0.02 -0.03,0.01 -0.02,-0.02 -0.02,-0.05 l 0,-0.67 -0.07,-0.12 q 0.08,-0.23 0.09,-0.53 0.02,-0.31 0,-0.64 -0.02,-0.3299999 -0.05,-0.6499999 -0.03,-0.32 -0.04,-0.57 -0.17,-0.14 -0.31,-0.29 -0.14,-0.15 -0.36,-0.21 l -0.05,-0.08 q -0.17,-0.05 -0.24,-0.07 -0.07,-0.02 -0.12,-0.01 -0.05,0 -0.13,0.03 -0.07,0.02 -0.24,0.05 -0.05,0.08 -0.13,0.12 -0.08,0.04 -0.18,0.05 -0.11,0.09 -0.24,0.15 -0.12,0.05 -0.25,0.1 l 0.02,0.05 q -0.04,0.05 -0.11,0.05 -0.06,0 -0.13,-0.02 -0.07,-0.02 -0.13,-0.05 -0.06,-0.04 -0.09,-0.07 l 0,-0.46 -0.4,0 -0.11,0.16 q -0.17,0.08 -0.33,0.17 -0.16,0.08 -0.33,0.16 l 0,0.27 q 0.14,0.06 0.22,0.1 0.08,0.04 0.12,0.09 0.05,0.05 0.06,0.14 0.02,0.08 0.02,0.24 0.03,-0.01 0.05,0.03 0.03,0.04 0,0.06 -0.04,0.03 -0.06,0.17 -0.01,0.14 -0.01,0.3199999 0,0.17 0.01,0.34 0.01,0.16 0.01,0.25 l 0.1,0.03 0,0.47 -0.1,0.03 0,0.98 q -0.15,0.09 -0.25,0.13 -0.1,0.04 -0.16,0.1 -0.05,0.05 -0.06,0.15 -0.01,0.1 0.02,0.29 0.12,0.11 0.28,0.1 0.17,-0.01 0.31,-0.01 l 0.03,0.1 0.93,0 q 0.04,-0.08 0.08,-0.14 0.04,-0.07 0.07,-0.15 -0.04,-0.17 -0.16,-0.21 -0.12,-0.05 -0.26,-0.12 l 0,-0.64 q 0.04,-0.01 0.06,-0.05 0.02,-0.04 0.04,-0.07 0,-0.62 0,-1.2 0,-0.5899999 0.08,-1.1899999 0.02,-0.02 0.07,-0.07 0.06,-0.05 0.12,-0.1 0.06,-0.06 0.11,-0.1 0.05,-0.05 0.07,-0.06 0.06,-0.02 0.11,-0.04 0.06,-0.03 0.1,-0.08 l 0.64,0 q 0.15,0.18 0.24,0.25 0.1,0.06 0.15,0.09 0.05,0.02 0.06,0.06 0.02,0.03 0.02,0.15 0,0.12 -0.01,0.37 -0.01,0.2399999 -0.01,0.6899999 0.08,-0.03 0.1,0.08 0.02,0.11 0.01,0.27 -0.01,0.16 -0.03,0.32 -0.02,0.16 -0.02,0.22 -0.03,0.05 -0.05,0.07 -0.01,0.01 -0.01,0.03 0,0.01 0.01,0.03 0.02,0.02 0.05,0.07 l 0,0.91 q -0.09,0.08 -0.2,0.09 -0.1,0 -0.21,0.01 -0.04,0.13 -0.14,0.17 l 0,0.16 q 0.06,0.07 0.15,0.09 0.1,0.02 0.17,0.09 l 1.04,0 0.06,0.07 0.14,0 0.01,-0.32 0.1,-0.15 z"/>
    <use x="59.223203" y="10.130304" xlink:href="#path30"/>
    <path id="path42" style="" d="m 64.925391,12.400304 q -0.1,0.02 -0.2,0.06 -0.1,0.03 -0.21,0 -0.15,-0.13 -0.21,-0.43 -0.05,-0.31 -0.06,-0.7 -0.01,-0.4 0.01,-0.84 0.03,-0.45 0.05,-0.8499999 0.02,-0.41 0.01,-0.73 0,-0.32 -0.07,-0.48 0.1,-0.28 0.11,-0.57 0.02,-0.3 0,-0.59 -0.01,-0.29 -0.02,-0.58 0,-0.29 0.07,-0.58 l 0.01,0.01 q 0.02,-0.22 0,-0.44 -0.01,-0.22 -0.08,-0.43 -0.13,-0.11 -0.25,-0.14 -0.11,-0.04 -0.23,-0.03 -0.11,0 -0.23,0.03 -0.12,0.02 -0.27,0.03 l -0.03,0.08 -0.5,0.09 0,0.23 0.08,0.1 0.31,0.09 q 0.09,0.1 0.1,0.24 0.02,0.13 0.04,0.25 0.02,-0.03 0.04,0 0.02,0.02 0.02,0.04 l 0,0.79 q 0,0.18 0.02,0.46 0.03,0.28 0.01,0.53 -0.02,0.25 -0.13,0.42 -0.1,0.16 -0.36,0.11 -0.07,-0.07 -0.17,-0.11 -0.09,-0.05 -0.18,-0.07 l -0.03,-0.09 q -0.32,0 -0.57,-0.03 -0.25,-0.03 -0.56,0.04 0,0.03 -0.05,0.06 -0.04,0.02 -0.11,0.05 -0.07,0.03 -0.14,0.07 -0.06,0.03 -0.09,0.07 l -0.39,0.16 q -0.04,0.2 -0.16,0.45 -0.12,0.25 -0.25,0.39 0.02,0.11 -0.04,0.23 -0.05,0.11 -0.13,0.19 -0.03,0.09 0.01,0.1899999 0.05,0.1 0.08,0.18 -0.03,0.06 -0.08,0.12 -0.04,0.05 -0.09,0.1 -0.02,0.23 0,0.41 0.03,0.18 0.08,0.39 l 0.08,0.04 q 0.03,0.39 0.18,0.63 0.15,0.24 0.36,0.41 0.21,0.16 0.47,0.3 0.26,0.13 0.52,0.31 l 0.87,0 q 0.06,-0.04 0.18,-0.12 0.12,-0.08 0.25,-0.17 0.13,-0.09 0.23,-0.17 0.11,-0.08 0.14,-0.13 l 0.13,0 q 0.07,0.17 0.1,0.39 l 0.17,0.2 q 0.31,0.03 0.57,-0.01 0.26,-0.05 0.56,0.01 0.22,-0.12 0.28,-0.24 0.07,-0.13 0.04,-0.23 -0.03,-0.1 -0.12,-0.15 -0.08,-0.05 -0.17,-0.04 z m -1.41,-2.6699999 q 0,0.05 0,0.24 0,0.1799999 0,0.3899999 0,0.21 -0.01,0.39 0,0.17 -0.01,0.18 0,0 -0.02,-0.01 -0.02,-0.01 -0.02,0.01 0,0.13 -0.04,0.36 -0.03,0.22 -0.1,0.45 -0.06,0.22 -0.17,0.4 -0.1,0.18 -0.24,0.24 -0.1,0.04 -0.22,0.06 -0.11,0.01 -0.22,0.03 -0.05,0.11 -0.18,0.09 -0.13,-0.03 -0.28,-0.11 -0.15,-0.08 -0.29,-0.18 -0.14,-0.1 -0.2,-0.13 -0.04,-0.07 -0.1,-0.17 -0.05,-0.11 -0.1,-0.22 -0.05,-0.11 -0.09,-0.22 -0.04,-0.11 -0.05,-0.19 l -0.09,-0.02 0,-1.24 q 0,-0.02 0.02,-0.05 0.03,-0.03 0.05,-0.05 0.11,-0.11 0.14,-0.26 0.03,-0.16 0.04,-0.3 l 0.08,-0.04 0.03,-0.23 q 0.12,-0.09 0.22,-0.2 0.1,-0.12 0.19,-0.24 l 0.89,0 q 0.06,0.07 0.14,0.15 0.08,0.08 0.16,0.17 0.08,0.08 0.14,0.17 0.06,0.09 0.06,0.18 l 0.08,0.04 q 0.05,0.17 0.1,0.28 l 0.09,0.03 z"/>
  </g>
  <g id="text4146" style="fill:#000000;fill-opacity:1;stroke:none;stroke-width:1px;stroke-linecap:butt;stroke-linejoin:miter;stroke-opacity:1">
    <path id="path45" style="" d="m 27.528498,83.010775 c -0.225,0.6975 -0.2775,0.7575 -0.6,0.81 l -0.2325,0.0375 c -0.09,0.015 -0.0825,0.21 -0.0075,0.255 0.375,-0.015 0.7125,-0.0225 1.0725,-0.0225 0.36,0 0.735,0.0075 1.1025,0.0225 0.0825,-0.045 0.105,-0.2175 0.0375,-0.255 l -0.195,-0.0375 c -0.3825,-0.075 -0.39,-0.2025 -0.1875,-0.81 l 0.3075,-0.9375 c 0.0525,-0.15 0.075,-0.1725 0.2625,-0.1725 0.225,0 0.315,0.075 0.3675,0.33 l 0.21,1.095 c 0.075,0.3975 0.2175,0.585 0.3675,0.6825 0.12,0.075 0.3225,0.1125 0.5925,0.1125 0.3225,0 0.54,-0.0075 0.69,-0.045 0.0675,-0.0525 0.09,-0.18 0.0225,-0.2325 -0.1425,-0.03 -0.3525,-0.075 -0.45,-0.18 -0.18,-0.1875 -0.3225,-0.87 -0.495,-1.8375 -0.015,-0.09 -0.015,-0.135 0.12,-0.1725 0.5775,-0.15 1.215,-0.54 1.215,-1.2825 0,-0.4875 -0.2775,-0.84 -0.6225,-1.0125 -0.36,-0.1725 -0.8475,-0.24 -1.4625,-0.24 -0.5775,0 -1.0425,0.03 -1.485,0.0675 -0.09,0.0375 -0.1125,0.195 -0.045,0.255 l 0.24,0.06 c 0.24,0.06 0.24,0.1725 0.075,0.6825 l -0.9,2.8275 z m 3.105,-2.7525 c 0,0.66 -0.54,1.3125 -1.2525,1.3125 -0.345,0 -0.3975,-0.03 -0.33,-0.2475 l 0.51,-1.6125 c 0.0675,-0.2025 0.0825,-0.2475 0.3675,-0.2475 0.5475,0 0.705,0.405 0.705,0.795 z"/>
    <path id="path47" style="" d="m 33.228146,80.378275 c -0.219375,0 -0.50625,-0.0056 -0.770625,-0.01687 -0.07875,0.02813 -0.09,0.1575 -0.03937,0.196875 l 0.135,0.0225 c 0.264375,0.045 0.25875,0.151875 0.118125,0.6075 l -0.658125,2.0925 c -0.163125,0.523125 -0.208125,0.5625 -0.4725,0.601875 l -0.19125,0.02813 c -0.07875,0.0225 -0.08437,0.163125 -0.02812,0.196875 0.28125,-0.01125 0.534375,-0.01688 0.815625,-0.01688 l 0.73125,0 c 0.230625,0 0.48375,0 0.72,0.0056 0.23625,0 0.46125,0.0056 0.635625,0.01125 0.12375,-0.151875 0.3375,-0.6075 0.433125,-0.88875 -0.03375,-0.0675 -0.163125,-0.07875 -0.225,-0.03375 -0.46125,0.63 -0.658125,0.646875 -1.1475,0.646875 -0.410625,0 -0.500625,-0.03938 -0.55125,-0.135 -0.045,-0.09562 -0.0056,-0.27 0.07875,-0.534375 l 0.21375,-0.68625 c 0.045,-0.151875 0.0675,-0.16875 0.21375,-0.16875 l 0.37125,0 c 0.2925,0 0.34875,0.045 0.315,0.315 l -0.01687,0.140625 c 0.0225,0.045 0.16875,0.03938 0.21375,-0.0056 0.05063,-0.18 0.10125,-0.3825 0.16875,-0.59625 0.07312,-0.21375 0.140625,-0.421875 0.208125,-0.59625 -0.01687,-0.05062 -0.1575,-0.05625 -0.21375,-0.0056 l -0.07312,0.135 c -0.14625,0.27 -0.219375,0.315 -0.511875,0.315 l -0.37125,0 c -0.14625,0 -0.1575,-0.01125 -0.106875,-0.16875 l 0.309375,-0.97875 c 0.0675,-0.21375 0.08437,-0.225 0.275625,-0.225 l 0.43875,0 c 0.28125,0 0.4275,0.0675 0.4725,0.196875 0.0225,0.0675 0.03938,0.230625 0.0225,0.433125 0.03937,0.045 0.185625,0.03937 0.21375,-0.0225 0.10125,-0.3825 0.2475,-0.7875 0.286875,-0.883125 -0.08437,0.01125 -0.405,0.01687 -0.765,0.01687 l -1.24875,0 z"/>
    <path id="path49" style="" d="m 36.067101,84.180775 c 0.9675,0 1.49625,-0.511875 1.49625,-1.20375 0,-0.500625 -0.315,-0.8325 -0.64125,-1.051875 l -0.174375,-0.118125 c -0.39375,-0.264375 -0.478125,-0.48375 -0.478125,-0.658125 0,-0.28125 0.2475,-0.6075 0.675,-0.6075 0.4725,0 0.66375,0.3825 0.59625,0.793125 0.03375,0.05062 0.174375,0.0675 0.219375,0 0.07875,-0.331875 0.174375,-0.590625 0.2475,-0.748125 -0.241875,-0.18 -0.61875,-0.298125 -1.029375,-0.30375 -0.781875,-0.0056 -1.378125,0.45 -1.378125,1.17 0,0.376875 0.27,0.691875 0.613125,0.939375 l 0.140625,0.10125 c 0.320625,0.230625 0.4725,0.466875 0.4725,0.748125 0,0.444375 -0.320625,0.680625 -0.669375,0.680625 -0.30375,0 -0.5625,-0.14625 -0.73125,-0.444375 -0.118125,-0.2025 -0.151875,-0.433125 -0.163125,-0.590625 -0.03937,-0.05625 -0.185625,-0.05625 -0.219375,-0.01125 -0.07313,0.25875 -0.1125,0.57375 -0.106875,0.815625 0.129375,0.230625 0.55125,0.489375 1.130625,0.489375 z"/>
    <path id="path51" style="" d="m 39.46091,80.378275 c -0.3825,0 -0.43875,-0.03938 -0.43875,-0.151875 -0.05062,-0.02813 -0.12375,-0.02813 -0.1575,0.0056 -0.09562,0.25875 -0.2475,0.579375 -0.421875,0.939375 0,0.07312 0.1575,0.10125 0.208125,0.0675 0.14625,-0.253125 0.286875,-0.3825 0.399375,-0.4725 0.151875,-0.118125 0.315,-0.129375 0.4725,-0.129375 l 0.230625,0 c 0.185625,0 0.19125,0.01687 0.14625,0.1575 l -0.781875,2.48625 c -0.163125,0.523125 -0.208125,0.568125 -0.45,0.601875 l -0.219375,0.02813 c -0.07875,0.0225 -0.07313,0.163125 -0.01688,0.196875 0.3375,-0.01125 0.590625,-0.01688 0.860625,-0.01688 0.25875,0 0.545625,0.0056 0.9,0.01688 0.05062,-0.03375 0.0675,-0.163125 0.03375,-0.196875 L 40.017785,83.88265 C 39.73091,83.843275 39.736535,83.7364 39.87716,83.280775 l 0.765,-2.48625 c 0.05063,-0.1575 0.05625,-0.1575 0.225,-0.1575 l 0.2475,0 c 0.14625,0 0.298125,0.01687 0.405,0.10125 0.07312,0.06188 0.0675,0.28125 0.05062,0.48375 0.03375,0.05625 0.185625,0.05625 0.225,0 0.06188,-0.27 0.241875,-0.75375 0.34875,-0.973125 -0.0225,-0.03938 -0.140625,-0.05063 -0.185625,-0.01688 -0.07875,0.10125 -0.163125,0.14625 -0.39375,0.14625 l -2.10375,0 z"/>
    <path id="path53" style="" d="m 41.950148,83.280775 c -0.16875,0.523125 -0.208125,0.568125 -0.45,0.6075 l -0.174375,0.02813 c -0.0675,0.01125 -0.06188,0.1575 -0.0056,0.19125 0.28125,-0.01125 0.534375,-0.01688 0.804375,-0.01688 0.27,0 0.55125,0.0056 0.826875,0.01688 0.06188,-0.03375 0.07875,-0.163125 0.02813,-0.19125 l -0.14625,-0.02813 c -0.286875,-0.05625 -0.2925,-0.151875 -0.140625,-0.6075 l 0.230625,-0.703125 c 0.03937,-0.1125 0.05625,-0.129375 0.196875,-0.129375 0.16875,0 0.23625,0.05625 0.275625,0.2475 l 0.1575,0.82125 c 0.05625,0.298125 0.163125,0.43875 0.275625,0.511875 0.09,0.05625 0.241875,0.08438 0.444375,0.08438 0.241875,0 0.405,-0.0056 0.5175,-0.03375 0.05062,-0.03938 0.0675,-0.135 0.01687,-0.174375 -0.106875,-0.0225 -0.264375,-0.05625 -0.3375,-0.135 -0.135,-0.140625 -0.241875,-0.6525 -0.37125,-1.378125 -0.01125,-0.0675 -0.01125,-0.10125 0.09,-0.129375 0.433125,-0.1125 0.91125,-0.405 0.91125,-0.961875 0,-0.365625 -0.208125,-0.63 -0.466875,-0.759375 -0.27,-0.129375 -0.635625,-0.18 -1.096875,-0.18 -0.433125,0 -0.781875,0.0225 -1.11375,0.05062 -0.0675,0.02813 -0.08438,0.14625 -0.03375,0.19125 l 0.18,0.045 c 0.18,0.045 0.18,0.129375 0.05625,0.511875 l -0.675,2.120625 z m 2.32875,-2.064375 c 0,0.495 -0.405,0.984375 -0.939375,0.984375 -0.25875,0 -0.298125,-0.0225 -0.2475,-0.185625 l 0.3825,-1.209375 c 0.05063,-0.151875 0.06188,-0.185625 0.275625,-0.185625 0.410625,0 0.52875,0.30375 0.52875,0.59625 z"/>
    <use x="46.382384" y="83.88265" xlink:href="#path55"/>
    <path id="path57" style="" d="m 47.407453,82.7014 c -0.0056,0.84375 0.5625,1.479375 1.715625,1.479375 0.489375,0 0.793125,-0.118125 1.006875,-0.140625 0.09,-0.14625 0.2925,-0.55125 0.399375,-0.88875 -0.01687,-0.06188 -0.14625,-0.07875 -0.208125,-0.03375 -0.388125,0.5175 -0.714375,0.804375 -1.18125,0.804375 -0.41625,0 -0.8775,-0.25875 -0.8775,-1.175625 0,-1.040625 0.759375,-2.199375 1.72125,-2.199375 0.523125,0 0.736875,0.2475 0.68625,0.82125 0.0225,0.06188 0.174375,0.06188 0.21375,0 0.07875,-0.298125 0.151875,-0.590625 0.275625,-0.871875 -0.16875,-0.0675 -0.5625,-0.208125 -1.125,-0.208125 -0.849375,0 -1.4625,0.331875 -1.8225,0.6525 -0.421875,0.376875 -0.79875,1.029375 -0.804375,1.760625 z"/>
    <path id="path59" style="" d="m 52.369845,80.378275 c -0.3825,0 -0.43875,-0.03938 -0.43875,-0.151875 -0.05062,-0.02813 -0.12375,-0.02813 -0.1575,0.0056 -0.09562,0.25875 -0.2475,0.579375 -0.421875,0.939375 0,0.07312 0.1575,0.10125 0.208125,0.0675 0.14625,-0.253125 0.286875,-0.3825 0.399375,-0.4725 0.151875,-0.118125 0.315,-0.129375 0.4725,-0.129375 l 0.230625,0 c 0.185625,0 0.19125,0.01687 0.14625,0.1575 l -0.781875,2.48625 c -0.163125,0.523125 -0.208125,0.568125 -0.45,0.601875 l -0.219375,0.02813 c -0.07875,0.0225 -0.07313,0.163125 -0.01687,0.196875 0.3375,-0.01125 0.590625,-0.01688 0.860625,-0.01688 0.25875,0 0.545625,0.0056 0.9,0.01688 0.05062,-0.03375 0.0675,-0.163125 0.03375,-0.196875 L 52.92672,83.88265 c -0.286875,-0.03937 -0.28125,-0.14625 -0.140625,-0.601875 l 0.765,-2.48625 c 0.05063,-0.1575 0.05625,-0.1575 0.225,-0.1575 l 0.2475,0 c 0.14625,0 0.298125,0.01687 0.405,0.10125 0.07312,0.06188 0.0675,0.28125 0.05062,0.48375 0.03375,0.05625 0.185625,0.05625 0.225,0 0.06188,-0.27 0.241875,-0.75375 0.34875,-0.973125 -0.0225,-0.03938 -0.140625,-0.05063 -0.185625,-0.01688 -0.07875,0.10125 -0.163125,0.14625 -0.39375,0.14625 l -2.10375,0 z"/>
    <use x="55.764709" y="83.88265" xlink:href="#path55"/>
    <path id="path63" style="" d="m 56.801027,82.6789 c 0,0.613125 0.315,1.501875 1.603125,1.501875 0.68625,0 1.254375,-0.34875 1.54125,-0.64125 0.41625,-0.4275 0.691875,-1.074375 0.691875,-1.665 0,-1.215 -0.860625,-1.58625 -1.546875,-1.58625 -0.410625,0 -0.9225,0.12375 -1.389375,0.50625 -0.556875,0.455625 -0.9,1.175625 -0.9,1.884375 z m 2.35125,-2.131875 c 0.39375,0 0.680625,0.27 0.680625,0.928125 0,0.68625 -0.225,1.45125 -0.736875,2.041875 -0.264375,0.30375 -0.545625,0.405 -0.770625,0.405 -0.4725,0 -0.72,-0.399375 -0.72,-0.939375 0,-0.9225 0.495,-1.83375 0.945,-2.19375 0.18,-0.140625 0.388125,-0.241875 0.601875,-0.241875 z"/>
    <path id="path65" style="" d="m 61.350597,82.6789 c -0.1125,0.365625 -0.225,0.6975 -0.264375,0.81 -0.09562,0.264375 -0.185625,0.3375 -0.444375,0.39375 l -0.129375,0.02813 c -0.0675,0.03937 -0.06188,0.163125 -0.01125,0.196875 0.253125,-0.01125 0.410625,-0.01688 0.646875,-0.01688 0.21375,0 0.405,0.0056 0.70875,0.01688 0.06188,-0.03938 0.05625,-0.14625 0.02812,-0.196875 l -0.16875,-0.02813 c -0.286875,-0.045 -0.28125,-0.118125 -0.23625,-0.399375 0.01688,-0.10125 0.106875,-0.43875 0.219375,-0.804375 l 0.331875,-1.096875 c 0.09,-0.30375 0.1125,-0.37125 0.140625,-0.43875 0.07875,0.1575 0.25875,0.590625 0.365625,0.838125 l 0.601875,1.366875 c 0.1575,0.354375 0.309375,0.7875 0.320625,0.7875 0.14625,0 0.309375,-0.0225 0.354375,-0.06188 0.05063,-0.185625 0.135,-0.5175 0.264375,-0.939375 l 0.410625,-1.344375 c 0.1125,-0.365625 0.230625,-0.6975 0.27,-0.81 0.10125,-0.275625 0.19125,-0.343125 0.444375,-0.39375 l 0.135,-0.02813 c 0.05062,-0.03937 0.05625,-0.163125 0.01125,-0.196875 -0.25875,0.01125 -0.410625,0.01687 -0.6525,0.01687 -0.21375,0 -0.399375,-0.0056 -0.6975,-0.01687 -0.07312,0.03937 -0.09,0.14625 -0.03937,0.196875 l 0.16875,0.0225 c 0.286875,0.03937 0.2925,0.12375 0.23625,0.405 -0.0225,0.10125 -0.1125,0.43875 -0.219375,0.804375 l -0.241875,0.81 c -0.03937,0.129375 -0.09,0.286875 -0.129375,0.34875 -0.06188,-0.118125 -0.1575,-0.315 -0.354375,-0.75375 l -0.264375,-0.585 c -0.264375,-0.590625 -0.466875,-1.035 -0.43875,-1.24875 -0.12375,0.01125 -0.309375,0.01687 -0.45,0.01687 -0.21375,0 -0.41625,-0.0056 -0.70875,-0.01687 -0.0675,0.03375 -0.09,0.163125 -0.03937,0.196875 l 0.1575,0.0225 c 0.286875,0.03937 0.275625,0.151875 0.135,0.6075 l -0.46125,1.490625 z"/>
  </g>
  <g id="flowRoot4150" style="fill:#000000;fill-opacity:1;stroke:none;stroke-width:1px;stroke-linecap:butt;stroke-linejoin:miter;stroke-opacity:1" transform="matrix(0.50053315,0,0,0.5,-0.3191755,1.1632414)">
    <path id="path68" style="" d="m 21.182484,176.37725 c 0,-1.0395 0.0405,-1.161 0.6345,-2.187 l 0.8505,-1.4715 c 0.675,-1.161 1.08,-2.0115 1.782,-2.133 l 0.378,-0.0675 c 0.0945,-0.081 0.081,-0.27 -0.027,-0.3375 -0.459,0.027 -0.837,0.0405 -1.2555,0.0405 -0.4185,0 -0.81,-0.0135 -1.296,-0.0405 -0.108,0.054 -0.1215,0.243 -0.027,0.3375 l 0.243,0.027 c 0.324,0.0405 0.567,0.135 0.567,0.216 0,0.162 -0.4995,1.08 -0.8775,1.782 -0.405,0.783 -0.8505,1.566 -1.269,2.2815 -0.5265,-0.9315 -1.026,-1.998 -1.5255,-2.997 -0.0675,-0.135 -0.4185,-0.9045 -0.4185,-1.0395 0,-0.108 0.0945,-0.1755 0.567,-0.243 l 0.1755,-0.027 c 0.081,-0.081 0.081,-0.297 -0.0405,-0.3375 -0.3375,0.027 -0.8235,0.0405 -1.4445,0.0405 -0.648,0 -1.134,-0.0135 -1.566,-0.0405 -0.0945,0.054 -0.108,0.243 -0.027,0.3375 l 0.378,0.0675 c 0.405,0.0675 0.6075,0.135 1.0665,1.026 l 1.593,3.105 c 0.3915,0.756 0.432,0.9315 0.432,1.674 l 0,0.6885 c 0,1.4445 -0.027,1.6335 -0.81,1.7145 l -0.4185,0.0405 c -0.081,0.081 -0.054,0.297 0.027,0.3375 0.7155,-0.027 1.2015,-0.0405 1.7685,-0.0405 0.54,0 0.999,0.0135 1.836,0.0405 0.081,-0.0405 0.108,-0.2565 0.027,-0.3375 l -0.513,-0.0405 c -0.729,-0.054 -0.81,-0.27 -0.81,-1.7145 l 0,-0.702 z"/>
    <use x="26.480812" y="173.62325" xlink:href="#path70"/>
    <use x="31.844742" y="174.89225" xlink:href="#path72"/>
    <use x="43.734445" y="173.62325" xlink:href="#path74"/>
    <use x="46.979719" y="176.91725" xlink:href="#path76"/>
    <use x="52.167727" y="177.61925" xlink:href="#path78"/>
    <use x="59.2605" y="177.61925" xlink:href="#path78"/>
    <use x="68.378273" y="173.62325" xlink:href="#path70"/>
    <use x="75.551203" y="174.37925" xlink:href="#path84"/>
    <use x="87.588352" y="177.61925" xlink:href="#path86"/>
    <use x="93.084328" y="173.62325" xlink:href="#path70"/>
    <use x="98.33182" y="177.88925" xlink:href="#path90"/>
    <use x="106.09137" y="175.67525" xlink:href="#path92"/>
    <use x="113.91441" y="173.62325" xlink:href="#path70"/>
    <use x="118.45484" y="177.61925" xlink:href="#path96"/>
    <use x="126.13676" y="181.06175" xlink:href="#path98"/>
    <use x="136.09723" y="175.67525" xlink:href="#path92"/>
    <use x="138.52027" y="177.61925" xlink:href="#path96"/>
    <use x="145.74066" y="174.37925" xlink:href="#path104"/>
    <use x="149.0355" y="173.62325" xlink:href="#path70"/>
    <use x="153.57593" y="177.61925" xlink:href="#path96"/>
    <use x="165.21335" y="177.61925" xlink:href="#path86"/>
    <use x="18.727277" y="189.74225" xlink:href="#path76"/>
    <use x="26.345285" y="186.44825" xlink:href="#path74"/>
    <use x="31.953059" y="187.20425" xlink:href="#path84"/>
    <use x="33.460207" y="190.44425" xlink:href="#path118"/>
    <use x="38.965676" y="186.44825" xlink:href="#path70"/>
    <use x="43.506105" y="190.44425" xlink:href="#path78"/>
    <use x="51.786879" y="186.44825" xlink:href="#path124"/>
    <use x="60.349465" y="186.44825" xlink:href="#path70"/>
    <use x="67.522395" y="187.20425" xlink:href="#path84"/>
    <use x="68.894543" y="190.44425" xlink:href="#path130"/>
    <use x="78.91998" y="188.50025" xlink:href="#path92"/>
    <use x="81.34302" y="190.44425" xlink:href="#path96"/>
    <use x="91.832941" y="187.20425" xlink:href="#path84"/>
    <use x="93.20509" y="190.44425" xlink:href="#path130"/>
    <use x="100.57103" y="189.74225" xlink:href="#path76"/>
    <use x="105.75904" y="190.44425" xlink:href="#path78"/>
    <use x="118.85931" y="187.20425" xlink:href="#path84"/>
    <use x="120.23146" y="190.44425" xlink:href="#path130"/>
    <use x="130.25689" y="188.50025" xlink:href="#path92"/>
    <use x="136.32493" y="189.74225" xlink:href="#path76"/>
    <use x="143.94294" y="186.44825" xlink:href="#path74"/>
    <use x="149.55071" y="187.20425" xlink:href="#path84"/>
    <use x="151.05786" y="190.44425" xlink:href="#path118"/>
    <use x="156.56333" y="186.44825" xlink:href="#path70"/>
    <use x="161.10376" y="190.44425" xlink:href="#path78"/>
    <use x="62.973" y="199.27324" xlink:href="#path70"/>
    <use x="67.51343" y="203.26924" xlink:href="#path78"/>
    <use x="80.613703" y="200.02924" xlink:href="#path84"/>
    <use x="81.985852" y="203.26924" xlink:href="#path130"/>
    <use x="89.081789" y="203.26924" xlink:href="#path118"/>
    <use x="93.750258" y="199.27324" xlink:href="#path124"/>
    <use x="102.71784" y="199.27324" xlink:href="#path74"/>
    <use x="105.96312" y="202.56724" xlink:href="#path76"/>
    <use x="111.15112" y="203.26924" xlink:href="#path96"/>
    <use x="119.84998" y="196.88374" xlink:href="#path180"/>
    <use x="122.69531" y="204.97024" xlink:href="#path182"/>
    <use x="35.144016" y="219.60424" xlink:href="#path184"/>
    <use x="39.142336" y="220.14424" xlink:href="#path78"/>
    <use x="47.423109" y="216.14824" xlink:href="#path124"/>
    <use x="53.218195" y="216.90424" xlink:href="#path84"/>
    <use x="57.654844" y="218.20024" xlink:href="#path92"/>
    <use x="60.347883" y="219.44224" xlink:href="#path76"/>
    <use x="69.936891" y="213.75874" xlink:href="#path180"/>
    <use x="77.817727" y="216.14824" xlink:href="#path70"/>
    <use x="84.990656" y="216.90424" xlink:href="#path104"/>
    <use x="89.6355" y="220.14424" xlink:href="#path96"/>
    <use x="96.915586" y="218.20024" xlink:href="#path92"/>
    <use x="100.52662" y="216.14824" xlink:href="#path124"/>
    <use x="105.71421" y="216.14824" xlink:href="#path70"/>
    <path id="path210" style="" d="m 111.11864,213.75874 c 0,-0.594 0.027,-1.269 0.0405,-1.674 -0.027,-0.054 -0.081,-0.081 -0.135,-0.081 -0.486,0.2565 -1.1205,0.459 -1.458,0.567 -0.0675,0.0405 -0.0675,0.2295 0,0.27 l 0.135,0.081 c 0.405,0.243 0.4185,0.324 0.4185,1.1205 l 0,6.102 c 0,0.972 -0.0135,1.107 -0.513,1.1745 l -0.3105,0.0405 c -0.0945,0.0675 -0.0675,0.297 0.027,0.3375 0.405,-0.027 0.81,-0.0405 1.296,-0.0405 0.4725,0 0.864,0.0135 1.3095,0.0405 0.0945,-0.0405 0.1215,-0.27 0.027,-0.3375 l -0.324,-0.0405 c -0.486,-0.0675 -0.513,-0.2025 -0.513,-1.1745 l 0,-6.3855 z"/>
    <use x="114.49491" y="220.41424" xlink:href="#path90"/>
    <use x="119.40405" y="220.14424" xlink:href="#path118"/>
    <use x="122.88452" y="220.14424" xlink:href="#path78"/>
    <path id="path218" style="" d="m 133.5818,216.63424 c -0.297,0 -0.3915,-0.027 -0.8235,-0.216 -0.3105,-0.135 -0.783,-0.27 -1.296,-0.27 -1.2015,0 -2.2005,0.8775 -2.2005,2.0385 0,0.864 0.5535,1.3905 1.0125,1.6335 0,0.0675 -0.0675,0.1755 -0.135,0.2565 -0.2295,0.243 -0.486,0.4725 -0.7155,0.621 -0.1485,0.108 -0.2025,0.162 -0.2025,0.2295 0,0.4725 0.459,0.9315 0.9855,1.0665 0.1215,0.081 0.0135,0.2025 -0.108,0.324 -0.3105,0.3105 -0.6885,0.6615 -0.918,0.9045 -0.0945,0.108 -0.1485,0.2835 -0.1485,0.4995 0,0.675 0.5805,1.566 2.241,1.566 1.755,0 3.3615,-1.08 3.3615,-2.5515 0,-1.35 -1.134,-1.485 -1.89,-1.485 -0.594,0 -1.1475,0.0405 -1.6065,0.0405 -0.6345,0 -0.945,-0.2565 -0.945,-0.567 0,-0.3915 0.432,-0.648 0.594,-0.7425 0.162,0.0135 0.351,0.0405 0.594,0.0405 1.7145,0 2.268,-1.215 2.268,-2.1465 0,-0.2295 0,-0.459 -0.027,-0.6885 l 0.972,0 c 0.2025,-0.027 0.2295,-0.486 0.081,-0.5535 l -1.0935,0 z m -1.269,5.454 c 0.972,0 1.539,0.351 1.539,1.1745 0,0.7695 -0.7965,1.4445 -1.998,1.4445 -1.2285,0 -1.809,-0.6075 -1.809,-1.3365 0,-0.513 0.324,-0.9315 0.648,-1.134 0.189,-0.1215 0.729,-0.1485 1.161,-0.1485 l 0.459,0 z m -0.729,-2.457 c -0.648,0 -1.2285,-0.621 -1.2285,-1.5795 0,-0.918 0.486,-1.512 1.134,-1.512 0.8235,0 1.2015,0.7695 1.2015,1.6875 0,0.8235 -0.378,1.404 -1.107,1.404 z"/>
    <use x="139.63402" y="219.44224" xlink:href="#path76"/>
    <use x="144.82202" y="220.14424" xlink:href="#path78"/>
    <use x="32.856504" y="231.02524" xlink:href="#path92"/>
    <use x="35.279543" y="232.96924" xlink:href="#path78"/>
    <use x="44.802316" y="228.97324" xlink:href="#path74"/>
    <use x="49.80259" y="228.97324" xlink:href="#path70"/>
    <use x="55.16652" y="230.24224" xlink:href="#path72"/>
    <use x="61.251223" y="232.96924" xlink:href="#path78"/>
    <use x="70.976496" y="229.72924" xlink:href="#path84"/>
    <use x="75.413145" y="231.02524" xlink:href="#path92"/>
    <use x="77.836184" y="232.96924" xlink:href="#path96"/>
    <use x="81.703723" y="232.83424" xlink:href="#path242"/>
    <path id="path244" style="" d="m 91.572223,229.72924 c 0.243,0 0.2565,0.0405 0.2565,0.27 l 0,2.97 c 0,0.972 -0.0135,1.107 -0.513,1.1745 l -0.3105,0.0405 c -0.0945,0.0675 -0.0675,0.297 0.027,0.3375 0.405,-0.027 0.81,-0.0405 1.296,-0.0405 0.4725,0 0.864,0.0135 1.3095,0.0405 0.0945,-0.0405 0.1215,-0.27 0.027,-0.3375 l -0.324,-0.0405 c -0.486,-0.0675 -0.513,-0.2025 -0.513,-1.1745 l 0,-6.075 c 0,-0.5805 0.0135,-1.4175 0.0405,-2.0115 -0.0405,-0.0405 -0.0945,-0.054 -0.162,-0.054 l -0.351,0.351 c -0.3915,-0.243 -0.8235,-0.351 -1.2555,-0.351 -1.4445,0 -2.2275,1.0125 -2.5245,1.7415 -0.3105,0.756 -0.3645,1.4985 -0.3645,2.349 0,0.135 -0.0945,0.216 -0.2025,0.27 l -0.5805,0.2835 c -0.054,0.081 -0.0405,0.2025 0.0405,0.2565 l 0.4725,0 c 0.27,0 0.27,0.027 0.27,0.3915 l 0,2.8485 c 0,0.972 -0.0135,1.107 -0.513,1.1745 l -0.3105,0.0405 c -0.0945,0.0675 -0.0675,0.297 0.027,0.3375 0.405,-0.027 0.81,-0.0405 1.296,-0.0405 0.4725,0 0.864,0.0135 1.404,0.0405 0.0945,-0.0405 0.1215,-0.27 0.027,-0.3375 l -0.4185,-0.0405 c -0.486,-0.0405 -0.513,-0.2025 -0.513,-1.1745 l 0,-2.8215 c 0,-0.4185 0.0135,-0.4185 0.2565,-0.4185 l 2.106,0 z m 0.2565,-0.837 c 0,0.243 -0.054,0.27 -0.2565,0.27 l -2.106,0 c -0.2295,0 -0.2565,-0.0135 -0.2565,-0.2835 l 0,-0.4185 c 0,-1.134 0.0675,-3.1995 1.566,-3.1995 0.3645,0 0.675,0.243 0.8235,0.432 0.162,0.216 0.2295,0.567 0.2295,1.026 l 0,2.1735 z"/>
    <use x="95.291262" y="232.96924" xlink:href="#path118"/>
    <use x="98.59623" y="236.41174" xlink:href="#path98"/>
    <use x="111.6347" y="229.72924" xlink:href="#path84"/>
    <use x="113.00685" y="232.96924" xlink:href="#path130"/>
    <use x="120.10279" y="232.96924" xlink:href="#path118"/>
    <use x="124.77125" y="228.97324" xlink:href="#path124"/>
    <use x="133.73884" y="228.97324" xlink:href="#path74"/>
    <use x="136.98411" y="232.26724" xlink:href="#path76"/>
    <use x="142.17212" y="232.96924" xlink:href="#path96"/>
    <use x="150.87097" y="226.58374" xlink:href="#path180"/>
    <use x="153.71631" y="234.67024" xlink:href="#path182"/>
    <path id="path268" style="" d="m 14.539324,244.7418 c 0,-1.2555 0.081,-1.3635 0.6885,-1.458 l 0.351,-0.054 c 0.108,-0.081 0.108,-0.3915 0,-0.4725 -0.675,0.027 -1.35,0.0405 -1.998,0.0405 -0.648,0 -1.323,-0.0135 -2.025,-0.0405 -0.162,0.081 -0.162,0.3915 -0.027,0.4725 l 0.3915,0.054 c 0.6075,0.081 0.6885,0.2025 0.6885,1.458 l 0,5.022 c 0,1.2555 -0.081,1.3635 -0.6885,1.4445 l -0.513,0.0675 c -0.108,0.081 -0.081,0.3915 0.0405,0.4725 0.837,-0.027 1.512,-0.0405 2.133,-0.0405 l 1.809,0 c 1.107,0 2.403,0.0135 3.1185,0.0405 0.189,-0.3645 0.513,-1.485 0.5805,-2.187 -0.0945,-0.162 -0.405,-0.216 -0.513,-0.081 -0.7965,1.566 -1.1745,1.6065 -2.403,1.6065 -0.9855,0 -1.2285,-0.108 -1.404,-0.3375 -0.1755,-0.216 -0.2295,-0.648 -0.2295,-1.2825 l 0,-4.725 z"/>
    <use x="22.42248" y="251.8968" xlink:href="#path270"/>
    <use x="29.734418" y="246.1188" xlink:href="#path272"/>
    <path id="path274" style="" d="m 36.660129,248.0763 c 0.0675,-1.3905 -0.594,-1.9575 -1.728,-1.9575 -0.9585,0 -1.809,0.459 -2.268,0.8235 -0.324,0.2565 -0.648,0.6885 -0.648,1.0395 0,0.189 0.081,0.3375 0.3105,0.3375 0.243,0 0.7695,-0.162 0.972,-0.3105 0.1215,-0.0945 0.2025,-0.216 0.2295,-0.432 0.0945,-0.5805 0.378,-0.7695 0.702,-0.7695 0.5805,0 0.783,0.648 0.783,1.161 0,0.162 -0.0135,0.3105 -0.027,0.459 -0.0135,0.108 -0.081,0.2025 -0.324,0.27 -0.378,0.108 -0.756,0.216 -1.269,0.378 -0.9855,0.297 -1.404,0.7155 -1.404,1.404 0,0.945 0.729,1.4175 1.512,1.4175 0.4995,0 0.9045,-0.2565 1.1475,-0.432 0.135,-0.0945 0.216,-0.1485 0.2835,-0.1485 0.0675,0 0.1215,0.027 0.216,0.108 0.3645,0.3105 0.6615,0.4725 1.134,0.4725 0.7695,0 1.404,-0.513 1.566,-0.729 0.0405,-0.1215 -0.0405,-0.2835 -0.162,-0.3105 -0.216,0.1215 -0.351,0.162 -0.513,0.162 -0.27,0 -0.6615,-0.243 -0.6075,-1.161 l 0.0945,-1.782 z m -1.7415,2.2815 c -0.0135,0.4185 -0.0945,0.6615 -0.513,0.6615 -0.378,0 -0.6885,-0.378 -0.6885,-0.81 0,-0.6345 0.5265,-0.864 1.134,-0.945 0.0945,-0.0135 0.108,0.027 0.0945,0.243 l -0.027,0.8505 z"/>
    <path id="path276" style="" d="m 38.56848,250.1418 c 0,0.945 -0.054,1.0665 -0.4995,1.107 l -0.2565,0.027 c -0.108,0.081 -0.108,0.3915 0.0135,0.4725 0.4725,-0.027 1.0395,-0.0405 1.62,-0.0405 0.6075,0 1.1745,0.0135 1.62,0.0405 0.1215,-0.081 0.1215,-0.3915 0.0135,-0.4725 l -0.2295,-0.027 c -0.4725,-0.054 -0.5265,-0.162 -0.5265,-1.107 l 0,-6.021 c 0,-0.8505 0.0135,-1.4175 0.0405,-1.971 -0.054,-0.0675 -0.1485,-0.0945 -0.2295,-0.0945 -0.675,0.297 -1.485,0.621 -2.0655,0.756 -0.0945,0.081 -0.0945,0.324 0,0.405 l 0.2295,0.135 c 0.27,0.162 0.27,0.3105 0.27,0.8505 l 0,5.94 z"/>
    <path id="path278" style="" d="m 48.903785,248.6568 c 0.4725,0 0.5805,0.027 0.648,0.243 l 0.3645,1.161 c 0.162,0.4995 0.2565,0.8235 0.2565,0.918 0,0.081 -0.054,0.1755 -0.3645,0.2295 l -0.432,0.0675 c -0.1485,0.108 -0.1215,0.3915 0.027,0.4725 0.621,-0.027 1.1475,-0.0405 1.8225,-0.0405 0.702,0 1.431,0.0135 2.079,0.0405 0.1215,-0.081 0.0945,-0.405 0.0135,-0.4725 l -0.513,-0.081 c -0.4995,-0.081 -0.621,-0.3915 -0.9045,-1.2015 l -1.836,-5.292 c -0.3375,-0.9585 -0.4995,-1.458 -0.6075,-1.8495 -0.054,-0.2025 -0.135,-0.27 -0.3105,-0.27 -0.027,0 -0.5265,0.6615 -1.1745,0.81 0.0405,0.3915 -0.216,0.864 -0.5265,1.7145 l -1.215,3.294 c -0.3645,0.972 -0.6075,1.62 -0.837,2.16 -0.2295,0.5265 -0.4995,0.6345 -0.8235,0.675 l -0.3645,0.0405 c -0.0945,0.108 -0.108,0.3915 0.0405,0.4725 0.621,0 0.9315,-0.0405 1.3905,-0.0405 0.567,0.0135 1.107,0.0135 1.5795,0.0405 0.135,-0.0675 0.108,-0.378 0.027,-0.4725 l -0.405,-0.0675 c -0.378,-0.0675 -0.486,-0.1485 -0.486,-0.2295 0,-0.108 0.0135,-0.216 0.0945,-0.486 l 0.4995,-1.566 c 0.081,-0.2565 0.1215,-0.27 0.4455,-0.27 l 1.512,0 z m -1.242,-0.7155 c -0.3375,0 -0.405,-0.0405 -0.2835,-0.405 l 0.3375,-1.0125 c 0.2025,-0.621 0.4185,-1.188 0.5535,-1.485 0.1215,0.2835 0.297,0.837 0.486,1.4175 l 0.351,1.0935 c 0.108,0.351 0.0405,0.3915 -0.27,0.3915 l -1.1745,0 z"/>
    <use x="56.655316" y="246.1188" xlink:href="#path272"/>
    <path id="path282" style="" d="m 62.676527,247.0368 c 0.135,-0.081 0.1755,-0.324 0.1755,-0.4725 0,-0.1215 -0.0405,-0.2025 -0.108,-0.2565 l -1.2015,0 c -0.243,0 -0.2565,-0.0135 -0.2565,-0.27 l 0,-1.0125 c -0.0675,-0.108 -0.3105,-0.1215 -0.405,-0.0675 -0.4185,0.594 -0.756,0.8775 -0.999,1.053 -0.324,0.216 -0.702,0.459 -1.1205,0.6075 -0.108,0.0945 -0.0675,0.3645 0.081,0.4185 l 0.4185,0 c 0.243,0 0.2565,0.027 0.2565,0.3105 l 0,3.0105 c 0,0.891 0.3915,1.539 1.512,1.539 0.837,0 1.566,-0.378 1.944,-0.783 0.027,-0.162 -0.054,-0.3105 -0.189,-0.351 -0.162,0.108 -0.378,0.2025 -0.567,0.2025 -0.945,0 -0.945,-0.837 -0.945,-1.593 l 0,-2.025 c 0,-0.297 0.0135,-0.3105 0.189,-0.3105 l 1.215,0 z"/>
    <path id="path284" style="" d="m 65.717613,247.6578 c 0,-0.6075 0.0135,-1.2015 0.0405,-1.6065 -0.054,-0.081 -0.135,-0.1215 -0.243,-0.1215 -0.405,0.243 -1.3635,0.6075 -1.998,0.783 -0.0945,0.081 -0.0945,0.324 0,0.405 l 0.189,0.1215 c 0.2565,0.162 0.2565,0.324 0.2565,0.864 l 0,2.0385 c 0,0.945 -0.054,1.0665 -0.4995,1.107 l -0.2565,0.027 c -0.108,0.081 -0.108,0.3915 0.0135,0.4725 0.4455,-0.027 1.0125,-0.0405 1.62,-0.0405 0.621,0 1.1475,0.0135 1.62,0.0405 0.1215,-0.081 0.1215,-0.3915 0.0135,-0.4725 l -0.2565,-0.027 c -0.4455,-0.0405 -0.4995,-0.162 -0.4995,-1.107 l 0,-2.484 z m -0.837,-4.5765 c -0.54,0 -1.0125,0.3915 -1.0125,0.9855 0,0.5535 0.351,0.9585 0.945,0.9585 0.513,0 1.0125,-0.3375 1.0125,-0.9855 0,-0.54 -0.378,-0.9585 -0.945,-0.9585 z"/>
    <use x="70.120723" y="251.8968" xlink:href="#path270"/>
    <path id="path288" style="" d="m 74.77316,250.1418 c 0,0.945 -0.054,1.053 -0.54,1.107 l -0.216,0.027 c -0.108,0.081 -0.108,0.3915 0.0135,0.4725 0.4725,-0.027 1.026,-0.0405 1.593,-0.0405 0.648,0 1.08,0.0135 1.4985,0.0405 0.1215,-0.081 0.1215,-0.3915 0.0135,-0.4725 l -0.216,-0.027 c -0.3375,-0.0405 -0.3915,-0.162 -0.3915,-0.9045 l 0,-2.4165 c 0,-0.243 0.027,-0.405 0.108,-0.4995 0.108,-0.1485 0.378,-0.324 0.756,-0.324 0.675,0 0.945,0.432 0.945,0.9585 l 0,2.2815 c 0,0.7425 -0.054,0.837 -0.3645,0.891 l -0.243,0.0405 c -0.108,0.081 -0.108,0.3915 0.0135,0.4725 0.3915,-0.027 0.918,-0.0405 1.458,-0.0405 0.648,0 1.215,0.0135 1.6335,0.0405 0.1215,-0.081 0.1215,-0.3915 0.0135,-0.4725 l -0.216,-0.027 c -0.486,-0.054 -0.54,-0.162 -0.54,-1.107 l 0,-2.322 c 0,-0.9315 -0.567,-1.701 -1.6875,-1.701 -0.621,0 -1.2555,0.3645 -1.5525,0.54 -0.081,0.0405 -0.216,0.108 -0.2565,0.108 -0.0405,0 -0.0675,-0.027 -0.0675,-0.108 0,-0.0945 0.0405,-0.4185 0.0405,-0.6075 -0.054,-0.081 -0.135,-0.1215 -0.243,-0.1215 -0.3915,0.243 -1.3635,0.6075 -1.998,0.783 -0.0945,0.081 -0.0945,0.324 0,0.405 l 0.189,0.1215 c 0.2565,0.162 0.2565,0.324 0.2565,0.864 l 0,2.0385 z"/>
    <path id="path290" style="" d="m 82.829707,251.8968 c 0.648,0 1.0935,-0.4725 1.0935,-1.0935 0,-0.5805 -0.4455,-1.1205 -1.0935,-1.1205 -0.6075,0 -1.0935,0.486 -1.0935,1.1205 0,0.6615 0.5535,1.0935 1.0935,1.0935 z m 0,-3.294 c 0.648,0 1.0935,-0.4455 1.0935,-1.053 0,-0.621 -0.4455,-1.161 -1.0935,-1.161 -0.6075,0 -1.0935,0.4995 -1.0935,1.161 0,0.648 0.5535,1.053 1.0935,1.053 z"/>
    <path id="path292" style="" d="m 92.318098,243.6753 c 0,-0.4455 -0.0135,-0.459 0.3915,-0.459 l 0.9585,0 c 0.7425,0 1.2555,0.108 1.566,0.3375 0.2025,0.1485 0.297,0.648 0.3375,0.9855 0.0675,0.081 0.297,0.081 0.351,-0.027 -0.0405,-0.405 0.054,-1.4985 0.2025,-2.052 -0.027,-0.054 -0.1755,-0.0675 -0.243,-0.0405 -0.2025,0.351 -0.324,0.378 -1.053,0.378 l -5.4675,0 c -0.621,0 -1.0665,0.0135 -1.1475,-0.4185 -0.0405,-0.0405 -0.216,-0.027 -0.2565,0 -0.0945,0.54 -0.297,1.404 -0.513,2.0115 0.054,0.108 0.243,0.1755 0.351,0.0945 0.1485,-0.3375 0.2835,-0.6345 0.6075,-0.9315 0.3375,-0.3105 1.08,-0.3375 1.6605,-0.3375 l 0.7425,0 c 0.405,0 0.405,0.0135 0.405,0.432 l 0,6.0345 c 0,1.4175 -0.0675,1.62 -0.837,1.6875 l -0.486,0.0405 c -0.108,0.0675 -0.081,0.297 0,0.3375 0.864,-0.027 1.3365,-0.0405 1.8765,-0.0405 0.54,0 0.999,0.0135 1.7685,0.0405 0.081,-0.0405 0.108,-0.2835 0.027,-0.3375 l -0.432,-0.0405 c -0.783,-0.0675 -0.81,-0.27 -0.81,-1.6875 l 0,-6.0075 z"/>
    <use x="98.906309" y="248.2518" xlink:href="#path92"/>
    <use x="102.51735" y="246.1998" xlink:href="#path124"/>
    <use x="108.31243" y="246.9558" xlink:href="#path84"/>
    <path id="path300" style="" d="m 133.80908,247.1988 q 0.027,0.27 -0.027,0.5535 -0.054,0.2835 -0.135,0.5535 -0.2025,0.648 -0.4995,1.2285 -0.081,0.1755 -0.2295,0.324 -0.1485,0.1485 -0.297,0.2565 -0.2295,0.189 -0.4725,0.3375 -0.2295,0.135 -0.4455,0.3105 -0.1755,0.108 -0.405,-0.0135 -0.27,-0.108 -0.4995,-0.243 -0.2295,-0.1485 -0.4455,-0.3375 -0.0945,-0.054 -0.1755,0 -0.0945,0.0675 -0.189,0.1215 -0.081,0.054 -0.1485,0.135 -0.189,0.189 -0.405,0.081 -0.2565,-0.1485 -0.486,-0.2835 -0.216,-0.1485 -0.3645,-0.3915 -0.081,-0.1215 -0.2295,-0.027 -0.3645,0.2295 -0.7425,0.4185 -0.378,0.1755 -0.81,0.27 -0.108,0.0135 -0.1755,0.054 -0.054,0.027 -0.0675,0.162 -0.0405,0.405 -0.3645,0.702 -0.3105,0.297 -0.7155,0.3105 -0.135,0 -0.2565,0.0405 -0.108,0.0405 -0.216,0.1485 -0.2295,0.27 -0.5265,0.297 -0.297,0.027 -0.6075,-0.0675 -0.162,-0.027 -0.27,-0.027 -0.108,0.0135 -0.243,0.0945 -0.0945,0.0405 -0.2025,0.0675 -0.108,0.027 -0.2025,0 -0.189,-0.0135 -0.378,-0.0675 -0.189,-0.0405 -0.378,-0.081 -0.135,-0.027 -0.216,0.0135 -0.189,0.108 -0.405,0.1215 -0.2025,0.027 -0.405,-0.0405 -0.2025,-0.0675 -0.3645,-0.2025 -0.162,-0.135 -0.2565,-0.324 -0.027,-0.0675 -0.081,-0.135 -0.0405,-0.081 -0.081,-0.1485 -0.027,0.0135 -0.027,0.081 -0.189,0.027 -0.351,0.081 -0.1485,0.0405 -0.3375,0.0405 -0.189,0.0135 -0.324,-0.108 -0.135,-0.135 -0.189,-0.297 -0.0675,-0.162 -0.0945,-0.351 -0.0135,-0.189 -0.054,-0.3915 -0.162,0 -0.324,-0.054 -0.1485,-0.0675 -0.2565,-0.243 -0.081,-0.135 -0.135,-0.3105 -0.0405,-0.1755 -0.0945,-0.378 -0.0405,0 -0.135,-0.027 -0.0945,-0.027 -0.2025,-0.0405 -0.4455,-0.0675 -0.4455,-0.4995 0,-0.1485 -0.1485,-0.2025 -0.2025,-0.081 -0.405,-0.1485 -0.2025,-0.0675 -0.3915,-0.1485 -0.135,-0.054 -0.189,-0.0135 -0.054,0.0405 -0.108,0.1485 -0.1485,0.3915 -0.324,0.81 -0.162,0.4185 -0.351,0.81 -0.081,0.243 -0.2025,0.4995 -0.108,0.2565 -0.405,0.2295 -0.405,-0.0405 -0.7695,-0.189 -0.351,-0.1485 -0.7155,-0.297 -0.054,-0.027 -0.0945,-0.0675 -0.0405,-0.0405 -0.081,-0.081 -0.405,-0.567 -0.675,-1.188 -0.27,-0.6345 -0.378,-1.3365 -0.108,-0.513 0,-0.999 0.1215,-0.486 0.297,-0.9585 0.3915,-1.053 1.0935,-1.7955 0.7155,-0.756 1.674,-1.323 0.3105,-0.189 0.6345,-0.351 0.324,-0.1755 0.6345,-0.351 0.0675,-0.027 0.1485,-0.0135 0.081,0.0135 0.135,0.0405 0.405,0.189 0.7965,0.3915 0.405,0.189 0.81,0.378 0.162,0.0675 0.2835,0.189 0.1215,0.108 0.1755,0.27 0.027,0.1215 0.1215,0.2295 0.108,0.0945 0.2295,0.162 0.1215,0.0675 0.2565,0.108 0.135,0.0405 0.243,0.0135 0.054,-0.027 0.081,-0.0405 0.0405,-0.0135 0.0675,-0.054 0.7965,-0.756 1.782,-0.378 0.351,0.1215 0.6345,0.054 0.297,-0.0675 0.594,-0.216 0.243,-0.108 0.486,0.0675 0.2025,0.135 0.405,0.27 0.216,0.1215 0.4455,0.243 0.027,0.0135 0.108,0.0135 0.2295,-0.027 0.405,0.0675 0.1755,0.081 0.3645,0.2295 0.297,0.27 0.621,0.4995 0.324,0.216 0.648,0.4455 0.108,0.0675 0.1755,0.0675 0.081,-0.0135 0.162,-0.1485 0.081,-0.135 0.2025,-0.2295 0.135,-0.108 0.2565,-0.189 0.6885,-0.486 1.377,-0.9585 0.702,-0.4725 1.404,-0.9585 0.1215,-0.081 0.216,-0.0945 0.108,-0.027 0.243,0.0675 0.567,0.351 1.0935,0.729 0.5265,0.3645 0.9585,0.864 0.567,0.6885 0.9045,1.458 0.351,0.756 0.459,1.6605 z m -16.4295,-0.162 q 0.2295,-0.486 0.459,-0.9585 0.243,-0.4725 0.3105,-1.026 0.0675,-0.351 0.135,-0.702 0.081,-0.351 0.162,-0.7155 -0.027,-0.0405 -0.054,-0.081 -0.0135,-0.054 -0.054,-0.108 -0.3105,-0.243 -0.5265,-0.162 -0.2025,0.0675 -0.27,0.4725 0,0.027 0,0.0675 0,0.0405 -0.027,0.0675 -0.054,0.189 -0.108,0.3915 -0.0405,0.189 -0.108,0.3645 -0.108,0.3645 -0.2295,0.729 -0.1215,0.351 -0.2295,0.702 -0.0945,0.3105 -0.1755,0.6345 -0.0675,0.324 -0.1755,0.648 -0.135,0.351 0.0675,0.4725 0.27,0.162 0.486,-0.162 0.0945,-0.1485 0.162,-0.3105 0.081,-0.1755 0.1755,-0.324 z m 1.026,1.7145 q 0.0405,-0.135 0,-0.243 -0.027,-0.3375 -0.3375,-0.3645 -0.243,-0.027 -0.3375,0.108 -0.0945,0.1215 -0.1215,0.432 0.027,0.0675 0.0135,0.162 0,0.0945 0.0405,0.1485 0.2565,0.189 0.54,0.0945 0.1485,-0.027 0.1755,-0.1215 0.027,-0.108 0.027,-0.216 z m 0.297,1.242 q 0.1755,0.054 0.351,0.0405 0.189,-0.027 0.2295,-0.108 0.135,-0.2295 0.216,-0.4455 -0.0135,0 -0.027,-0.0135 -0.0135,-0.027 -0.027,-0.027 l 0,-0.162 q -0.027,-0.2025 -0.1755,-0.324 -0.135,-0.135 -0.3375,-0.1215 -0.189,0 -0.297,0.135 -0.108,0.1215 -0.1215,0.351 0,0.081 -0.0135,0.162 0,0.0675 0,0.162 -0.0135,0.216 0.2025,0.351 z m 1.0395,1.2555 q 0.162,0.0135 0.2835,-0.108 0.135,-0.1215 0.1485,-0.297 0,-0.081 -0.054,-0.1755 -0.054,-0.108 -0.135,-0.189 -0.0675,-0.081 -0.162,-0.135 -0.081,-0.054 -0.162,-0.054 -0.1755,0 -0.297,0.1215 -0.108,0.1215 -0.108,0.3375 0,0.216 0.1215,0.3645 0.135,0.135 0.3645,0.135 z m 5.9805,-0.4995 q 0.0405,-0.1485 0.027,-0.3105 0,-0.162 -0.0675,-0.2835 -0.189,-0.3645 -0.4185,-0.6885 -0.216,-0.3375 -0.378,-0.702 -0.3105,-0.648 -0.594,-1.296 -0.27,-0.648 -0.567,-1.323 -0.0135,-0.027 -0.054,-0.0675 -0.0405,-0.054 -0.081,-0.054 -0.1755,-0.0405 -0.351,-0.081 -0.1755,-0.0405 -0.3645,-0.0675 -0.081,-0.0135 -0.1755,-0.0135 -0.081,0 -0.162,-0.027 -0.081,-0.027 -0.1485,0 -0.054,0.0135 -0.1215,0.0675 -0.2835,0.2565 -0.621,0.351 -0.324,0.081 -0.6885,-0.0405 -0.1485,-0.0675 -0.297,-0.1485 -0.135,-0.0945 -0.297,-0.162 -0.1215,-0.0675 -0.216,-0.1485 -0.0945,-0.0945 -0.0945,-0.243 -0.0135,-0.1755 0.081,-0.243 0.108,-0.081 0.2565,-0.135 0.621,-0.189 0.999,-0.6885 0.135,-0.189 0.3105,-0.2835 0.189,-0.0945 0.432,-0.054 0.135,0.0135 0.27,0 0.135,-0.027 0.2835,-0.054 0.27,-0.027 0.513,-0.1215 0.2565,-0.0945 0.5265,-0.2295 -0.27,-0.0945 -0.4995,-0.243 -0.1485,-0.054 -0.3375,0 -0.3105,0.1485 -0.648,0.27 -0.324,0.1215 -0.6885,0.054 -0.3105,-0.0675 -0.594,0 -0.27,0.054 -0.567,0.162 -0.1485,0.0675 -0.2835,0.0945 -0.135,0.027 -0.3105,-0.0135 -0.108,-0.027 -0.2565,-0.027 -0.135,0 -0.216,0.189 -0.1485,0.3105 -0.297,0.621 -0.1485,0.297 -0.297,0.594 -0.27,0.4995 -0.54,0.9855 -0.27,0.486 -0.54,0.9855 -0.108,0.189 -0.0945,0.297 0.0135,0.108 0.2025,0.2295 0.0675,0.0405 0.1485,0.054 0.0945,0 0.162,-0.027 0.1485,-0.0135 0.2835,0.0405 0.1485,0.054 0.2295,0.2025 0.0675,0.108 0.108,0.2025 0.054,0.0945 0.108,0.216 0.108,0.0135 0.2295,0.027 0.135,0 0.27,0.0675 0.1215,0.0675 0.2565,0.162 0.135,0.0945 0.162,0.2025 0.081,0.243 0.108,0.513 0.0405,0.2565 -0.054,0.513 0.243,0.0675 0.405,0.2295 0.162,0.162 0.2835,0.3645 0.054,0.081 0.054,0.189 0,0.108 0.0135,0.216 0,0.0405 -0.0135,0.0945 0,0.054 0.0135,0.081 0.108,0.1215 0.216,0.2565 0.1215,0.135 0.27,0.243 0.081,0.027 0.2025,0.0135 0.1215,0 0.2295,0 -0.0135,-0.081 -0.0135,-0.162 0,-0.0945 -0.027,-0.189 -0.0135,-0.0405 -0.0405,-0.0945 -0.027,-0.054 -0.027,-0.108 0,-0.0405 0.0135,-0.108 0.027,-0.0675 0.054,-0.0945 0.081,-0.027 0.216,0.027 0.0405,0.027 0.0675,0.0675 0.027,0.0405 0.054,0.0945 0.162,0.1755 0.3645,0.3105 0.2025,0.135 0.459,0.162 0.3105,0.0405 0.3645,-0.2565 0.027,-0.1485 -0.027,-0.2565 -0.0405,-0.1215 -0.135,-0.243 -0.0675,-0.0945 -0.054,-0.1485 0.0135,-0.054 0.081,-0.135 0.081,-0.081 0.1485,-0.0405 0.0675,0.027 0.135,0.081 0.162,0.1755 0.324,0.3375 0.1755,0.162 0.351,0.351 0.162,0.1485 0.351,0.189 0.189,0.027 0.378,-0.081 0.108,-0.0675 0.135,-0.135 0.027,-0.0675 -0.0675,-0.1755 -0.27,-0.297 -0.351,-0.648 -0.0675,-0.3645 -0.0675,-0.729 0,-0.0675 0.054,-0.0945 0.054,-0.0405 0.0945,-0.108 0.027,0.0675 0.054,0.1215 0.0405,0.054 0.0405,0.081 -0.027,0.3105 0.0675,0.567 0.108,0.243 0.297,0.4455 0.108,0.1215 0.243,0.216 0.135,0.0945 0.27,0.108 0.162,0.0135 0.297,-0.0945 0.135,-0.1215 0.1755,-0.27 z m 2.6595,-2.3355 q 0.216,-0.189 0.2565,-0.3105 0.0405,-0.135 -0.054,-0.378 -0.0405,-0.081 -0.0675,-0.1485 -0.027,-0.081 -0.054,-0.1485 -0.2565,-0.4185 -0.513,-0.837 -0.243,-0.4185 -0.4995,-0.8505 -0.0405,-0.0945 -0.1215,-0.1755 -0.0675,-0.081 -0.135,-0.162 -0.0945,-0.108 -0.2835,-0.0405 -0.1215,0.027 -0.27,0.027 -0.135,0 -0.243,-0.027 -0.432,-0.189 -0.8505,-0.3915 -0.405,-0.216 -0.7425,-0.54 -0.189,-0.189 -0.378,-0.243 -0.243,-0.081 -0.513,-0.054 -0.3105,0.027 -0.621,0.0945 -0.297,0.0675 -0.6075,0.054 -0.3915,-0.0135 -0.702,0.1215 -0.297,0.135 -0.5265,0.459 -0.0945,0.1485 -0.243,0.2295 -0.135,0.0675 -0.297,0.1215 -0.108,0.0135 -0.216,0.0405 -0.0945,0.0135 -0.189,0.0405 -0.0675,0.0405 -0.108,0.108 -0.0405,0.054 -0.054,0.081 0,0.0675 0.0405,0.1215 0.0405,0.054 0.0675,0.108 0.054,0.027 0.108,0.027 0.054,0 0.1215,0 0.3645,0 0.6615,-0.135 0.3105,-0.1485 0.594,-0.378 0.135,-0.0945 0.2565,-0.0945 0.081,0 0.1755,0.0405 0.0945,0.0405 0.1755,0.027 0.351,-0.054 0.702,-0.108 0.351,-0.0675 0.702,-0.108 0.027,-0.0135 0.081,0 0.0675,0 0.0945,0.027 0.0135,0.027 0.0135,0.081 0,0.0405 0,0.108 0,0.0945 -0.0135,0.189 -0.0135,0.0945 0.0135,0.189 0.027,0.1215 0.081,0.243 0.0675,0.108 0.108,0.2565 0.135,0.4185 0.4995,0.6615 0.0675,0.054 0.108,0.108 0.054,0.0405 0.1215,0.108 0.27,0.27 0.54,0.486 0.2835,0.216 0.702,0.2835 0.0405,0.0135 0.108,0.054 0.081,0.027 0.1485,0.054 l 0,0.0675 q -0.0675,0.027 -0.1215,0.054 -0.0405,0.0135 -0.0945,0.0405 -0.081,0.0675 -0.1755,0.1215 -0.081,0.0405 -0.108,0.108 -0.108,0.2835 -0.162,0.594 -0.0405,0.297 0.0675,0.6075 0.054,0.2025 0.2295,0.297 0.189,0.081 0.378,0.0135 0.3375,-0.162 0.6345,-0.351 0.297,-0.189 0.567,-0.4455 0.162,-0.135 0.3105,-0.27 0.1485,-0.135 0.297,-0.2565 z m 1.836,0.918 q 0.108,-0.054 0.1755,-0.1485 0.081,-0.0945 0.0675,-0.2835 0,-0.0135 -0.0135,-0.0675 -0.0135,-0.0675 -0.054,-0.108 -0.1485,-0.3645 -0.324,-0.729 -0.162,-0.3645 -0.351,-0.702 -0.378,-0.675 -0.7695,-1.323 -0.3915,-0.648 -0.783,-1.296 -0.108,-0.189 -0.243,-0.2295 -0.1215,-0.0405 -0.3105,0.0675 -0.0675,0.027 -0.1215,0.0675 -0.054,0.027 -0.0945,0.054 -0.2025,0.108 -0.2295,0.216 -0.0135,0.108 0.1215,0.27 0.1755,0.189 0.351,0.378 0.1755,0.189 0.3105,0.3915 0.2565,0.4185 0.4725,0.837 0.216,0.405 0.486,0.8235 0.2295,0.3375 0.3645,0.7155 0.135,0.3645 0.2295,0.756 0.0675,0.351 0.189,0.405 0.135,0.054 0.4455,-0.054 0.054,-0.0135 0.081,-0.0405 z"/>
    <use x="136.81494" y="251.8968" xlink:href="#path182"/>
    <use x="143.60544" y="249.6558" xlink:href="#path184"/>
    <use x="150.31536" y="246.9558" xlink:href="#path104"/>
    <path id="path308" style="" d="m 154.55521,255.0693 c 0.3105,0 0.6345,-0.1215 0.864,-0.6345 0.6615,-1.4715 1.7685,-3.8205 2.214,-4.725 l 0.756,-1.5525 c 0.459,-0.9585 0.702,-1.35 1.1475,-1.431 l 0.2295,-0.0405 c 0.0945,-0.081 0.081,-0.2835 -0.027,-0.3375 -0.378,0.027 -0.6885,0.0405 -1.026,0.0405 -0.351,0 -0.756,-0.0135 -1.188,-0.0405 -0.108,0.0405 -0.1215,0.27 -0.027,0.3375 l 0.4185,0.0675 c 0.243,0.0405 0.324,0.135 0.324,0.2295 0,0.1485 -0.1755,0.648 -0.4725,1.35 l -0.459,1.0665 c -0.243,0.5535 -0.459,0.972 -0.4995,0.999 -0.054,-0.027 -0.3105,-0.7425 -0.3915,-0.9585 l -0.432,-1.242 c -0.081,-0.2295 -0.3915,-1.107 -0.3915,-1.269 0,-0.0945 0.108,-0.135 0.297,-0.1755 l 0.3375,-0.0675 c 0.0945,-0.0675 0.081,-0.297 -0.027,-0.3375 -0.432,0.027 -0.81,0.0405 -1.1745,0.0405 -0.4455,0 -0.8505,-0.0135 -1.2825,-0.0405 -0.108,0.0405 -0.1215,0.27 -0.0405,0.3375 l 0.3375,0.0675 c 0.4725,0.0945 0.567,0.4185 0.7965,1.053 l 1.053,2.889 c 0.1755,0.4995 0.2295,0.6615 0.2295,0.9315 0,0.189 -0.0945,0.4725 -0.135,0.5805 -0.1215,0.324 -0.3915,0.891 -0.783,1.4985 -0.0945,0.1485 -0.2295,0.243 -0.4455,0.243 l -0.2565,0 c -0.297,0 -0.54,0.1755 -0.54,0.54 0,0.3375 0.2025,0.5805 0.594,0.5805 z"/>
    <use x="162.81236" y="246.1998" xlink:href="#path70"/>
    <use x="168.17629" y="247.4688" xlink:href="#path72"/>
    <use x="35.341348" y="266.4633" xlink:href="#path98"/>
    <use x="42.642316" y="262.3188" xlink:href="#path76"/>
    <use x="49.018324" y="259.0248" xlink:href="#path124"/>
    <use x="53.36891" y="259.0248" xlink:href="#path124"/>
    <use x="56.733996" y="262.8858" xlink:href="#path242"/>
    <use x="67.682496" y="256.6353" xlink:href="#path180"/>
    <use x="70.163332" y="263.0208" xlink:href="#path118"/>
    <use x="74.831801" y="259.0248" xlink:href="#path124"/>
    <use x="80.424387" y="259.0248" xlink:href="#path74"/>
    <use x="83.66966" y="262.3188" xlink:href="#path76"/>
    <use x="88.857668" y="263.0208" xlink:href="#path96"/>
    <use x="97.55652" y="256.6353" xlink:href="#path180"/>
    <use x="106.04486" y="259.7808" xlink:href="#path84"/>
    <use x="107.417" y="263.0208" xlink:href="#path130"/>
    <use x="114.51294" y="263.0208" xlink:href="#path118"/>
    <use x="119.18141" y="259.0248" xlink:href="#path124"/>
    <use x="128.149" y="259.0248" xlink:href="#path74"/>
    <use x="131.39427" y="262.3188" xlink:href="#path76"/>
    <use x="136.58228" y="263.0208" xlink:href="#path96"/>
    <use x="145.28113" y="256.6353" xlink:href="#path180"/>
    <use x="148.12646" y="264.7218" xlink:href="#path182"/>
  </g>
  <g id="text4147" style="fill:#000000;fill-opacity:1;stroke:none;stroke-width:1px;stroke-linecap:butt;stroke-linejoin:miter;stroke-opacity:1">
    <path id="path357" style="" d="m 37.020574,16.079937 c -0.81875,0 -1.575,0.2875 -2.1,0.7625 -0.5125,0.4625 -0.89375,1.15625 -0.89375,1.88125 0,1.3125 0.9375,1.68125 1.75,1.68125 0.21875,0 0.425,-0.04375 0.60625,-0.075 0.1875,-0.03125 0.35625,-0.06875 0.49375,-0.06875 0.2125,-0.38125 0.35,-0.7125 0.40625,-0.88125 -0.01875,-0.05625 -0.0875,-0.06875 -0.15,-0.04375 -0.3,0.49375 -0.69375,0.875 -1.34375,0.875 -0.79375,0 -1.2125,-0.48125 -1.2125,-1.36875 0,-0.825 0.425,-1.55625 0.7375,-1.86875 0.575,-0.5625 1.15625,-0.7 1.6,-0.7 0.64375,0 0.8,0.29375 0.68125,0.8375 0.01875,0.05 0.14375,0.05625 0.16875,0.0062 0.05625,-0.23125 0.18125,-0.59375 0.28125,-0.8375 -0.15625,-0.0625 -0.5375,-0.2 -1.025,-0.2 z"/>
    <use x="39.267352" y="17.754937" xlink:href="#path359"/>
    <use x="41.500164" y="18.011187" xlink:href="#path361"/>
    <path id="path363" style="" d="m 45.549871,17.948687 c -0.06875,-0.13125 -0.21875,-0.19375 -0.31875,-0.19375 -0.3,0 -0.69375,0.175 -1.11875,0.55625 -0.49375,0.44375 -0.83125,1.1875 -0.83125,1.63125 0,0.25 0.13125,0.45 0.375,0.45 0.60625,0 1.075,-0.60625 1.50625,-1.18125 l 0.025,0.0063 -0.21875,0.61875 c -0.0625,0.18125 -0.08125,0.28125 -0.08125,0.35625 0,0.1 0.06875,0.2 0.2,0.2 0.325,0 0.89375,-0.5125 1.0625,-0.85625 -0.0062,-0.05625 -0.0375,-0.08125 -0.09375,-0.08125 -0.19375,0.24375 -0.5875,0.5625 -0.6875,0.5625 -0.05625,0 -0.0625,-0.0625 -0.0375,-0.14375 0.05625,-0.1875 0.35,-1.1875 0.96875,-2.89375 0.1875,-0.51875 0.28125,-0.75625 0.39375,-1.10625 l -0.025,-0.0375 c -0.26875,-0.0063 -0.61875,0.075 -0.7375,0.11875 -0.025,0.025 -0.03125,0.0625 -0.01875,0.0875 l 0.14375,0.1 c 0.0875,0.0625 0.06875,0.16875 -0.05625,0.51875 l -0.45,1.2875 z m -0.33125,-0.0062 c 0.15625,0 0.2375,0.1875 0.1625,0.45 -0.09375,0.33125 -0.275,0.70625 -0.7625,1.20625 -0.43125,0.44375 -0.75,0.55625 -0.84375,0.55625 -0.05625,0 -0.11875,-0.05625 -0.11875,-0.13125 0,-0.08125 0,-0.19375 0.19375,-0.59375 0.19375,-0.39375 0.64375,-0.9875 0.89375,-1.21875 0.1625,-0.15 0.33125,-0.26875 0.475,-0.26875 z"/>
    <use x="46.39743" y="20.167437" xlink:href="#path365"/>
    <path id="path367" style="" d="m 49.912078,18.142437 c 0.08125,-0.04375 0.11875,-0.16875 0.075,-0.23125 l -0.68125,0 0.18125,-0.6125 c -0.05,-0.0625 -0.175,-0.075 -0.2375,-0.0375 l -0.35,0.61875 -0.5,0.0875 c -0.0625,0.025 -0.08125,0.1125 -0.06875,0.175 l 0.4875,0 -0.5875,1.725 c -0.0625,0.1875 -0.0875,0.275 -0.0875,0.35625 0,0.075 0.08125,0.16875 0.16875,0.16875 0.2625,0 0.85,-0.38125 1.2,-0.9 0.0125,-0.075 -0.025,-0.1125 -0.0875,-0.1125 -0.20625,0.2375 -0.61875,0.5625 -0.7125,0.5625 -0.05,0 -0.08125,-0.0375 -0.04375,-0.15625 l 0.5625,-1.64375 0.68125,0 z"/>
    <use x="49.900848" y="20.167437" xlink:href="#path365"/>
    <use x="53.146746" y="17.754937" xlink:href="#path359"/>
    <use x="55.379559" y="18.011187" xlink:href="#path361"/>
  </g>
<defs><path id="path30" d="m 0,0 q 0.04,-0.1899999 0.06,-0.2599999 0.03,-0.07 0.03,-0.12 0,-0.05 -0.03,-0.12 -0.02,-0.07 -0.06,-0.27 l -0.07,-0.04 q -0.06,-0.24 -0.18,-0.37 -0.12,-0.14 -0.26,-0.23 -0.13,-0.09 -0.26,-0.16 -0.12,-0.07 -0.2,-0.18 -0.29,-0.04 -0.55,-0.06 -0.25,-0.02 -0.56,-0.02 l -0.8,0.49 q -0.03,0.14 -0.13,0.23 -0.1,0.09 -0.21,0.17 -0.06,0.22 -0.16,0.43 -0.1,0.21 -0.16,0.4299999 -0.14,0.05 -0.18,0.27 -0.04,0.22 -0.03,0.49 0.02,0.27 0.06,0.54 0.04,0.26 0.07,0.39 0.11,0.07 0.12,0.15 0.02,0.07 0.05,0.18 l 0.07,0.04 0.09,0.29 q 0.12,0.09 0.22,0.19 0.11,0.1 0.19,0.22 0.3,0.13 0.41,0.19 0.11,0.05 0.21,0.06 0.11,0.02 0.28,0.01 0.18,-0.01 0.61,-0.01 0.21,-0.18 0.31,-0.21 0.11,-0.04 0.21,-0.09 0.11,-0.05 0.27,-0.18 0.17,-0.13 0.5,-0.5 l 0,-0.22 q -0.05,-0.02 -0.11,-0.04 -0.06,-0.03 -0.12,-0.06 -0.05,0.11 -0.14,0.13 -0.08,0.02 -0.19,0.04 l -0.1,0.15 -0.17,0.02 q -0.08,0.12 -0.19,0.1 -0.11,-0.03 -0.24,0 0.03,0.02 0,0.04 -0.02,0.02 -0.04,0.02 -0.09,0 -0.2,0.02 -0.11,0.01 -0.21,0.01 -0.1,-0.01 -0.19,-0.05 -0.08,-0.04 -0.13,-0.14 -0.17,-0.05 -0.3,-0.18 -0.13,-0.13 -0.24,-0.26 -0.02,-0.14 -0.04,-0.27 -0.01,-0.13 -0.06,-0.26 l -0.08,-0.04 0,-0.75 q 0.15,-0.12 0.29,-0.26 l 0.41,0 q 0.03,0.02 0.04,0.04 0.01,0.01 0.03,0.02 l 0.85,0 0.04,0.09 0.19,0.02 q -0.01,0.06 0.09,0.07 0.11,0.01 0.26,0 0.15,-0.02 0.3,-0.04 0.15,-0.03 0.23,-0.05 l 0.1,-0.1 z m -0.72,-0.7099999 q 0,0.05 -0.05,0.11 -0.04,0.06 -0.11,0.11 -0.06,0.04 -0.13,0.07 -0.07,0.03 -0.12,0.03 l -0.43,0 q -0.03,0 -0.03,-0.03 0.01,-0.03 -0.03,-0.03 l -0.46,0 q -0.12,-0.13 -0.25,-0.25 0.07,-0.1 0.13,-0.19 0.06,-0.1 0.12,-0.19 0.18,-0.06 0.3,-0.18 l 0.64,0 q 0.05,0 0.07,0.06 0.03,0.06 0.04,0.1 0.04,0.01 0.07,0.02 0.03,0 0.06,0 0.04,0.05 0.11,0.18 0.07,0.13 0.07,0.19 z"/><path id="path55" d="m 0,0 c -0.286875,-0.05062 -0.286875,-0.14625 -0.140625,-0.601875 l 0.658125,-2.0925 c 0.163125,-0.523125 0.208125,-0.5625 0.45,-0.601875 l 0.163125,-0.02813 c 0.07313,-0.0225 0.08438,-0.163125 0.02813,-0.196875 -0.28125,0.01125 -0.534375,0.01687 -0.793125,0.01687 -0.27,0 -0.55125,-0.0056 -0.86625,-0.01687 -0.07313,0.02813 -0.07875,0.163125 -0.03937,0.196875 l 0.1575,0.02813 c 0.286875,0.05062 0.28125,0.14625 0.140625,0.601875 l -0.658125,2.0925 c -0.163125,0.523125 -0.208125,0.556875 -0.45,0.601875 l -0.151875,0.02813 c -0.09,0.01687 -0.09563,0.163125 -0.03938,0.196875 0.28125,-0.01125 0.534375,-0.01688 0.815625,-0.01688 0.25875,0 0.545625,0.0056 0.84375,0.01688 0.05625,-0.03375 0.07312,-0.163125 0.03937,-0.196875 l -0.1575,-0.02813 z"/><path id="path70" d="m 0,0 c -1.593,0 -2.8755,1.215 -2.8755,2.916 0,1.6875 1.215,2.781 2.7675,2.781 1.687501,0 2.8485,-1.215 2.8485,-2.9025 0,-1.6605 -1.2285,-2.7945 -2.7405,-2.7945 z m 1.579501,3.0105 c 0,1.0395 -0.3645,2.2815 -1.552501,2.2815 -1.188,0 -1.741499,-1.323 -1.741499,-2.5515 0,-1.485 0.6615,-2.3355 1.552499,-2.3355 1.2825,0 1.741501,1.458 1.741501,2.6055 z"/><path id="path72" d="m 0,0 c 0,-0.6615 0.0135,-0.945 0.0405,-1.1745 -0.0135,-0.054 -0.054,-0.081 -0.135,-0.0945 -0.297,0.108 -0.8235,0.2295 -1.4445,0.243 -0.0945,0.0405 -0.108,0.2295 -0.027,0.297 l 0.162,0.0675 c 0.405,0.1755 0.405,0.297 0.405,1.1475 l 0,2.2545 c 0,1.0935 0.4455,1.6875 1.6335,1.6875 0.7965,0 1.458,-0.4455 1.863,-0.702 0.081,0 0.1215,0.0675 0.1215,0.189 l 0,0.5535 c 0.027,0.054 0.0945,0.0945 0.162,0.0945 0.459,-0.2565 1.242,-0.3915 1.7685,-0.4995 0.108,-0.054 0.0945,-0.324 0.0135,-0.3915 -0.189,0.0405 -0.3645,0.0675 -0.5265,0.0675 -0.378,0 -0.4185,-0.405 -0.4185,-1.4715 l 0,-2.268 c 0,-0.4995 0.0135,-0.918 0.0405,-1.1745 -0.0135,-0.054 -0.054,-0.081 -0.1215,-0.0945 -0.297,0.135 -1.0395,0.2295 -1.5795,0.243 -0.108,0.054 -0.108,0.243 -0.0135,0.297 l 0.1755,0.0675 c 0.405,0.162 0.4995,0.189 0.4995,1.0665 l 0,2.214 c 0,0.4185 -0.0945,0.621 -0.27,0.783 -0.297,0.2565 -0.729,0.405 -1.0935,0.405 -1.026,0 -1.2555,-0.621 -1.2555,-1.5525 l 0,-2.2545 z"/><path id="path74" d="m 0,0 c -2.241,0 -3.267,1.5525 -3.267,3.0105 0,0.8775 0.3105,1.539 0.783,1.998 0.4725,0.459 1.134,0.6885 1.8495,0.6885 0.783,0 1.7955,-0.378 2.2545,-1.377 -0.0135,-0.1215 -0.135,-0.216 -0.243,-0.189 -0.3105,0.459 -0.7155,0.81 -1.4985,0.81 -1.4445,0 -2.1735,-1.2555 -2.1735,-2.3085 0,-1.431 0.918,-2.1735 1.863,-2.1735 0.5535,0 1.053,0.351 1.35,0.7155 0.054,0.0675 0.1215,0.0945 0.189,0.0945 0.162,0 0.297,-0.2565 0.297,-0.4995 0,-0.2295 -0.0945,-0.4455 -0.2025,-0.54 -0.3645,-0.162 -0.891,-0.2295 -1.2015,-0.2295 z"/><path id="path76" d="m 0,0 c -0.864,0.3105 -1.1205,0.621 -1.1205,1.1475 0,0.378 0.162,0.7155 0.4185,0.945 0.2295,0.2025 0.5535,0.3105 0.945,0.3105 0.378,0 0.675,-0.1755 0.972,-0.3375 0.27,-0.1485 0.432,-0.27 0.5265,-0.27 0.081,0 0.162,0.108 0.216,0.189 0.2295,0.297 0.5535,0.4185 0.8775,0.4185 0.6615,0 1.134,-0.5265 1.134,-0.594 0,-0.0945 -0.0405,-0.1755 -0.0945,-0.1755 -0.0405,0 -0.108,0.054 -0.1755,0.0945 -0.081,0.0405 -0.2025,0.081 -0.3375,0.081 -0.5265,0 -0.648,-0.5535 -0.621,-1.1745 l 0.081,-2.349 c 0.0405,-1.0125 -0.432,-1.5795 -1.404,-1.5795 -0.9855,0 -2.511,0.9585 -2.511,1.6605 0,0.1215 0.0675,0.189 0.189,0.189 0.2025,0 0.567,-0.0945 0.7695,-0.2565 0.108,-0.081 0.1215,-0.243 0.135,-0.459 0.027,-0.4185 0.486,-0.6075 0.864,-0.6075 0.837,0 0.999,0.675 0.9855,1.1745 l -0.0135,0.621 c 0,0.2025 -0.027,0.324 -0.2295,0.3915 l -1.6065,0.5805 z m -0.081,0.9855 c 0,-0.5265 0.3915,-0.729 1.188,-0.999 0.243,-0.081 0.4725,-0.135 0.5535,-0.135 0.081,0 0.135,0.027 0.135,0.1755 l -0.027,0.7965 c -0.0135,0.2835 -0.0135,0.4725 -0.1755,0.6345 -0.135,0.135 -0.5535,0.3375 -0.8235,0.3375 -0.6885,0 -0.8505,-0.5805 -0.8505,-0.81 z"/><path id="path78" d="m 0,0 c 0,0.972 -0.0135,1.107 -0.513,1.1745 l -0.2835,0.0405 c -0.0945,0.0675 -0.0675,0.297 0.027,0.3375 0.378,-0.027 0.783,-0.0405 1.269,-0.0405 0.4725,0 0.864,0.0135 1.2285,0.0405 0.0945,-0.0405 0.1215,-0.27 0.027,-0.3375 l -0.243,-0.0405 c -0.486,-0.081 -0.513,-0.2025 -0.513,-1.1745 l 0,-2.0655 c 0,-0.3915 0.027,-0.5805 0.2025,-0.81 0.189,-0.2565 0.6345,-0.4725 1.1475,-0.4725 0.918,0 1.269,0.567 1.269,1.3365 l 0,2.0115 c 0,0.972 -0.0135,1.0935 -0.513,1.1745 l -0.2565,0.0405 c -0.0945,0.0675 -0.0675,0.297 0.027,0.3375 0.3645,-0.027 0.7695,-0.0405 1.2555,-0.0405 0.4725,0 0.864,0.0135 1.269,0.0405 0.0945,-0.0405 0.1215,-0.27 0.027,-0.3375 l -0.297,-0.0405 c -0.486,-0.0675 -0.513,-0.2025 -0.513,-1.1745 l 0,-2.322 c 0,-0.9045 -0.459,-1.674 -1.5795,-1.674 -0.6885,0 -1.323,0.3375 -1.89,0.6885 -0.0945,0 -0.1485,-0.0675 -0.1485,-0.1485 0,-0.1215 0,-0.324 0.027,-0.6345 -0.027,-0.0675 -0.0945,-0.0945 -0.1485,-0.0945 -0.27,0.2025 -1.0395,0.5535 -1.35,0.6615 -0.0675,0.0405 -0.0675,0.189 -0.0135,0.243 l 0.1215,0.081 c 0.3645,0.243 0.3645,0.3105 0.3645,0.837 l 0,2.3625 z"/><path id="path84" d="m 0,0 c 0.1215,-0.081 0.1485,-0.4455 -0.0135,-0.567 l -1.4985,0 c -0.2295,0 -0.243,-0.0135 -0.243,-0.2565 l 0,-0.6075 c -0.054,-0.0945 -0.216,-0.0945 -0.2835,-0.0675 -0.135,0.27 -0.3915,0.6345 -0.567,0.7965 -0.135,0.1215 -0.4725,0.297 -0.864,0.4185 -0.054,0.081 -0.0405,0.2295 0.0405,0.2835 l 0.378,0 c 0.27,0 0.2835,0.027 0.2835,0.3915 l 0,3.0915 c 0,0.81 0.243,1.458 1.404,1.458 0.6885,0 1.1745,-0.3375 1.4175,-0.621 0.027,-0.081 -0.027,-0.2295 -0.135,-0.2295 -0.0405,0 -0.216,0.1485 -0.3375,0.189 -0.108,0.0405 -0.2295,0.0675 -0.3645,0.0675 -0.891,0 -0.9855,-0.7155 -0.9855,-1.4985 l 0,-2.5245 c 0,-0.2835 0.0135,-0.324 0.243,-0.324 l 1.5255,0 z"/><path id="path86" d="m 0,0 c 0,0.972 -0.0135,1.0935 -0.513,1.1745 l -0.243,0.0405 c -0.0945,0.0675 -0.0675,0.297 0.027,0.3375 0.378,-0.027 0.7425,-0.0405 1.2285,-0.0405 0.4725,0 0.864,0.0135 1.3095,0.0405 0.0945,-0.0405 0.1215,-0.27 0.027,-0.3375 l -0.324,-0.0405 c -0.486,-0.0675 -0.513,-0.2025 -0.513,-1.1745 l 0,-2.322 c 0,-0.9315 -0.5265,-1.674 -1.6065,-1.674 -0.6345,0 -1.296,0.3105 -1.836,0.6885 -0.1215,0.081 -0.216,0.135 -0.3375,0.108 -0.378,-0.5535 -0.756,-0.7965 -1.431,-0.7965 -0.648,0 -1.2825,0.324 -1.7955,0.6885 -0.0945,0 -0.1485,-0.0675 -0.1485,-0.1485 0,-0.1215 0,-0.324 0.027,-0.6345 -0.027,-0.0675 -0.0945,-0.0945 -0.1485,-0.0945 -0.27,0.2025 -1.0395,0.5535 -1.35,0.6615 -0.0675,0.0405 -0.0675,0.189 -0.0135,0.243 l 0.1215,0.081 c 0.3645,0.243 0.3645,0.3105 0.3645,0.837 l 0,2.3625 c 0,0.972 -0.0135,1.107 -0.513,1.1745 l -0.324,0.0405 c -0.0945,0.0675 -0.0675,0.297 0.027,0.3375 0.4185,-0.027 0.8235,-0.0405 1.3095,-0.0405 0.4725,0 0.864,0.0135 1.2285,0.0405 0.0945,-0.0405 0.1215,-0.27 0.027,-0.3375 l -0.243,-0.0405 c -0.486,-0.081 -0.513,-0.2025 -0.513,-1.1745 l 0,-2.0925 c 0,-0.432 0.0675,-0.6075 0.2025,-0.7695 0.2025,-0.243 0.5805,-0.486 1.134,-0.486 0.837,0 1.242,0.486 1.242,1.3905 l 0,1.9575 c 0,0.972 -0.0135,1.0935 -0.513,1.1745 l -0.243,0.0405 c -0.0945,0.0675 -0.0675,0.297 0.027,0.3375 0.378,-0.027 0.7425,-0.0405 1.2285,-0.0405 0.4725,0 0.864,0.0135 1.269,0.0405 0.0945,-0.0405 0.1215,-0.27 0.027,-0.3375 l -0.2835,-0.0405 c -0.486,-0.0675 -0.513,-0.2025 -0.513,-1.1745 l 0,-2.0655 c 0,-0.4725 0.0405,-0.6075 0.2025,-0.81 0.189,-0.243 0.6075,-0.4725 1.1205,-0.4725 0.8505,0 1.2555,0.4725 1.2555,1.3905 l 0,1.9575 z"/><path id="path90" d="m 0,0 c 0.2025,0.4995 0.405,1.026 0.513,1.404 0.0405,0.0405 0.108,0.054 0.1755,0.054 0.054,0 0.108,-0.0135 0.135,-0.054 0.1755,-0.459 0.3105,-0.7695 0.4455,-1.107 0.216,-0.5535 1.053,-2.511 1.242,-2.8755 0.3915,-0.756 0.513,-1.107 0.9855,-1.1745 l 0.2025,-0.027 c 0.081,-0.081 0.0675,-0.2835 -0.027,-0.3375 -0.378,0.027 -0.6075,0.0405 -0.945,0.0405 -0.2565,0 -0.594,-0.0135 -1.0125,-0.0405 -0.0945,0.054 -0.108,0.243 -0.027,0.3375 l 0.3105,0.0405 c 0.162,0.027 0.243,0.081 0.243,0.2025 0,0.081 -0.054,0.3645 -0.243,0.837 -0.135,0.351 -0.594,1.5255 -0.7695,1.9845 -0.108,0.2835 -0.2025,0.4725 -0.2565,0.513 -0.0405,-0.0405 -0.0945,-0.162 -0.216,-0.432 -0.3105,-0.702 -0.702,-1.647 -1.0125,-2.5785 -0.135,-0.405 -0.1215,-0.4725 0.297,-0.54 l 0.162,-0.027 c 0.0945,-0.0675 0.081,-0.2835 -0.0135,-0.3375 -0.459,0.027 -0.729,0.0405 -1.0935,0.0405 -0.459,0 -0.9315,-0.0135 -1.269,-0.0405 -0.108,0.0405 -0.1215,0.2295 -0.0405,0.3375 l 0.27,0.0405 c 0.486,0.0675 0.6075,0.4995 0.81,0.999 l 1.134,2.7405 z"/><path id="path92" d="m 0,0 c 0.567,0 0.756,-0.0135 0.7965,-0.0945 0.027,-0.054 0.054,-0.162 0.054,-0.351 0,-0.81 -0.756,-1.6065 -1.917,-1.6065 -1.62,0 -2.7135,1.3905 -2.7135,3.051 0,0.594 0.162,1.2285 0.567,1.755 0.3915,0.513 1.08,0.891 1.9575,0.891 0.702,0 1.674,-0.3375 2.1195,-1.2555 -0.0135,-0.1215 -0.108,-0.2025 -0.243,-0.162 -0.4185,0.5265 -0.7965,0.6615 -1.242,0.6615 -1.4445,0 -2.241,-1.161 -2.241,-2.5245 0,-0.3375 0.0135,-0.3645 0.3645,-0.3645 l 2.4975,0 z m -2.619,-0.405 c -0.0945,0 -0.0945,-0.0405 -0.0945,-0.0675 0.0135,-0.4455 0.702,-1.1745 1.4985,-1.1745 0.783,0 1.0395,0.4725 1.0395,0.8505 0,0.1755 -0.0405,0.2295 -0.081,0.2565 -0.108,0.081 -0.405,0.135 -1.404,0.135 l -0.9585,0 z"/><path id="path96" d="m 0,0 c 0,0.972 -0.0135,1.0935 -0.513,1.1745 l -0.2565,0.0405 c -0.0945,0.0675 -0.0675,0.297 0.027,0.3375 0.351,-0.027 0.756,-0.0405 1.242,-0.0405 0.4725,0 0.864,0.0135 1.4985,0.0405 0.0945,-0.0405 0.1215,-0.27 0.027,-0.3375 l -0.486,-0.0405 c -0.513,-0.0405 -0.54,-0.2025 -0.54,-1.1745 l 0,-1.836 c 0,-0.459 0.0405,-0.8505 0.1755,-1.0395 0.108,-0.1485 0.27,-0.27 0.486,-0.27 0.189,0 0.3915,0.081 0.594,0.216 0.0945,0.054 0.162,0.0945 0.297,0.0945 0.216,0 0.5805,-0.1755 0.5805,-0.621 0,-0.324 -0.27,-0.54 -0.6075,-0.54 -0.4995,0 -1.0125,0.4185 -1.485,0.81 -0.027,-0.0135 -0.0405,-0.054 -0.0405,-0.1215 l 0,-0.783 c 0,-0.054 -0.0405,-0.081 -0.108,-0.0945 -0.3375,0.2025 -1.053,0.5535 -1.3635,0.6615 -0.0675,0.0405 -0.0675,0.189 -0.0135,0.243 l 0.1215,0.081 c 0.3645,0.243 0.3645,0.3105 0.3645,0.837 l 0,2.3625 z"/><path id="path98" d="m 0,0 c 0,0.972 -0.0135,1.107 -0.513,1.1745 l -0.2835,0.0405 c -0.0945,0.0675 -0.0675,0.297 0.027,0.3375 0.378,-0.027 0.783,-0.0405 1.269,-0.0405 0.4725,0 0.864,0.0135 1.512,0.0405 0.0945,-0.0405 0.1215,-0.27 0.027,-0.3375 l -0.5265,-0.0675 c -0.486,-0.0675 -0.513,-0.189 -0.513,-1.1475 l 0,-1.4175 c 0,-0.2835 0.0675,-0.351 0.189,-0.378 0.1215,0.027 0.4995,0.054 0.7425,0.054 1.917,0 3.294,-1.35 3.294,-3.2265 0,-1.3635 -0.8775,-2.4705 -2.241,-2.4705 -0.864,0 -1.7145,0.5535 -1.89,0.6345 -0.0945,0 -0.1215,-0.081 -0.1215,-0.1755 0,-0.1755 0.027,-0.378 0.054,-0.621 -0.027,-0.0675 -0.081,-0.0945 -0.162,-0.0945 -0.351,0.2565 -0.9855,0.5805 -1.3365,0.729 -0.0675,0.0405 -0.0675,0.189 -0.0135,0.243 l 0.1215,0.081 c 0.3645,0.243 0.3645,0.3105 0.3645,0.837 l 0,5.805 z m 0.999,-5.616 c 0,-0.4455 0.0405,-0.648 0.162,-0.7965 0.1485,-0.162 0.567,-0.378 1.1475,-0.378 1.215,0 1.8225,1.0935 1.8225,2.1735 0,1.404 -0.648,2.43 -1.755,2.43 -0.2835,0 -0.702,-0.0945 -0.972,-0.297 -0.27,-0.216 -0.405,-0.378 -0.405,-0.81 l 0,-2.322 z"/><path id="path104" d="m 0,0 c 0.1485,-0.054 0.243,-0.432 0.0945,-0.567 l -1.539,0 c -0.2295,0 -0.2295,-0.0135 -0.2295,-0.378 l 0,-0.3915 c 0,-0.675 0.054,-1.6605 0.297,-2.2815 0.2025,-0.486 0.54,-0.7425 0.9585,-0.7425 0.4455,0 0.8235,0.297 1.08,0.594 0.0945,0.108 0.1755,0.162 0.324,0.162 0.2565,0 0.513,-0.216 0.513,-0.486 0,-0.486 -0.6075,-0.81 -1.323,-0.81 -1.3365,0 -2.0925,0.945 -2.43,1.7145 -0.324,0.756 -0.4185,1.593 -0.4185,2.376 0,0.135 -0.0945,0.216 -0.2025,0.27 l -0.5805,0.2835 c -0.054,0.081 -0.0405,0.2025 0.0405,0.2565 l 0.4725,0 c 0.27,0 0.27,0.027 0.27,0.3915 l 0,2.8485 c 0,0.972 -0.0135,1.107 -0.513,1.1745 l -0.3105,0.0405 c -0.0945,0.0675 -0.0675,0.297 0.027,0.3375 0.405,-0.027 0.81,-0.0405 1.296,-0.0405 0.4725,0 0.864,0.0135 1.4715,0.0405 0.0945,-0.0405 0.1215,-0.27 0.027,-0.3375 l -0.486,-0.0405 c -0.486,-0.0405 -0.513,-0.2025 -0.513,-1.1745 l 0,-2.8485 c 0,-0.3645 0,-0.3915 0.2295,-0.3915 l 1.4445,0 z"/><path id="path118" d="m 0,0 c 0,0.972 -0.0135,1.107 -0.513,1.1745 l -0.2835,0.0405 c -0.0945,0.0675 -0.0675,0.297 0.027,0.3375 0.378,-0.027 0.783,-0.0405 1.269,-0.0405 0.4725,0 0.864,0.0135 1.269,0.0405 0.0945,-0.0405 0.1215,-0.27 0.027,-0.3375 l -0.2835,-0.0405 c -0.486,-0.0675 -0.513,-0.2025 -0.513,-1.1745 l 0,-2.43 c 0,-0.5535 0.027,-1.2015 0.054,-1.674 -0.0135,-0.054 -0.0675,-0.081 -0.135,-0.081 -0.3105,0.2025 -1.08,0.5535 -1.3905,0.6615 -0.0675,0.0405 -0.0675,0.189 -0.0135,0.243 l 0.1215,0.081 c 0.3645,0.243 0.3645,0.3105 0.3645,0.837 l 0,2.3625 z m 0.4455,-6.912 c -0.405,0 -0.729,0.2835 -0.729,0.729 0,0.3645 0.27,0.675 0.6885,0.675 0.378,0 0.7155,-0.216 0.7155,-0.702 0,-0.378 -0.27,-0.702 -0.675,-0.702 z"/><path id="path124" d="m 0,0 c -1.026,0 -1.836,0.5535 -1.836,1.539 0,0.7425 0.5535,1.215 1.3365,1.6605 0.4995,0.2835 1.0395,0.621 1.0395,1.242 0,0.5805 -0.4185,0.864 -0.9045,0.864 -0.7695,0 -1.2015,-0.648 -1.431,-1.3905 -0.0675,-0.081 -0.243,-0.0675 -0.3105,0.0135 -0.027,0.4455 0.054,1.107 0.162,1.3635 0.3375,0.27 0.81,0.405 1.4445,0.405 0.999,0 1.944,-0.513 1.944,-1.539 0,-0.9585 -0.6615,-1.4175 -1.377,-1.8225 -0.4725,-0.27 -1.0395,-0.567 -1.0395,-1.1205 0,-0.486 0.3375,-0.8235 0.864,-0.8235 0.5535,0 0.9585,0.3915 1.188,0.9855 0.0675,0.081 0.27,0.054 0.324,-0.0405 0,-0.3645 -0.0945,-0.7965 -0.216,-1.0935 -0.1215,-0.108 -0.621,-0.243 -1.188,-0.243 z"/><path id="path130" d="m 0,0 c 0,0.972 -0.0135,1.1205 -0.513,1.1745 l -0.3375,0.0405 c -0.0945,0.0675 -0.0675,0.297 0.027,0.3375 0.432,-0.027 0.837,-0.0405 1.323,-0.0405 0.4725,0 0.864,0.0135 1.269,0.0405 0.0945,-0.0405 0.1215,-0.2835 0.027,-0.3375 l -0.2835,-0.0405 c -0.486,-0.0675 -0.513,-0.2025 -0.513,-1.1745 l 0,-2.268 c 0,-0.4725 0.0405,-0.54 0.2835,-0.7425 0.243,-0.2025 0.594,-0.3645 1.053,-0.3645 0.864,0 1.2825,0.5805 1.2825,1.4445 l 0,1.9305 c 0,0.972 -0.0135,1.0935 -0.513,1.1745 l -0.27,0.0405 c -0.0945,0.0675 -0.0675,0.297 0.027,0.3375 0.3645,-0.027 0.7695,-0.0405 1.2555,-0.0405 0.4725,0 0.864,0.0135 1.35,0.0405 0.0945,-0.0405 0.1215,-0.27 0.027,-0.3375 l -0.3645,-0.0405 c -0.486,-0.054 -0.513,-0.2025 -0.513,-1.1745 l 0,-2.2545 c 0,-0.945 -0.459,-1.7415 -1.7415,-1.7415 -0.6885,0 -1.3365,0.324 -1.8225,0.702 -0.0405,-0.027 -0.054,-0.135 -0.054,-0.2565 l 0,-2.835 c 0,-0.594 0.027,-1.269 0.0405,-1.674 -0.027,-0.054 -0.081,-0.081 -0.135,-0.081 -0.486,0.2565 -1.1205,0.459 -1.458,0.567 -0.0675,0.0405 -0.0675,0.2295 0,0.27 l 0.135,0.081 c 0.405,0.243 0.4185,0.324 0.4185,1.1205 l 0,6.102 z"/><path id="path180" d="m 0,0 c 0,-0.594 0.027,-1.269 0.0405,-1.674 -0.027,-0.054 -0.081,-0.081 -0.135,-0.081 -0.486,0.2565 -1.1205,0.459 -1.458,0.567 -0.0675,0.0405 -0.0675,0.2295 0,0.27 l 0.135,0.081 c 0.405,0.243 0.4185,0.324 0.4185,1.1205 l 0,2.0385 c 0,0.108 -0.0135,0.189 -0.081,0.189 -0.1485,-0.054 -0.4455,-0.1215 -0.9045,-0.1215 -1.836,0 -3.267,1.215 -3.267,3.105 0,1.4175 0.999,2.592 2.4975,2.592 0.648,0 1.107,-0.216 1.701,-0.621 l 0.054,0 c 0.027,0.054 0.027,0.216 0.027,0.4185 l 0,0.2295 c 0,0.0675 0.0675,0.108 0.1485,0.108 0.378,-0.1485 1.215,-0.351 1.782,-0.432 0.1215,-0.0675 0.108,-0.405 0.0135,-0.432 -0.2025,0.0675 -0.432,0.135 -0.5805,0.135 -0.378,0 -0.3915,-0.4995 -0.3915,-1.566 l 0,-5.9265 z m -0.999,6.561 c 0,0.216 -0.0135,0.4185 -0.0945,0.4995 -0.216,0.216 -0.675,0.378 -1.0395,0.378 -1.323,0 -2.0115,-1.161 -2.0115,-2.3895 0,-1.1745 0.6345,-2.241 1.863,-2.241 0.5265,0 0.9315,0.2835 1.134,0.567 0.0945,0.135 0.1485,0.2565 0.1485,0.5265 l 0,2.6595 z"/><path id="path182" d="m 0,0 c 0.459,0 0.756,-0.3105 0.756,-0.7425 0,-0.432 -0.297,-0.7965 -0.756,-0.7965 -0.432,0 -0.756,0.3375 -0.756,0.7965 0,0.459 0.3645,0.7425 0.756,0.7425 z"/><path id="path184" d="m 0,0 c 0,1.431 -0.027,1.62 -0.8235,1.7145 l -0.3375,0.0405 c -0.081,0.081 -0.054,0.297 0.027,0.3375 0.675,-0.027 1.134,-0.0405 1.701,-0.0405 0.54,0 0.999,0.0135 1.674,0.0405 0.081,-0.0405 0.108,-0.2835 0.027,-0.3375 l -0.3375,-0.0405 c -0.7965,-0.0945 -0.8235,-0.2835 -0.8235,-1.7145 l 0,-4.806 c 0,-1.431 0.027,-1.6605 0.8235,-1.728 l 0.3375,-0.027 c 0.081,-0.054 0.054,-0.297 -0.027,-0.3375 -0.675,0.027 -1.134,0.0405 -1.674,0.0405 -0.567,0 -1.026,-0.0135 -1.701,-0.0405 -0.081,0.0405 -0.108,0.2835 -0.027,0.3375 l 0.3375,0.027 c 0.7965,0.0675 0.8235,0.297 0.8235,1.728 l 0,4.806 z"/><path id="path242" d="m 0,0 c -0.432,0 -0.6615,0.297 -0.6615,0.6075 0,0.162 0.054,0.297 0.2295,0.3915 0.1215,0.0675 0.7695,0.216 0.7695,0.783 0,0.702 -0.6885,1.0395 -1.107,1.1745 -0.081,0.0675 -0.0405,0.2835 0.081,0.324 0.945,-0.2835 1.755,-0.891 1.755,-1.9575 0,-0.891 -0.594,-1.323 -1.0665,-1.323 z"/><path id="path270" d="m 0,0 c 1.6605,0 3.105,-0.9315 3.105,-2.9025 0,-1.9035 -1.431,-2.8755 -3.024,-2.8755 -1.593,0 -3.1185,1.0665 -3.105,2.997 0.0135,1.863 1.4175,2.781 3.024,2.781 z m 0,-5.157 c 0.7695,0 1.1475,1.134 1.161,2.4435 0.0135,1.215 -0.243,2.0925 -1.0125,2.0925 -0.783,0 -1.2285,-1.0395 -1.2285,-2.457 0,-1.4715 0.486,-2.079 1.08,-2.079 z"/><path id="path272" d="m 0,0 c -1.8225,0 -3.375,1.134 -3.375,3.051 0,1.593 1.161,2.727 2.862,2.727 1.2825,0 2.0925,-0.7695 2.3895,-1.4445 0,-0.216 -0.189,-0.3105 -0.351,-0.297 -0.297,0.4995 -0.702,0.6615 -1.2015,0.6615 -1.242,0 -1.9305,-1.08 -1.9305,-2.1465 0,-0.9315 0.4725,-1.9305 1.35,-1.9305 0.486,0 1.0125,0.4725 1.3905,1.0125 0.027,0.0405 0.1485,0.0675 0.216,0.0675 0.162,0 0.351,-0.3645 0.351,-0.7695 0,-0.3645 -0.108,-0.5535 -0.2835,-0.702 -0.3645,-0.135 -0.9585,-0.2295 -1.4175,-0.2295 z"/><path id="path359" d="m 0,0 c -0.25625,0 -0.5375,0.09375 -0.8625,0.40625 -0.425,0.40625 -0.65625,1.0125 -0.68125,1.4 -0.0375,0.5375 0.225,0.83125 0.625,0.83125 0.16875,0 0.50625,-0.03125 0.89375,-0.43125 0.4625,-0.475 0.64375,-1.075 0.6625,-1.41875 0.025,-0.45625 -0.19375,-0.7875 -0.6375,-0.7875 z m -0.04375,0.1875 c 0.21875,0 0.25625,0.21875 0.25,0.4125 -0.0125,0.33125 -0.30625,1.15625 -0.58125,1.525 -0.2,0.26875 -0.35625,0.325 -0.49375,0.325 -0.18125,0 -0.26875,-0.18125 -0.25625,-0.4 0.01875,-0.33125 0.2625,-1.075 0.625,-1.5625 0.18125,-0.24375 0.33125,-0.3 0.45625,-0.3 z"/><path id="path361" d="m 0,0 c 0.05625,-0.14375 -0.0125,-0.25625 -0.1625,-0.25625 -0.3125,0 -0.69375,0.25625 -0.93125,0.58125 -0.0063,0.05 0.025,0.09375 0.075,0.09375 0.20625,-0.18125 0.425,-0.3125 0.56875,-0.3125 0.05,0 0.05,0.0625 0.01875,0.14375 -0.03125,0.0875 -0.69375,1.8875 -0.725,1.96875 -0.05625,0.14375 0.1125,0.1625 0.18125,0.1625 0.05625,0 0.08125,-0.01875 0.1125,-0.075 0.36875,-0.6875 0.625,-1.175 0.95625,-1.5875 0.34375,-0.43125 0.7125,-0.74375 0.8625,-0.74375 0.09375,0 0.1,0.075 0.1,0.15 0,0.125 -0.08125,0.34375 -0.13125,0.45625 -0.14375,0.3125 -0.375,0.925 -0.50625,1.23125 -0.13125,0.3125 -0.15,0.35625 -0.15,0.4125 0,0.075 0.09375,0.15625 0.15,0.15625 0.34375,0 0.8375,-0.3 1.075,-0.7 0,-0.05 -0.0125,-0.1 -0.1,-0.0875 -0.18125,0.21875 -0.48125,0.425 -0.5875,0.425 -0.04375,0 -0.0375,-0.05625 -0.0125,-0.11875 0.01875,-0.05 0.46875,-1.06875 0.58125,-1.38125 0.05,-0.14375 0.1,-0.3375 0.1,-0.4375 0,-0.20625 -0.10625,-0.3375 -0.35,-0.3375 -0.46875,0 -1.0875,0.6875 -1.53125,1.3625 l -0.01875,-0.0125 0.425,-1.09375 z"/><path id="path365" d="m 0,0 c -0.03125,0.06875 -0.0125,0.125 0.025,0.16875 0.03125,0.0375 0.06875,0.05625 0.1,0.05625 0.43125,0 1.075,-0.5625 1.16875,-0.74375 0,-0.05625 -0.03125,-0.1 -0.09375,-0.10625 -0.2125,0.24375 -0.54375,0.4625 -0.65,0.4625 -0.05,0 -0.04375,-0.075 -0.01875,-0.1375 l 0.74375,-1.775 c 0.075,-0.18125 0.075,-0.2375 0.0375,-0.275 -0.025,-0.025 -0.05625,-0.0625 -0.1,-0.0625 -0.20625,0 -0.6875,0.23125 -1.03125,0.625 -0.0125,0.05 0.025,0.1 0.08125,0.10625 0.3125,-0.25625 0.475,-0.33125 0.51875,-0.33125 0.04375,0 0.04375,0.05 0.0125,0.11875 l -0.79375,1.89375 z m 1.325,-3.7 c -0.24375,0 -0.33125,0.25625 -0.33125,0.39375 0,0.10625 0.05625,0.23125 0.21875,0.23125 0.1875,0 0.325,-0.19375 0.325,-0.3875 0,-0.1375 -0.06875,-0.2375 -0.2125,-0.2375 z"/></defs></svg>
