<?xml version="1.0" encoding="UTF-8" standalone="no"?>
<svg xmlns:dc="http://purl.org/dc/elements/1.1/" xmlns:cc="http://creativecommons.org/ns#" xmlns:rdf="http://www.w3.org/1999/02/22-rdf-syntax-ns#" xmlns:svg="http://www.w3.org/2000/svg" xmlns="http://www.w3.org/2000/svg" xmlns:xlink="http://www.w3.org/1999/xlink" viewBox="0 0 90 139" height="139" width="90" version="1.1" id="svg2">
  <metadata id="metadata8">
    <rdf:RDF>
      <cc:Work rdf:about="">
        <dc:format>image/svg+xml</dc:format>
        <dc:type rdf:resource="http://purl.org/dc/dcmitype/StillImage"/>
        <dc:title/>
      </cc:Work>
    </rdf:RDF>
  </metadata>
  <defs id="defs6"/>
  <image xlink:href="condition-image-4.png" id="card-image" x="0" y="0" width="90" height="139" preserveAspectRatio="none"/>
  <g id="flowRoot4138" style="fill:#000000;fill-opacity:1;stroke:none;stroke-width:1px;stroke-linecap:butt;stroke-linejoin:miter;stroke-opacity:1" transform="translate(0,-0.20823695)">
    <path id="path27" style="" d="m 27.199453,12.140304 q 0.2,-0.35 0.31,-0.74 0.12,-0.4 0.12,-0.79 0,-0.4 -0.12,-0.7799999 -0.12,-0.39 -0.39,-0.72 -0.1,-0.12 -0.23,-0.21 -0.13,-0.09 -0.26,-0.17 -0.12,-0.09 -0.24,-0.19 -0.11,-0.1 -0.19,-0.25 0.15,-0.23 0.37,-0.36 0.23,-0.13 0.41,-0.27 0.18,-0.15 0.26,-0.36 0.09,-0.22 -0.04,-0.62 -0.08,-0.05 -0.15,-0.16 -0.07,-0.12 -0.13,-0.25 -0.06,-0.13 -0.12,-0.26 -0.05,-0.14 -0.09,-0.23 -0.17,-0.11 -0.33,-0.21 -0.16,-0.11 -0.31,-0.24 l -0.51,-0.1 -0.03,-0.09 -0.89,0 -0.03,0.11 -0.1,0 -0.03,-0.11 -1.32,0 -0.12,-0.08 q -0.26,0 -0.45,0.02 -0.18,0.02 -0.41,0.07 -0.13,0.13 -0.2,0.26 l 0.04,0.17 q 0.03,-0.02 0.12,0.03 0.09,0.05 0.12,0.07 0.06,0.03 0.16,0.03 0.11,0 0.21,0.02 0.1,0.01 0.17,0.06 0.08,0.05 0.08,0.18 l 0,2.85 q 0,0.18 0,0.42 0,0.24 0.01,0.48 0.01,0.24 0.04,0.4699999 0.04,0.23 0.1,0.4 l -0.08,0.05 q 0,0.2 0,0.43 0.01,0.22 0,0.46 0,0.23 -0.03,0.45 -0.03,0.22 -0.09,0.41 l -0.16,0.05 -0.04,0.08 -0.35,0.02 0,0.25 0.2,0.27 0.62,0 0.08,-0.08 0.41,0 0.07,0.08 q 0.06,0 0.22,0 0.17,0.01 0.38,0.01 0.22,0.01 0.46,0.01 0.24,0 0.44,-0.01 0.2,-0.01 0.34,-0.03 0.14,-0.02 0.16,-0.06 0.25,0.05 0.41,0.05 0.17,-0.01 0.43,-0.05 0.06,-0.12 0.15,-0.22 0.1,-0.11 0.19,-0.2 0.1,-0.1 0.19,-0.2 0.1,-0.1 0.17,-0.22 z m -0.77,-5.5299999 q 0.01,0.16 -0.02,0.37 -0.03,0.21 -0.09,0.42 -0.06,0.21 -0.15,0.41 -0.09,0.19 -0.2,0.31 l -0.21,0 q -0.01,-0.11 -0.1,-0.11 -0.08,0 -0.11,0.1 -0.27,0.04 -0.41,0.08 -0.13,0.03 -0.26,0.06 -0.12,0.02 -0.3,0.04 -0.17,0.01 -0.53,0 -0.1,-0.12 -0.2,-0.18 l -0.04,-1.98 q -0.01,-0.21 0.12,-0.35 0.13,-0.14 0.27,-0.27 l 0.79,0 q 0.13,0 0.25,0.04 0.13,0.04 0.27,0.04 l 0.07,0.11 0.06,-0.02 q 0.09,0.03 0.22,0.15 0.13,0.12 0.25,0.27 0.13,0.15 0.22,0.3 0.1,0.14 0.1,0.21 z m 0.48,3.7399999 -0.06,0.12 q 0.02,0.15 -0.02,0.32 -0.04,0.16 -0.11,0.32 -0.07,0.15 -0.16,0.31 -0.08,0.15 -0.15,0.28 -0.04,0.01 -0.13,0.09 -0.08,0.08 -0.19,0.18 -0.1,0.09 -0.21,0.17 -0.1,0.08 -0.16,0.09 -0.07,0.01 -0.12,0.03 -0.05,0.02 -0.08,0.09 l -0.92,0 -0.1,0.08 -0.06,-0.03 -0.02,-0.04 -0.33,-0.03 q -0.02,-0.07 -0.08,-0.11 -0.06,-0.05 -0.12,-0.07 l -0.04,-3.0399999 q 0,-0.12 0.09,-0.24 0.1,-0.13 0.19,-0.21 0.14,-0.01 0.27,-0.02 0.14,-0.02 0.28,-0.05 0.02,0 0.05,-0.01 0.03,-0.01 0.05,-0.01 0.1,0.02 0.21,0.06 0.11,0.03 0.22,0.03 l 0.05,0.09 q 0.24,0.02 0.4,0.05 0.16,0.03 0.41,0.12 0.04,0.11 0.15,0.14 0.12,0.03 0.22,0.05 0.12,0.15 0.18,0.3 0.06,0.15 0.1,0.31 0.04,0.15 0.08,0.3099999 0.04,0.16 0.11,0.32 z"/>
    <path id="path29" style="" d="m 32.024297,12.730304 0,-0.39 -0.5,-0.08 q -0.08,-0.11 -0.1,-0.36 -0.02,-0.26 -0.02,-0.59 0.01,-0.33 0.03,-0.71 0.03,-0.38 0.03,-0.7399999 0.01,-0.36 -0.01,-0.66 -0.01,-0.31 -0.07,-0.49 l -0.4,-0.34 q -0.29,-0.04 -0.53,-0.06 -0.24,-0.03 -0.56,-0.01 -0.08,0.01 -0.15,0.05 -0.06,0.03 -0.15,0.02 -0.08,0.08 -0.18,0.11 -0.09,0.02 -0.19,0.07 l 0.01,0.02 -0.08,0.07 -0.12,0 -0.1,0.11 -0.23,0.02 q -0.12,0.14 -0.18,0.21 -0.06,0.07 -0.08,0.15 -0.02,0.07 -0.01,0.18 0.01,0.1 0.04,0.29 l -0.04,0.04 0.61,0 q 0.05,-0.09 0.13,-0.1 0.09,-0.02 0.18,-0.06 -0.02,-0.12 0,-0.2 0.02,-0.08 0.07,-0.14 0.05,-0.07 0.12,-0.13 0.07,-0.07 0.13,-0.15 0.11,0.01 0.15,-0.04 0.04,-0.05 0.12,-0.06 0.08,0.01 0.15,0.08 l 0.36,0.09 q 0.06,0.11 0.13,0.2 0.08,0.09 0.18,0.15 0.03,0.22 0.01,0.32 -0.01,0.1 -0.07,0.18 -0.05,0.07 -0.14,0.16 -0.09,0.08 -0.21,0.2599999 l -0.3,0.02 q 0,0.08 -0.14,0.2 -0.14,0.11 -0.33,0.24 -0.18,0.12 -0.36,0.24 -0.18,0.12 -0.26,0.19 -0.17,0.16 -0.26,0.31 -0.08,0.15 -0.12,0.31 -0.03,0.16 -0.03,0.35 0,0.19 0,0.43 0.05,0.06 0.14,0.16 0.1,0.09 0.2,0.18 0.11,0.09 0.21,0.16 0.1,0.07 0.17,0.07 0.42,0 0.58,-0.02 0.17,-0.02 0.26,-0.07 0.09,-0.05 0.19,-0.14 0.1,-0.09 0.39,-0.23 0.08,0.06 0.15,0.12 0.07,0.05 0.07,0.16 l 0.11,0.11 0.44,0 q 0.08,-0.12 0.2,-0.14 0.13,-0.02 0.23,-0.11 l 0.13,-0.01 z m -1.12,-1.17 q 0,0.16 -0.04,0.32 -0.04,0.15 -0.11,0.3 -0.05,0.03 -0.16,0.11 -0.11,0.07 -0.12,0.14 l -0.46,0 -0.01,-0.07 q -0.06,-0.04 -0.11,-0.04 -0.05,-0.06 -0.1,-0.1 -0.05,-0.04 -0.13,-0.02 -0.1,-0.24 -0.11,-0.44 -0.01,-0.2 0.13,-0.43 0.01,-0.01 0.03,-0.06 0.03,-0.05 0.06,-0.1 0.03,-0.05 0.05,-0.09 0.03,-0.05 0.04,-0.06 0.1,-0.09 0.22,-0.17 0.12,-0.09 0.23,-0.17 l 0.52,0 q -0.02,0.05 -0.05,0.08 0.02,0.02 0.03,0.11 0.01,0.09 0.02,0.2 0.01,0.1 0.01,0.2 0,0.09 0,0.12 0,0.05 0.03,0.09 0.03,0.03 0.03,0.08 z"/>
    <path id="path31" style="" d="m 36.384922,12.060304 0,-0.24 -0.23,0 q -0.06,0.04 -0.13,0.08 -0.07,0.03 -0.11,0.1 l -0.51,0 -0.38,0.31 -0.74,0 q -0.14,-0.13 -0.32,-0.3 -0.17,-0.18 -0.25,-0.35 -0.08,-0.17 -0.11,-0.44 -0.02,-0.28 0,-0.59 0.03,-0.32 0.1,-0.6399999 0.08,-0.33 0.2,-0.6 0.13,-0.27 0.31,-0.45 0.18,-0.18 0.4,-0.2 l 0.04,-0.08 0.57,0 q 0.03,0.08 0.11,0.12 0.09,0.04 0.17,0.06 0.12,0.16 0.18,0.3 0.06,0.14 0.13,0.23 0.07,0.09 0.19,0.11 0.12,0.02 0.38,-0.07 l 0,-0.4 q -0.15,-0.1 -0.27,-0.27 -0.11,-0.17 -0.23,-0.31 -0.09,-0.03 -0.18,-0.06 -0.08,-0.04 -0.15,-0.12 l -1.43,0 q -0.1,0.11 -0.25,0.19 -0.14,0.07 -0.29,0.15 -0.15,0.08 -0.29,0.18 -0.14,0.1 -0.23,0.25 -0.11,0.19 -0.2,0.43 -0.08,0.23 -0.22,0.4 -0.02,0.3199999 -0.05,0.6799999 -0.02,0.36 0.06,0.67 0.04,0.15 0.12,0.29 0.09,0.13 0.17,0.26 0.1,0.15 0.16,0.34 0.07,0.19 0.16,0.37 0.09,0.17 0.24,0.29 0.15,0.12 0.42,0.14 l 0.03,0.1 q 0.19,0 0.35,0.01 0.16,0 0.3,0.01 0.15,0 0.3,0 0.15,-0.01 0.33,-0.03 0.04,-0.07 0.09,-0.11 0.06,-0.05 0.14,-0.06 0.09,-0.08 0.19,-0.15 0.11,-0.08 0.23,-0.1 0.09,-0.12 0.21,-0.17 0.04,-0.11 0.1,-0.2 0.07,-0.09 0.19,-0.13 z"/>
    <path id="path33" style="" d="m 41.249062,12.740304 q -0.05,-0.15 -0.119999,-0.25 -0.120001,-0.02 -0.25,-0.04 -0.120001,-0.02 -0.24,-0.07 -0.320001,-0.51 -0.570001,-1.02 -0.24,-0.51 -0.469999,-1.06 0.06,-0.21 0.159999,-0.4199999 0.1,-0.21 0.22,-0.41 0.120001,-0.2 0.24,-0.39 0.130001,-0.2 0.23,-0.37 l 0.52,0 q 0.05,-0.08 0.08,-0.16 0.04,-0.09 0.06,-0.18 -0.05,-0.13 -0.11,-0.2 -0.06,-0.08 -0.14,-0.12 -0.07,-0.05 -0.16,-0.08 -0.09,-0.03 -0.19,-0.08 l -0.519999,0.15 -0.04,0.09 q -0.169999,0 -0.309999,-0.01 -0.130001,-0.01 -0.25,0.01 -0.120001,0.02 -0.230001,0.08 -0.1,0.06 -0.21,0.19 0.07,0.19 0.180001,0.3 0.269999,0.07 0.349999,0.21 0.09,0.14 0.04,0.33 -0.04,0.18 -0.18,0.39 -0.14,0.2 -0.309999,0.3899999 -0.160001,0.18 -0.330001,0.34 -0.16,0.15 -0.25,0.23 l -0.13,0 q -0.109999,-0.18 -0.149999,-0.59 -0.04,-0.4099999 -0.04,-0.8799999 0,-0.47 0.02,-0.9 0.03,-0.44 0.05,-0.67 l 0.06,-0.08 q -0.05,-0.05 -0.08,-0.22 -0.02,-0.18 -0.04,-0.41 -0.02,-0.24 -0.03,-0.5 -0.01,-0.27 -0.02,-0.51 0,-0.25 -0.01,-0.43 -0.01,-0.19 -0.03,-0.27 -0.199999,-0.05 -0.379999,-0.07 -0.18,-0.02 -0.39,0 -0.170001,0.14 -0.36,0.21 -0.190001,0.07 -0.36,0.21 l -0.05,0.15 0.09,0.24 q 0.43,0.03 0.589999,0.09 0.160001,0.05 0.18,0.15 0.03,0.09 -0.03,0.24 -0.05,0.14 -0.05,0.35 0.07,0.08 0.06,0.21 -0.01,0.12 -0.04,0.27 -0.03,0.15 -0.06,0.3 -0.02,0.15 0.01,0.26 -0.06,0.2 -0.07,0.47 0,0.26 0.03,0.54 0.04,0.27 0.1,0.52 0.07,0.25 0.15,0.41 -0.02,0.19 -0.05,0.31 -0.02,0.1199999 -0.03,0.2299999 -0.01,0.1 -0.01,0.22 0.01,0.12 0.04,0.3 0.01,-0.02 0.03,0 0.02,0.01 0.02,0.03 l 0,0.55 q 0,0.02 -0.03,0.01 -0.02,-0.02 -0.04,0.02 0,0.28 0.02,0.48 0.03,0.2 0,0.34 -0.02,0.13 -0.130001,0.21 -0.11,0.08 -0.39,0.11 -0.08,0.09 -0.11,0.21 0.03,0.1 0.07,0.2 0.04,0.1 0.14,0.16 l 1.060001,0 q 0.02,-0.02 0.02,-0.04 0.01,-0.02 0.04,-0.03 l 0.440001,0 q 0.06,-0.04 0.11,-0.1 0.05,-0.07 0.07,-0.15 -0.08,-0.15 -0.220001,-0.23 -0.129999,-0.08 -0.22,-0.22 0,-0.09 0,-0.22 0.01,-0.13 -0.01,-0.27 -0.01,-0.14 -0.04,-0.26 -0.03,-0.13 -0.09,-0.21 l 0.04,-0.13 q 0.220001,-0.15 0.42,-0.23 0.2,-0.08 0.46,0.06 0.03,0.1 0.04,0.16 0.02,0.05 0.04,0.09 0.02,0.04 0.05,0.09 0.03,0.05 0.1,0.13 l 0.03,0.23 q 0.2,0.21 0.23,0.33 0.03,0.12 -0.03,0.21 -0.06,0.09 -0.17,0.18 -0.11,0.09 -0.18,0.23 0.06,0.09 0.14,0.17 0.09,0.08 0.18,0.14 l 1.520001,0 q 0.07,-0.04 0.129999,-0.1 0.07,-0.07 0.09,-0.15 z"/>
    <path id="path35" style="" d="m 48.038672,5.5103041 0,-0.25 q -0.02,-0.01 -0.04,-0.01 -0.02,0 -0.04,0 l -0.11,-0.11 q -0.08,-0.02 -0.2,0.02 -0.11,0.04 -0.17,0.09 -0.05,-0.07 -0.24,-0.09 -0.18,-0.03 -0.41,-0.03 -0.22,-0.01 -0.43,0 -0.2,0.01 -0.28,0.01 l -0.12,-0.08 q -0.14,0 -0.36,-0.01 -0.22,-0.02 -0.41,0.02 -0.18,0.04 -0.27,0.15 -0.09,0.11 0.05,0.36 0.09,0.06 0.18,0.09 0.1,0.02 0.19,0.03 0.09,0.01 0.18,0.03 0.1,0.01 0.2,0.06 0.05,0.13 0.19,0.22 l 0,2.53 q 0.01,-0.02 0.04,-0.02 0.03,-0.01 0.03,0.03 l 0,2.0199999 q 0.02,-0.02 0.05,-0.02 0.03,-0.01 0.03,0.03 0,0.21 0.02,0.47 0.03,0.26 0.03,0.52 0,0.26 -0.05,0.51 -0.04,0.24 -0.18,0.43 -0.14,0.01 -0.27,0.04 -0.13,0.02 -0.26,0.06 -0.06,0.08 -0.1,0.22 0.02,0.04 0.03,0.08 0.02,0.04 0.05,0.07 0.24,0.02 0.44,0.02 0.21,0 0.41,0 0.2,-0.01 0.41,-0.01 0.21,-0.01 0.46,-0.01 l 0.08,0.08 0.49,0 0.12,-0.08 0,-0.18 q -0.14,-0.14 -0.27,-0.25 -0.13,-0.12 -0.3,-0.24 l 0,-0.78 -0.08,-0.07 0,-0.69 -0.12,-0.11 0,-0.9799999 0.08,-0.05 0.03,-0.05 -0.11,-0.03 0,-0.78 0.12,-0.17 q -0.11,-0.27 -0.12,-0.49 0,-0.23 0,-0.53 l 0.12,-0.13 -0.12,-0.27 0.11,-0.2 -0.11,-0.08 q 0.04,-0.06 0.05,-0.09 0.02,-0.03 0.02,-0.05 0,-0.02 -0.02,-0.05 -0.02,-0.03 -0.05,-0.1 l 0.1,-0.12 q 0.02,-0.13 0.03,-0.25 0.02,-0.13 0.06,-0.26 0.19,-0.08 0.38,-0.08 0.08,-0.11 0.21,-0.21 0.14,-0.1 0.25,-0.18 z"/>
    <path id="path37" style="" d="m 53.020078,12.710304 -0.27,-0.22 -0.03,-0.37 q 0,0.02 -0.03,0.01 -0.02,-0.02 -0.02,-0.05 l 0,-0.67 -0.07,-0.12 q 0.08,-0.23 0.09,-0.53 0.02,-0.31 0,-0.64 -0.02,-0.3299999 -0.05,-0.6499999 -0.03,-0.32 -0.04,-0.57 -0.17,-0.14 -0.31,-0.29 -0.14,-0.15 -0.36,-0.21 l -0.05,-0.08 q -0.17,-0.05 -0.24,-0.07 -0.07,-0.02 -0.12,-0.01 -0.05,0 -0.13,0.03 -0.07,0.02 -0.24,0.05 -0.05,0.08 -0.13,0.12 -0.08,0.04 -0.18,0.05 -0.11,0.09 -0.24,0.15 -0.12,0.05 -0.25,0.1 l 0.02,0.05 q -0.04,0.05 -0.11,0.05 -0.06,0 -0.13,-0.02 -0.07,-0.02 -0.13,-0.05 -0.06,-0.04 -0.09,-0.07 l 0,-0.46 -0.4,0 -0.11,0.16 q -0.17,0.08 -0.33,0.17 -0.16,0.08 -0.33,0.16 l 0,0.27 q 0.14,0.06 0.22,0.1 0.08,0.04 0.12,0.09 0.05,0.05 0.06,0.14 0.02,0.08 0.02,0.24 0.03,-0.01 0.05,0.03 0.03,0.04 0,0.06 -0.04,0.03 -0.06,0.17 -0.01,0.14 -0.01,0.3199999 0,0.17 0.01,0.34 0.01,0.16 0.01,0.25 l 0.1,0.03 0,0.47 -0.1,0.03 0,0.98 q -0.15,0.09 -0.25,0.13 -0.1,0.04 -0.16,0.1 -0.05,0.05 -0.06,0.15 -0.01,0.1 0.02,0.29 0.12,0.11 0.28,0.1 0.17,-0.01 0.31,-0.01 l 0.03,0.1 0.93,0 q 0.04,-0.08 0.08,-0.14 0.04,-0.07 0.07,-0.15 -0.04,-0.17 -0.16,-0.21 -0.12,-0.05 -0.26,-0.12 l 0,-0.64 q 0.04,-0.01 0.06,-0.05 0.02,-0.04 0.04,-0.07 0,-0.62 0,-1.2 0,-0.5899999 0.08,-1.1899999 0.02,-0.02 0.07,-0.07 0.06,-0.05 0.12,-0.1 0.06,-0.06 0.11,-0.1 0.05,-0.05 0.07,-0.06 0.06,-0.02 0.11,-0.04 0.06,-0.03 0.1,-0.08 l 0.64,0 q 0.15,0.18 0.24,0.25 0.1,0.06 0.15,0.09 0.05,0.02 0.06,0.06 0.02,0.03 0.02,0.15 0,0.12 -0.01,0.37 -0.01,0.2399999 -0.01,0.6899999 0.08,-0.03 0.1,0.08 0.02,0.11 0.01,0.27 -0.01,0.16 -0.03,0.32 -0.02,0.16 -0.02,0.22 -0.03,0.05 -0.05,0.07 -0.01,0.01 -0.01,0.03 0,0.01 0.01,0.03 0.02,0.02 0.05,0.07 l 0,0.91 q -0.09,0.08 -0.2,0.09 -0.1,0 -0.21,0.01 -0.04,0.13 -0.14,0.17 l 0,0.16 q 0.06,0.07 0.15,0.09 0.1,0.02 0.17,0.09 l 1.04,0 0.06,0.07 0.14,0 0.01,-0.32 0.1,-0.15 z"/>
    <path id="path39" style="" d="m 54.668281,7.0303041 q 0,-0.18 -0.2,-0.29 -0.2,-0.12 -0.44,-0.14 -0.24,-0.02 -0.44,0.06 -0.2,0.07 -0.2,0.26 0,0.31 0.2,0.46 0.2,0.15 0.44,0.15 0.24,0 0.44,-0.13 0.2,-0.13 0.2,-0.37 z m -0.07,3.6499999 q 0,-0.04 0.02,-0.23 0.02,-0.19 0.03,-0.45 0.02,-0.2599999 0.02,-0.5499999 0,-0.3 -0.04,-0.54 -0.03,-0.25 -0.11,-0.41 -0.07,-0.17 -0.2,-0.17 -0.06,0 -0.24,0.04 -0.17,0.04 -0.35,0.11 -0.18,0.06 -0.32,0.14 -0.13,0.07 -0.12,0.13 0.01,0.12 0.08,0.22 0.07,0.09 0.15,0.18 0.08,0.08 0.14,0.16 0.06,0.08 0.05,0.17 -0.02,0.09 -0.03,0.19 0,0.09 -0.01,0.18 -0.02,0.11 -0.03,0.1899999 0,0.08 0.01,0.16 -0.01,0.3 0,0.52 0.01,0.21 0.02,0.41 0.02,0.2 0.03,0.42 0.02,0.22 0.02,0.52 -0.01,0.26 -0.01,0.46 0.01,0.2 0.03,0.35 -0.1,0.27 -0.28,0.49 -0.18,0.22 -0.36,0.39 -0.17,0.17 -0.3,0.3 -0.13,0.13 -0.13,0.22 0,0.23 0.21,0.23 0.2,0 0.31,-0.07 0.12,-0.07 0.19,-0.18 0.08,-0.1 0.14,-0.23 0.07,-0.13 0.18,-0.25 0.04,-0.05 0.07,-0.08 0.03,-0.03 0.07,-0.08 0.17,-0.22 0.3,-0.47 0.14,-0.25 0.23,-0.49 0.1,-0.25 0.15,-0.46 0.05,-0.21 0.05,-0.34 0,-0.21 -0.01,-0.34 0,-0.14 -0.01,-0.25 0,-0.12 0.01,-0.25 0.01,-0.13 0.04,-0.34 z"/>
    <path id="path41" style="" d="m 60.039687,12.610304 q -0.03,-0.1 -0.09,-0.18 -0.05,-0.09 -0.1,-0.18 -0.140001,0 -0.240001,-0.07 -0.05,-0.16 0,-0.27 0.05,-0.12 0.05,-0.26 0,-0.07 -0.04,-0.14 -0.03,-0.07 -0.03,-0.14 -0.01,-0.45 0.04,-0.92 0.06,-0.4799999 0.169999,-0.8999999 -0.05,-0.17 -0.05,-0.25 0,-0.09 0.01,-0.15 0.02,-0.06 0.04,-0.12 0.03,-0.07 0.03,-0.21 -0.01,-0.11 -0.05,-0.22 -0.04,-0.11 -0.06,-0.22 -0.04,-0.02 -0.11,-0.01 -0.06,0.01 -0.119999,0.01 -0.06,0 -0.120001,-0.01 -0.05,-0.02 -0.07,-0.1 -0.06,0 -0.21,0.01 -0.14,0.01 -0.29,0.01 -0.15,0 -0.279999,-0.02 -0.130001,-0.02 -0.160001,-0.07 -0.11,0.05 -0.229999,0.09 -0.11,0.04 -0.190001,0.1 -0.08,0.05 -0.11,0.15 -0.03,0.09 0.02,0.24 l 0.479999,0.08 q 0.02,0.03 0.07,0.08 0.06,0.04 0.120001,0.1 0.06,0.05 0.1,0.1 0.05,0.04 0.05,0.07 l 0,2.0299999 q 0,0.06 -0.05,0.24 -0.04,0.18 -0.11,0.37 -0.07,0.18 -0.15,0.33 -0.07,0.14 -0.13,0.14 l -0.79,0 -0.25,-0.2 -0.09,-0.27 -0.09,-0.04 0,-2.5199999 q 0.04,-0.06 0.06,-0.14 0.03,-0.08 0.05,-0.15 0.03,-0.08 0.06,-0.14 0.04,-0.06 0.11,-0.08 l 0,-0.41 q -0.08,-0.01 -0.15,-0.1 l -0.66,0 -0.11,-0.07 -0.66,0 0,0.33 q 0.140001,0.08 0.280001,0.16 0.149999,0.07 0.309999,0.12 0,0.22 -0.01,0.4 0,0.17 -0.05,0.37 -0.02,-0.02 -0.04,0 -0.01,0.02 -0.01,0.04 l 0,1.7899999 q 0.09,0.11 0.09,0.23 0.01,0.12 -0.02,0.24 -0.02,0.11 -0.05,0.22 -0.03,0.11 0,0.2 0.08,0.11 0.18,0.23 0.11,0.12 0.16,0.25 0.1,0.04 0.18,0.1 0.09,0.05 0.2,0.1 l 0.03,0.09 0.47,0 0.11,-0.11 q 0.19,0.01 0.3,-0.05 0.110001,-0.07 0.2,-0.13 0.1,-0.07 0.22,-0.11 0.120001,-0.04 0.340001,0.02 -0.01,0.18 0.07,0.38 l 0.289999,0.07 q 0.08,-0.03 0.16,-0.05 0.09,-0.01 0.18,-0.03 l 0.04,-0.08 q 0.24,-0.02 0.400001,-0.08 0.159999,-0.06 0.299999,-0.29 z"/>
    <path id="path43" style="" d="m 63.913828,8.4803041 q -0.17,-0.07 -0.23,-0.1 -0.05,-0.04 -0.1,-0.05 -0.04,-0.02 -0.13,-0.02 -0.08,-0.01 -0.3,-0.01 -0.13,0.13 -0.21,0.18 -0.08,0.05 -0.26,0.07 l -0.25,0.22 -0.14,0.01 -0.02,0.1 -0.03,-0.52 0.04,-0.05 -0.27,0 -0.07,0.06 -0.51,0 q -0.08,0.09 -0.2,0.22 -0.12,0.12 -0.19,0.24 -0.06,0.12 -0.01,0.23 0.05,0.1 0.32,0.16 0.11,0.23 0.13,0.32 0.03,0.09 0.02,0.15 -0.01,0.05 -0.04,0.11 -0.03,0.06 -0.03,0.2299999 l 0,0.79 q 0,0.03 0.03,0.08 0.04,0.04 0.06,0.06 0.03,0.04 0.04,0.28 0.01,0.24 0,0.52 -0.01,0.27 -0.04,0.51 -0.03,0.24 -0.07,0.28 -0.06,0.06 -0.15,0.07 -0.08,0 -0.15,0.01 -0.07,0.01 -0.12,0.06 -0.05,0.04 -0.05,0.17 0.03,0.05 0.06,0.1 0.04,0.05 0.08,0.1 0.1,0 0.36,0.01 0.26,0.01 0.54,0.01 0.29,0 0.53,-0.02 0.25,-0.02 0.33,-0.08 0.06,0.03 0.11,0.08 l 0,-0.23 -0.15,-0.17 q -0.05,-0.01 -0.13,-0.02 -0.08,-0.02 -0.16,-0.05 -0.07,-0.03 -0.12,-0.08 -0.05,-0.05 -0.05,-0.12 l 0,-2.8399999 q 0,-0.11 0.13,-0.23 0.13,-0.13 0.21,-0.2 l 0.69,0 q 0.01,0.01 0.04,0.08 0.04,0.07 0.11,0.14 0.08,0.07 0.15,0.05 0.08,-0.02 0.13,-0.11 0.05,-0.09 0.05,-0.09 0.04,-0.13 0.06,-0.21 0.03,-0.08 0.03,-0.14 0.01,-0.07 -0.01,-0.14 -0.02,-0.08 -0.06,-0.22 z"/>
    <path id="path45" style="" d="m 69.357109,8.4703041 q -0.12,-0.07 -0.26,-0.19 l -0.53,0 q -0.02,0.02 -0.04,0.04 -0.01,0.02 -0.03,0.04 l -0.67,0 -0.09,-0.08 q -0.08,0.04 -0.15,0.11 -0.06,0.06 -0.11,0.13 0.22,0.18 0.45,0.33 0.15,0.1 0.17,0.33 0.02,0.22 -0.05,0.51 -0.06,0.28 -0.19,0.5999999 -0.12,0.32 -0.26,0.61 -0.13,0.28 -0.26,0.51 -0.12,0.23 -0.18,0.34 -0.04,-0.07 -0.09,-0.25 -0.05,-0.18 -0.1,-0.37 -0.04,-0.2 -0.08,-0.37 -0.03,-0.17 -0.04,-0.22 -0.02,-0.01 -0.11,-0.18 -0.08,-0.18 -0.19,-0.3999999 -0.1,-0.22 -0.19,-0.42 -0.09,-0.2 -0.11,-0.26 0.05,-0.16 0.17,-0.25 0.12,-0.09 0.26,-0.14 0.06,-0.21 0,-0.42 l -0.08,-0.01 -0.1,-0.1 -1.31,0 -0.1,-0.08 -0.24,0.08 -0.05,0.19 0.05,0.15 q 0.16,0.11 0.27,0.26 0.11,0.15 0.13,0.35 l 0.08,0.05 q 0.04,0.2 0.16,0.59 0.12,0.3799999 0.28,0.7899999 0.16,0.4 0.33,0.75 0.18,0.35 0.33,0.48 l 0.12,0.57 q 0.17,0.13 0.19,0.37 0.02,0.23 -0.05,0.52 -0.07,0.29 -0.21,0.61 -0.13,0.32 -0.26,0.62 -0.13,0.3 -0.23,0.56 -0.1,0.26 -0.1,0.42 -0.05,0.04 -0.1,0.08 -0.04,0.04 -0.1,0.06 -0.15,-0.07 -0.21,-0.14 -0.06,-0.07 -0.08,-0.13 -0.02,-0.06 -0.03,-0.11 -0.01,-0.05 -0.06,-0.09 -0.05,-0.03 -0.18,-0.05 -0.12,-0.02 -0.36,-0.02 -0.06,0.13 -0.12,0.25 -0.06,0.13 -0.1,0.27 0.14,0.25 0.3,0.33 0.17,0.09 0.41,0.19 l 0.05,-0.07 0.83,0 0.03,-0.1 q 0.15,-0.01 0.33,-0.28 0.18,-0.26 0.38,-0.69 0.2,-0.43 0.4,-0.98 0.21,-0.55 0.4,-1.14 0.2,-0.59 0.37,-1.17 0.18,-0.58 0.32,-1.07 0.14,-0.5 0.23,-0.8599999 0.09,-0.36 0.12,-0.5 0.09,-0.09 0.21,-0.19 0.13,-0.11 0.23,-0.22 0.11,-0.12 0.17,-0.25 0.07,-0.14 0.03,-0.29 z"/>
  </g>
  <g id="text4146" style="fill:#000000;fill-opacity:1;stroke:none;stroke-width:1px;stroke-linecap:butt;stroke-linejoin:miter;stroke-opacity:1">
    <path id="path48" style="" d="m 37.880285,83.813275 c -0.3825,-0.0675 -0.3825,-0.195 -0.1875,-0.8025 l 0.8775,-2.79 c 0.2175,-0.6975 0.2775,-0.75 0.6,-0.8025 l 0.2175,-0.0375 c 0.0975,-0.03 0.1125,-0.2175 0.0375,-0.2625 -0.375,0.015 -0.7125,0.0225 -1.0575,0.0225 -0.36,0 -0.735,-0.0075 -1.155,-0.0225 -0.0975,0.0375 -0.105,0.2175 -0.0525,0.2625 l 0.21,0.0375 c 0.3825,0.0675 0.375,0.195 0.1875,0.8025 l -0.8775,2.79 c -0.2175,0.6975 -0.2775,0.7425 -0.6,0.8025 l -0.2025,0.0375 c -0.12,0.0225 -0.1275,0.2175 -0.0525,0.2625 0.375,-0.015 0.7125,-0.0225 1.0875,-0.0225 0.345,0 0.7275,0.0075 1.125,0.0225 0.075,-0.045 0.0975,-0.2175 0.0525,-0.2625 l -0.21,-0.0375 z"/>
    <path id="path50" style="" d="m 39.363293,82.6789 c -0.1125,0.365625 -0.225,0.6975 -0.264375,0.81 -0.09562,0.264375 -0.185625,0.3375 -0.444375,0.39375 l -0.129375,0.02813 c -0.0675,0.03937 -0.06188,0.163125 -0.01125,0.196875 0.253125,-0.01125 0.410625,-0.01688 0.646875,-0.01688 0.21375,0 0.405,0.0056 0.70875,0.01688 0.06188,-0.03938 0.05625,-0.14625 0.02813,-0.196875 l -0.16875,-0.02813 c -0.286875,-0.045 -0.28125,-0.118125 -0.23625,-0.399375 0.01687,-0.10125 0.106875,-0.43875 0.219375,-0.804375 l 0.331875,-1.096875 c 0.09,-0.30375 0.1125,-0.37125 0.140625,-0.43875 0.07875,0.1575 0.25875,0.590625 0.365625,0.838125 l 0.601875,1.366875 c 0.1575,0.354375 0.309375,0.7875 0.320625,0.7875 0.14625,0 0.309375,-0.0225 0.354375,-0.06188 0.05062,-0.185625 0.135,-0.5175 0.264375,-0.939375 l 0.410625,-1.344375 c 0.1125,-0.365625 0.230625,-0.6975 0.27,-0.81 0.10125,-0.275625 0.19125,-0.343125 0.444375,-0.39375 l 0.135,-0.02813 c 0.05062,-0.03937 0.05625,-0.163125 0.01125,-0.196875 -0.25875,0.01125 -0.410625,0.01687 -0.6525,0.01687 -0.21375,0 -0.399375,-0.0056 -0.6975,-0.01687 -0.07312,0.03937 -0.09,0.14625 -0.03937,0.196875 l 0.16875,0.0225 c 0.286875,0.03937 0.2925,0.12375 0.23625,0.405 -0.0225,0.10125 -0.1125,0.43875 -0.219375,0.804375 l -0.241875,0.81 c -0.03937,0.129375 -0.09,0.286875 -0.129375,0.34875 -0.06187,-0.118125 -0.1575,-0.315 -0.354375,-0.75375 l -0.264375,-0.585 c -0.264375,-0.590625 -0.466875,-1.035 -0.43875,-1.24875 -0.12375,0.01125 -0.309375,0.01687 -0.45,0.01687 -0.21375,0 -0.41625,-0.0056 -0.70875,-0.01687 -0.0675,0.03375 -0.09,0.163125 -0.03937,0.196875 l 0.1575,0.0225 c 0.286875,0.03937 0.275625,0.151875 0.135,0.6075 l -0.46125,1.490625 z"/>
    <path id="path52" style="" d="m 44.744484,81.188275 c 0.163125,-0.523125 0.21375,-0.556875 0.455625,-0.6075 l 0.129375,-0.02813 c 0.07312,-0.01687 0.08438,-0.1575 0.02812,-0.19125 -0.25875,0.01125 -0.50625,0.01687 -0.770625,0.01687 -0.27,0 -0.55125,-0.0056 -0.88875,-0.01687 -0.07875,0.03375 -0.07875,0.1575 -0.02813,0.19125 l 0.18,0.02813 c 0.286875,0.045 0.28125,0.151875 0.140625,0.6075 l -0.68625,2.19375 c -0.185625,0.585 -0.32625,0.995625 -0.354375,1.085625 -0.09,0.253125 -0.19125,0.45 -0.309375,0.45 -0.07313,0 -0.135,-0.07875 -0.21375,-0.1575 -0.07875,-0.08437 -0.174375,-0.1575 -0.27,-0.1575 -0.07313,0 -0.135,0.03938 -0.2025,0.12375 -0.05625,0.07313 -0.1125,0.16875 -0.1125,0.253125 0,0.185625 0.23625,0.241875 0.466875,0.241875 0.6075,0 1.029375,-0.30375 1.305,-0.759375 0.16875,-0.275625 0.298125,-0.601875 0.410625,-0.9675 l 0.72,-2.30625 z"/>
    <path id="path54" style="" d="m 47.282414,80.55265 c 0.07312,-0.0225 0.08437,-0.1575 0.02812,-0.19125 -0.264375,0.01125 -0.50625,0.01687 -0.781875,0.01687 -0.27,0 -0.545625,-0.0056 -0.815625,-0.01687 -0.08438,0.03375 -0.106875,0.1575 -0.05063,0.19125 l 0.135,0.0225 c 0.286875,0.05063 0.28125,0.1575 0.140625,0.613125 l -0.433125,1.40625 c -0.06188,0.2025 -0.106875,0.43875 -0.106875,0.59625 0,0.7425 0.545625,0.99 1.254375,0.99 0.433125,0 0.871875,-0.14625 1.130625,-0.376875 0.34875,-0.30375 0.500625,-0.72 0.646875,-1.186875 l 0.25875,-0.826875 c 0.1125,-0.365625 0.230625,-0.6975 0.275625,-0.81 0.10125,-0.275625 0.19125,-0.331875 0.444375,-0.39375 l 0.135,-0.03375 c 0.06188,-0.03938 0.06188,-0.1575 0.01125,-0.19125 -0.25875,0.01125 -0.410625,0.01687 -0.6525,0.01687 -0.21375,0 -0.405,-0.0056 -0.70875,-0.01687 -0.06188,0.03937 -0.06188,0.140625 -0.02812,0.19125 l 0.16875,0.02813 c 0.286875,0.05062 0.2925,0.12375 0.23625,0.405 -0.0225,0.10125 -0.106875,0.43875 -0.219375,0.804375 l -0.2475,0.793125 c -0.208125,0.675 -0.52875,1.29375 -1.20375,1.29375 -0.50625,0 -0.73125,-0.2925 -0.725625,-0.770625 0.0056,-0.174375 0.0675,-0.455625 0.118125,-0.61875 l 0.405,-1.299375 c 0.163125,-0.523125 0.208125,-0.5625 0.444375,-0.6075 l 0.140625,-0.02813 z"/>
    <path id="path56" style="" d="m 49.428176,83.280775 c -0.16875,0.523125 -0.208125,0.568125 -0.45,0.6075 l -0.174375,0.02813 c -0.0675,0.01125 -0.06188,0.1575 -0.0056,0.19125 0.28125,-0.01125 0.534375,-0.01688 0.804375,-0.01688 0.27,0 0.55125,0.0056 0.826875,0.01688 0.06188,-0.03375 0.07875,-0.163125 0.02813,-0.19125 l -0.14625,-0.02813 c -0.286875,-0.05625 -0.2925,-0.151875 -0.140625,-0.6075 l 0.230625,-0.703125 c 0.03938,-0.1125 0.05625,-0.129375 0.196875,-0.129375 0.16875,0 0.23625,0.05625 0.275625,0.2475 l 0.1575,0.82125 c 0.05625,0.298125 0.163125,0.43875 0.275625,0.511875 0.09,0.05625 0.241875,0.08438 0.444375,0.08438 0.241875,0 0.405,-0.0056 0.5175,-0.03375 0.05062,-0.03938 0.0675,-0.135 0.01687,-0.174375 -0.106875,-0.0225 -0.264375,-0.05625 -0.3375,-0.135 -0.135,-0.140625 -0.241875,-0.6525 -0.37125,-1.378125 -0.01125,-0.0675 -0.01125,-0.10125 0.09,-0.129375 0.433125,-0.1125 0.91125,-0.405 0.91125,-0.961875 0,-0.365625 -0.208125,-0.63 -0.466875,-0.759375 -0.27,-0.129375 -0.635625,-0.18 -1.096875,-0.18 -0.433125,0 -0.781875,0.0225 -1.11375,0.05062 -0.0675,0.02813 -0.08437,0.14625 -0.03375,0.19125 l 0.18,0.045 c 0.18,0.045 0.18,0.129375 0.05625,0.511875 l -0.675,2.120625 z m 2.32875,-2.064375 c 0,0.495 -0.405,0.984375 -0.939375,0.984375 -0.25875,0 -0.298125,-0.0225 -0.2475,-0.185625 l 0.3825,-1.209375 c 0.05063,-0.151875 0.06188,-0.185625 0.275625,-0.185625 0.410625,0 0.52875,0.30375 0.52875,0.59625 z"/>
    <path id="path58" style="" d="m 54.326408,83.88265 c -0.286875,-0.03937 -0.286875,-0.14625 -0.140625,-0.601875 l 0.129375,-0.410625 c 0.10125,-0.320625 0.174375,-0.455625 0.43875,-0.770625 0.320625,-0.39375 0.64125,-0.781875 1.02375,-1.17 0.253125,-0.264375 0.32625,-0.315 0.52875,-0.34875 l 0.140625,-0.0225 c 0.06188,-0.03375 0.0675,-0.174375 0.0056,-0.196875 -0.140625,0.01125 -0.354375,0.01687 -0.54,0.01687 -0.19125,0 -0.388125,-0.0056 -0.703125,-0.01687 -0.0675,0.02813 -0.08438,0.1575 -0.02813,0.196875 l 0.14625,0.03375 c 0.07875,0.01687 0.118125,0.045 0.118125,0.09 0,0.045 -0.225,0.36 -0.410625,0.590625 l -0.77625,0.9675 c -0.0675,-0.405 -0.129375,-0.79875 -0.185625,-1.198125 -0.02813,-0.196875 -0.03375,-0.28125 -0.03375,-0.320625 0,-0.045 0.03937,-0.09562 0.18,-0.12375 l 0.208125,-0.03938 c 0.05062,-0.02812 0.06188,-0.174375 -0.0056,-0.196875 -0.25875,0.01125 -0.4725,0.01687 -0.736875,0.01687 -0.225,0 -0.455625,-0.0056 -0.75375,-0.01687 -0.0675,0.0225 -0.08437,0.14625 -0.03937,0.196875 l 0.12375,0.01687 c 0.225,0.02813 0.253125,0.1575 0.309375,0.478125 0.07875,0.433125 0.163125,0.849375 0.230625,1.276875 0.03937,0.241875 0.045,0.405 -0.05062,0.703125 l -0.07875,0.2475 c -0.16875,0.523125 -0.208125,0.5625 -0.45,0.59625 l -0.225,0.03375 c -0.06188,0.0225 -0.0675,0.163125 -0.01125,0.196875 0.3375,-0.01125 0.590625,-0.01688 0.849375,-0.01688 0.27,0 0.556875,0.0056 0.91125,0.01688 0.05063,-0.03375 0.0675,-0.163125 0.03375,-0.196875 l -0.208125,-0.02813 z"/>
  </g>
  <g id="flowRoot4150" style="fill:#000000;fill-opacity:1;stroke:none;stroke-width:1px;stroke-linecap:butt;stroke-linejoin:miter;stroke-opacity:1" transform="matrix(0.50053315,0,0,0.5,-0.3191755,1.1632414)">
    <path id="path61" style="" d="m 10.900351,170.35893 c 0.682137,0.065 0.877033,0.50348 1.185618,1.16938 1.055688,2.25754 2.062651,4.51509 3.102097,6.77264 0.211137,0.471 0.84455,1.93272 1.120652,2.61485 0.08121,0.0325 0.162414,0.0487 0.243621,0.0487 0.08121,0 0.146172,-0.0162 0.194896,-0.0487 0.470999,-1.34803 1.445479,-3.42692 2.030168,-4.61254 0.503481,1.1369 1.445479,3.16706 1.965202,4.61254 0.06496,0.0325 0.146172,0.0487 0.227379,0.0487 0.08121,0 0.146172,-0.0162 0.194896,-0.0487 0.665895,-1.73782 1.315549,-3.32947 2.030168,-4.98609 l 1.185618,-2.74479 c 0.97448,-2.25754 1.120652,-2.74478 1.93272,-2.82599 l 0.308585,-0.0325 c 0.113689,-0.12993 0.09745,-0.34107 -0.03248,-0.38979 -0.422275,0.0325 -0.893274,0.0487 -1.510445,0.0487 -0.503481,0 -0.941997,-0.0162 -1.559168,-0.0487 -0.129931,0.065 -0.146172,0.24362 -0.01624,0.38979 l 0.470999,0.0325 c 0.341068,0.0162 0.535964,0.14617 0.535964,0.37355 0,0.1949 -0.276102,0.89328 -0.48724,1.47796 -0.113689,0.29235 -0.97448,2.45245 -1.299307,3.23203 -0.470999,1.15314 -0.958239,2.29003 -1.461721,3.42692 -0.535964,-1.23434 -1.104411,-2.45244 -1.656617,-3.70302 -0.08121,-0.1949 -0.113689,-0.32483 -0.113689,-0.38979 0,-0.065 0.06497,-0.22738 0.146172,-0.3898 0.24362,-0.56844 0.925756,-1.98144 1.266824,-2.58237 0.35731,-0.66589 0.649654,-1.39675 1.331791,-1.44548 l 0.470998,-0.0325 c 0.09745,-0.12993 0.08121,-0.34107 -0.03248,-0.38979 -0.373551,0.0325 -1.023205,0.0487 -1.559169,0.0487 -0.60093,0 -1.08817,-0.0162 -1.526686,-0.0487 -0.11369,0.0487 -0.146172,0.22737 -0.03248,0.38979 l 0.48724,0.0325 c 0.519723,0.0325 0.60093,0.21114 0.01624,1.59165 -0.35731,0.87704 -0.649654,1.49421 -0.95824,2.12762 -0.454757,-1.00696 -0.909515,-2.03017 -1.250583,-2.826 -0.308585,-0.73086 -0.292344,-0.84454 0.341068,-0.89327 l 0.422275,-0.0325 c 0.09745,-0.12993 0.08121,-0.34107 -0.03248,-0.38979 -0.37355,0.0325 -0.97448,0.0487 -1.786547,0.0487 -0.649654,0 -1.266825,-0.0162 -1.737824,-0.0487 -0.129931,0.065 -0.146172,0.25986 -0.03248,0.38979 l 0.389793,0.0325 c 0.552205,0.0487 0.795825,0.38979 1.039446,0.89327 0.617171,1.29931 1.2181,2.59862 1.786547,3.89793 0.08121,0.19489 0.129931,0.34107 0.129931,0.42227 0,0.0812 -0.113689,0.35731 -0.259861,0.6659 -0.422275,0.90951 -0.860792,1.81903 -1.250584,2.63109 -0.941998,-1.99768 -1.900237,-4.02785 -2.809752,-6.05802 -0.503482,-1.15313 -0.84455,-1.98144 -0.84455,-2.17634 0,-0.14617 0.194896,-0.24362 0.535964,-0.2761 l 0.373551,-0.0325 c 0.09745,-0.11369 0.11369,-0.34107 -0.03248,-0.38979 -0.568447,0.0325 -1.396756,0.0487 -1.851513,0.0487 -0.503482,0 -1.234343,-0.0162 -1.672859,-0.0487 -0.129931,0.065 -0.146172,0.29234 -0.04872,0.38979 l 0.389792,0.0325 z"/>
    <use x="27.595437" y="178.88564" xlink:href="#path63"/>
    <use x="39.656664" y="176.54688" xlink:href="#path65"/>
    <use x="42.57173" y="178.88564" xlink:href="#path67"/>
    <use x="54.677878" y="184.74876" xlink:href="#path69"/>
    <use x="64.611741" y="174.0782" xlink:href="#path71"/>
    <use x="71.064882" y="175.60488" xlink:href="#path73"/>
    <use x="82.234361" y="183.02718" xlink:href="#path75"/>
    <use x="94.21742" y="176.54688" xlink:href="#path65"/>
    <use x="97.132495" y="178.88564" xlink:href="#path79"/>
    <use x="105.81907" y="174.98771" xlink:href="#path81"/>
    <use x="109.78298" y="174.0782" xlink:href="#path71"/>
    <use x="115.24539" y="178.88564" xlink:href="#path79"/>
    <use x="129.24594" y="178.88564" xlink:href="#path87"/>
    <use x="137.80691" y="178.04109" xlink:href="#path89"/>
    <path id="path91" style="" d="m 148.59598,178.26846 c 0,1.70535 -0.0325,1.91648 -0.97448,2.03017 l -0.40603,0.0487 c -0.0975,0.11369 -0.065,0.35731 0.0325,0.40603 0.76335,-0.0325 1.34803,-0.0487 2.03017,-0.0487 0.64965,0 1.20186,0.0162 1.93272,0.0487 0.0975,-0.0487 0.12993,-0.32483 0.0325,-0.40603 l -0.34106,-0.0487 c -0.942,-0.12993 -0.97449,-0.32482 -0.97449,-2.03017 l 0,-2.0464 c 0,-0.34107 0.0325,-0.35731 0.76335,-0.35731 0.64965,0 0.90951,0.16241 1.15313,0.51972 0.50348,0.73086 1.16938,1.85151 1.59165,2.45244 1.15314,1.64038 1.98145,2.04641 3.36196,2.04641 0.30859,0 0.56845,-0.0325 0.71462,-0.0812 0.0812,-0.065 0.065,-0.19489 -0.0162,-0.22737 -0.43852,-0.0325 -0.84455,-0.21114 -1.12065,-0.45476 -1.10441,-0.92576 -1.9652,-2.22507 -3.26451,-4.3202 -0.0812,-0.12993 -0.16242,-0.29234 -0.0812,-0.38979 0.81207,-0.32483 2.03017,-1.16938 2.03017,-2.71231 0,-1.13689 -0.56845,-1.86775 -1.34803,-2.27378 -0.7471,-0.40604 -1.70534,-0.48724 -2.71231,-0.48724 -1.59165,0 -2.7123,0.0487 -3.62182,0.12993 -0.12993,0.065 -0.12993,0.32482 -0.0162,0.40603 l 0.51973,0.065 c 0.66589,0.0812 0.71461,0.35731 0.71461,1.90023 l 0,5.83064 z m 1.33179,-7.3086 c 0,-0.45476 0.0487,-0.51972 1.05569,-0.51972 1.80279,0 2.59862,1.2181 2.59862,2.50116 0,1.10442 -0.37355,1.67286 -0.81207,2.01393 -0.471,0.35731 -1.08817,0.42228 -1.67286,0.42228 -0.82831,0 -1.07193,-0.0325 -1.12065,-0.0812 -0.0487,-0.065 -0.0487,-0.24362 -0.0487,-0.53597 l 0,-3.80047 z"/>
    <use x="161.91083" y="176.54688" xlink:href="#path65"/>
    <use x="166.25513" y="174.0782" xlink:href="#path95"/>
    <use x="173.22699" y="174.98771" xlink:href="#path97"/>
    <use x="24.942261" y="193.47036" xlink:href="#path89"/>
    <use x="34.1072" y="189.50747" xlink:href="#path101"/>
    <use x="40.853702" y="190.41699" xlink:href="#path97"/>
    <use x="42.666895" y="194.31491" xlink:href="#path105"/>
    <use x="49.290318" y="189.50747" xlink:href="#path71"/>
    <use x="54.752738" y="194.31491" xlink:href="#path67"/>
    <use x="63.529408" y="194.1525" xlink:href="#path111"/>
    <path id="path113" style="" d="m 70.919218,200.17804 c 0.373551,0 0.763343,-0.14618 1.039446,-0.76335 0.795826,-1.7703 2.127616,-4.5963 2.66358,-5.68447 l 0.909515,-1.86775 c 0.552206,-1.15314 0.84455,-1.62414 1.380515,-1.72158 l 0.276102,-0.0487 c 0.11369,-0.0975 0.09745,-0.34107 -0.03248,-0.40603 -0.454758,0.0325 -0.828309,0.0487 -1.234342,0.0487 -0.422275,0 -0.909516,-0.0162 -1.429239,-0.0487 -0.12993,0.0487 -0.146172,0.32483 -0.03248,0.40603 l 0.503481,0.0812 c 0.292345,0.0487 0.389793,0.16241 0.389793,0.2761 0,0.17866 -0.211138,0.77959 -0.568447,1.62414 l -0.552206,1.28306 c -0.292344,0.6659 -0.552206,1.16938 -0.60093,1.20186 -0.06497,-0.0325 -0.373551,-0.89327 -0.470999,-1.15313 L 72.6408,191.91119 c -0.09745,-0.2761 -0.470998,-1.33179 -0.470998,-1.52668 0,-0.11369 0.12993,-0.16242 0.357309,-0.21114 l 0.406034,-0.0812 c 0.113689,-0.0812 0.09745,-0.35731 -0.03248,-0.40603 -0.519723,0.0325 -0.974481,0.0487 -1.412997,0.0487 -0.535964,0 -1.023204,-0.0162 -1.542927,-0.0487 -0.129931,0.0487 -0.146172,0.32483 -0.04872,0.40603 l 0.406033,0.0812 c 0.568447,0.11369 0.682137,0.50348 0.958239,1.26682 l 1.266825,3.47565 c 0.211138,0.60093 0.276103,0.79583 0.276103,1.12065 0,0.22738 -0.11369,0.56845 -0.162414,0.69838 -0.146172,0.38979 -0.470998,1.07193 -0.941997,1.80279 -0.11369,0.17866 -0.276103,0.29234 -0.535965,0.29234 l -0.308585,0 c -0.35731,0 -0.649654,0.21114 -0.649654,0.64966 0,0.40603 0.24362,0.69838 0.714619,0.69838 z"/>
    <use x="80.853082" y="189.50747" xlink:href="#path71"/>
    <use x="87.306226" y="191.03416" xlink:href="#path73"/>
    <use x="107.29475" y="194.31491" xlink:href="#path87"/>
    <use x="111.79538" y="193.47036" xlink:href="#path89"/>
    <use x="117.54964" y="200.17804" xlink:href="#path69"/>
    <use x="129.2028" y="194.31491" xlink:href="#path79"/>
    <use x="136.93647" y="189.50747" xlink:href="#path71"/>
    <use x="143.43834" y="186.63276" xlink:href="#path129"/>
    <use x="147.43523" y="186.63276" xlink:href="#path129"/>
    <path id="path133" style="" d="m 156.43445,194.1525 c 0,1.25058 -0.0162,1.52668 -0.69838,1.57541 l -0.66589,0.0487 c -0.0974,0.0974 -0.0812,0.35731 0.0325,0.40604 0.63341,-0.0325 1.36427,-0.0487 1.94896,-0.0487 0.56845,0 1.29931,0.0162 1.93272,0.0487 0.11369,-0.0487 0.12993,-0.30859 0.0325,-0.40604 l -0.68213,-0.0487 c -0.6659,-0.0487 -0.69838,-0.32483 -0.69838,-1.57541 l 0,-6.30164 c 0,-0.92576 0.0325,-1.73783 0.065,-2.03017 -0.0325,-0.0487 -0.0974,-0.0812 -0.16241,-0.0812 -0.42227,0.27611 -1.31555,0.69838 -2.67982,0.942 -0.12993,0.065 -0.11369,0.29234 0.0162,0.35731 l 0.77958,0.065 c 0.73087,0.065 0.77959,0.42227 0.77959,1.52668 l 0,5.52206 z"/>
    <use x="22.362425" y="202.06203" xlink:href="#path135"/>
    <use x="25.347025" y="209.74419" xlink:href="#path105"/>
    <use x="33.058618" y="207.40543" xlink:href="#path65"/>
    <use x="36.412201" y="211.7906" xlink:href="#path141"/>
    <path id="path143" style="" d="m 49.031723,211.82308 c 3.134579,0 5.635746,-2.38748 5.635746,-5.66823 0,-2.85848 -1.883996,-5.57078 -5.635746,-5.57078 -3.345716,0 -5.781918,2.48493 -5.781918,5.73319 0,2.92345 2.17634,5.50582 5.781918,5.50582 z m 0.211138,-0.50348 c -3.199545,0 -4.368922,-3.11834 -4.368922,-5.52206 0,-3.55685 2.192582,-4.70999 3.881681,-4.70999 3.102097,0 4.287715,2.89096 4.287715,5.57078 0,3.19955 -1.851513,4.66127 -3.800474,4.66127 z"/>
    <use x="56.909789" y="209.74419" xlink:href="#path67"/>
    <use x="69.828003" y="208.89964" xlink:href="#path89"/>
    <path id="path149" style="" d="m 79.805009,204.82306 c -0.11369,0.37355 -0.09745,0.50348 0.146172,0.50348 1.916478,0.0325 4.368921,0.61717 4.368921,2.92344 0,2.22507 -2.143857,3.76799 -4.661265,3.91417 -0.146173,0.11369 -0.129931,0.43851 0.04872,0.50348 2.582373,-0.0812 5.8144,-2.03017 5.8144,-4.83992 0,-2.46869 -2.273788,-3.36196 -4.303956,-3.55686 l -0.341068,-0.0325 c -0.227379,-0.0162 -0.292344,-0.0975 -0.227379,-0.29234 l 0.292345,-0.97448 c 0.09745,-0.30859 0.178654,-0.3898 0.552205,-0.43852 l 3.069614,-0.43852 c 0.227379,-0.24362 0.470999,-0.64965 0.584688,-1.00696 0,-0.065 -0.04872,-0.16241 -0.146172,-0.14617 l -3.914163,0.5522 c -0.259862,0.0325 -0.341068,0.17866 -0.422275,0.43852 l -0.860791,2.89096 z"/>
    <use x="94.747044" y="204.93675" xlink:href="#path71"/>
    <use x="100.20946" y="209.74419" xlink:href="#path79"/>
    <path id="path155" style="" d="m 108.72044,207.73026 c 0,2.20882 1.12065,4.06034 3.49189,4.06034 2.03016,0 3.42692,-1.49421 3.42692,-3.39444 0,-1.65662 -1.0232,-2.9072 -2.58237,-2.9072 -0.63342,0 -1.12066,0.19489 -1.59166,0.48724 -0.065,0.0974 -0.0487,0.21113 0.0487,0.25986 0.16241,-0.0487 0.42227,-0.12993 0.7471,-0.12993 1.38051,0 1.99769,1.33179 1.99769,2.7123 0,1.38051 -0.61718,2.48493 -1.83528,2.48493 -1.60789,0 -2.25754,-1.73783 -2.25754,-3.62182 0,-1.67286 0.471,-3.45941 1.85151,-4.92113 1.16938,-1.25058 2.56613,-1.72158 3.60558,-2.07889 0.0812,-0.0812 0.0487,-0.29235 -0.065,-0.34107 -0.99072,0.12993 -2.97216,0.64965 -4.66126,2.30627 -1.72158,1.6891 -2.17634,3.70303 -2.17634,5.08354 z"/>
    <use x="118.02672" y="209.58177" xlink:href="#path111"/>
    <use x="131.19845" y="202.06203" xlink:href="#path135"/>
    <use x="134.18305" y="209.74419" xlink:href="#path105"/>
    <use x="139.79951" y="204.93675" xlink:href="#path95"/>
    <use x="146.52774" y="204.93675" xlink:href="#path101"/>
    <use x="150.432" y="208.89964" xlink:href="#path89"/>
    <use x="156.67351" y="209.74419" xlink:href="#path79"/>
    <use x="167.13876" y="202.06203" xlink:href="#path135"/>
    <use x="68.054778" y="221.27554" xlink:href="#path97"/>
    <use x="69.705558" y="225.17346" xlink:href="#path63"/>
    <use x="78.242414" y="225.17346" xlink:href="#path105"/>
    <use x="83.858874" y="220.36603" xlink:href="#path95"/>
    <use x="94.647438" y="220.36603" xlink:href="#path101"/>
    <use x="98.551704" y="224.32891" xlink:href="#path89"/>
    <use x="104.7932" y="225.17346" xlink:href="#path79"/>
    <use x="115.25846" y="217.49131" xlink:href="#path135"/>
    <use x="118.68158" y="227.21987" xlink:href="#path141"/>
    <path id="path191" style="" d="m 43.169234,235.60108 q -0.584688,0.97449 -1.055687,1.75407 -0.194896,0.34107 -0.406033,0.66589 -0.194896,0.32483 -0.35731,0.58469 -0.146172,0.25986 -0.259861,0.43852 -0.11369,0.17865 -0.146172,0.21114 0.06497,-0.0162 0.389792,-0.0325 0.341068,-0.0162 0.714619,-0.0487 0.438516,-0.0325 0.990722,-0.0487 l -5.538298,3.16706 1.754065,0.81206 -5.700711,2.01393 2.241305,-1.86775 -0.828309,-0.58469 4.044095,-6.41533 -0.503482,2.40372 4.661265,-3.05338 z m -3.15082,7.64968 q 0.129931,0.89327 -0.04872,1.7703 -0.162413,0.86079 -0.60093,1.62414 -0.422275,0.76334 -1.08817,1.36427 -0.665895,0.60093 -1.542927,0.95824 -1.039446,0.43852 -2.111375,0.40603 -1.055687,-0.0162 -2.013926,-0.42227 -0.941998,-0.38979 -1.705341,-1.15314 -0.763343,-0.7471 -1.169377,-1.78654 -0.438516,-1.02321 -0.422275,-2.09514 0.03248,-1.07193 0.422275,-2.01392 0.406034,-0.95824 1.136894,-1.72159 0.747102,-0.76334 1.770307,-1.18561 1.039445,-0.40604 2.078891,-0.37356 1.055688,0.0162 2.013927,0.37356 l -1.429238,2.32251 q -0.24362,-0.61717 -0.324827,-1.20186 -0.08121,-0.60093 0,-1.07193 -0.162414,0.81207 -0.552206,1.31555 -0.389792,0.48724 -0.860791,0.61717 -0.470999,0.11369 -0.958239,-0.14617 -0.470999,-0.25986 -0.812067,-0.95824 0.341068,0.69838 0.276103,1.38051 -0.04872,0.6659 -0.406034,1.16938 -0.35731,0.50348 -0.941998,0.7471 -0.584688,0.24362 -1.283066,0.0812 0.698378,0.16241 1.153135,0.56844 0.454758,0.40604 0.617171,0.942 0.162414,0.51972 0,1.10441 -0.162413,0.58469 -0.682136,1.10441 0.568447,-0.34106 1.104411,-0.32482 0.552206,0 0.941998,0.30858 0.406034,0.29235 0.617171,0.84455 0.211138,0.55221 0.11369,1.29931 0.09745,-0.7471 0.503481,-1.20186 0.406034,-0.43852 0.958239,-0.53596 0.552206,-0.11369 1.136894,0.12993 0.60093,0.22738 1.071929,0.86079 -0.470999,-0.63341 -0.48724,-1.2181 -0.01624,-0.58469 0.308585,-0.99072 0.324827,-0.42228 0.941998,-0.60093 0.633412,-0.1949 1.44548,0 -0.519723,-0.11369 -1.039446,-0.43852 -0.503482,-0.34107 -0.974481,-0.86079 l 2.387477,-0.82831 0.454758,-0.16241 z m -0.341068,-1.20186 q 0.146172,0.35731 0.259861,0.73086 l -0.357309,-0.14617 -0.909515,-0.42228 0.860791,-0.471 q 0.03248,0.0812 0.06497,0.16242 0.04872,0.065 0.08121,0.14617 z"/>
    <path id="path193" style="" d="m 45.468653,243.16955 c 0.552206,0 0.909515,-0.37355 0.909515,-0.89327 0,-0.51973 -0.357309,-0.95824 -0.909515,-0.95824 -0.519723,0 -0.909515,0.40603 -0.909515,0.95824 0,0.5522 0.438516,0.89327 0.909515,0.89327 z m 0,4.77496 c 0.552206,0 0.909515,-0.37356 0.909515,-0.89328 0,-0.51972 -0.357309,-0.95824 -0.909515,-0.95824 -0.519723,0 -0.909515,0.40604 -0.909515,0.95824 0,0.55221 0.438516,0.89328 0.909515,0.89328 z"/>
    <path id="path195" style="" d="m 56.806379,238.05353 c 0,-0.53597 -0.01624,-0.55221 0.470999,-0.55221 l 1.153136,0 c 0.893273,0 1.510444,0.12993 1.883995,0.40604 0.24362,0.17865 0.35731,0.77958 0.406034,1.18561 0.08121,0.0974 0.357309,0.0974 0.422275,-0.0325 -0.04872,-0.48724 0.06497,-1.80279 0.24362,-2.46868 -0.03248,-0.065 -0.211138,-0.0812 -0.292344,-0.0487 -0.24362,0.42228 -0.389793,0.45476 -1.266825,0.45476 l -6.577744,0 c -0.747102,0 -1.283066,0.0162 -1.380514,-0.50348 -0.04872,-0.0487 -0.259861,-0.0325 -0.308585,0 -0.11369,0.64965 -0.35731,1.6891 -0.617171,2.41996 0.06497,0.12993 0.292344,0.21114 0.422275,0.11369 0.178654,-0.40604 0.341068,-0.76335 0.73086,-1.12065 0.406033,-0.37356 1.299307,-0.40604 1.997685,-0.40604 l 0.893274,0 c 0.48724,0 0.48724,0.0162 0.48724,0.51972 l 0,7.25988 c 0,1.70535 -0.08121,1.94897 -1.006963,2.03017 l -0.584688,0.0487 c -0.129931,0.0812 -0.09745,0.35731 0,0.40603 1.039446,-0.0325 1.607893,-0.0487 2.257546,-0.0487 0.649654,0 1.20186,0.0162 2.127616,0.0487 0.09745,-0.0487 0.129931,-0.34107 0.03248,-0.40603 l -0.519723,-0.0487 c -0.941998,-0.0812 -0.974481,-0.32482 -0.974481,-2.03017 l 0,-7.22739 z"/>
    <use x="64.732408" y="243.55934" xlink:href="#path65"/>
    <use x="69.076714" y="241.09066" xlink:href="#path95"/>
    <use x="76.048562" y="242.00017" xlink:href="#path97"/>
    <path id="path203" style="" d="m 87.314218,240.13242 q -0.341068,-0.22738 -0.665895,-0.42228 -0.308586,-0.19489 -0.60093,-0.42227 -0.568447,-0.34107 -1.023204,0.0325 -0.259862,0.25986 -0.519723,0.55221 -0.24362,0.2761 -0.406034,0.60093 -0.09745,0.22738 -0.194896,0.45476 -0.08121,0.22737 -0.194896,0.45475 -0.113689,0.21114 -0.276103,0.40604 -0.162413,0.19489 -0.422275,0.34106 0.454758,-0.34106 0.909515,-0.43851 0.454758,-0.11369 0.909516,-0.0487 0.454757,0.065 0.893273,0.27611 0.454758,0.19489 0.909516,0.45475 -0.03248,-0.12993 -0.06497,-0.19489 -0.01624,-0.065 -0.01624,-0.14617 -0.04872,-0.065 -0.08121,-0.17866 0.06497,-0.065 0.129931,-0.065 0.860791,-0.0975 1.429238,0.42227 0.146172,0.14617 0.259862,0.17866 0.12993,0.0162 0.24362,-0.0163 0.113689,-0.0325 0.227378,-0.0974 0.11369,-0.065 0.243621,-0.11369 0.194896,-0.12993 0.37355,-0.29235 0.178655,-0.17865 0.129931,-0.471 -0.03248,-0.2761 -0.08121,-0.5522 -0.03248,-0.2761 -0.129931,-0.55221 -0.03248,-0.12993 -0.129931,-0.24362 -0.08121,-0.12993 -0.211137,-0.22738 -0.11369,-0.0974 -0.194897,-0.24362 -0.06497,-0.14617 -0.09745,-0.30858 -0.01624,-0.17866 0.01624,-0.34107 0.03248,-0.16241 0.12993,-0.2761 0.04873,-0.0975 0.06497,-0.1949 0.01624,-0.0975 0.04872,-0.17865 0.06497,-0.12993 0.06497,-0.25987 0.01624,-0.14617 0.03248,-0.29234 0.129931,-0.69838 0.503482,-1.0232 0.37355,-0.34107 1.08817,-0.37355 0.698377,-0.0163 1.120652,0.29234 0.438516,0.30858 0.568447,1.00696 0.08121,0.42228 0.129931,0.84455 0.04872,0.42228 0.08121,0.84455 0.01624,0.12993 -0.06497,0.2761 -0.08121,0.12994 -0.162413,0.22738 -0.227379,0.22738 -0.308586,0.55221 -0.08121,0.30858 -0.04872,0.64965 0.03248,0.32483 0.194896,0.63342 0.162414,0.30858 0.438517,0.50348 -0.03248,0.065 -0.09745,0.16241 -0.06497,0.0975 -0.162414,0.22738 0.389792,-0.17866 0.763343,-0.35731 0.389792,-0.17866 0.779585,-0.29234 0.389792,-0.12994 0.795825,-0.17866 0.406034,-0.0487 0.84455,0 -0.03248,0.11369 -0.04872,0.21114 -0.01624,0.0974 -0.04872,0.22738 0.259862,-0.12993 0.503482,-0.27611 0.259861,-0.14617 0.519723,-0.24362 0.24362,-0.11369 0.470999,-0.11369 0.24362,-0.0162 0.470999,0.0487 0.227378,0.0487 0.454757,0.14617 0.24362,0.0812 0.470999,0.17866 0.276103,0.0974 0.568447,0.16241 0.292344,0.065 0.665895,0.14617 -0.08121,-0.11369 -0.09745,-0.16241 0,-0.0487 -0.01624,-0.0487 -0.763343,-0.0325 -1.218101,-0.40603 -0.438516,-0.37355 -0.665895,-1.08817 -0.113689,-0.32483 -0.406033,-0.60093 -0.276103,-0.29234 -0.552206,-0.53596 -0.24362,-0.22738 -0.568447,-0.24362 -0.308586,-0.0325 -0.60093,0.19489 -0.276103,0.1949 -0.552205,0.38979 -0.276103,0.1949 -0.584689,0.3898 -0.03248,0.0325 -0.113689,0.0325 -0.08121,0 -0.146172,0.0325 0,-0.19489 -0.11369,-0.32482 -0.09745,-0.14618 -0.211137,-0.29235 -0.113689,-0.14617 -0.178655,-0.30858 -0.04872,-0.17866 0.04872,-0.42228 0.162414,-0.37355 0.406034,-0.53596 0.24362,-0.16242 0.617171,-0.21114 0.211137,-0.0325 0.422275,-0.0812 0.227378,-0.0487 0.454757,-0.065 0.812067,-0.16242 1.559169,0.38979 0.682137,0.53596 1.364273,1.00696 0.698378,0.471 1.380514,0.99072 0.357305,0.27611 0.649655,0.63342 0.29234,0.34106 0.60093,0.69837 0.43851,0.42228 0,0.81207 -0.42228,0.43852 -0.90952,0.7471 -0.877029,0.51973 -1.770303,0.92576 -0.454758,0.21114 -0.941998,0.30859 -0.48724,0.0974 -1.006963,0 -0.35731,-0.0975 -0.60093,0.0325 -0.227379,0.11369 -0.324827,0.5522 -0.162413,0.61717 -0.406033,1.25059 -0.24362,0.61717 -0.470999,1.25058 -0.08121,0.24362 -0.146172,0.50348 -0.06497,0.2761 -0.162414,0.63341 -0.860791,0.0325 -1.737823,0.11369 -0.877033,0.0975 -1.770307,0.0975 -0.698377,0 -1.364273,-0.0812 -0.665895,-0.0812 -1.348031,-0.16241 -0.324827,-0.0325 -0.535964,-0.11369 -0.194896,-0.065 -0.308586,-0.21114 -0.113689,-0.14617 -0.146172,-0.38979 -0.03248,-0.22738 -0.01624,-0.58469 0.227379,0.16242 0.454757,0.32483 0.227379,0.16241 0.438517,0.32483 0.06497,-0.065 0.08121,-0.0975 -0.178654,-0.21114 -0.389792,-0.43852 -0.568447,-0.45475 -0.860791,-1.03944 -0.292344,-0.58469 -0.438516,-1.28307 -0.09745,-0.48724 -0.308586,-0.64965 -0.194896,-0.16242 -0.665895,-0.065 -0.535964,0.12993 -1.023204,0.0487 -0.487241,-0.0975 -0.95824,-0.32483 -0.470999,-0.22738 -0.97448,-0.471 -0.503482,-0.25986 -0.974481,-0.53596 -0.146172,-0.0812 -0.276103,-0.1949 -0.12993,-0.12993 -0.259861,-0.24362 -0.162413,-0.21114 -0.24362,-0.34107 -0.06497,-0.14617 -0.04872,-0.2761 0.01624,-0.12993 0.09745,-0.2761 0.08121,-0.14618 0.227379,-0.35731 0.568447,-0.82831 1.315548,-1.413 0.747102,-0.60093 1.607893,-1.07193 0.178655,-0.0812 0.341069,-0.19489 0.178654,-0.11369 0.308585,-0.25987 0.389792,-0.42227 0.84455,-0.48724 0.454757,-0.065 0.97448,0.0162 0.162414,0.0325 0.308586,0.0812 0.162413,0.0325 0.341068,0.0487 0.633412,0.16241 0.795826,0.63341 0.162413,0.471 -0.211138,1.00696 -0.09745,0.0975 -0.146172,0.1949 -0.03248,0.0974 -0.06497,0.14617 z"/>
    <use x="103.48705" y="247.94451" xlink:href="#path141"/>
    <path id="path207" style="" d="m 111.65644,245.24844 c 0,1.72158 -0.0325,1.94896 -0.99072,2.06265 l -0.40604,0.0487 c -0.0975,0.0974 -0.065,0.35731 0.0325,0.40603 0.81207,-0.0325 1.36428,-0.0487 2.04641,-0.0487 0.64966,0 1.20186,0.0162 2.01393,0.0487 0.0974,-0.0487 0.12993,-0.34107 0.0325,-0.40603 l -0.40603,-0.0487 c -0.95824,-0.11369 -0.99072,-0.34107 -0.99072,-2.06265 l 0,-5.78192 c 0,-1.72158 0.0325,-1.99768 0.99072,-2.07889 l 0.40603,-0.0325 c 0.0974,-0.065 0.065,-0.35731 -0.0325,-0.40603 -0.81207,0.0325 -1.36427,0.0487 -2.01393,0.0487 -0.68213,0 -1.23434,-0.0162 -2.04641,-0.0487 -0.0974,0.0487 -0.12993,0.34106 -0.0325,0.40603 l 0.40604,0.0325 c 0.95823,0.0812 0.99072,0.35731 0.99072,2.07889 l 0,5.78192 z"/>
    <use x="119.72889" y="242.00017" xlink:href="#path81"/>
    <use x="124.82969" y="251.76122" xlink:href="#path69"/>
    <use x="134.76356" y="241.09066" xlink:href="#path71"/>
    <use x="141.2167" y="242.61734" xlink:href="#path73"/>
    <use x="41.789482" y="257.42946" xlink:href="#path81"/>
    <use x="43.64201" y="260.48283" xlink:href="#path89"/>
    <use x="49.883507" y="261.32738" xlink:href="#path105"/>
    <use x="55.110175" y="253.64522" xlink:href="#path129"/>
    <use x="58.311242" y="261.16496" xlink:href="#path111"/>
    <path id="path227" style="" d="m 70.183662,257.42946 c 0.292344,0 0.308586,0.0487 0.308586,0.32482 l 0,3.5731 c 0,1.16937 -0.01624,1.33179 -0.617171,1.41299 l -0.373551,0.0487 c -0.113689,0.0812 -0.08121,0.35731 0.03248,0.40603 0.48724,-0.0325 0.97448,-0.0487 1.559169,-0.0487 0.568447,0 1.039445,0.0162 1.57541,0.0487 0.113689,-0.0487 0.146172,-0.32482 0.03248,-0.40603 l -0.389792,-0.0487 c -0.584688,-0.0812 -0.617171,-0.24362 -0.617171,-1.41299 l 0,-7.30861 c 0,-0.69837 0.01624,-1.70534 0.04872,-2.41996 -0.04872,-0.0487 -0.113689,-0.065 -0.194896,-0.065 l -0.422275,0.42227 c -0.470999,-0.29234 -0.990722,-0.42227 -1.510445,-0.42227 -1.737823,0 -2.679821,1.2181 -3.037131,2.09513 -0.373551,0.90952 -0.438516,1.80279 -0.438516,2.826 0,0.16241 -0.113689,0.25986 -0.24362,0.32482 l -0.698378,0.34107 c -0.06497,0.0974 -0.04872,0.24362 0.04872,0.30859 l 0.568447,0 c 0.324827,0 0.324827,0.0325 0.324827,0.47099 l 0,3.42693 c 0,1.16937 -0.01624,1.33179 -0.617171,1.41299 l -0.373551,0.0487 c -0.113689,0.0812 -0.08121,0.35731 0.03248,0.40603 0.48724,-0.0325 0.97448,-0.0487 1.559169,-0.0487 0.568447,0 1.039446,0.0162 1.689099,0.0487 0.11369,-0.0487 0.146172,-0.32482 0.03248,-0.40603 l -0.503482,-0.0487 c -0.584688,-0.0487 -0.617171,-0.24362 -0.617171,-1.41299 l 0,-3.39444 c 0,-0.50348 0.01624,-0.50348 0.308586,-0.50348 l 2.533649,0 z m 0.308586,-1.00697 c 0,0.29235 -0.06497,0.32483 -0.308586,0.32483 l -2.533649,0 c -0.276103,0 -0.308586,-0.0162 -0.308586,-0.34107 l 0,-0.50348 c 0,-1.36427 0.08121,-3.8492 1.883996,-3.8492 0.438516,0 0.812067,0.29235 0.990722,0.51972 0.194896,0.25987 0.276103,0.68214 0.276103,1.23435 l 0,2.61485 z"/>
    <use x="74.6579" y="261.32738" xlink:href="#path105"/>
    <use x="78.633984" y="265.46892" xlink:href="#path75"/>
    <use x="94.320076" y="257.42946" xlink:href="#path97"/>
    <use x="95.970855" y="261.32738" xlink:href="#path63"/>
    <use x="104.50771" y="261.32738" xlink:href="#path105"/>
    <use x="110.12417" y="256.51994" xlink:href="#path95"/>
    <use x="120.91274" y="256.51994" xlink:href="#path101"/>
    <use x="124.817" y="260.48283" xlink:href="#path89"/>
    <use x="131.0585" y="261.32738" xlink:href="#path79"/>
    <use x="141.52376" y="253.64522" xlink:href="#path135"/>
    <use x="144.94688" y="263.37379" xlink:href="#path141"/>
  </g>
  <g id="text4147" style="fill:#000000;fill-opacity:1;stroke:none;stroke-width:1px;stroke-linecap:butt;stroke-linejoin:miter;stroke-opacity:1">
    <path id="path252" style="" d="m 37.020574,16.079937 c -0.81875,0 -1.575,0.2875 -2.1,0.7625 -0.5125,0.4625 -0.89375,1.15625 -0.89375,1.88125 0,1.3125 0.9375,1.68125 1.75,1.68125 0.21875,0 0.425,-0.04375 0.60625,-0.075 0.1875,-0.03125 0.35625,-0.06875 0.49375,-0.06875 0.2125,-0.38125 0.35,-0.7125 0.40625,-0.88125 -0.01875,-0.05625 -0.0875,-0.06875 -0.15,-0.04375 -0.3,0.49375 -0.69375,0.875 -1.34375,0.875 -0.79375,0 -1.2125,-0.48125 -1.2125,-1.36875 0,-0.825 0.425,-1.55625 0.7375,-1.86875 0.575,-0.5625 1.15625,-0.7 1.6,-0.7 0.64375,0 0.8,0.29375 0.68125,0.8375 0.01875,0.05 0.14375,0.05625 0.16875,0.0062 0.05625,-0.23125 0.18125,-0.59375 0.28125,-0.8375 -0.15625,-0.0625 -0.5375,-0.2 -1.025,-0.2 z"/>
    <use x="39.267352" y="17.754937" xlink:href="#path254"/>
    <use x="41.500164" y="18.011187" xlink:href="#path256"/>
    <path id="path258" style="" d="m 45.549871,17.948687 c -0.06875,-0.13125 -0.21875,-0.19375 -0.31875,-0.19375 -0.3,0 -0.69375,0.175 -1.11875,0.55625 -0.49375,0.44375 -0.83125,1.1875 -0.83125,1.63125 0,0.25 0.13125,0.45 0.375,0.45 0.60625,0 1.075,-0.60625 1.50625,-1.18125 l 0.025,0.0063 -0.21875,0.61875 c -0.0625,0.18125 -0.08125,0.28125 -0.08125,0.35625 0,0.1 0.06875,0.2 0.2,0.2 0.325,0 0.89375,-0.5125 1.0625,-0.85625 -0.0062,-0.05625 -0.0375,-0.08125 -0.09375,-0.08125 -0.19375,0.24375 -0.5875,0.5625 -0.6875,0.5625 -0.05625,0 -0.0625,-0.0625 -0.0375,-0.14375 0.05625,-0.1875 0.35,-1.1875 0.96875,-2.89375 0.1875,-0.51875 0.28125,-0.75625 0.39375,-1.10625 l -0.025,-0.0375 c -0.26875,-0.0063 -0.61875,0.075 -0.7375,0.11875 -0.025,0.025 -0.03125,0.0625 -0.01875,0.0875 l 0.14375,0.1 c 0.0875,0.0625 0.06875,0.16875 -0.05625,0.51875 l -0.45,1.2875 z m -0.33125,-0.0062 c 0.15625,0 0.2375,0.1875 0.1625,0.45 -0.09375,0.33125 -0.275,0.70625 -0.7625,1.20625 -0.43125,0.44375 -0.75,0.55625 -0.84375,0.55625 -0.05625,0 -0.11875,-0.05625 -0.11875,-0.13125 0,-0.08125 0,-0.19375 0.19375,-0.59375 0.19375,-0.39375 0.64375,-0.9875 0.89375,-1.21875 0.1625,-0.15 0.33125,-0.26875 0.475,-0.26875 z"/>
    <use x="46.39743" y="20.167437" xlink:href="#path260"/>
    <path id="path262" style="" d="m 49.912078,18.142437 c 0.08125,-0.04375 0.11875,-0.16875 0.075,-0.23125 l -0.68125,0 0.18125,-0.6125 c -0.05,-0.0625 -0.175,-0.075 -0.2375,-0.0375 l -0.35,0.61875 -0.5,0.0875 c -0.0625,0.025 -0.08125,0.1125 -0.06875,0.175 l 0.4875,0 -0.5875,1.725 c -0.0625,0.1875 -0.0875,0.275 -0.0875,0.35625 0,0.075 0.08125,0.16875 0.16875,0.16875 0.2625,0 0.85,-0.38125 1.2,-0.9 0.0125,-0.075 -0.025,-0.1125 -0.0875,-0.1125 -0.20625,0.2375 -0.61875,0.5625 -0.7125,0.5625 -0.05,0 -0.08125,-0.0375 -0.04375,-0.15625 l 0.5625,-1.64375 0.68125,0 z"/>
    <use x="49.900848" y="20.167437" xlink:href="#path260"/>
    <use x="53.146746" y="17.754937" xlink:href="#path254"/>
    <use x="55.379559" y="18.011187" xlink:href="#path256"/>
  </g>
<defs><path id="path63" d="m 0,0 c 0,1.16937 -0.01624,1.34803 -0.617171,1.41299 l -0.406034,0.0487 c -0.113689,0.0812 -0.08121,0.35731 0.03248,0.40603 0.519723,-0.0325 1.006963,-0.0487 1.591652,-0.0487 0.568447,0 1.039445,0.0162 1.526686,0.0487 0.113689,-0.0487 0.146172,-0.34107 0.03248,-0.40603 l -0.341068,-0.0487 c -0.584688,-0.0812 -0.617171,-0.24362 -0.617171,-1.41299 l 0,-2.72855 c 0,-0.56845 0.04872,-0.64965 0.341068,-0.89327 0.292345,-0.24362 0.714619,-0.43852 1.266825,-0.43852 1.039446,0 1.542928,0.69838 1.542928,1.73782 l 0,2.32252 c 0,1.16937 -0.01624,1.31554 -0.617171,1.41299 l -0.324827,0.0487 c -0.11369,0.0812 -0.08121,0.35731 0.03248,0.40603 0.438517,-0.0325 0.925757,-0.0487 1.510445,-0.0487 0.568447,0 1.039446,0.0162 1.624135,0.0487 0.113689,-0.0487 0.146172,-0.32483 0.03248,-0.40603 l -0.438516,-0.0487 c -0.584688,-0.065 -0.617171,-0.24362 -0.617171,-1.41299 l 0,-2.71231 c 0,-1.13689 -0.552206,-2.09513 -2.095133,-2.09513 -0.828309,0 -1.607893,0.38979 -2.192581,0.84455 -0.04872,-0.0325 -0.06497,-0.16242 -0.06497,-0.30859 l 0,-3.41068 c 0,-0.71462 0.03248,-1.52669 0.04872,-2.01393 -0.03248,-0.065 -0.09745,-0.0974 -0.162413,-0.0974 -0.584689,0.30858 -1.348032,0.5522 -1.754065,0.68213 -0.08121,0.0487 -0.08121,0.27611 0,0.32483 l 0.162413,0.0974 c 0.487241,0.29234 0.503482,0.38979 0.503482,1.34803 l 0,7.34109 z"/><path id="path65" d="m 0,0 c 0.682136,0 0.909515,-0.0162 0.958239,-0.11369 0.03248,-0.065 0.06497,-0.19489 0.06497,-0.42227 0,-0.97448 -0.909515,-1.93272 -2.30627,-1.93272 -1.948961,0 -3.26451,1.67286 -3.26451,3.67054 0,0.71462 0.194896,1.47796 0.682136,2.11138 0.470999,0.61717 1.299308,1.07193 2.354995,1.07193 0.84455,0 2.013926,-0.40604 2.549891,-1.51045 -0.01624,-0.14617 -0.129931,-0.24362 -0.292345,-0.1949 -0.503481,0.63342 -0.958239,0.79583 -1.494203,0.79583 -1.737824,0 -2.696063,-1.39676 -2.696063,-3.03713 0,-0.40603 0.01624,-0.43852 0.438516,-0.43852 l 3.004649,0 z m -3.150821,-0.48724 c -0.113689,0 -0.113689,-0.0487 -0.113689,-0.0812 0.01624,-0.53597 0.84455,-1.413 1.802789,-1.413 0.941998,0 1.250583,0.56845 1.250583,1.0232 0,0.21114 -0.04872,0.27611 -0.09745,0.30859 -0.129931,0.0974 -0.48724,0.16241 -1.689099,0.16241 l -1.153136,0 z"/><path id="path67" d="m 0,0 c 0,1.16937 -0.01624,1.33179 -0.617171,1.41299 l -0.341068,0.0487 c -0.113689,0.0812 -0.08121,0.35731 0.03248,0.40603 0.454757,-0.0325 0.941998,-0.0487 1.526686,-0.0487 0.568447,0 1.039446,0.0162 1.477962,0.0487 0.113689,-0.0487 0.146172,-0.32483 0.03248,-0.40603 l -0.292344,-0.0487 c -0.584689,-0.0975 -0.617171,-0.24362 -0.617171,-1.41299 l 0,-2.48493 c 0,-0.471 0.03248,-0.69838 0.24362,-0.97448 0.227379,-0.30859 0.763343,-0.56845 1.380514,-0.56845 1.104411,0 1.526686,0.68214 1.526686,1.6079 l 0,2.41996 c 0,1.16937 -0.01624,1.31554 -0.617171,1.41299 l -0.308585,0.0487 c -0.11369,0.0812 -0.08121,0.35731 0.03248,0.40603 0.438516,-0.0325 0.925757,-0.0487 1.510445,-0.0487 0.568447,0 1.039446,0.0162 1.526686,0.0487 0.11369,-0.0487 0.146172,-0.32483 0.03248,-0.40603 l -0.35731,-0.0487 c -0.584688,-0.0812 -0.617171,-0.24362 -0.617171,-1.41299 l 0,-2.79352 c 0,-1.08816 -0.552205,-2.01392 -1.900237,-2.01392 -0.828308,0 -1.591651,0.40603 -2.273788,0.82831 -0.113689,0 -0.178654,-0.0812 -0.178654,-0.17866 0,-0.14617 0,-0.38979 0.03248,-0.76334 -0.03248,-0.0812 -0.113689,-0.11369 -0.178654,-0.11369 -0.324827,0.24362 -1.250584,0.66589 -1.624135,0.79583 -0.08121,0.0487 -0.08121,0.22737 -0.01624,0.29234 l 0.146172,0.0975 c 0.438516,0.29234 0.438516,0.37355 0.438516,1.00696 l 0,2.84224 z"/><path id="path69" d="m 0,0 c 0.37355,0 0.763343,-0.14617 1.039445,-0.76334 0.795826,-1.77031 2.127616,-4.5963 2.663581,-5.68447 l 0.909515,-1.86776 c 0.552206,-1.15313 0.84455,-1.62413 1.380514,-1.72158 l 0.276103,-0.0487 c 0.113689,-0.0975 0.09745,-0.34107 -0.03248,-0.40604 -0.454757,0.0325 -0.828308,0.0487 -1.234342,0.0487 -0.422275,0 -0.909515,-0.0162 -1.429238,-0.0487 -0.129931,0.0487 -0.146172,0.32483 -0.03248,0.40604 l 0.503482,0.0812 c 0.292344,0.0487 0.389792,0.16242 0.389792,0.27611 0,0.17865 -0.211137,0.77958 -0.568447,1.62413 l -0.552206,1.28307 c -0.292344,0.66589 -0.552205,1.16937 -0.600929,1.20186 -0.06497,-0.0325 -0.373551,-0.89328 -0.470999,-1.15314 l -0.519723,-1.4942 c -0.09745,-0.27611 -0.470999,-1.33179 -0.470999,-1.52669 0,-0.11369 0.129931,-0.16241 0.357309,-0.21114 l 0.406034,-0.0812 c 0.113689,-0.0812 0.09745,-0.35731 -0.03248,-0.40604 -0.519723,0.0325 -0.97448,0.0487 -1.412996,0.0487 -0.535965,0 -1.023205,-0.0162 -1.542928,-0.0487 -0.129931,0.0487 -0.146172,0.32483 -0.04872,0.40604 l 0.406034,0.0812 c 0.568447,0.11369 0.682136,0.50349 0.958239,1.26683 l 1.266824,3.47565 c 0.211138,0.60093 0.276103,0.79582 0.276103,1.12065 0,0.22738 -0.113689,0.56845 -0.162413,0.69838 -0.146172,0.38979 -0.470999,1.07192 -0.941998,1.80278 -0.113689,0.17866 -0.276103,0.29235 -0.535964,0.29235 l -0.308586,0 c -0.357309,0 -0.649653,0.21114 -0.649653,0.64965 0,0.40604 0.24362,0.69838 0.714619,0.69838 z"/><path id="path71" d="m 0,0 c -1.916478,0 -3.459406,1.46172 -3.459406,3.50813 0,2.03017 1.461721,3.34572 3.329475,3.34572 2.030168,0 3.426924,-1.46173 3.426924,-3.49189 0,-1.99769 -1.477963,-3.36196 -3.296993,-3.36196 z m 1.900237,3.62182 c 0,1.25058 -0.438516,2.74478 -1.867754,2.74478 -1.429238,0 -2.095134,-1.59165 -2.095134,-3.06961 0,-1.78655 0.795826,-2.80975 1.867755,-2.80975 1.542927,0 2.095133,1.75406 2.095133,3.13458 z"/><path id="path73" d="m 0,0 c 0,-0.79582 0.01624,-1.13689 0.04872,-1.41299 -0.01624,-0.065 -0.06497,-0.0975 -0.162413,-0.11369 -0.35731,0.12993 -0.990722,0.2761 -1.737824,0.29234 -0.113689,0.0487 -0.129931,0.27611 -0.03248,0.35731 l 0.194896,0.0812 c 0.487241,0.21114 0.487241,0.35731 0.487241,1.38051 l 0,2.71231 c 0,1.31555 0.535964,2.03017 1.965202,2.03017 0.958239,0 1.754065,-0.53597 2.241305,-0.84455 0.09745,0 0.146173,0.0812 0.146173,0.22737 l 0,0.6659 c 0.03248,0.065 0.113689,0.11369 0.194896,0.11369 0.552205,-0.30859 1.494203,-0.471 2.127616,-0.60093 0.12993,-0.065 0.113689,-0.38979 0.01624,-0.471 -0.227379,0.0487 -0.438516,0.0812 -0.633412,0.0812 -0.454758,0 -0.503482,-0.48724 -0.503482,-1.77031 l 0,-2.72855 c 0,-0.60092 0.01624,-1.10441 0.04872,-1.41299 -0.01624,-0.065 -0.06497,-0.0975 -0.146172,-0.11369 -0.35731,0.16241 -1.250584,0.2761 -1.900237,0.29234 -0.129931,0.065 -0.129931,0.29235 -0.01624,0.35731 l 0.211138,0.0812 c 0.48724,0.1949 0.60093,0.22738 0.60093,1.28306 l 0,2.66359 c 0,0.50348 -0.11369,0.7471 -0.324827,0.94199 -0.35731,0.30859 -0.877033,0.48724 -1.315549,0.48724 -1.234342,0 -1.510445,-0.7471 -1.510445,-1.86775 l 0,-2.71231 z"/><path id="path75" d="m 0,0 c 0,1.16937 -0.01624,1.33179 -0.617171,1.413 l -0.341069,0.0487 c -0.113689,0.0812 -0.08121,0.35731 0.03248,0.40603 0.454758,-0.0325 0.941998,-0.0487 1.526686,-0.0487 0.568447,0 1.039446,0.0162 1.819031,0.0487 0.113689,-0.0487 0.146172,-0.32482 0.03248,-0.40603 l -0.633412,-0.0812 c -0.584688,-0.0812 -0.617171,-0.22738 -0.617171,-1.38051 l 0,-1.70534 c 0,-0.34107 0.08121,-0.42228 0.227379,-0.45476 0.146172,0.0325 0.600929,0.065 0.893274,0.065 2.30627,0 3.962887,-1.62414 3.962887,-3.88169 0,-1.64037 -1.055687,-2.97216 -2.696063,-2.97216 -1.039446,0 -2.06265,0.66589 -2.273788,0.76334 -0.113689,0 -0.146172,-0.0975 -0.146172,-0.21114 0,-0.21113 0.03248,-0.45475 0.06497,-0.7471 -0.03248,-0.0812 -0.09745,-0.11369 -0.194896,-0.11369 -0.422275,0.30859 -1.185618,0.69838 -1.607893,0.87704 -0.08121,0.0487 -0.08121,0.22737 -0.01624,0.29234 l 0.146172,0.0975 c 0.438517,0.29234 0.438517,0.37355 0.438517,1.00696 l 0,6.98378 z m 1.201859,-6.7564 c 0,-0.53596 0.04872,-0.77958 0.194896,-0.95824 0.178655,-0.1949 0.682136,-0.45476 1.380514,-0.45476 1.461721,0 2.192581,1.31555 2.192581,2.61486 0,1.6891 -0.779584,2.92344 -2.111374,2.92344 -0.341068,0 -0.84455,-0.11369 -1.169377,-0.35731 -0.324827,-0.25986 -0.48724,-0.45476 -0.48724,-0.97448 l 0,-2.79351 z"/><path id="path79" d="m 0,0 c 0,1.16937 -0.01624,1.31554 -0.617171,1.41299 l -0.308586,0.0487 c -0.113689,0.0812 -0.08121,0.35731 0.03248,0.40603 0.422275,-0.0325 0.909515,-0.0487 1.494203,-0.0487 0.568447,0 1.039446,0.0162 1.802789,0.0487 0.11369,-0.0487 0.146172,-0.32483 0.03248,-0.40603 l -0.584688,-0.0487 c -0.617171,-0.0487 -0.649654,-0.24362 -0.649654,-1.41299 l 0,-2.20883 c 0,-0.5522 0.04872,-1.0232 0.211137,-1.25058 0.129931,-0.17865 0.324827,-0.32483 0.584689,-0.32483 0.227378,0 0.470999,0.0974 0.714619,0.25986 0.113689,0.065 0.194891,0.11369 0.357311,0.11369 0.25986,0 0.69838,-0.21113 0.69838,-0.7471 0,-0.38979 -0.32483,-0.64965 -0.73086,-0.64965 -0.600934,0 -1.218105,0.50348 -1.786552,0.97448 -0.03248,-0.0162 -0.04872,-0.065 -0.04872,-0.14617 l 0,-0.942 c 0,-0.065 -0.04872,-0.0974 -0.129931,-0.11369 -0.406033,0.24362 -1.266825,0.66589 -1.640375,0.79583 -0.08121,0.0487 -0.08121,0.22737 -0.01624,0.29234 l 0.146172,0.0975 c 0.438517,0.29234 0.438517,0.37355 0.438517,1.00696 l 0,2.84224 z"/><path id="path81" d="m 0,0 c 0.17866,-0.065 0.29235,-0.51972 0.11369,-0.68213 l -1.85151,0 c -0.2761,0 -0.2761,-0.0162 -0.2761,-0.45476 l 0,-0.471 c 0,-0.81207 0.065,-1.99768 0.35731,-2.74479 0.24362,-0.58468 0.64965,-0.89327 1.15313,-0.89327 0.53597,0 0.99072,0.35731 1.29931,0.71462 0.11369,0.12993 0.21114,0.1949 0.38979,0.1949 0.30859,0 0.61717,-0.25987 0.61717,-0.58469 0,-0.58469 -0.73086,-0.97448 -1.59165,-0.97448 -1.60789,0 -2.51741,1.13689 -2.92344,2.06265 -0.38979,0.90951 -0.50348,1.91648 -0.50348,2.85847 0,0.16242 -0.11369,0.25986 -0.24362,0.32483 l -0.69838,0.34107 c -0.065,0.0975 -0.0487,0.24362 0.0487,0.30858 l 0.56845,0 c 0.32483,0 0.32483,0.0325 0.32483,0.471 l 0,3.42693 c 0,1.16937 -0.0162,1.33179 -0.61717,1.41299 l -0.37356,0.0487 c -0.11368,0.0812 -0.0812,0.35731 0.0325,0.40603 0.48724,-0.0325 0.97448,-0.0487 1.55917,-0.0487 0.56844,0 1.03944,0.0162 1.7703,0.0487 0.11369,-0.0487 0.14617,-0.32483 0.0325,-0.40603 l -0.58469,-0.0487 c -0.58469,-0.0487 -0.61717,-0.24362 -0.61717,-1.41299 l 0,-3.42693 c 0,-0.43851 0,-0.471 0.2761,-0.471 l 1.73782,0 z"/><path id="path87" d="m 0,0 c 0,1.16937 -0.0162,1.31554 -0.61717,1.41299 l -0.29235,0.0487 c -0.11369,0.0812 -0.0812,0.35731 0.0325,0.40603 0.45476,-0.0325 0.89328,-0.0487 1.47797,-0.0487 0.56844,0 1.03944,0.0162 1.57541,0.0487 0.11369,-0.0487 0.14617,-0.32483 0.0325,-0.40603 l -0.38979,-0.0487 c -0.58469,-0.0812 -0.61717,-0.24362 -0.61717,-1.41299 l 0,-2.79352 c 0,-1.12065 -0.63342,-2.01392 -1.93272,-2.01392 -0.76335,0 -1.55917,0.37355 -2.20883,0.82831 -0.14617,0.0975 -0.25986,0.16241 -0.40603,0.12993 -0.45476,-0.6659 -0.90951,-0.95824 -1.72158,-0.95824 -0.77959,0 -1.54293,0.38979 -2.1601,0.82831 -0.11369,0 -0.17865,-0.0812 -0.17865,-0.17866 0,-0.14617 0,-0.38979 0.0325,-0.76334 -0.0325,-0.0812 -0.11369,-0.11369 -0.17866,-0.11369 -0.32482,0.24362 -1.25058,0.66589 -1.62413,0.79583 -0.0812,0.0487 -0.0812,0.22737 -0.0162,0.29234 l 0.14617,0.0975 c 0.43852,0.29234 0.43852,0.37355 0.43852,1.00696 l 0,2.84224 c 0,1.16937 -0.0162,1.33179 -0.61718,1.41299 l -0.38979,0.0487 c -0.11369,0.0812 -0.0812,0.35731 0.0325,0.40603 0.50348,-0.0325 0.99072,-0.0487 1.57541,-0.0487 0.56844,0 1.03944,0.0162 1.47796,0.0487 0.11369,-0.0487 0.14617,-0.32483 0.0325,-0.40603 l -0.29234,-0.0487 c -0.58469,-0.0975 -0.61717,-0.24362 -0.61717,-1.41299 l 0,-2.51741 c 0,-0.51973 0.0812,-0.73086 0.24362,-0.92576 0.24362,-0.29234 0.69837,-0.58469 1.36427,-0.58469 1.00696,0 1.4942,0.58469 1.4942,1.67286 l 0,2.355 c 0,1.16937 -0.0162,1.31554 -0.61717,1.41299 l -0.29234,0.0487 c -0.11369,0.0812 -0.0812,0.35731 0.0325,0.40603 0.45476,-0.0325 0.89327,-0.0487 1.47796,-0.0487 0.56845,0 1.03945,0.0162 1.52669,0.0487 0.11369,-0.0487 0.14617,-0.32483 0.0325,-0.40603 l -0.34107,-0.0487 c -0.58469,-0.0812 -0.61717,-0.24362 -0.61717,-1.41299 l 0,-2.48493 c 0,-0.56845 0.0487,-0.73086 0.24362,-0.97448 0.22738,-0.29234 0.73086,-0.56845 1.34803,-0.56845 1.02321,0 1.51045,0.56845 1.51045,1.67286 l 0,2.355 z"/><path id="path89" d="m 0,0 c -1.03945,0.37355 -1.34803,0.7471 -1.34803,1.38051 0,0.45476 0.19489,0.86079 0.50348,1.13689 0.2761,0.24362 0.66589,0.37356 1.13689,0.37356 0.45476,0 0.81207,-0.21114 1.16938,-0.40604 0.32483,-0.17865 0.51972,-0.32483 0.63341,-0.32483 0.0975,0 0.1949,0.12994 0.25986,0.22738 0.27611,0.35731 0.6659,0.50349 1.05569,0.50349 0.79583,0 1.36427,-0.63342 1.36427,-0.71462 0,-0.11369 -0.0487,-0.21114 -0.11369,-0.21114 -0.0487,0 -0.12993,0.065 -0.21113,0.11369 -0.0974,0.0487 -0.24362,0.0975 -0.40604,0.0975 -0.63341,0 -0.77958,-0.6659 -0.7471,-1.413 l 0.0974,-2.82599 c 0.0487,-1.21811 -0.51972,-1.90024 -1.6891,-1.90024 -1.18562,0 -3.02089,1.15313 -3.02089,1.99768 0,0.14618 0.0812,0.22738 0.22738,0.22738 0.24362,0 0.68213,-0.11369 0.92575,-0.30858 0.12994,-0.0974 0.14618,-0.29235 0.16242,-0.55221 0.0325,-0.50348 0.58469,-0.73086 1.03944,-0.73086 1.00697,0 1.20186,0.81207 1.18562,1.413 l -0.0162,0.7471 c 0,0.24362 -0.0325,0.38979 -0.2761,0.471 l -1.93272,0.69838 z m -0.0974,1.18561 c 0,-0.63341 0.471,-0.87703 1.42924,-1.20186 0.29234,-0.0974 0.56844,-0.16241 0.66589,-0.16241 0.0975,0 0.16242,0.0325 0.16242,0.21114 l -0.0325,0.95824 c -0.0162,0.34107 -0.0162,0.56844 -0.21113,0.76334 -0.16242,0.16241 -0.6659,0.40603 -0.99073,0.40603 -0.8283,0 -1.0232,-0.69837 -1.0232,-0.97448 z"/><path id="path95" d="m 0,0 c -1.23434,0 -2.20882,0.66589 -2.20882,1.85151 0,0.89328 0.66589,1.46172 1.60789,1.99769 0.60093,0.34106 1.25058,0.7471 1.25058,1.4942 0,0.69838 -0.50348,1.03945 -1.08817,1.03945 -0.92575,0 -1.44548,-0.77959 -1.72158,-1.67286 -0.0812,-0.0974 -0.29234,-0.0812 -0.37355,0.0162 -0.0325,0.53596 0.065,1.33179 0.1949,1.64037 0.40603,0.32483 0.97448,0.48725 1.73782,0.48725 1.20186,0 2.33875,-0.61718 2.33875,-1.85152 0,-1.15313 -0.79582,-1.70534 -1.65661,-2.19258 -0.56845,-0.32483 -1.25059,-0.68214 -1.25059,-1.34803 0,-0.58469 0.40604,-0.99072 1.03945,-0.99072 0.66589,0 1.15313,0.471 1.42924,1.18562 0.0812,0.0974 0.32482,0.065 0.38979,-0.0487 0,-0.43851 -0.11369,-0.95824 -0.25986,-1.31555 -0.14617,-0.12993 -0.7471,-0.29234 -1.42924,-0.29234 z"/><path id="path97" d="m 0,0 c 0.14618,-0.0974 0.17866,-0.53596 -0.0162,-0.68213 l -1.80279,0 c -0.2761,0 -0.29234,-0.0162 -0.29234,-0.30859 l 0,-0.73086 c -0.065,-0.11369 -0.25986,-0.11369 -0.34107,-0.0812 -0.16241,0.32483 -0.471,0.76335 -0.68214,0.95824 -0.16241,0.14618 -0.56844,0.35731 -1.03944,0.50349 -0.065,0.0974 -0.0487,0.2761 0.0487,0.34106 l 0.45476,0 c 0.32483,0 0.34107,0.0325 0.34107,0.471 l 0,3.71927 c 0,0.97448 0.29234,1.75407 1.6891,1.75407 0.82831,0 1.41299,-0.40604 1.70534,-0.74711 0.0325,-0.0974 -0.0325,-0.2761 -0.16241,-0.2761 -0.0487,0 -0.25987,0.17866 -0.40604,0.22738 -0.12993,0.0487 -0.2761,0.0812 -0.43851,0.0812 -1.07193,0 -1.18562,-0.8608 -1.18562,-1.80279 l 0,-3.03713 c 0,-0.34107 0.0162,-0.3898 0.29234,-0.3898 l 1.83527,0 z"/><path id="path101" d="m 0,0 c -2.696063,0 -3.930405,1.86776 -3.930405,3.62182 0,1.05569 0.373551,1.85152 0.941998,2.40372 0.568447,0.55221 1.364273,0.82831 2.225064,0.82831 0.941998,0 2.160098,-0.45476 2.712304,-1.65662 -0.01624,-0.14617 -0.162413,-0.25986 -0.292344,-0.22738 -0.373551,0.55221 -0.860791,0.97449 -1.802789,0.97449 -1.737824,0 -2.614856,-1.51045 -2.614856,-2.77727 0,-1.72159 1.104411,-2.61486 2.241305,-2.61486 0.665895,0 1.266825,0.42227 1.624134,0.86079 0.06497,0.0812 0.146172,0.11369 0.227379,0.11369 0.194896,0 0.35731,-0.30859 0.35731,-0.60093 0,-0.2761 -0.11369,-0.53596 -0.243621,-0.64965 -0.438516,-0.1949 -1.071928,-0.27611 -1.445479,-0.27611 z"/><path id="path105" d="m 0,0 c 0,1.16938 -0.01624,1.33179 -0.617171,1.413 l -0.341068,0.0487 c -0.113689,0.0812 -0.08121,0.35731 0.03248,0.40604 0.454757,-0.0325 0.941998,-0.0487 1.526686,-0.0487 0.568447,0 1.039446,0.0162 1.526686,0.0487 0.11369,-0.0487 0.146172,-0.32483 0.03248,-0.40604 l -0.341068,-0.0487 c -0.584689,-0.0812 -0.617171,-0.24362 -0.617171,-1.413 l 0,-2.92344 c 0,-0.6659 0.03248,-1.44548 0.06497,-2.01393 -0.01624,-0.065 -0.08121,-0.0974 -0.162413,-0.0974 -0.373551,0.24362 -1.299308,0.66589 -1.672859,0.79582 -0.08121,0.0487 -0.08121,0.22738 -0.01624,0.29235 l 0.146172,0.0974 c 0.438516,0.29235 0.438516,0.37355 0.438516,1.00697 l 0,2.84223 z m 0.535965,-8.31557 c -0.487241,0 -0.877033,0.34107 -0.877033,0.87704 0,0.43851 0.324827,0.81206 0.828309,0.81206 0.454757,0 0.860791,-0.25986 0.860791,-0.84455 0,-0.45475 -0.324827,-0.84455 -0.812067,-0.84455 z"/><path id="path111" d="m 0,0 c -0.519723,0 -0.795826,0.35731 -0.795826,0.73086 0,0.19489 0.06497,0.35731 0.276103,0.471 0.146172,0.0812 0.925757,0.25986 0.925757,0.942 0,0.84455 -0.828309,1.25058 -1.33179,1.41299 -0.09745,0.0812 -0.04872,0.34107 0.09745,0.38979 1.136894,-0.34106 2.111374,-1.07192 2.111374,-2.35499 0,-1.07193 -0.714619,-1.59165 -1.283066,-1.59165 z"/><path id="path129" d="m 0,0 c 0,-0.71462 0.0325,-1.52669 0.0487,-2.01393 -0.0325,-0.065 -0.0975,-0.0975 -0.16241,-0.0975 -0.58469,0.30859 -1.34803,0.55221 -1.75407,0.68214 -0.0812,0.0487 -0.0812,0.2761 0,0.32483 l 0.16242,0.0974 c 0.48724,0.29235 0.50348,0.3898 0.50348,1.34803 l 0,7.34109 c 0,1.16938 -0.0162,1.33179 -0.61717,1.413 l -0.37356,0.0487 c -0.11368,0.0812 -0.0812,0.35731 0.0325,0.40604 0.48724,-0.0325 0.97448,-0.0487 1.55917,-0.0487 0.56844,0 1.03944,0.0162 1.57541,0.0487 0.11369,-0.0487 0.14617,-0.32483 0.0325,-0.40604 l -0.38979,-0.0487 c -0.58469,-0.0812 -0.61717,-0.24362 -0.61717,-1.413 l 0,-7.68215 z"/><path id="path135" d="m 0,0 c 0,-0.71462 0.03248,-1.52668 0.04872,-2.01392 -0.03248,-0.065 -0.09745,-0.0975 -0.162413,-0.0975 -0.584689,0.30858 -1.348032,0.5522 -1.754065,0.68213 -0.08121,0.0487 -0.08121,0.27611 0,0.32483 l 0.162413,0.0975 c 0.48724,0.29234 0.503482,0.38979 0.503482,1.34803 l 0,2.45244 c 0,0.12993 -0.01624,0.22738 -0.09745,0.22738 -0.178655,-0.065 -0.535965,-0.14617 -1.08817,-0.14617 -2.208823,0 -3.930405,1.46172 -3.930405,3.73551 0,1.70534 1.201859,3.11834 3.004648,3.11834 0.779585,0 1.33179,-0.25987 2.046409,-0.74711 l 0.06497,0 c 0.03248,0.065 0.03248,0.25987 0.03248,0.50349 l 0,0.2761 c 0,0.0812 0.08121,0.12993 0.178655,0.12993 0.454758,-0.17866 1.461721,-0.42228 2.143857,-0.51972 0.146173,-0.0812 0.129931,-0.48724 0.01624,-0.51973 -0.24362,0.0812 -0.519723,0.16242 -0.698378,0.16242 -0.454757,0 -0.470999,-0.60093 -0.470999,-1.884 l 0,-7.12995 z m -1.201859,7.89329 c 0,0.25987 -0.01624,0.50349 -0.11369,0.60093 -0.259861,0.25987 -0.812067,0.45476 -1.250583,0.45476 -1.591652,0 -2.41996,-1.39675 -2.41996,-2.87472 0,-1.41299 0.763343,-2.69606 2.241305,-2.69606 0.633413,0 1.120653,0.34107 1.364273,0.68214 0.113689,0.16241 0.178655,0.30858 0.178655,0.63341 l 0,3.19954 z"/><path id="path141" d="m 0,0 c 0.552206,0 0.909515,-0.37355 0.909515,-0.89328 0,-0.51972 -0.357309,-0.95824 -0.909515,-0.95824 -0.519723,0 -0.909515,0.40604 -0.909515,0.95824 0,0.55221 0.438516,0.89328 0.909515,0.89328 z"/><path id="path254" d="m 0,0 c -0.25625,0 -0.5375,0.09375 -0.8625,0.40625 -0.425,0.40625 -0.65625,1.0125 -0.68125,1.4 -0.0375,0.5375 0.225,0.83125 0.625,0.83125 0.16875,0 0.50625,-0.03125 0.89375,-0.43125 0.4625,-0.475 0.64375,-1.075 0.6625,-1.41875 0.025,-0.45625 -0.19375,-0.7875 -0.6375,-0.7875 z m -0.04375,0.1875 c 0.21875,0 0.25625,0.21875 0.25,0.4125 -0.0125,0.33125 -0.30625,1.15625 -0.58125,1.525 -0.2,0.26875 -0.35625,0.325 -0.49375,0.325 -0.18125,0 -0.26875,-0.18125 -0.25625,-0.4 0.01875,-0.33125 0.2625,-1.075 0.625,-1.5625 0.18125,-0.24375 0.33125,-0.3 0.45625,-0.3 z"/><path id="path256" d="m 0,0 c 0.05625,-0.14375 -0.0125,-0.25625 -0.1625,-0.25625 -0.3125,0 -0.69375,0.25625 -0.93125,0.58125 -0.0063,0.05 0.025,0.09375 0.075,0.09375 0.20625,-0.18125 0.425,-0.3125 0.56875,-0.3125 0.05,0 0.05,0.0625 0.01875,0.14375 -0.03125,0.0875 -0.69375,1.8875 -0.725,1.96875 -0.05625,0.14375 0.1125,0.1625 0.18125,0.1625 0.05625,0 0.08125,-0.01875 0.1125,-0.075 0.36875,-0.6875 0.625,-1.175 0.95625,-1.5875 0.34375,-0.43125 0.7125,-0.74375 0.8625,-0.74375 0.09375,0 0.1,0.075 0.1,0.15 0,0.125 -0.08125,0.34375 -0.13125,0.45625 -0.14375,0.3125 -0.375,0.925 -0.50625,1.23125 -0.13125,0.3125 -0.15,0.35625 -0.15,0.4125 0,0.075 0.09375,0.15625 0.15,0.15625 0.34375,0 0.8375,-0.3 1.075,-0.7 0,-0.05 -0.0125,-0.1 -0.1,-0.0875 -0.18125,0.21875 -0.48125,0.425 -0.5875,0.425 -0.04375,0 -0.0375,-0.05625 -0.0125,-0.11875 0.01875,-0.05 0.46875,-1.06875 0.58125,-1.38125 0.05,-0.14375 0.1,-0.3375 0.1,-0.4375 0,-0.20625 -0.10625,-0.3375 -0.35,-0.3375 -0.46875,0 -1.0875,0.6875 -1.53125,1.3625 l -0.01875,-0.0125 0.425,-1.09375 z"/><path id="path260" d="m 0,0 c -0.03125,0.06875 -0.0125,0.125 0.025,0.16875 0.03125,0.0375 0.06875,0.05625 0.1,0.05625 0.43125,0 1.075,-0.5625 1.16875,-0.74375 0,-0.05625 -0.03125,-0.1 -0.09375,-0.10625 -0.2125,0.24375 -0.54375,0.4625 -0.65,0.4625 -0.05,0 -0.04375,-0.075 -0.01875,-0.1375 l 0.74375,-1.775 c 0.075,-0.18125 0.075,-0.2375 0.0375,-0.275 -0.025,-0.025 -0.05625,-0.0625 -0.1,-0.0625 -0.20625,0 -0.6875,0.23125 -1.03125,0.625 -0.0125,0.05 0.025,0.1 0.08125,0.10625 0.3125,-0.25625 0.475,-0.33125 0.51875,-0.33125 0.04375,0 0.04375,0.05 0.0125,0.11875 l -0.79375,1.89375 z m 1.325,-3.7 c -0.24375,0 -0.33125,0.25625 -0.33125,0.39375 0,0.10625 0.05625,0.23125 0.21875,0.23125 0.1875,0 0.325,-0.19375 0.325,-0.3875 0,-0.1375 -0.06875,-0.2375 -0.2125,-0.2375 z"/></defs></svg>
