<?xml version="1.0" encoding="UTF-8" standalone="no"?>
<svg xmlns:dc="http://purl.org/dc/elements/1.1/" xmlns:cc="http://creativecommons.org/ns#" xmlns:rdf="http://www.w3.org/1999/02/22-rdf-syntax-ns#" xmlns:svg="http://www.w3.org/2000/svg" xmlns="http://www.w3.org/2000/svg" xmlns:xlink="http://www.w3.org/1999/xlink" viewBox="0 0 90 139" height="139" width="90" version="1.1" id="svg2">
  <metadata id="metadata8">
    <rdf:RDF>
      <cc:Work rdf:about="">
        <dc:format>image/svg+xml</dc:format>
        <dc:type rdf:resource="http://purl.org/dc/dcmitype/StillImage"/>
        <dc:title/>
      </cc:Work>
    </rdf:RDF>
  </metadata>
  <defs id="defs6"/>
  <image xlink:href="condition-image-11.png" id="card-image" x="0" y="0" width="90" height="139" preserveAspectRatio="none"/>
  <g id="flowRoot4138" style="fill:#000000;fill-opacity:1;stroke:none;stroke-width:1px;stroke-linecap:butt;stroke-linejoin:miter;stroke-opacity:1" transform="translate(0,-0.20823695)">
    <path id="path31" style="" d="m 35.685781,12.140304 q 0.2,-0.35 0.31,-0.74 0.12,-0.4 0.12,-0.79 0,-0.4 -0.12,-0.7799999 -0.12,-0.39 -0.39,-0.72 -0.1,-0.12 -0.23,-0.21 -0.13,-0.09 -0.26,-0.17 -0.12,-0.09 -0.24,-0.19 -0.11,-0.1 -0.19,-0.25 0.15,-0.23 0.37,-0.36 0.23,-0.13 0.41,-0.27 0.18,-0.15 0.26,-0.36 0.09,-0.22 -0.04,-0.62 -0.08,-0.05 -0.15,-0.16 -0.07,-0.12 -0.13,-0.25 -0.06,-0.13 -0.12,-0.26 -0.05,-0.14 -0.09,-0.23 -0.17,-0.11 -0.33,-0.21 -0.16,-0.11 -0.31,-0.24 l -0.51,-0.1 -0.03,-0.09 -0.89,0 -0.03,0.11 -0.1,0 -0.03,-0.11 -1.32,0 -0.12,-0.08 q -0.26,0 -0.45,0.02 -0.18,0.02 -0.41,0.07 -0.13,0.13 -0.2,0.26 l 0.04,0.17 q 0.03,-0.02 0.12,0.03 0.09,0.05 0.12,0.07 0.06,0.03 0.16,0.03 0.11,0 0.21,0.02 0.1,0.01 0.17,0.06 0.08,0.05 0.08,0.18 l 0,2.85 q 0,0.18 0,0.42 0,0.24 0.01,0.48 0.01,0.24 0.04,0.4699999 0.04,0.23 0.1,0.4 l -0.08,0.05 q 0,0.2 0,0.43 0.01,0.22 0,0.46 0,0.23 -0.03,0.45 -0.03,0.22 -0.09,0.41 l -0.16,0.05 -0.04,0.08 -0.35,0.02 0,0.25 0.2,0.27 0.62,0 0.08,-0.08 0.41,0 0.07,0.08 q 0.06,0 0.22,0 0.17,0.01 0.38,0.01 0.22,0.01 0.46,0.01 0.24,0 0.44,-0.01 0.2,-0.01 0.34,-0.03 0.14,-0.02 0.16,-0.06 0.25,0.05 0.41,0.05 0.17,-0.01 0.43,-0.05 0.06,-0.12 0.15,-0.22 0.1,-0.11 0.19,-0.2 0.1,-0.1 0.19,-0.2 0.1,-0.1 0.17,-0.22 z m -0.77,-5.5299999 q 0.01,0.16 -0.02,0.37 -0.03,0.21 -0.09,0.42 -0.06,0.21 -0.15,0.41 -0.09,0.19 -0.2,0.31 l -0.21,0 q -0.01,-0.11 -0.1,-0.11 -0.08,0 -0.11,0.1 -0.27,0.04 -0.41,0.08 -0.13,0.03 -0.26,0.06 -0.12,0.02 -0.3,0.04 -0.17,0.01 -0.53,0 -0.1,-0.12 -0.2,-0.18 l -0.04,-1.98 q -0.01,-0.21 0.12,-0.35 0.13,-0.14 0.27,-0.27 l 0.79,0 q 0.13,0 0.25,0.04 0.13,0.04 0.27,0.04 l 0.07,0.11 0.06,-0.02 q 0.09,0.03 0.22,0.15 0.13,0.12 0.25,0.27 0.13,0.15 0.22,0.3 0.1,0.14 0.1,0.21 z m 0.48,3.7399999 -0.06,0.12 q 0.02,0.15 -0.02,0.32 -0.04,0.16 -0.11,0.32 -0.07,0.15 -0.16,0.31 -0.08,0.15 -0.15,0.28 -0.04,0.01 -0.13,0.09 -0.08,0.08 -0.19,0.18 -0.1,0.09 -0.21,0.17 -0.1,0.08 -0.16,0.09 -0.07,0.01 -0.12,0.03 -0.05,0.02 -0.08,0.09 l -0.92,0 -0.1,0.08 -0.06,-0.03 -0.02,-0.04 -0.33,-0.03 q -0.02,-0.07 -0.08,-0.11 -0.06,-0.05 -0.12,-0.07 l -0.04,-3.0399999 q 0,-0.12 0.09,-0.24 0.1,-0.13 0.19,-0.21 0.14,-0.01 0.27,-0.02 0.14,-0.02 0.28,-0.05 0.02,0 0.05,-0.01 0.03,-0.01 0.05,-0.01 0.1,0.02 0.21,0.06 0.11,0.03 0.22,0.03 l 0.05,0.09 q 0.24,0.02 0.4,0.05 0.16,0.03 0.41,0.12 0.04,0.11 0.15,0.14 0.12,0.03 0.22,0.05 0.12,0.15 0.18,0.3 0.06,0.15 0.1,0.31 0.04,0.15 0.08,0.3099999 0.04,0.16 0.11,0.32 z"/>
    <path id="path33" style="" d="m 38.83625,13.060304 0,-0.48 -0.08,-0.1 q -0.26,-0.07 -0.51,-0.09 -0.16,-0.37 -0.18,-0.7 -0.02,-0.34 0.01,-0.66 0.04,-0.33 0.09,-0.66 0.06,-0.33 0.06,-0.6899999 0,-0.18 -0.03,-0.37 -0.03,-0.19 -0.07,-0.37 -0.04,-0.19 -0.07,-0.37 -0.02,-0.18 -0.01,-0.35 0,-0.01 0.02,-0.23 0.03,-0.22 0.05,-0.49 0.03,-0.27 0.04,-0.5 0.02,-0.23 0.01,-0.26 l -0.05,-0.04 q 0,-0.07 -0.01,-0.21 -0.01,-0.15 -0.01,-0.3 0,-0.15 0.02,-0.28 0.02,-0.13 0.07,-0.18 -0.01,-0.11 -0.02,-0.21 -0.01,-0.11 -0.03,-0.22 l -0.01,-0.07 q 0,-0.05 -0.03,-0.05 l 0.09,-0.12 q -0.28,0 -0.51,0.02 -0.23,0.02 -0.49,0.06 l -0.04,0.08 q -0.15,0.04 -0.3,0.12 -0.15,0.08 -0.23,0.22 l 0.07,0.25 q 0.11,0.02 0.21,0.06 0.11,0.03 0.2,0.11 0.02,0.08 0.04,0.32 0.02,0.24 0.03,0.58 0.02,0.33 0.02,0.72 0,0.38 -0.01,0.73 0,0.34 -0.02,0.62 -0.02,0.28 -0.05,0.4 0.14,0.6799999 0.14,1.3899999 0,0.7 0,1.39 0,0.21 -0.12,0.28 -0.12,0.07 -0.31,0.07 -0.04,0.03 -0.08,0.06 -0.03,0.02 -0.08,0.04 0.02,0.06 0.05,0.17 0.04,0.11 0.01,0.18 l 0.09,0.13 1.06,0 0.11,-0.07 q 0.07,0.02 0.2,0.03 0.14,0 0.28,0.01 0.14,0 0.25,0.01 0.11,0 0.13,0.02 z"/>
    <use x="42.982969" y="10.130304" xlink:href="#path35"/>
    <use x="46.451719" y="11.270304" xlink:href="#path37"/>
    <use x="50.250547" y="11.270304" xlink:href="#path37"/>
    <use x="54.906797" y="10.130304" xlink:href="#path35"/>
    <path id="path43" style="" d="m 60.61875,12.400304 q -0.1,0.02 -0.2,0.06 -0.1,0.03 -0.21,0 -0.15,-0.13 -0.21,-0.43 -0.05,-0.31 -0.06,-0.7 -0.01,-0.4 0.01,-0.84 0.03,-0.45 0.05,-0.8499999 0.02,-0.41 0.01,-0.73 0,-0.32 -0.07,-0.48 0.1,-0.28 0.11,-0.57 0.02,-0.3 0,-0.59 -0.01,-0.29 -0.02,-0.58 0,-0.29 0.07,-0.58 l 0.01,0.01 q 0.02,-0.22 0,-0.44 -0.01,-0.22 -0.08,-0.43 -0.13,-0.11 -0.25,-0.14 -0.11,-0.04 -0.23,-0.03 -0.11,0 -0.23,0.03 -0.12,0.02 -0.27,0.03 l -0.03,0.08 -0.5,0.09 0,0.23 0.08,0.1 0.31,0.09 q 0.09,0.1 0.1,0.24 0.02,0.13 0.04,0.25 0.02,-0.03 0.04,0 0.02,0.02 0.02,0.04 l 0,0.79 q 0,0.18 0.02,0.46 0.03,0.28 0.01,0.53 -0.02,0.25 -0.13,0.42 -0.1,0.16 -0.36,0.11 -0.07,-0.07 -0.17,-0.11 -0.09,-0.05 -0.18,-0.07 l -0.03,-0.09 q -0.32,0 -0.57,-0.03 -0.25,-0.03 -0.56,0.04 0,0.03 -0.05,0.06 -0.04,0.02 -0.11,0.05 -0.07,0.03 -0.14,0.07 -0.06,0.03 -0.09,0.07 l -0.39,0.16 q -0.04,0.2 -0.16,0.45 -0.12,0.25 -0.25,0.39 0.02,0.11 -0.04,0.23 -0.05,0.11 -0.13,0.19 -0.03,0.09 0.01,0.1899999 0.05,0.1 0.08,0.18 -0.03,0.06 -0.08,0.12 -0.04,0.05 -0.09,0.1 -0.02,0.23 0,0.41 0.03,0.18 0.08,0.39 l 0.08,0.04 q 0.03,0.39 0.18,0.63 0.15,0.24 0.36,0.41 0.21,0.16 0.47,0.3 0.26,0.13 0.52,0.31 l 0.87,0 q 0.06,-0.04 0.18,-0.12 0.12,-0.08 0.25,-0.17 0.13,-0.09 0.23,-0.17 0.11,-0.08 0.14,-0.13 l 0.13,0 q 0.07,0.17 0.1,0.39 l 0.17,0.2 q 0.31,0.03 0.57,-0.01 0.26,-0.05 0.56,0.01 0.22,-0.12 0.28,-0.24 0.07,-0.13 0.04,-0.23 -0.03,-0.1 -0.12,-0.15 -0.08,-0.05 -0.17,-0.04 z m -1.41,-2.6699999 q 0,0.05 0,0.24 0,0.1799999 0,0.3899999 0,0.21 -0.01,0.39 0,0.17 -0.01,0.18 0,0 -0.02,-0.01 -0.02,-0.01 -0.02,0.01 0,0.13 -0.04,0.36 -0.03,0.22 -0.1,0.45 -0.06,0.22 -0.17,0.4 -0.1,0.18 -0.24,0.24 -0.1,0.04 -0.22,0.06 -0.11,0.01 -0.22,0.03 -0.05,0.11 -0.18,0.09 -0.13,-0.03 -0.28,-0.11 -0.15,-0.08 -0.29,-0.18 -0.14,-0.1 -0.2,-0.13 -0.04,-0.07 -0.1,-0.17 -0.05,-0.11 -0.1,-0.22 -0.05,-0.11 -0.09,-0.22 -0.04,-0.11 -0.05,-0.19 l -0.09,-0.02 0,-1.24 q 0,-0.02 0.02,-0.05 0.03,-0.03 0.05,-0.05 0.11,-0.11 0.14,-0.26 0.03,-0.16 0.04,-0.3 l 0.08,-0.04 0.03,-0.23 q 0.12,-0.09 0.22,-0.2 0.1,-0.12 0.19,-0.24 l 0.89,0 q 0.06,0.07 0.14,0.15 0.08,0.08 0.16,0.17 0.08,0.08 0.14,0.17 0.06,0.09 0.06,0.18 l 0.08,0.04 q 0.05,0.17 0.1,0.28 l 0.09,0.03 z"/>
  </g>
  <g id="text4146" style="fill:#000000;fill-opacity:1;stroke:none;stroke-width:1px;stroke-linecap:butt;stroke-linejoin:miter;stroke-opacity:1">
    <path id="path46" style="" d="m 37.835856,73.010775 c -0.2175,0.6975 -0.27,0.75 -0.6075,0.81 l -0.2175,0.0375 c -0.0975,0.015 -0.105,0.21 -0.0375,0.255 0.3825,-0.015 0.7275,-0.0225 1.0275,-0.0225 0.0825,0 0.2175,0.0075 0.3675,0.015 0.15,0.0075 0.3225,0.015 0.48,0.015 0.4575,0 0.8325,-0.015 1.2675,-0.105 0.795,-0.1575 1.425,-0.7125 1.425,-1.545 0,-0.48 -0.3,-0.8625 -0.705,-1.0125 -0.12,-0.045 -0.165,-0.06 -0.15,-0.0825 -0.0075,-0.015 0.03,-0.0375 0.2175,-0.075 0.495,-0.09 1.035,-0.4275 1.035,-1.0425 0,-0.315 -0.12,-0.5925 -0.3975,-0.8025 -0.3075,-0.2325 -0.8475,-0.3375 -1.605,-0.3375 -0.63,0 -1.065,0.03 -1.4775,0.0675 -0.09,0.0375 -0.1125,0.195 -0.045,0.255 l 0.2175,0.045 c 0.2625,0.0525 0.2475,0.1875 0.09,0.6975 l -0.885,2.8275 z m 1.965,-3.27 c 0.0825,-0.2625 0.105,-0.2775 0.36,-0.2775 0.495,0 0.7575,0.3075 0.7575,0.6975 0,0.66 -0.5325,1.14 -1.29,1.14 -0.3,0 -0.3225,-0.0225 -0.2625,-0.21 l 0.435,-1.35 z m -0.6675,2.115 c 0.0675,-0.21 0.09,-0.225 0.4125,-0.225 0.585,0 0.915,0.3075 0.915,0.84 0,0.795 -0.6525,1.305 -1.335,1.305 -0.375,0 -0.54,-0.1875 -0.3825,-0.6825 l 0.39,-1.2375 z"/>
    <use x="42.245973" y="72.6789" xlink:href="#path48"/>
    <use x="46.508669" y="72.6789" xlink:href="#path48"/>
    <path id="path52" style="" d="m 51.058239,72.6789 c -0.1125,0.365625 -0.225,0.6975 -0.264375,0.81 -0.09562,0.264375 -0.185625,0.3375 -0.444375,0.39375 l -0.129375,0.02813 c -0.0675,0.03937 -0.06188,0.163125 -0.01125,0.196875 0.253125,-0.01125 0.410625,-0.01688 0.646875,-0.01688 0.21375,0 0.405,0.0056 0.70875,0.01688 0.06188,-0.03938 0.05625,-0.14625 0.02812,-0.196875 l -0.16875,-0.02813 c -0.286875,-0.045 -0.28125,-0.118125 -0.23625,-0.399375 0.01687,-0.10125 0.106875,-0.43875 0.219375,-0.804375 l 0.331875,-1.096875 c 0.09,-0.30375 0.1125,-0.37125 0.140625,-0.43875 0.07875,0.1575 0.25875,0.590625 0.365625,0.838125 l 0.601875,1.366875 c 0.1575,0.354375 0.309375,0.7875 0.320625,0.7875 0.14625,0 0.309375,-0.0225 0.354375,-0.06188 0.05063,-0.185625 0.135,-0.5175 0.264375,-0.939375 l 0.410625,-1.344375 c 0.1125,-0.365625 0.230625,-0.6975 0.27,-0.81 0.10125,-0.275625 0.19125,-0.343125 0.444375,-0.39375 l 0.135,-0.02813 c 0.05063,-0.03937 0.05625,-0.163125 0.01125,-0.196875 -0.25875,0.01125 -0.410625,0.01687 -0.6525,0.01687 -0.21375,0 -0.399375,-0.0056 -0.6975,-0.01687 -0.07312,0.03937 -0.09,0.14625 -0.03937,0.196875 l 0.16875,0.0225 c 0.286875,0.03937 0.2925,0.12375 0.23625,0.405 -0.0225,0.10125 -0.1125,0.43875 -0.219375,0.804375 l -0.241875,0.81 c -0.03937,0.129375 -0.09,0.286875 -0.129375,0.34875 -0.06188,-0.118125 -0.1575,-0.315 -0.354375,-0.75375 l -0.264375,-0.585 c -0.264375,-0.590625 -0.466875,-1.035 -0.43875,-1.24875 -0.12375,0.01125 -0.309375,0.01687 -0.45,0.01687 -0.21375,0 -0.41625,-0.0056 -0.70875,-0.01687 -0.0675,0.03375 -0.09,0.163125 -0.03937,0.196875 l 0.1575,0.0225 c 0.286875,0.03937 0.275625,0.151875 0.135,0.6075 l -0.46125,1.490625 z"/>
  </g>
  <g id="flowRoot4150" style="fill:#000000;fill-opacity:1;stroke:none;stroke-width:1px;stroke-linecap:butt;stroke-linejoin:miter;stroke-opacity:1" transform="matrix(0.50053315,0,0,0.5,-0.3191755,-8.8367586)">
    <path id="path55" style="" d="m 21.368555,176.19479 c 0.325,0 0.3625,0.0125 0.3625,0.3125 l 0,0.525 c 0,0.9625 -0.0375,1.175 -0.5625,1.2125 l -0.5625,0.0375 c -0.075,0.075 -0.0625,0.275 0.025,0.3125 0.55,-0.025 1.1125,-0.0375 1.5625,-0.0375 0.3875,0 0.85,0.0125 1.3,0.0375 0.0875,-0.0375 0.1,-0.2375 0.025,-0.3125 l -0.325,-0.0375 c -0.5125,-0.0625 -0.5375,-0.225 -0.5375,-1.2125 l 0,-0.5625 c 0,-0.2625 0.0625,-0.275 0.375,-0.275 l 0.675,0 c 0.1125,-0.1125 0.1125,-0.4375 0,-0.525 l -0.8,0 c -0.2125,0 -0.25,-0.05 -0.25,-0.2875 l 0,-2.4125 c 0,-0.25 0,-0.4 -0.175,-0.3875 -0.2,0.0125 -0.4875,0.1125 -0.6375,0.2125 -0.1,0.0625 -0.1125,0.1625 -0.1125,0.25 l 0,2.3 c 0,0.2875 -0.05,0.325 -0.35,0.325 l -1.9375,0 c -0.325,0 -0.5,0 -0.35,-0.2 l 3.975,-5.5 c 0.0375,-0.05 0.0625,-0.1 0.0625,-0.1375 0,-0.0625 -0.0625,-0.1 -0.1875,-0.1 l -0.2125,0 c -0.125,0 -0.2,0.0625 -0.2875,0.175 l -4.0125,5.6 c -0.175,0.25 -0.225,0.325 -0.225,0.475 0,0.125 0.0625,0.2125 0.175,0.2125 l 2.9875,0 z"/>
    <use x="25.618555" y="177.03229" xlink:href="#path57"/>
    <path id="path59" style="" d="m 31.431055,173.36979 c -0.0875,0.2875 -0.075,0.3875 0.1125,0.3875 1.475,0.025 3.3625,0.475 3.3625,2.25 0,1.7125 -1.65,2.9 -3.5875,3.0125 -0.1125,0.0875 -0.1,0.3375 0.0375,0.3875 1.9875,-0.0625 4.475,-1.5625 4.475,-3.725 0,-1.9 -1.75,-2.5875 -3.3125,-2.7375 l -0.2625,-0.025 c -0.175,-0.0125 -0.225,-0.075 -0.175,-0.225 l 0.225,-0.75 c 0.075,-0.2375 0.1375,-0.3 0.425,-0.3375 l 2.3625,-0.3375 c 0.175,-0.1875 0.3625,-0.5 0.45,-0.775 0,-0.05 -0.0375,-0.125 -0.1125,-0.1125 l -3.0125,0.425 c -0.2,0.025 -0.2625,0.1375 -0.325,0.3375 l -0.6625,2.225 z"/>
    <use x="38.118555" y="177.03229" xlink:href="#path57"/>
    <use x="44.431055" y="176.50729" xlink:href="#path63"/>
    <use x="49.234766" y="177.15729" xlink:href="#path65"/>
    <use x="59.877148" y="171.24479" xlink:href="#path67"/>
    <path id="path69" style="" d="m 64.574219,175.60729 c 0,1.7 0.8625,3.125 2.6875,3.125 1.5625,0 2.6375,-1.15 2.6375,-2.6125 0,-1.275 -0.7875,-2.2375 -1.9875,-2.2375 -0.4875,0 -0.8625,0.15 -1.225,0.375 -0.05,0.075 -0.0375,0.1625 0.0375,0.2 0.125,-0.0375 0.325,-0.1 0.575,-0.1 1.0625,0 1.5375,1.025 1.5375,2.0875 0,1.0625 -0.475,1.9125 -1.4125,1.9125 -1.2375,0 -1.7375,-1.3375 -1.7375,-2.7875 0,-1.2875 0.3625,-2.6625 1.425,-3.7875 0.9,-0.9625 1.975,-1.325 2.775,-1.6 0.0625,-0.0625 0.0375,-0.225 -0.05,-0.2625 -0.7625,0.1 -2.2875,0.5 -3.5875,1.775 -1.325,1.3 -1.675,2.85 -1.675,3.9125 z"/>
    <path id="path71" style="" d="m 71.799219,169.80729 c -0.35,0 -0.5375,0.025 -0.5375,0.3 0,0.0875 0.025,0.225 0.0625,0.4875 l 0.325,2.0125 c 0.1,0.1 0.2,0.1 0.3,0 l 0.325,-2.0125 c 0.0375,-0.2625 0.0625,-0.4 0.0625,-0.4875 0,-0.275 -0.1875,-0.3 -0.5375,-0.3 z"/>
    <use x="75.578906" y="173.45729" xlink:href="#path73"/>
    <use x="83.882227" y="173.45729" xlink:href="#path75"/>
    <use x="88.512109" y="173.45729" xlink:href="#path77"/>
    <use x="93.478711" y="174.63229" xlink:href="#path79"/>
    <use x="99.112695" y="177.15729" xlink:href="#path65"/>
    <use x="108.11758" y="174.15729" xlink:href="#path83"/>
    <use x="112.88809" y="176.50729" xlink:href="#path63"/>
    <use x="118.7918" y="173.45729" xlink:href="#path73"/>
    <use x="125.94512" y="173.45729" xlink:href="#path73"/>
    <use x="129.63594" y="174.63229" xlink:href="#path79"/>
    <use x="137.51992" y="173.45729" xlink:href="#path75"/>
    <use x="142.5248" y="173.45729" xlink:href="#path75"/>
    <use x="147.99219" y="175.35729" xlink:href="#path97"/>
    <use x="151.33574" y="173.45729" xlink:href="#path73"/>
    <use x="155.36406" y="173.45729" xlink:href="#path73"/>
    <use x="161.00488" y="175.35729" xlink:href="#path97"/>
    <use x="164.34844" y="173.45729" xlink:href="#path73"/>
    <use x="62.743066" y="185.33229" xlink:href="#path77"/>
    <use x="66.947168" y="189.03229" xlink:href="#path65"/>
    <use x="76.264551" y="193.54479" xlink:href="#path111"/>
    <use x="83.910059" y="185.33229" xlink:href="#path77"/>
    <use x="88.87666" y="186.50729" xlink:href="#path79"/>
    <use x="94.510645" y="189.03229" xlink:href="#path117"/>
    <use x="104.22354" y="186.03229" xlink:href="#path83"/>
    <use x="108.33154" y="187.23229" xlink:href="#path97"/>
    <use x="111.6751" y="185.33229" xlink:href="#path73"/>
    <use x="117.04092" y="186.03229" xlink:href="#path83"/>
    <use x="119.53643" y="185.33229" xlink:href="#path73"/>
    <use x="122.80225" y="190.60729" xlink:href="#path129"/>
    <use x="11.719141" y="204.15729" xlink:href="#path131"/>
    <use x="17.932031" y="201.65729" xlink:href="#path133"/>
    <use x="21.857813" y="209.16979" xlink:href="#path111"/>
    <use x="29.50332" y="200.95729" xlink:href="#path77"/>
    <use x="34.469922" y="202.13229" xlink:href="#path79"/>
    <use x="44.091406" y="205.16979" xlink:href="#path141"/>
    <use x="53.355859" y="200.95729" xlink:href="#path77"/>
    <use x="58.322461" y="202.13229" xlink:href="#path79"/>
    <use x="64.756445" y="198.74479" xlink:href="#path147"/>
    <use x="71.107617" y="198.74479" xlink:href="#path67"/>
    <use x="79.867187" y="201.40729" xlink:href="#path151"/>
    <use x="82.346094" y="204.00729" xlink:href="#path63"/>
    <use x="87.149805" y="204.65729" xlink:href="#path155"/>
    <use x="90.372461" y="204.65729" xlink:href="#path65"/>
    <use x="100.31484" y="204.00729" xlink:href="#path63"/>
    <use x="105.11855" y="204.65729" xlink:href="#path65"/>
    <use x="113.56094" y="200.95729" xlink:href="#path77"/>
    <use x="120.20254" y="201.65729" xlink:href="#path83"/>
    <use x="121.47305" y="204.65729" xlink:href="#path167"/>
    <use x="130.75586" y="202.85729" xlink:href="#path97"/>
    <use x="132.99941" y="204.65729" xlink:href="#path117"/>
    <path id="path173" style="" d="m 140.6498,204.18229 c 0,1.3125 -0.025,1.45 -0.6875,1.5625 l -0.225,0.0375 c -0.075,0.075 -0.05,0.275 0.025,0.3125 0.4625,-0.0125 0.8875,-0.0375 1.4375,-0.0375 0.525,0 1.1375,0.0375 1.5,0.0375 2.25,0 3.325,-0.975 3.325,-2.425 0,-1.3375 -1,-1.9625 -1.675,-2.0875 -0.1375,-0.025 -0.2375,-0.0625 -0.2375,-0.1875 0.75,-0.35 1.275,-0.8125 1.275,-1.7125 0,-0.8 -0.4125,-1.3 -0.95,-1.5625 -0.5625,-0.2875 -1.3125,-0.35 -2.1,-0.35 -1.1625,0 -2.0125,0.0375 -2.6875,0.1 -0.1,0.05 -0.1125,0.2375 -0.0125,0.3125 l 0.4,0.0375 c 0.5625,0.05 0.6125,0.2875 0.6125,1.2125 l 0,4.75 z m 1.025,-2.0375 c 0,-0.25 0.05,-0.325 0.725,-0.325 1.9875,0 2.4875,1.15 2.4875,2.1375 0,1.25 -0.85,1.75 -1.9625,1.75 -0.375,0 -0.75,-0.0625 -0.9875,-0.35 -0.2375,-0.275 -0.2625,-0.9125 -0.2625,-1.3625 l 0,-1.85 z m 0,-3.5875 c 0,-0.225 0.05,-0.2875 0.175,-0.325 0.1125,-0.05 0.3,-0.075 0.575,-0.075 0.95,0 1.8625,0.4625 1.8625,1.6875 0,1.175 -0.6875,1.55 -1.9625,1.6 -0.6375,0.025 -0.65,0 -0.65,-0.35 l 0,-2.5375 z"/>
    <use x="148.49668" y="198.74479" xlink:href="#path147"/>
    <use x="153.48535" y="202.85729" xlink:href="#path97"/>
    <use x="156.82891" y="200.95729" xlink:href="#path73"/>
    <use x="160.85723" y="200.95729" xlink:href="#path73"/>
    <use x="166.49805" y="202.85729" xlink:href="#path97"/>
    <use x="172.8166" y="198.74479" xlink:href="#path67"/>
    <use x="18.599023" y="212.83229" xlink:href="#path75"/>
    <use x="23.228906" y="212.83229" xlink:href="#path77"/>
    <use x="27.433008" y="216.53229" xlink:href="#path65"/>
    <use x="38.075391" y="210.61979" xlink:href="#path67"/>
    <use x="40.372461" y="216.53229" xlink:href="#path155"/>
    <use x="46.032617" y="213.53229" xlink:href="#path83"/>
    <use x="47.428125" y="216.53229" xlink:href="#path155"/>
    <use x="52.525781" y="212.83229" xlink:href="#path77"/>
    <use x="56.729883" y="216.53229" xlink:href="#path65"/>
    <use x="63.484766" y="216.40729" xlink:href="#path57"/>
    <path id="path207" style="" d="m 72.622266,213.53229 c 0.225,0 0.2375,0.0375 0.2375,0.25 l 0,2.75 c 0,0.9 -0.0125,1.025 -0.475,1.0875 l -0.2875,0.0375 c -0.0875,0.0625 -0.0625,0.275 0.025,0.3125 0.375,-0.025 0.75,-0.0375 1.2,-0.0375 0.4375,0 0.8,0.0125 1.2125,0.0375 0.0875,-0.0375 0.1125,-0.25 0.025,-0.3125 l -0.3,-0.0375 c -0.45,-0.0625 -0.475,-0.1875 -0.475,-1.0875 l 0,-5.625 c 0,-0.5375 0.0125,-1.3125 0.0375,-1.8625 -0.0375,-0.0375 -0.0875,-0.05 -0.15,-0.05 l -0.325,0.325 c -0.3625,-0.225 -0.7625,-0.325 -1.1625,-0.325 -1.3375,0 -2.0625,0.9375 -2.3375,1.6125 -0.2875,0.7 -0.3375,1.3875 -0.3375,2.175 0,0.125 -0.0875,0.2 -0.1875,0.25 l -0.5375,0.2625 c -0.05,0.075 -0.0375,0.1875 0.0375,0.2375 l 0.4375,0 c 0.25,0 0.25,0.025 0.25,0.3625 l 0,2.6375 c 0,0.9 -0.0125,1.025 -0.475,1.0875 l -0.2875,0.0375 c -0.0875,0.0625 -0.0625,0.275 0.025,0.3125 0.375,-0.025 0.75,-0.0375 1.2,-0.0375 0.4375,0 0.8,0.0125 1.3,0.0375 0.0875,-0.0375 0.1125,-0.25 0.025,-0.3125 l -0.3875,-0.0375 c -0.45,-0.0375 -0.475,-0.1875 -0.475,-1.0875 l 0,-2.6125 c 0,-0.3875 0.0125,-0.3875 0.2375,-0.3875 l 1.95,0 z m 0.2375,-0.775 c 0,0.225 -0.05,0.25 -0.2375,0.25 l -1.95,0 c -0.2125,0 -0.2375,-0.0125 -0.2375,-0.2625 l 0,-0.3875 c 0,-1.05 0.0625,-2.9625 1.45,-2.9625 0.3375,0 0.625,0.225 0.7625,0.4 0.15,0.2 0.2125,0.525 0.2125,0.95 l 0,2.0125 z"/>
    <use x="76.06582" y="216.53229" xlink:href="#path155"/>
    <path id="path211" style="" d="m 79.125977,219.71979 c 0,0.9 -0.0125,1.025 -0.475,1.0875 l -0.2625,0.0375 c -0.0875,0.0625 -0.0625,0.275 0.025,0.3125 0.35,-0.025 0.725,-0.0375 1.175,-0.0375 0.4375,0 0.8,0.0125 1.4,0.0375 0.0875,-0.0375 0.1125,-0.25 0.025,-0.3125 l -0.4875,-0.0625 c -0.45,-0.0625 -0.475,-0.175 -0.475,-1.0625 l 0,-1.3125 c 0,-0.2625 0.0625,-0.325 0.175,-0.35 0.1125,0.025 0.4625,0.05 0.6875,0.05 1.775,0 3.05,-1.25 3.05,-2.9875 0,-1.2625 -0.8125,-2.2875 -2.075,-2.2875 -0.8,0 -1.5875,0.5125 -1.75,0.5875 -0.0875,0 -0.1125,-0.075 -0.1125,-0.1625 0,-0.1625 0.025,-0.35 0.05,-0.575 -0.025,-0.0625 -0.075,-0.0875 -0.15,-0.0875 -0.325,0.2375 -0.9125,0.5375 -1.2375,0.675 -0.0625,0.0375 -0.0625,0.175 -0.0125,0.225 l 0.1125,0.075 c 0.3375,0.225 0.3375,0.2875 0.3375,0.775 l 0,5.375 z m 0.925,-5.2 c 0,-0.4125 0.0375,-0.6 0.15,-0.7375 0.1375,-0.15 0.525,-0.35 1.0625,-0.35 1.125,0 1.6875,1.0125 1.6875,2.0125 0,1.3 -0.6,2.25 -1.625,2.25 -0.2625,0 -0.65,-0.0875 -0.9,-0.275 -0.25,-0.2 -0.375,-0.35 -0.375,-0.75 l 0,-2.15 z"/>
    <use x="91.198633" y="213.53229" xlink:href="#path83"/>
    <use x="92.469141" y="216.53229" xlink:href="#path167"/>
    <use x="99.039453" y="216.53229" xlink:href="#path155"/>
    <use x="103.36211" y="212.83229" xlink:href="#path73"/>
    <use x="111.66543" y="212.83229" xlink:href="#path75"/>
    <use x="114.67031" y="215.88229" xlink:href="#path63"/>
    <use x="119.47402" y="216.53229" xlink:href="#path117"/>
    <use x="127.52852" y="210.61979" xlink:href="#path67"/>
    <use x="132.95059" y="216.53229" xlink:href="#path155"/>
    <use x="136.17324" y="216.53229" xlink:href="#path65"/>
    <use x="143.84062" y="212.83229" xlink:href="#path73"/>
    <use x="149.20645" y="213.53229" xlink:href="#path83"/>
    <use x="153.31445" y="214.73229" xlink:href="#path97"/>
    <use x="155.80801" y="215.88229" xlink:href="#path63"/>
    <use x="164.68672" y="210.61979" xlink:href="#path67"/>
    <use x="167.32129" y="218.10729" xlink:href="#path129"/>
    <use x="27.966699" y="231.65729" xlink:href="#path131"/>
    <use x="34.17959" y="229.15729" xlink:href="#path133"/>
    <use x="38.105371" y="236.66979" xlink:href="#path111"/>
    <use x="45.750879" y="228.45729" xlink:href="#path77"/>
    <use x="50.71748" y="229.63229" xlink:href="#path79"/>
    <use x="60.338965" y="232.66979" xlink:href="#path141"/>
    <use x="69.603418" y="228.45729" xlink:href="#path77"/>
    <use x="74.57002" y="229.63229" xlink:href="#path79"/>
    <use x="81.004004" y="226.24479" xlink:href="#path147"/>
    <use x="87.355176" y="226.24479" xlink:href="#path67"/>
    <use x="96.114746" y="228.90729" xlink:href="#path151"/>
    <use x="98.593652" y="231.50729" xlink:href="#path63"/>
    <use x="103.39736" y="232.15729" xlink:href="#path155"/>
    <use x="106.62002" y="232.15729" xlink:href="#path65"/>
    <use x="116.5624" y="231.50729" xlink:href="#path63"/>
    <path id="path275" style="" d="m 123.81611,229.48229 c 0,1.6125 0.775,2.75 1.775,3.4375 0.9125,0.6125 1.9875,0.8375 3.1125,0.8375 0.8,0 1.7,-0.1875 1.975,-0.2875 0.1375,-0.05 0.2875,-0.1 0.4375,-0.125 0.1875,-0.2375 0.5125,-1.0625 0.6,-1.7125 -0.05,-0.0875 -0.2375,-0.1125 -0.325,-0.05 -0.2875,0.7375 -1,1.7875 -2.6125,1.7875 -2.05,0 -3.7125,-1.45 -3.7125,-4.075 0,-2.5875 1.625,-3.8 3.5375,-3.8 1.8125,0 2.375,0.975 2.5625,1.825 0.0875,0.075 0.275,0.0625 0.3375,-0.025 -0.1,-0.7625 -0.1625,-1.55 -0.175,-1.8375 -0.1125,0.0125 -0.2,-0.0125 -0.35,-0.05 -0.5875,-0.1625 -1.5375,-0.3 -2.2125,-0.3 -1.3,0 -2.4625,0.35 -3.375,1.0625 -0.95,0.7375 -1.575,1.925 -1.575,3.3125 z"/>
    <use x="133.72529" y="229.63229" xlink:href="#path79"/>
    <use x="139.35928" y="232.15729" xlink:href="#path117"/>
    <use x="144.60967" y="228.45729" xlink:href="#path73"/>
    <use x="150.25049" y="230.35729" xlink:href="#path97"/>
    <use x="156.56904" y="226.24479" xlink:href="#path67"/>
    <use x="29.768457" y="240.33229" xlink:href="#path75"/>
    <use x="34.39834" y="240.33229" xlink:href="#path77"/>
    <use x="38.602441" y="244.03229" xlink:href="#path65"/>
    <use x="49.244824" y="238.11979" xlink:href="#path67"/>
    <use x="51.541895" y="244.03229" xlink:href="#path155"/>
    <use x="57.202051" y="241.03229" xlink:href="#path83"/>
    <use x="58.597559" y="244.03229" xlink:href="#path155"/>
    <use x="63.695215" y="240.33229" xlink:href="#path77"/>
    <use x="67.899316" y="244.03229" xlink:href="#path65"/>
    <use x="74.654199" y="243.90729" xlink:href="#path57"/>
    <use x="84.791699" y="238.11979" xlink:href="#path67"/>
    <use x="87.08877" y="244.03229" xlink:href="#path155"/>
    <use x="91.411426" y="240.33229" xlink:href="#path73"/>
    <use x="96.589746" y="240.33229" xlink:href="#path75"/>
    <use x="99.594629" y="243.38229" xlink:href="#path63"/>
    <use x="104.39834" y="244.03229" xlink:href="#path117"/>
    <use x="112.45283" y="238.11979" xlink:href="#path67"/>
    <use x="120.3124" y="241.03229" xlink:href="#path83"/>
    <use x="121.58291" y="244.03229" xlink:href="#path167"/>
    <use x="128.15322" y="244.03229" xlink:href="#path155"/>
    <use x="132.47588" y="240.33229" xlink:href="#path73"/>
    <use x="140.7792" y="240.33229" xlink:href="#path75"/>
    <use x="143.78408" y="243.38229" xlink:href="#path63"/>
    <use x="148.58779" y="244.03229" xlink:href="#path117"/>
    <use x="156.64229" y="238.11979" xlink:href="#path67"/>
    <use x="74.649805" y="255.90729" xlink:href="#path155"/>
    <use x="77.872461" y="255.90729" xlink:href="#path65"/>
    <use x="85.539844" y="252.20729" xlink:href="#path73"/>
    <use x="90.905664" y="252.90729" xlink:href="#path83"/>
    <use x="95.013672" y="254.10729" xlink:href="#path97"/>
    <use x="97.507227" y="255.25729" xlink:href="#path63"/>
    <use x="106.38594" y="249.99479" xlink:href="#path67"/>
    <use x="109.02051" y="257.48229" xlink:href="#path129"/>
    <path id="path353" style="" d="m 25.109668,263.93281 q -0.45,0.75 -0.8125,1.35 -0.15,0.2625 -0.3125,0.5125 -0.15,0.25 -0.275,0.45 -0.1125,0.2 -0.2,0.3375 -0.0875,0.1375 -0.1125,0.1625 0.05,-0.0125 0.3,-0.025 0.2625,-0.0125 0.55,-0.0375 0.3375,-0.025 0.7625,-0.0375 l -4.2625,2.4375 1.35,0.625 -4.3875,1.55 1.725,-1.4375 -0.6375,-0.45 3.1125,-4.9375 -0.3875,1.85 3.5875,-2.35 z m -2.425,5.8875 q 0.1,0.6875 -0.0375,1.3625 -0.125,0.6625 -0.4625,1.25 -0.325,0.5875 -0.8375,1.05 -0.5125,0.4625 -1.1875,0.7375 -0.8,0.3375 -1.625,0.3125 -0.8125,-0.0125 -1.55,-0.325 -0.725,-0.3 -1.3125,-0.8875 -0.5875,-0.575 -0.9,-1.375 -0.3375,-0.7875 -0.325,-1.6125 0.025,-0.825 0.325,-1.55 0.3125,-0.7375 0.875,-1.325 0.575,-0.5875 1.3625,-0.9125 0.8,-0.3125 1.6,-0.2875 0.8125,0.0125 1.55,0.2875 l -1.1,1.7875 q -0.1875,-0.475 -0.25,-0.925 -0.0625,-0.4625 0,-0.825 -0.125,0.625 -0.425,1.0125 -0.3,0.375 -0.6625,0.475 -0.3625,0.0875 -0.7375,-0.1125 -0.3625,-0.2 -0.625,-0.7375 0.2625,0.5375 0.2125,1.0625 -0.0375,0.5125 -0.3125,0.9 -0.275,0.3875 -0.725,0.575 -0.45,0.1875 -0.9875,0.0625 0.5375,0.125 0.8875,0.4375 0.35,0.3125 0.475,0.725 0.125,0.4 0,0.85 -0.125,0.45 -0.525,0.85 0.4375,-0.2625 0.85,-0.25 0.425,0 0.725,0.2375 0.3125,0.225 0.475,0.65 0.1625,0.425 0.0875,1 0.075,-0.575 0.3875,-0.925 0.3125,-0.3375 0.7375,-0.4125 0.425,-0.0875 0.875,0.1 0.4625,0.175 0.825,0.6625 -0.3625,-0.4875 -0.375,-0.9375 -0.0125,-0.45 0.2375,-0.7625 0.25,-0.325 0.725,-0.4625 0.4875,-0.15 1.1125,0 -0.4,-0.0875 -0.8,-0.3375 -0.3875,-0.2625 -0.75,-0.6625 l 1.8375,-0.6375 0.35,-0.125 z m -0.2625,-0.925 q 0.1125,0.275 0.2,0.5625 l -0.275,-0.1125 -0.7,-0.325 0.6625,-0.3625 q 0.025,0.0625 0.05,0.125 0.0375,0.05 0.0625,0.1125 z"/>
    <path id="path355" style="" d="m 26.879395,269.75781 c 0.425,0 0.7,-0.2875 0.7,-0.6875 0,-0.4 -0.275,-0.7375 -0.7,-0.7375 -0.4,0 -0.7,0.3125 -0.7,0.7375 0,0.425 0.3375,0.6875 0.7,0.6875 z m 0,3.675 c 0.425,0 0.7,-0.2875 0.7,-0.6875 0,-0.4 -0.275,-0.7375 -0.7,-0.7375 -0.4,0 -0.7,0.3125 -0.7,0.7375 0,0.425 0.3375,0.6875 0.7,0.6875 z"/>
    <path id="path357" style="" d="m 33.166895,271.38281 c 0,1.3125 -0.025,1.475 -0.75,1.5625 l -0.3125,0.0375 c -0.075,0.0875 -0.05,0.275 0.025,0.3125 0.5875,-0.025 1.0375,-0.0375 1.5625,-0.0375 0.5,0 0.925,0.0125 1.4875,0.0375 0.075,-0.0375 0.1,-0.25 0.025,-0.3125 l -0.2625,-0.0375 c -0.725,-0.1 -0.75,-0.25 -0.75,-1.5625 l 0,-1.575 c 0,-0.2625 0.025,-0.275 0.5875,-0.275 0.5,0 0.7,0.125 0.8875,0.4 0.3875,0.5625 0.9,1.425 1.225,1.8875 0.8875,1.2625 1.525,1.575 2.5875,1.575 0.2375,0 0.4375,-0.025 0.55,-0.0625 0.0625,-0.05 0.05,-0.15 -0.0125,-0.175 -0.3375,-0.025 -0.65,-0.1625 -0.8625,-0.35 -0.85,-0.7125 -1.5125,-1.7125 -2.5125,-3.325 -0.0625,-0.1 -0.125,-0.225 -0.0625,-0.3 0.625,-0.25 1.5625,-0.9 1.5625,-2.0875 0,-0.875 -0.4375,-1.4375 -1.0375,-1.75 -0.575,-0.3125 -1.3125,-0.375 -2.0875,-0.375 -1.225,0 -2.0875,0.0375 -2.7875,0.1 -0.1,0.05 -0.1,0.25 -0.0125,0.3125 l 0.4,0.05 c 0.5125,0.0625 0.55,0.275 0.55,1.4625 l 0,4.4875 z m 1.025,-5.625 c 0,-0.35 0.0375,-0.4 0.8125,-0.4 1.3875,0 2,0.9375 2,1.925 0,0.85 -0.2875,1.2875 -0.625,1.55 -0.3625,0.275 -0.8375,0.325 -1.2875,0.325 -0.6375,0 -0.825,-0.025 -0.8625,-0.0625 -0.0375,-0.05 -0.0375,-0.1875 -0.0375,-0.4125 l 0,-2.925 z"/>
    <use x="42.577051" y="268.15781" xlink:href="#path77"/>
    <use x="47.581152" y="265.94531" xlink:href="#path147"/>
    <use x="50.657324" y="265.94531" xlink:href="#path147"/>
    <use x="57.583496" y="271.73281" xlink:href="#path365"/>
    <use x="69.508496" y="265.94531" xlink:href="#path67"/>
    <use x="71.805566" y="271.85781" xlink:href="#path155"/>
    <use x="77.740723" y="270.05781" xlink:href="#path97"/>
    <use x="80.321777" y="273.43281" xlink:href="#path129"/>
    <path id="path375" style="" d="m 90.034277,273.45781 c 2.4125,0 4.3375,-1.8375 4.3375,-4.3625 0,-2.2 -1.45,-4.2875 -4.3375,-4.2875 -2.575,0 -4.45,1.9125 -4.45,4.4125 0,2.25 1.675,4.2375 4.45,4.2375 z m 0.1625,-0.3875 c -2.4625,0 -3.3625,-2.4 -3.3625,-4.25 0,-2.7375 1.6875,-3.625 2.9875,-3.625 2.3875,0 3.3,2.225 3.3,4.2875 0,2.4625 -1.425,3.5875 -2.925,3.5875 z"/>
    <use x="96.097559" y="271.85781" xlink:href="#path65"/>
    <use x="106.03994" y="271.20781" xlink:href="#path63"/>
    <use x="115.49365" y="271.73281" xlink:href="#path365"/>
    <use x="125.21865" y="268.15781" xlink:href="#path77"/>
    <use x="129.42275" y="271.85781" xlink:href="#path117"/>
    <path id="path387" style="" d="m 137.87314,272.48281 c -0.325,0 -0.3875,-0.025 -0.3875,-0.1125 0,-0.075 0.1125,-0.275 1.1375,-1.45 l 0.7625,-0.875 c 0.975,-1.125 1.3375,-1.975 1.3375,-2.75 0,-1.2 -0.8125,-2.0375 -2.0625,-2.0375 -1.125,0 -2.1125,0.6625 -2.5125,1.7625 0,0.1625 0.1875,0.225 0.3,0.1625 0.3375,-0.7375 0.875,-1.25 1.625,-1.25 1.0125,0 1.5625,0.6875 1.5625,1.825 0,1.3375 -0.9625,2.55 -1.7875,3.4375 -0.925,1 -1.3375,1.425 -1.9125,1.8 -0.075,0.05 -0.1375,0.1 -0.1375,0.1375 0,0.1 0.0625,0.15 0.0875,0.1625 0.275,-0.025 0.6875,-0.0375 1.3875,-0.0375 l 1.8125,0 c 0.575,0 1.1,0.0125 1.6125,0.0375 0.1875,-0.25 0.4125,-0.9 0.575,-1.525 -0.05,-0.075 -0.1875,-0.1125 -0.275,-0.075 -0.075,0.1375 -0.1625,0.3 -0.4,0.5125 -0.225,0.2 -0.6,0.275 -1.175,0.275 l -1.55,0 z"/>
    <use x="143.13564" y="271.73281" xlink:href="#path57"/>
    <use x="56.630078" y="277.82032" xlink:href="#path67"/>
    <use x="58.927148" y="283.73282" xlink:href="#path155"/>
    <use x="63.249805" y="280.03282" xlink:href="#path73"/>
    <use x="68.428125" y="280.03282" xlink:href="#path75"/>
    <use x="71.433008" y="283.08282" xlink:href="#path63"/>
    <use x="76.236719" y="283.73282" xlink:href="#path117"/>
    <use x="84.291211" y="277.82032" xlink:href="#path67"/>
    <use x="92.150781" y="280.73282" xlink:href="#path83"/>
    <use x="93.421289" y="283.73282" xlink:href="#path167"/>
    <use x="99.991602" y="283.73282" xlink:href="#path155"/>
    <use x="104.31426" y="280.03282" xlink:href="#path73"/>
    <use x="112.61758" y="280.03282" xlink:href="#path75"/>
    <use x="115.62246" y="283.08282" xlink:href="#path63"/>
    <use x="120.42617" y="283.73282" xlink:href="#path117"/>
    <use x="128.48066" y="277.82032" xlink:href="#path67"/>
    <use x="131.11523" y="285.30782" xlink:href="#path129"/>
  </g>
  <g id="text4147" style="fill:#000000;fill-opacity:1;stroke:none;stroke-width:1px;stroke-linecap:butt;stroke-linejoin:miter;stroke-opacity:1">
    <path id="path424" style="" d="m 37.020574,16.079937 c -0.81875,0 -1.575,0.2875 -2.1,0.7625 -0.5125,0.4625 -0.89375,1.15625 -0.89375,1.88125 0,1.3125 0.9375,1.68125 1.75,1.68125 0.21875,0 0.425,-0.04375 0.60625,-0.075 0.1875,-0.03125 0.35625,-0.06875 0.49375,-0.06875 0.2125,-0.38125 0.35,-0.7125 0.40625,-0.88125 -0.01875,-0.05625 -0.0875,-0.06875 -0.15,-0.04375 -0.3,0.49375 -0.69375,0.875 -1.34375,0.875 -0.79375,0 -1.2125,-0.48125 -1.2125,-1.36875 0,-0.825 0.425,-1.55625 0.7375,-1.86875 0.575,-0.5625 1.15625,-0.7 1.6,-0.7 0.64375,0 0.8,0.29375 0.68125,0.8375 0.01875,0.05 0.14375,0.05625 0.16875,0.0062 0.05625,-0.23125 0.18125,-0.59375 0.28125,-0.8375 -0.15625,-0.0625 -0.5375,-0.2 -1.025,-0.2 z"/>
    <use x="39.267352" y="17.754937" xlink:href="#path426"/>
    <use x="41.500164" y="18.011187" xlink:href="#path428"/>
    <path id="path430" style="" d="m 45.549871,17.948687 c -0.06875,-0.13125 -0.21875,-0.19375 -0.31875,-0.19375 -0.3,0 -0.69375,0.175 -1.11875,0.55625 -0.49375,0.44375 -0.83125,1.1875 -0.83125,1.63125 0,0.25 0.13125,0.45 0.375,0.45 0.60625,0 1.075,-0.60625 1.50625,-1.18125 l 0.025,0.0063 -0.21875,0.61875 c -0.0625,0.18125 -0.08125,0.28125 -0.08125,0.35625 0,0.1 0.06875,0.2 0.2,0.2 0.325,0 0.89375,-0.5125 1.0625,-0.85625 -0.0062,-0.05625 -0.0375,-0.08125 -0.09375,-0.08125 -0.19375,0.24375 -0.5875,0.5625 -0.6875,0.5625 -0.05625,0 -0.0625,-0.0625 -0.0375,-0.14375 0.05625,-0.1875 0.35,-1.1875 0.96875,-2.89375 0.1875,-0.51875 0.28125,-0.75625 0.39375,-1.10625 l -0.025,-0.0375 c -0.26875,-0.0063 -0.61875,0.075 -0.7375,0.11875 -0.025,0.025 -0.03125,0.0625 -0.01875,0.0875 l 0.14375,0.1 c 0.0875,0.0625 0.06875,0.16875 -0.05625,0.51875 l -0.45,1.2875 z m -0.33125,-0.0062 c 0.15625,0 0.2375,0.1875 0.1625,0.45 -0.09375,0.33125 -0.275,0.70625 -0.7625,1.20625 -0.43125,0.44375 -0.75,0.55625 -0.84375,0.55625 -0.05625,0 -0.11875,-0.05625 -0.11875,-0.13125 0,-0.08125 0,-0.19375 0.19375,-0.59375 0.19375,-0.39375 0.64375,-0.9875 0.89375,-1.21875 0.1625,-0.15 0.33125,-0.26875 0.475,-0.26875 z"/>
    <use x="46.39743" y="20.167437" xlink:href="#path432"/>
    <path id="path434" style="" d="m 49.912078,18.142437 c 0.08125,-0.04375 0.11875,-0.16875 0.075,-0.23125 l -0.68125,0 0.18125,-0.6125 c -0.05,-0.0625 -0.175,-0.075 -0.2375,-0.0375 l -0.35,0.61875 -0.5,0.0875 c -0.0625,0.025 -0.08125,0.1125 -0.06875,0.175 l 0.4875,0 -0.5875,1.725 c -0.0625,0.1875 -0.0875,0.275 -0.0875,0.35625 0,0.075 0.08125,0.16875 0.16875,0.16875 0.2625,0 0.85,-0.38125 1.2,-0.9 0.0125,-0.075 -0.025,-0.1125 -0.0875,-0.1125 -0.20625,0.2375 -0.61875,0.5625 -0.7125,0.5625 -0.05,0 -0.08125,-0.0375 -0.04375,-0.15625 l 0.5625,-1.64375 0.68125,0 z"/>
    <use x="49.900848" y="20.167437" xlink:href="#path432"/>
    <use x="53.146746" y="17.754937" xlink:href="#path426"/>
    <use x="55.379559" y="18.011187" xlink:href="#path428"/>
  </g>
<defs><path id="path35" d="m 0,0 q 0.04,-0.1899999 0.06,-0.2599999 0.03,-0.07 0.03,-0.12 0,-0.05 -0.03,-0.12 -0.02,-0.07 -0.06,-0.27 l -0.07,-0.04 q -0.06,-0.24 -0.18,-0.37 -0.12,-0.14 -0.26,-0.23 -0.13,-0.09 -0.26,-0.16 -0.12,-0.07 -0.2,-0.18 -0.29,-0.04 -0.55,-0.06 -0.25,-0.02 -0.56,-0.02 l -0.8,0.49 q -0.03,0.14 -0.13,0.23 -0.1,0.09 -0.21,0.17 -0.06,0.22 -0.16,0.43 -0.1,0.21 -0.16,0.4299999 -0.14,0.05 -0.18,0.27 -0.04,0.22 -0.03,0.49 0.02,0.27 0.06,0.54 0.04,0.26 0.07,0.39 0.11,0.07 0.12,0.15 0.02,0.07 0.05,0.18 l 0.07,0.04 0.09,0.29 q 0.12,0.09 0.22,0.19 0.11,0.1 0.19,0.22 0.3,0.13 0.41,0.19 0.11,0.05 0.21,0.06 0.11,0.02 0.28,0.01 0.18,-0.01 0.61,-0.01 0.21,-0.18 0.31,-0.21 0.11,-0.04 0.21,-0.09 0.11,-0.05 0.27,-0.18 0.17,-0.13 0.5,-0.5 l 0,-0.22 q -0.05,-0.02 -0.11,-0.04 -0.06,-0.03 -0.12,-0.06 -0.05,0.11 -0.14,0.13 -0.08,0.02 -0.19,0.04 l -0.1,0.15 -0.17,0.02 q -0.08,0.12 -0.19,0.1 -0.11,-0.03 -0.24,0 0.03,0.02 0,0.04 -0.02,0.02 -0.04,0.02 -0.09,0 -0.2,0.02 -0.11,0.01 -0.21,0.01 -0.1,-0.01 -0.19,-0.05 -0.08,-0.04 -0.13,-0.14 -0.17,-0.05 -0.3,-0.18 -0.13,-0.13 -0.24,-0.26 -0.02,-0.14 -0.04,-0.27 -0.01,-0.13 -0.06,-0.26 l -0.08,-0.04 0,-0.75 q 0.15,-0.12 0.29,-0.26 l 0.41,0 q 0.03,0.02 0.04,0.04 0.01,0.01 0.03,0.02 l 0.85,0 0.04,0.09 0.19,0.02 q -0.01,0.06 0.09,0.07 0.11,0.01 0.26,0 0.15,-0.02 0.3,-0.04 0.15,-0.03 0.23,-0.05 l 0.1,-0.1 z m -0.72,-0.7099999 q 0,0.05 -0.05,0.11 -0.04,0.06 -0.11,0.11 -0.06,0.04 -0.13,0.07 -0.07,0.03 -0.12,0.03 l -0.43,0 q -0.03,0 -0.03,-0.03 0.01,-0.03 -0.03,-0.03 l -0.46,0 q -0.12,-0.13 -0.25,-0.25 0.07,-0.1 0.13,-0.19 0.06,-0.1 0.12,-0.19 0.18,-0.06 0.3,-0.18 l 0.64,0 q 0.05,0 0.07,0.06 0.03,0.06 0.04,0.1 0.04,0.01 0.07,0.02 0.03,0 0.06,0 0.04,0.05 0.11,0.18 0.07,0.13 0.07,0.19 z"/><path id="path37" d="m 0,0 q 0,-0.09 -0.01,-0.09 -0.02,-0.38 -0.2,-0.65 -0.17,-0.27 -0.59,-0.33 l -0.05,-0.08 -0.25,-0.02 q 0,-0.04 -0.04,-0.06 -0.17,0 -0.35,0.01 -0.17,0.01 -0.31,-0.08 -0.02,-0.06 -0.07,-0.1 -0.04,-0.05 -0.09,-0.1 -0.05,-0.06 -0.09,-0.14 -0.03,-0.08 -0.03,-0.21 0,-0.22 0.14,-0.43 0.15,-0.21 0.39,-0.21 0.04,-0.07 0.14,-0.09 0.2,0.06 0.37,0.25 0.18,0.19 0.26,0.39 0.1,0.02 0.17,0.1 0.07,0.07 0.12,0.15 l 0.29,0 q 0.06,-0.17 0.08,-0.27 0.02,-0.1 0.01,-0.18 0,-0.08 -0.03,-0.17 -0.03,-0.1 -0.07,-0.26 -0.12,-0.09 -0.2,-0.13 -0.08,-0.05 -0.17,-0.08 -0.08,-0.03 -0.17,-0.05 -0.09,-0.02 -0.22,-0.06 l -0.04,-0.08 q -0.02,0 -0.08,0 -0.05,-0.01 -0.12,-0.02 -0.06,-0.01 -0.11,0 -0.05,0 -0.06,0.01 l -0.47,0 -0.02,0.09 q -0.09,0 -0.16,0.04 -0.07,0.03 -0.14,0.09 -0.07,0.05 -0.14,0.1 -0.07,0.05 -0.15,0.08 -0.14,0.17 -0.22,0.4 -0.07,0.23 -0.08,0.48 0,0.24 0.07,0.4699999 0.07,0.23 0.22,0.39 0.15,0.01 0.23,0.16 0.14,0.06 0.33,0.09 l 0.03,0.09 q 0.42,0 0.65,0 0.24,0 0.36,0.09 0.12,0.08 0.15,0.29 0.03,0.21 0.03,0.64 0,0.13 -0.07,0.25 -0.06,0.12 -0.16,0.22 -0.09,0.09 -0.21,0.16 -0.12,0.06 -0.23,0.08 l -0.07,-0.06 -0.41,0 q -0.07,0.05 -0.14,0.06 -0.07,0 -0.15,-0.01 -0.06,-0.06 -0.09,-0.14 0.08,-0.03 0.17,-0.1 -0.08,-0.24 -0.17,-0.47 -0.09,-0.24 -0.2,-0.47 l -0.22,0 q -0.1,0.2 -0.16,0.33 -0.05,0.12 -0.07,0.23 -0.02,0.11 0,0.25 0.02,0.14 0.07,0.36 0.1,0.11 0.17,0.23 0.21,0.1 0.32,0.18 0.12,0.07 0.2,0.12 0.09,0.04 0.16,0.06 0.08,0.02 0.21,0.01 0.13,0 0.34,-0.02 0.21,-0.03 0.56,-0.08 0,0 0.09,-0.04 0.1,-0.05 0.22,-0.12 0.13,-0.08 0.27,-0.18 0.14,-0.1 0.23,-0.22 l 0.01,-0.87 q 0,0 0,-0.06 0,-0.06 0,-0.12 0.01,-0.07 0.01,-0.13 0,-0.06 0,-0.06 0.01,0.03 0.01,0.09 z m 0,0 q 0,-0.06 -0.01,-0.09 0.01,0 0.01,0.09 z"/><path id="path48" d="m 0,0 c 0,0.613125 0.315,1.501875 1.603125,1.501875 0.68625,0 1.254375,-0.34875 1.54125,-0.64125 0.41625,-0.4275 0.691875,-1.074375 0.691875,-1.665 0,-1.215 -0.860625,-1.58625 -1.546875,-1.58625 -0.410625,0 -0.9225,0.12375 -1.389375,0.50625 -0.556875,0.455625 -0.9,1.175625 -0.9,1.884375 z m 2.35125,-2.131875 c 0.39375,0 0.680625,0.27 0.680625,0.928125 0,0.68625 -0.225,1.45125 -0.736875,2.041875 -0.264375,0.30375 -0.545625,0.405 -0.770625,0.405 -0.4725,0 -0.72,-0.399375 -0.72,-0.939375 0,-0.9225 0.495,-1.83375 0.945,-2.19375 0.18,-0.140625 0.388125,-0.241875 0.601875,-0.241875 z"/><path id="path57" d="m 0,0 c -0.4,0 -0.6125,0.275 -0.6125,0.5625 0,0.15 0.05,0.275 0.2125,0.3625 0.1125,0.0625 0.7125,0.2 0.7125,0.725 0,0.65 -0.6375,0.9625 -1.025,1.0875 -0.075,0.0625 -0.0375,0.2625 0.075,0.3 0.875,-0.2625 1.625,-0.825 1.625,-1.8125 0,-0.825 -0.55,-1.225 -0.9875,-1.225 z"/><path id="path63" d="m 0,0 c -0.8,0.2875 -1.0375,0.575 -1.0375,1.0625 0,0.35 0.15,0.6625 0.3875,0.875 0.2125,0.1875 0.5125,0.2875 0.875,0.2875 0.35,0 0.625,-0.1625 0.9,-0.3125 0.25,-0.1375 0.4,-0.25 0.4875,-0.25 0.075,0 0.15,0.1 0.2,0.175 0.2125,0.275 0.5125,0.3875 0.8125,0.3875 0.6125,0 1.05,-0.4875 1.05,-0.55 0,-0.0875 -0.0375,-0.1625 -0.0875,-0.1625 -0.0375,0 -0.1,0.05 -0.1625,0.0875 -0.075,0.0375 -0.1875,0.075 -0.3125,0.075 -0.4875,0 -0.6,-0.5125 -0.575,-1.0875 l 0.075,-2.175 c 0.0375,-0.9375 -0.4,-1.4625 -1.3,-1.4625 -0.9125,0 -2.325,0.8875 -2.325,1.5375 0,0.1125 0.0625,0.175 0.175,0.175 0.1875,0 0.525,-0.0875 0.7125,-0.2375 0.1,-0.075 0.1125,-0.225 0.125,-0.425 0.025,-0.3875 0.45,-0.5625 0.8,-0.5625 0.775,0 0.925,0.625 0.9125,1.0875 l -0.0125,0.575 c 0,0.1875 -0.025,0.3 -0.2125,0.3625 l -1.4875,0.5375 z m -0.075,0.9125 c 0,-0.4875 0.3625,-0.675 1.1,-0.925 0.225,-0.075 0.4375,-0.125 0.5125,-0.125 0.075,0 0.125,0.025 0.125,0.1625 l -0.025,0.7375 c -0.0125,0.2625 -0.0125,0.4375 -0.1625,0.5875 -0.125,0.125 -0.5125,0.3125 -0.7625,0.3125 -0.6375,0 -0.7875,-0.5375 -0.7875,-0.75 z"/><path id="path65" d="m 0,0 c 0,0.9 -0.0125,1.025 -0.475,1.0875 l -0.2625,0.0375 c -0.0875,0.0625 -0.0625,0.275 0.025,0.3125 0.35,-0.025 0.725,-0.0375 1.175,-0.0375 0.4375,0 0.8,0.0125 1.1375,0.0375 0.0875,-0.0375 0.1125,-0.25 0.025,-0.3125 l -0.225,-0.0375 c -0.45,-0.075 -0.475,-0.1875 -0.475,-1.0875 l 0,-1.9125 c 0,-0.3625 0.025,-0.5375 0.1875,-0.75 0.175,-0.2375 0.5875,-0.4375 1.0625,-0.4375 0.85,0 1.175,0.525 1.175,1.2375 l 0,1.8625 c 0,0.9 -0.0125,1.0125 -0.475,1.0875 l -0.2375,0.0375 c -0.0875,0.0625 -0.0625,0.275 0.025,0.3125 0.3375,-0.025 0.7125,-0.0375 1.1625,-0.0375 0.4375,0 0.8,0.0125 1.175,0.0375 0.0875,-0.0375 0.1125,-0.25 0.025,-0.3125 l -0.275,-0.0375 c -0.45,-0.0625 -0.475,-0.1875 -0.475,-1.0875 l 0,-2.15 c 0,-0.8375 -0.425,-1.55 -1.4625,-1.55 -0.6375,0 -1.225,0.3125 -1.75,0.6375 -0.0875,0 -0.1375,-0.0625 -0.1375,-0.1375 0,-0.1125 0,-0.3 0.025,-0.5875 -0.025,-0.0625 -0.0875,-0.0875 -0.1375,-0.0875 -0.25,0.1875 -0.9625,0.5125 -1.25,0.6125 -0.0625,0.0375 -0.0625,0.175 -0.0125,0.225 l 0.1125,0.075 c 0.3375,0.225 0.3375,0.2875 0.3375,0.775 l 0,2.1875 z"/><path id="path67" d="m 0,0 c 0,-0.55 0.025,-1.175 0.0375,-1.55 -0.025,-0.05 -0.075,-0.075 -0.125,-0.075 -0.45,0.2375 -1.0375,0.425 -1.35,0.525 -0.0625,0.0375 -0.0625,0.2125 0,0.25 l 0.125,0.075 c 0.375,0.225 0.3875,0.3 0.3875,1.0375 l 0,1.8875 c 0,0.1 -0.0125,0.175 -0.075,0.175 -0.1375,-0.05 -0.4125,-0.1125 -0.8375,-0.1125 -1.7,0 -3.025,1.125 -3.025,2.875 0,1.3125 0.925,2.4 2.3125,2.4 0.6,0 1.025,-0.2 1.575,-0.575 l 0.05,0 c 0.025,0.05 0.025,0.2 0.025,0.3875 l 0,0.2125 c 0,0.0625 0.0625,0.1 0.1375,0.1 0.35,-0.1375 1.125,-0.325 1.65,-0.4 0.1125,-0.0625 0.1,-0.375 0.0125,-0.4 -0.1875,0.0625 -0.4,0.125 -0.5375,0.125 -0.35,0 -0.3625,-0.4625 -0.3625,-1.45 l 0,-5.4875 z m -0.925,6.075 c 0,0.2 -0.0125,0.3875 -0.0875,0.4625 -0.2,0.2 -0.625,0.35 -0.9625,0.35 -1.225,0 -1.8625,-1.075 -1.8625,-2.2125 0,-1.0875 0.5875,-2.075 1.725,-2.075 0.4875,0 0.8625,0.2625 1.05,0.525 0.0875,0.125 0.1375,0.2375 0.1375,0.4875 l 0,2.4625 z"/><path id="path73" d="m 0,0 c -0.95,0 -1.7,0.5125 -1.7,1.425 0,0.6875 0.5125,1.125 1.2375,1.5375 0.4625,0.2625 0.9625,0.575 0.9625,1.15 0,0.5375 -0.3875,0.8 -0.8375,0.8 -0.7125,0 -1.1125,-0.6 -1.325,-1.2875 -0.0625,-0.075 -0.225,-0.0625 -0.2875,0.0125 -0.025,0.4125 0.05,1.025 0.15,1.2625 0.3125,0.25 0.75,0.375 1.3375,0.375 0.925,0 1.8,-0.475 1.8,-1.425 0,-0.8875 -0.6125,-1.3125 -1.275,-1.6875 -0.4375,-0.25 -0.9625,-0.525 -0.9625,-1.0375 0,-0.45 0.3125,-0.7625 0.8,-0.7625 0.5125,0 0.8875,0.3625 1.1,0.9125 0.0625,0.075 0.25,0.05 0.3,-0.0375 0,-0.3375 -0.0875,-0.7375 -0.2,-1.0125 -0.1125,-0.1 -0.575,-0.225 -1.1,-0.225 z"/><path id="path75" d="m 0,0 c -2.075,0 -3.025,1.4375 -3.025,2.7875 0,0.8125 0.2875,1.425 0.725,1.85 0.4375,0.425 1.05,0.6375 1.7125,0.6375 0.725,0 1.6625,-0.35 2.0875,-1.275 -0.0125,-0.1125 -0.125,-0.2 -0.225,-0.175 -0.2875,0.425 -0.6625,0.75 -1.3875,0.75 -1.3375,0 -2.0125,-1.1625 -2.0125,-2.1375 0,-1.325 0.85,-2.0125 1.725,-2.0125 0.5125,0 0.975,0.325 1.25,0.6625 0.05,0.0625 0.1125,0.0875 0.175,0.0875 0.15,0 0.275,-0.2375 0.275,-0.4625 0,-0.2125 -0.0875,-0.4125 -0.1875,-0.5 -0.3375,-0.15 -0.825,-0.2125 -1.1125,-0.2125 z"/><path id="path77" d="m 0,0 c -1.475,0 -2.6625,1.125 -2.6625,2.7 0,1.5625 1.125,2.575 2.5625,2.575 1.5625,0 2.6375,-1.125 2.6375,-2.6875 0,-1.5375 -1.1375,-2.5875 -2.5375,-2.5875 z m 1.4625,2.7875 c 0,0.9625 -0.3375,2.1125 -1.4375,2.1125 -1.1,0 -1.6125,-1.225 -1.6125,-2.3625 0,-1.375 0.6125,-2.1625 1.4375,-2.1625 1.1875,0 1.6125,1.35 1.6125,2.4125 z"/><path id="path79" d="m 0,0 c 0,-0.6125 0.0125,-0.875 0.0375,-1.0875 -0.0125,-0.05 -0.05,-0.075 -0.125,-0.0875 -0.275,0.1 -0.7625,0.2125 -1.3375,0.225 -0.0875,0.0375 -0.1,0.2125 -0.025,0.275 l 0.15,0.0625 c 0.375,0.1625 0.375,0.275 0.375,1.0625 l 0,2.0875 c 0,1.0125 0.4125,1.5625 1.5125,1.5625 0.7375,0 1.35,-0.4125 1.725,-0.65 0.075,0 0.1125,0.0625 0.1125,0.175 l 0,0.5125 c 0.025,0.05 0.0875,0.0875 0.15,0.0875 0.425,-0.2375 1.15,-0.3625 1.6375,-0.4625 0.1,-0.05 0.0875,-0.3 0.0125,-0.3625 -0.175,0.0375 -0.3375,0.0625 -0.4875,0.0625 -0.35,0 -0.3875,-0.375 -0.3875,-1.3625 l 0,-2.1 c 0,-0.4625 0.0125,-0.85 0.0375,-1.0875 -0.0125,-0.05 -0.05,-0.075 -0.1125,-0.0875 -0.275,0.125 -0.9625,0.2125 -1.4625,0.225 -0.1,0.05 -0.1,0.225 -0.0125,0.275 l 0.1625,0.0625 c 0.375,0.15 0.4625,0.175 0.4625,0.9875 l 0,2.05 c 0,0.3875 -0.0875,0.575 -0.25,0.725 -0.275,0.2375 -0.675,0.375 -1.0125,0.375 -0.95,0 -1.1625,-0.575 -1.1625,-1.4375 l 0,-2.0875 z"/><path id="path83" d="m 0,0 c 0.1125,-0.075 0.1375,-0.4125 -0.0125,-0.525 l -1.3875,0 c -0.2125,0 -0.225,-0.0125 -0.225,-0.2375 l 0,-0.5625 c -0.05,-0.0875 -0.2,-0.0875 -0.2625,-0.0625 -0.125,0.25 -0.3625,0.5875 -0.525,0.7375 -0.125,0.1125 -0.4375,0.275 -0.8,0.3875 -0.05,0.075 -0.0375,0.2125 0.0375,0.2625 l 0.35,0 c 0.25,0 0.2625,0.025 0.2625,0.3625 l 0,2.8625 c 0,0.75 0.225,1.35 1.3,1.35 0.6375,0 1.0875,-0.3125 1.3125,-0.575 0.025,-0.075 -0.025,-0.2125 -0.125,-0.2125 -0.0375,0 -0.2,0.1375 -0.3125,0.175 -0.1,0.0375 -0.2125,0.0625 -0.3375,0.0625 -0.825,0 -0.9125,-0.6625 -0.9125,-1.3875 l 0,-2.3375 c 0,-0.2625 0.0125,-0.3 0.225,-0.3 l 1.4125,0 z"/><path id="path97" d="m 0,0 c 0.525,0 0.7,-0.0125 0.7375,-0.0875 0.025,-0.05 0.05,-0.15 0.05,-0.325 0,-0.75 -0.7,-1.4875 -1.775,-1.4875 -1.5,0 -2.5125,1.2875 -2.5125,2.825 0,0.55 0.15,1.1375 0.525,1.625 0.3625,0.475 1,0.825 1.8125,0.825 0.65,0 1.55,-0.3125 1.9625,-1.1625 -0.0125,-0.1125 -0.1,-0.1875 -0.225,-0.15 -0.3875,0.4875 -0.7375,0.6125 -1.15,0.6125 -1.3375,0 -2.075,-1.075 -2.075,-2.3375 0,-0.3125 0.0125,-0.3375 0.3375,-0.3375 l 2.3125,0 z m -2.425,-0.375 c -0.0875,0 -0.0875,-0.0375 -0.0875,-0.0625 0.0125,-0.4125 0.65,-1.0875 1.3875,-1.0875 0.725,0 0.9625,0.4375 0.9625,0.7875 0,0.1625 -0.0375,0.2125 -0.075,0.2375 -0.1,0.075 -0.375,0.125 -1.3,0.125 l -0.8875,0 z"/><path id="path111" d="m 0,0 c 0.2875,0 0.5875,-0.1125 0.8,-0.5875 0.6125,-1.3625 1.6375,-3.5375 2.05,-4.375 l 0.7,-1.4375 c 0.425,-0.8875 0.65,-1.25 1.0625,-1.325 l 0.2125,-0.0375 c 0.0875,-0.075 0.075,-0.2625 -0.025,-0.3125 -0.35,0.025 -0.6375,0.0375 -0.95,0.0375 -0.325,0 -0.7,-0.0125 -1.1,-0.0375 -0.1,0.0375 -0.1125,0.25 -0.025,0.3125 l 0.3875,0.0625 c 0.225,0.0375 0.3,0.125 0.3,0.2125 0,0.1375 -0.1625,0.6 -0.4375,1.25 l -0.425,0.9875 c -0.225,0.5125 -0.425,0.9 -0.4625,0.925 -0.05,-0.025 -0.2875,-0.6875 -0.3625,-0.8875 l -0.4,-1.15 c -0.075,-0.2125 -0.3625,-1.025 -0.3625,-1.175 0,-0.0875 0.1,-0.125 0.275,-0.1625 l 0.3125,-0.0625 c 0.0875,-0.0625 0.075,-0.275 -0.025,-0.3125 -0.4,0.025 -0.75,0.0375 -1.0875,0.0375 -0.4125,0 -0.7875,-0.0125 -1.1875,-0.0375 -0.1,0.0375 -0.1125,0.25 -0.0375,0.3125 l 0.3125,0.0625 c 0.4375,0.0875 0.525,0.3875 0.7375,0.975 l 0.975,2.675 c 0.1625,0.4625 0.2125,0.6125 0.2125,0.8625 0,0.175 -0.0875,0.4375 -0.125,0.5375 -0.1125,0.3 -0.3625,0.825 -0.725,1.3875 -0.0875,0.1375 -0.2125,0.225 -0.4125,0.225 l -0.2375,0 c -0.275,0 -0.5,0.1625 -0.5,0.5 0,0.3125 0.1875,0.5375 0.55,0.5375 z"/><path id="path117" d="m 0,0 c 0,0.9 -0.0125,1.0125 -0.475,1.0875 l -0.2375,0.0375 c -0.0875,0.0625 -0.0625,0.275 0.025,0.3125 0.325,-0.025 0.7,-0.0375 1.15,-0.0375 0.4375,0 0.8,0.0125 1.3875,0.0375 0.0875,-0.0375 0.1125,-0.25 0.025,-0.3125 l -0.45,-0.0375 c -0.475,-0.0375 -0.5,-0.1875 -0.5,-1.0875 l 0,-1.7 c 0,-0.425 0.0375,-0.7875 0.1625,-0.9625 0.1,-0.1375 0.25,-0.25 0.45,-0.25 0.175,0 0.3625,0.075 0.55,0.2 0.0875,0.05 0.15,0.0875 0.275,0.0875 0.2,0 0.5375,-0.1625 0.5375,-0.575 0,-0.3 -0.25,-0.5 -0.5625,-0.5 -0.4625,0 -0.9375,0.3875 -1.375,0.75 -0.025,-0.0125 -0.0375,-0.05 -0.0375,-0.1125 l 0,-0.725 c 0,-0.05 -0.0375,-0.075 -0.1,-0.0875 -0.3125,0.1875 -0.975,0.5125 -1.2625,0.6125 -0.0625,0.0375 -0.0625,0.175 -0.0125,0.225 l 0.1125,0.075 c 0.3375,0.225 0.3375,0.2875 0.3375,0.775 l 0,2.1875 z"/><path id="path129" d="m 0,0 c 0.425,0 0.7,-0.2875 0.7,-0.6875 0,-0.4 -0.275,-0.7375 -0.7,-0.7375 -0.4,0 -0.7,0.3125 -0.7,0.7375 0,0.425 0.3375,0.6875 0.7,0.6875 z"/><path id="path131" d="m 0,0 c 0,1.325 -0.025,1.5 -0.7625,1.5875 l -0.3125,0.0375 c -0.075,0.075 -0.05,0.275 0.025,0.3125 0.625,-0.025 1.05,-0.0375 1.575,-0.0375 0.5,0 0.925,0.0125 1.55,0.0375 0.075,-0.0375 0.1,-0.2625 0.025,-0.3125 l -0.3125,-0.0375 c -0.7375,-0.0875 -0.7625,-0.2625 -0.7625,-1.5875 l 0,-4.45 c 0,-1.325 0.025,-1.5375 0.7625,-1.6 l 0.3125,-0.025 c 0.075,-0.05 0.05,-0.275 -0.025,-0.3125 -0.625,0.025 -1.05,0.0375 -1.55,0.0375 -0.525,0 -0.95,-0.0125 -1.575,-0.0375 -0.075,0.0375 -0.1,0.2625 -0.025,0.3125 l 0.3125,0.025 c 0.7375,0.0625 0.7625,0.275 0.7625,1.6 l 0,4.45 z"/><path id="path133" d="m 0,0 c 0.1375,-0.05 0.225,-0.4 0.0875,-0.525 l -1.425,0 c -0.2125,0 -0.2125,-0.0125 -0.2125,-0.35 l 0,-0.3625 c 0,-0.625 0.05,-1.5375 0.275,-2.1125 0.1875,-0.45 0.5,-0.6875 0.8875,-0.6875 0.4125,0 0.7625,0.275 1,0.55 0.0875,0.1 0.1625,0.15 0.3,0.15 0.2375,0 0.475,-0.2 0.475,-0.45 0,-0.45 -0.5625,-0.75 -1.225,-0.75 -1.2375,0 -1.9375,0.875 -2.25,1.5875 -0.3,0.7 -0.3875,1.475 -0.3875,2.2 0,0.125 -0.0875,0.2 -0.1875,0.25 l -0.5375,0.2625 c -0.05,0.075 -0.0375,0.1875 0.0375,0.2375 l 0.4375,0 c 0.25,0 0.25,0.025 0.25,0.3625 l 0,2.6375 c 0,0.9 -0.0125,1.025 -0.475,1.0875 l -0.2875,0.0375 c -0.0875,0.0625 -0.0625,0.275 0.025,0.3125 0.375,-0.025 0.75,-0.0375 1.2,-0.0375 0.4375,0 0.8,0.0125 1.3625,0.0375 0.0875,-0.0375 0.1125,-0.25 0.025,-0.3125 l -0.45,-0.0375 c -0.45,-0.0375 -0.475,-0.1875 -0.475,-1.0875 l 0,-2.6375 c 0,-0.3375 0,-0.3625 0.2125,-0.3625 l 1.3375,0 z"/><path id="path141" d="m 0,0 c 0.1,0.2625 0.3,0.775 0.375,1.0375 0.0375,0.0375 0.1,0.05 0.15,0.05 0.0625,0 0.1125,-0.0125 0.15,-0.05 0.1,-0.2875 0.275,-0.7375 0.5,-1.275 l 0.65,-1.5625 c 0.0875,-0.225 0.2625,-0.6125 0.275,-0.6125 0.0125,0 0.2,0.4125 0.2875,0.6375 l 0.6,1.4375 c 0.2125,0.5 0.4375,1.15 0.5125,1.375 0.0375,0.0375 0.0875,0.05 0.1375,0.05 0.0625,0 0.1125,-0.0125 0.1625,-0.05 0.1,-0.325 0.25,-0.6875 0.425,-1.1375 0.2375,-0.6375 0.8375,-2.1375 1.175,-2.8375 0.2625,-0.55 0.375,-0.725 0.675,-0.7875 l 0.25,-0.05 c 0.075,-0.0625 0.0625,-0.25 -0.0375,-0.3 -0.275,0.025 -0.575,0.0375 -0.8125,0.0375 -0.3125,0 -0.625,-0.0125 -0.9875,-0.0375 -0.0875,0.0375 -0.1125,0.2375 -0.0125,0.3 l 0.3125,0.05 c 0.15,0.025 0.225,0.0875 0.225,0.1625 0,0.0875 -0.025,0.25 -0.125,0.5375 -0.1875,0.525 -0.6875,1.85 -0.85,2.2125 -0.0875,0.2 -0.15,0.325 -0.175,0.35 -0.0375,-0.025 -0.0875,-0.1625 -0.1625,-0.35 -0.1375,-0.3375 -0.8125,-1.925 -0.95,-2.3375 -0.15,-0.4375 -0.175,-0.475 0.325,-0.575 l 0.2625,-0.05 c 0.075,-0.0625 0.075,-0.2625 -0.0375,-0.3 -0.425,0.025 -0.8,0.0375 -1.1875,0.0375 -0.325,0 -0.725,-0.0125 -1.0375,-0.0375 -0.1,0.0375 -0.125,0.225 -0.0375,0.3 l 0.2,0.05 c 0.275,0.0625 0.4625,0.1625 0.575,0.4375 0.0625,0.1625 0.05,0.325 -0.1125,0.725 l -0.6125,1.5125 c -0.15,0.3625 -0.25,0.575 -0.2875,0.6 0,-0.025 -0.1125,-0.25 -0.225,-0.5375 l -0.775,-1.9125 c -0.1375,-0.3375 -0.2,-0.575 -0.2,-0.65 0,-0.075 0.1,-0.15 0.275,-0.175 l 0.2875,-0.05 c 0.0875,-0.0625 0.075,-0.25 -0.025,-0.3 -0.3375,0.025 -0.7,0.0375 -1.0875,0.0375 -0.375,0 -0.725,-0.0125 -1.1125,-0.0375 -0.1125,0.05 -0.1,0.2375 -0.0375,0.3 l 0.2,0.05 c 0.3125,0.075 0.4625,0.2 0.75,0.9 l 1.15,2.825 z"/><path id="path147" d="m 0,0 c 0,-0.55 0.025,-1.175 0.0375,-1.55 -0.025,-0.05 -0.075,-0.075 -0.125,-0.075 -0.45,0.2375 -1.0375,0.425 -1.35,0.525 -0.0625,0.0375 -0.0625,0.2125 0,0.25 l 0.125,0.075 c 0.375,0.225 0.3875,0.3 0.3875,1.0375 l 0,5.65 c 0,0.9 -0.0125,1.025 -0.475,1.0875 l -0.2875,0.0375 c -0.0875,0.0625 -0.0625,0.275 0.025,0.3125 0.375,-0.025 0.75,-0.0375 1.2,-0.0375 0.4375,0 0.8,0.0125 1.2125,0.0375 0.0875,-0.0375 0.1125,-0.25 0.025,-0.3125 l -0.3,-0.0375 c -0.45,-0.0625 -0.475,-0.1875 -0.475,-1.0875 l 0,-5.9125 z"/><path id="path151" d="m 0,0 c -0.275,0 -0.362499,-0.025 -0.7625,-0.2 -0.287499,-0.125 -0.724999,-0.25 -1.2,-0.25 -1.1125,0 -2.0375,0.8125 -2.0375,1.8875 0,0.8 0.512501,1.2875 0.9375,1.5125 0,0.0625 -0.0625,0.1625 -0.125,0.2375 -0.2125,0.225 -0.45,0.4375 -0.662499,0.575 -0.1375,0.1 -0.1875,0.15 -0.1875,0.2125 0,0.4375 0.425,0.8625 0.912499,0.9875 0.1125,0.075 0.0125,0.1875 -0.1,0.3 -0.287501,0.2875 -0.6375,0.6125 -0.850001,0.8375 -0.0875,0.1 -0.1375,0.2625 -0.1375,0.4625 0,0.625 0.537501,1.45 2.075,1.45 1.625,0 3.1125,-1 3.1125,-2.3625 0,-1.25 -1.05,-1.375 -1.75,-1.375 -0.55,0 -1.0625,0.0375 -1.4875,0.0375 -0.587499,0 -0.875,-0.2375 -0.875,-0.525 0,-0.3625 0.400001,-0.6 0.55,-0.6875 0.15,0.0125 0.325,0.0375 0.550001,0.0375 1.587499,0 2.099999,-1.125 2.099999,-1.9875 0,-0.2125 0,-0.425 -0.025,-0.6375 l 0.9,0 c 0.1875,-0.025 0.212501,-0.45 0.075,-0.5125 l -1.012501,0 z m -1.174999,5.05 c 0.899999,0 1.424999,0.325 1.424999,1.0875 0,0.7125 -0.737499,1.3375 -1.849999,1.3375 -1.1375,0 -1.675001,-0.5625 -1.675001,-1.2375 0,-0.475 0.300001,-0.8625 0.600001,-1.05 0.174999,-0.1125 0.674999,-0.1375 1.075,-0.1375 l 0.425,0 z m -0.675,-2.275 c -0.600001,0 -1.1375,-0.575 -1.1375,-1.4625 0,-0.85 0.45,-1.4 1.049999,-1.4 0.762501,0 1.1125,0.7125 1.1125,1.5625 0,0.7625 -0.349999,1.3 -1.024999,1.3 z"/><path id="path155" d="m 0,0 c 0,0.9 -0.0125,1.025 -0.475,1.0875 l -0.2625,0.0375 c -0.0875,0.0625 -0.0625,0.275 0.025,0.3125 0.35,-0.025 0.725,-0.0375 1.175,-0.0375 0.4375,0 0.8,0.0125 1.175,0.0375 0.0875,-0.0375 0.1125,-0.25 0.025,-0.3125 l -0.2625,-0.0375 c -0.45,-0.0625 -0.475,-0.1875 -0.475,-1.0875 l 0,-2.25 c 0,-0.5125 0.025,-1.1125 0.05,-1.55 -0.0125,-0.05 -0.0625,-0.075 -0.125,-0.075 -0.2875,0.1875 -1,0.5125 -1.2875,0.6125 -0.0625,0.0375 -0.0625,0.175 -0.0125,0.225 l 0.1125,0.075 c 0.3375,0.225 0.3375,0.2875 0.3375,0.775 l 0,2.1875 z m 0.4125,-6.4 c -0.375,0 -0.675,0.2625 -0.675,0.675 0,0.3375 0.25,0.625 0.6375,0.625 0.35,0 0.6625,-0.2 0.6625,-0.65 0,-0.35 -0.25,-0.65 -0.625,-0.65 z"/><path id="path167" d="m 0,0 c 0,0.9 -0.0125,1.0375 -0.475,1.0875 l -0.3125,0.0375 c -0.0875,0.0625 -0.0625,0.275 0.025,0.3125 0.4,-0.025 0.775,-0.0375 1.225,-0.0375 0.4375,0 0.8,0.0125 1.175,0.0375 0.0875,-0.0375 0.1125,-0.2625 0.025,-0.3125 l -0.2625,-0.0375 c -0.45,-0.0625 -0.475,-0.1875 -0.475,-1.0875 l 0,-2.1 c 0,-0.4375 0.0375,-0.5 0.2625,-0.6875 0.225,-0.1875 0.55,-0.3375 0.975,-0.3375 0.8,0 1.1875,0.5375 1.1875,1.3375 l 0,1.7875 c 0,0.9 -0.0125,1.0125 -0.475,1.0875 l -0.25,0.0375 c -0.0875,0.0625 -0.0625,0.275 0.025,0.3125 0.3375,-0.025 0.7125,-0.0375 1.1625,-0.0375 0.4375,0 0.8,0.0125 1.25,0.0375 0.0875,-0.0375 0.1125,-0.25 0.025,-0.3125 l -0.3375,-0.0375 c -0.45,-0.05 -0.475,-0.1875 -0.475,-1.0875 l 0,-2.0875 c 0,-0.875 -0.425,-1.6125 -1.6125,-1.6125 -0.6375,0 -1.2375,0.3 -1.6875,0.65 -0.0375,-0.025 -0.05,-0.125 -0.05,-0.2375 l 0,-2.625 c 0,-0.55 0.025,-1.175 0.0375,-1.55 -0.025,-0.05 -0.075,-0.075 -0.125,-0.075 -0.45,0.2375 -1.0375,0.425 -1.35,0.525 -0.0625,0.0375 -0.0625,0.2125 0,0.25 l 0.125,0.075 c 0.375,0.225 0.3875,0.3 0.3875,1.0375 l 0,5.65 z"/><path id="path365" d="m 0,0 c 0,0.9625 -0.0125,1.175 -0.5375,1.2125 l -0.5125,0.0375 c -0.075,0.075 -0.0625,0.275 0.025,0.3125 0.4875,-0.025 1.05,-0.0375 1.5,-0.0375 0.4375,0 1,0.0125 1.4875,0.0375 0.0875,-0.0375 0.1,-0.2375 0.025,-0.3125 l -0.525,-0.0375 c -0.5125,-0.0375 -0.5375,-0.25 -0.5375,-1.2125 l 0,-4.85 c 0,-0.7125 0.025,-1.3375 0.05,-1.5625 -0.025,-0.0375 -0.075,-0.0625 -0.125,-0.0625 -0.325,0.2125 -1.0125,0.5375 -2.0625,0.725 -0.1,0.05 -0.0875,0.225 0.0125,0.275 l 0.6,0.05 c 0.5625,0.05 0.6,0.325 0.6,1.175 l 0,4.25 z"/><path id="path426" d="m 0,0 c -0.25625,0 -0.5375,0.09375 -0.8625,0.40625 -0.425,0.40625 -0.65625,1.0125 -0.68125,1.4 -0.0375,0.5375 0.225,0.83125 0.625,0.83125 0.16875,0 0.50625,-0.03125 0.89375,-0.43125 0.4625,-0.475 0.64375,-1.075 0.6625,-1.41875 0.025,-0.45625 -0.19375,-0.7875 -0.6375,-0.7875 z m -0.04375,0.1875 c 0.21875,0 0.25625,0.21875 0.25,0.4125 -0.0125,0.33125 -0.30625,1.15625 -0.58125,1.525 -0.2,0.26875 -0.35625,0.325 -0.49375,0.325 -0.18125,0 -0.26875,-0.18125 -0.25625,-0.4 0.01875,-0.33125 0.2625,-1.075 0.625,-1.5625 0.18125,-0.24375 0.33125,-0.3 0.45625,-0.3 z"/><path id="path428" d="m 0,0 c 0.05625,-0.14375 -0.0125,-0.25625 -0.1625,-0.25625 -0.3125,0 -0.69375,0.25625 -0.93125,0.58125 -0.0063,0.05 0.025,0.09375 0.075,0.09375 0.20625,-0.18125 0.425,-0.3125 0.56875,-0.3125 0.05,0 0.05,0.0625 0.01875,0.14375 -0.03125,0.0875 -0.69375,1.8875 -0.725,1.96875 -0.05625,0.14375 0.1125,0.1625 0.18125,0.1625 0.05625,0 0.08125,-0.01875 0.1125,-0.075 0.36875,-0.6875 0.625,-1.175 0.95625,-1.5875 0.34375,-0.43125 0.7125,-0.74375 0.8625,-0.74375 0.09375,0 0.1,0.075 0.1,0.15 0,0.125 -0.08125,0.34375 -0.13125,0.45625 -0.14375,0.3125 -0.375,0.925 -0.50625,1.23125 -0.13125,0.3125 -0.15,0.35625 -0.15,0.4125 0,0.075 0.09375,0.15625 0.15,0.15625 0.34375,0 0.8375,-0.3 1.075,-0.7 0,-0.05 -0.0125,-0.1 -0.1,-0.0875 -0.18125,0.21875 -0.48125,0.425 -0.5875,0.425 -0.04375,0 -0.0375,-0.05625 -0.0125,-0.11875 0.01875,-0.05 0.46875,-1.06875 0.58125,-1.38125 0.05,-0.14375 0.1,-0.3375 0.1,-0.4375 0,-0.20625 -0.10625,-0.3375 -0.35,-0.3375 -0.46875,0 -1.0875,0.6875 -1.53125,1.3625 l -0.01875,-0.0125 0.425,-1.09375 z"/><path id="path432" d="m 0,0 c -0.03125,0.06875 -0.0125,0.125 0.025,0.16875 0.03125,0.0375 0.06875,0.05625 0.1,0.05625 0.43125,0 1.075,-0.5625 1.16875,-0.74375 0,-0.05625 -0.03125,-0.1 -0.09375,-0.10625 -0.2125,0.24375 -0.54375,0.4625 -0.65,0.4625 -0.05,0 -0.04375,-0.075 -0.01875,-0.1375 l 0.74375,-1.775 c 0.075,-0.18125 0.075,-0.2375 0.0375,-0.275 -0.025,-0.025 -0.05625,-0.0625 -0.1,-0.0625 -0.20625,0 -0.6875,0.23125 -1.03125,0.625 -0.0125,0.05 0.025,0.1 0.08125,0.10625 0.3125,-0.25625 0.475,-0.33125 0.51875,-0.33125 0.04375,0 0.04375,0.05 0.0125,0.11875 l -0.79375,1.89375 z m 1.325,-3.7 c -0.24375,0 -0.33125,0.25625 -0.33125,0.39375 0,0.10625 0.05625,0.23125 0.21875,0.23125 0.1875,0 0.325,-0.19375 0.325,-0.3875 0,-0.1375 -0.06875,-0.2375 -0.2125,-0.2375 z"/></defs></svg>
