<svg xmlns:rdf="http://www.w3.org/1999/02/22-rdf-syntax-ns#" width="32" xmlns:svg="http://www.w3.org/2000/svg" height="25" viewBox="0 0 32 25" id="svg3348" xmlns:dc="http://purl.org/dc/elements/1.1/" xmlns:cc="http://creativecommons.org/ns#" xmlns="http://www.w3.org/2000/svg" version="1.1">
  <defs id="defs3350"/>
  <metadata id="metadata3353">
    <rdf:RDF>
      <cc:Work rdf:about="">
        <dc:format>image/svg+xml</dc:format>
        <dc:type rdf:resource="http://purl.org/dc/dcmitype/StillImage"/>
        <dc:title/>
      </cc:Work>
    </rdf:RDF>
  </metadata>
  <g id="g4308">
    <g style="fill:none;fill-opacity:1;stroke:#ffffff" id="layer1-9" transform="translate(0.5002478,-1027.8622)">
      <path style="opacity:1;fill:none;fill-opacity:1;stroke:#ffffff" id="path10-6" d="m 28.487395,1032.0174 q 0.224091,0.083 0.490198,0.2521 0.266106,0.1681 0.490196,0.3362 0.28011,0.1961 0.532211,0.4202 -0.140055,0.1401 -0.434172,0.4061 -0.294118,0.2662 -0.602241,0.5183 -0.336134,0.3081 -0.756304,0.6442 -0.05602,0.1401 -0.168066,0.3361 -0.112043,0.1681 -0.280112,0.3922 -0.168067,0.2241 -0.420166,0.5043 -0.112046,0.224 -0.196079,0.4481 -0.05602,0.1961 -0.07003,0.3781 -0.01402,0.1821 0.126049,0.2381 0.140057,0.056 0.05602,0.1961 -0.08403,0.1401 -0.224088,0.2942 -0.140057,0.154 -0.238095,0.2521 -0.09803,0.098 0.04202,0.07 0.140055,-0.056 0.154063,-0.014 0.01402,0.042 -0.04202,0.1121 -0.05602,0.07 -0.182071,0.154 -0.126052,0.083 -0.266107,0.112 -0.196079,0 -0.280112,0.14 -0.08403,0.1401 -0.08403,0.3362 0,0.1961 0.09803,0.3642 0.09803,0.1681 0.266106,0.2241 0.252101,0.1681 0.406162,0.21 0.154062,0.042 0.210084,0.3502 0,0.1682 0.02801,0.4063 0.02801,0.238 0.04201,0.4481 0.01402,0.2101 0,0.3642 -0.01402,0.154 -0.12605,0.154 -0.112046,0 -0.09804,0.1961 0.01402,0.1961 0.08403,0.4482 0.07002,0.2521 0.15406,0.4762 0.08403,0.2241 0.140057,0.2521 0.08403,0.056 -0.126051,0.1681 -0.210083,0.112 -0.518206,0.2661 -0.308123,0.154 -0.630251,0.3361 -0.322132,0.182 -0.434176,0.3781 -0.140054,0.2241 -0.462182,0.4342 -0.322129,0.2101 -0.658263,0.3642 -0.336137,0.154 -0.64426,0.2381 -0.308123,0.083 -0.420167,0.056 -0.22409,0 -0.22409,0.3221 0,0.3221 0.22409,0.4902 0.08403,0.056 0.322129,0.2381 0.238095,0.1821 0.476191,0.3922 0.238093,0.21 0.392156,0.4061 0.15406,0.196 0.04202,0.2241 -0.112043,0.056 -0.280112,0.2381 -0.168066,0.1822 -0.350139,0.3503 -0.182074,0.168 -0.406162,0.2801 -0.22409,0.112 -0.476191,0.027 -0.140055,0.3361 -0.252102,0.6162 -0.112043,0.2241 -0.224087,0.4342 -0.112047,0.2101 -0.168068,0.2381 -0.08403,0.056 -0.476189,0.2381 -0.392159,0.182 -0.840337,0.4341 -0.44818,0.2521 -0.854341,0.5323 -0.406162,0.2801 -0.518209,0.5042 -0.05602,0.14 -0.05602,0.3361 l 0,0.4202 q -2.745096,0.5602 -5.91036,0.8123 -2.717086,0.2241 -6.190473,0.112 -3.4733867,-0.112 -7.28291037,-0.9243 L 0.14005667,1050.14 q -0.084033,-0.4763 -0.12604947,-0.9244 -0.0420216,-0.4482 0.0420216,-0.5602 0.028011,-0.083 0.28011198,-0.6303 0.25210095,-0.5462 0.64425695,-1.3306 0.39215587,-0.7843 0.84033687,-1.6667 0.4481769,-0.8824 0.8543415,-1.6526 0.4061614,-0.7703 0.7282898,-1.3025 0.3221285,-0.5323 0.4341725,-0.6163 0.336137,-0.2241 0.700282,-0.2941 0.364145,-0.07 0.4481779,-0.3782 0.112046,-0.2521 -0.056022,-0.7843 -0.168069,-0.5323 -0.336134,-0.8684 -0.084033,-0.1681 -0.098044,-0.2661 -0.014021,-0.098 -0.042022,-0.1681 -0.028011,-0.07 -0.1120439,-0.1541 l -0.280112,-0.2801 q 0,0 -0.364145,-0.4341 -0.364145,-0.4342 -0.252101,-0.4622 0.112047,-0.029 -0.042022,-0.3642 -0.1540605,-0.3361 0.2661065,-0.112 0.224091,0.056 0.7563009,0.083 0.5322141,0.029 1.0924379,0.029 0.560224,0 1.008402,-0.042 0.4481809,-0.042 0.5042029,-0.126 0.056022,-0.083 0.028011,-0.4201 -0.028011,-0.3362 -0.070022,-0.7424 -0.042011,-0.4062 -0.084033,-0.7562 -0.042022,-0.3502 -0.014021,-0.4623 0.028011,-0.112 -0.3221283,-0.3501 -0.3501395,-0.2381 -0.7422955,-0.5182 -0.392156,-0.2801 -0.700279,-0.5603 -0.3081228,-0.2801 -0.1960799,-0.5042 l 2.5770287,-0.1681 q -0.140055,-0.7283 -0.2240869,-1.3445 -0.084033,-0.5322 -0.1120471,-0.9944 -0.028011,-0.4623 0.084033,-0.6023 0.084033,-0.112 0.448177,-0.1961 0.364145,-0.083 0.868348,-0.154 0.5041998,-0.07 1.1344509,-0.112 0.6302545,-0.042 1.2745115,-0.098 1.512605,-0.112 3.333329,-0.1401 0.364148,0.028 0.672271,0.1401 0.252099,0.112 0.476189,0.2942 0.22409,0.182 0.22409,0.5741 0.02801,0.3921 0.12605,0.9805 0.09804,0.5882 0.238095,1.1484 0.140058,0.6723 0.336134,1.3727 l 1.960785,1.3165 q -0.504202,0.196 -0.924369,0.3081 -0.364148,0.112 -0.700282,0.14 -0.336134,0.028 -0.476188,-0.112 -0.168069,-0.112 -0.224091,0.1261 -0.05602,0.238 -0.08403,0.5461 -0.02801,0.3643 0,0.8685 0.5042,0.2801 0.756301,0.5041 0.224091,0.1961 0.154064,0.3642 -0.07003,0.168 -0.742299,0.196 -0.308123,0.028 -0.462183,0.2521 -0.154063,0.2241 -0.210085,0.5042 -0.08403,0.3081 -0.05602,0.7564 l -0.476191,0.083 0.112046,2.297 q 0.476189,0.112 0.896358,0.252 0.336135,0.1402 0.644258,0.3363 0.308123,0.196 0.364145,0.4201 0,0.2241 -0.406161,0.3922 -0.406165,0.168 -0.896359,0.3221 -0.490197,0.154 -0.882353,0.3081 -0.392156,0.1541 -0.336134,0.3501 0,0.1961 0.336134,0.4482 0.336134,0.2522 0.784312,0.4902 0.44818,0.2381 0.896358,0.4342 0.448181,0.1961 0.672268,0.2801 l 0.112047,-0.083 q 0.532213,-0.6442 1.246498,-1.0504 0.714284,-0.4062 1.274508,-0.9664 l 0.05602,0.168 q 0.252102,0.028 0.504203,-0.056 0.22409,-0.056 0.476189,-0.1961 0.252101,-0.14 0.532213,-0.4201 0.588235,-0.5602 1.036413,-1.2465 0.448181,-0.6863 0.840336,-1.1065 0.140058,-0.2521 0.19608,-0.3641 0.05602,-0.112 0.02801,-0.1401 -0.02801,-0.027 -0.224091,0.1961 l -0.448177,-1.3726 q -0.252102,0 -0.378153,-0.2522 -0.12605,-0.2521 0.09804,-0.2521 0.140054,-0.027 0.210082,-0.196 0.07003,-0.1681 0.126052,-0.3922 0.05602,-0.2521 0.05602,-0.5602 0.19608,-0.056 0.392156,-0.168 0.168069,-0.085 0.35014,-0.1822 0.182074,-0.098 0.322131,-0.238 0.05602,-0.056 0.28011,-0.2381 0.22409,-0.1821 0.532213,-0.4482 0.308123,-0.2662 0.686273,-0.5743 0.378154,-0.3081 0.77031,-0.6442 0.896358,-0.7283 1.988792,-1.6806 0,-0.3082 0.05602,-0.5323 0.05602,-0.1962 0.112046,-0.3222 0.05602,-0.1261 0.168066,-0.07 z"/>
    </g>
    <g style="fill:#000000;fill-opacity:1" id="layer1" transform="translate(0.5002478,-1027.8622)">
      <path style="opacity:1;fill:#000000;fill-opacity:1" id="path10" d="m 28.487395,1032.0174 q 0.224091,0.083 0.490198,0.2521 0.266106,0.1681 0.490196,0.3362 0.28011,0.1961 0.532211,0.4202 -0.140055,0.1401 -0.434172,0.4061 -0.294118,0.2662 -0.602241,0.5183 -0.336134,0.3081 -0.756304,0.6442 -0.05602,0.1401 -0.168066,0.3361 -0.112043,0.1681 -0.280112,0.3922 -0.168067,0.2241 -0.420166,0.5043 -0.112046,0.224 -0.196079,0.4481 -0.05602,0.1961 -0.07003,0.3781 -0.01402,0.1821 0.126049,0.2381 0.140057,0.056 0.05602,0.1961 -0.08403,0.1401 -0.224088,0.2942 -0.140057,0.154 -0.238095,0.2521 -0.09803,0.098 0.04202,0.07 0.140055,-0.056 0.154063,-0.014 0.01402,0.042 -0.04202,0.1121 -0.05602,0.07 -0.182071,0.154 -0.126052,0.083 -0.266107,0.112 -0.196079,0 -0.280112,0.14 -0.08403,0.1401 -0.08403,0.3362 0,0.1961 0.09803,0.3642 0.09803,0.1681 0.266106,0.2241 0.252101,0.1681 0.406162,0.21 0.154062,0.042 0.210084,0.3502 0,0.1682 0.02801,0.4063 0.02801,0.238 0.04201,0.4481 0.01402,0.2101 0,0.3642 -0.01402,0.154 -0.12605,0.154 -0.112046,0 -0.09804,0.1961 0.01402,0.1961 0.08403,0.4482 0.07002,0.2521 0.15406,0.4762 0.08403,0.2241 0.140057,0.2521 0.08403,0.056 -0.126051,0.1681 -0.210083,0.112 -0.518206,0.2661 -0.308123,0.154 -0.630251,0.3361 -0.322132,0.182 -0.434176,0.3781 -0.140054,0.2241 -0.462182,0.4342 -0.322129,0.2101 -0.658263,0.3642 -0.336137,0.154 -0.64426,0.2381 -0.308123,0.083 -0.420167,0.056 -0.22409,0 -0.22409,0.3221 0,0.3221 0.22409,0.4902 0.08403,0.056 0.322129,0.2381 0.238095,0.1821 0.476191,0.3922 0.238093,0.21 0.392156,0.4061 0.15406,0.196 0.04202,0.2241 -0.112043,0.056 -0.280112,0.2381 -0.168066,0.1822 -0.350139,0.3503 -0.182074,0.168 -0.406162,0.2801 -0.22409,0.112 -0.476191,0.027 -0.140055,0.3361 -0.252102,0.6162 -0.112043,0.2241 -0.224087,0.4342 -0.112047,0.2101 -0.168068,0.2381 -0.08403,0.056 -0.476189,0.2381 -0.392159,0.182 -0.840337,0.4341 -0.44818,0.2521 -0.854341,0.5323 -0.406162,0.2801 -0.518209,0.5042 -0.05602,0.14 -0.05602,0.3361 l 0,0.4202 q -2.745096,0.5602 -5.91036,0.8123 -2.717086,0.2241 -6.190473,0.112 -3.4733867,-0.112 -7.28291037,-0.9243 L 0.14005667,1050.14 q -0.084033,-0.4763 -0.12604947,-0.9244 -0.0420216,-0.4482 0.0420216,-0.5602 0.028011,-0.083 0.28011198,-0.6303 0.25210095,-0.5462 0.64425695,-1.3306 0.39215587,-0.7843 0.84033687,-1.6667 0.4481769,-0.8824 0.8543415,-1.6526 0.4061614,-0.7703 0.7282898,-1.3025 0.3221285,-0.5323 0.4341725,-0.6163 0.336137,-0.2241 0.700282,-0.2941 0.364145,-0.07 0.4481779,-0.3782 0.112046,-0.2521 -0.056022,-0.7843 -0.168069,-0.5323 -0.336134,-0.8684 -0.084033,-0.1681 -0.098044,-0.2661 -0.014021,-0.098 -0.042022,-0.1681 -0.028011,-0.07 -0.1120439,-0.1541 l -0.280112,-0.2801 q 0,0 -0.364145,-0.4341 -0.364145,-0.4342 -0.252101,-0.4622 0.112047,-0.029 -0.042022,-0.3642 -0.1540605,-0.3361 0.2661065,-0.112 0.224091,0.056 0.7563009,0.083 0.5322141,0.029 1.0924379,0.029 0.560224,0 1.008402,-0.042 0.4481809,-0.042 0.5042029,-0.126 0.056022,-0.083 0.028011,-0.4201 -0.028011,-0.3362 -0.070022,-0.7424 -0.042011,-0.4062 -0.084033,-0.7562 -0.042022,-0.3502 -0.014021,-0.4623 0.028011,-0.112 -0.3221283,-0.3501 -0.3501395,-0.2381 -0.7422955,-0.5182 -0.392156,-0.2801 -0.700279,-0.5603 -0.3081228,-0.2801 -0.1960799,-0.5042 l 2.5770287,-0.1681 q -0.140055,-0.7283 -0.2240869,-1.3445 -0.084033,-0.5322 -0.1120471,-0.9944 -0.028011,-0.4623 0.084033,-0.6023 0.084033,-0.112 0.448177,-0.1961 0.364145,-0.083 0.868348,-0.154 0.5041998,-0.07 1.1344509,-0.112 0.6302545,-0.042 1.2745115,-0.098 1.512605,-0.112 3.333329,-0.1401 0.364148,0.028 0.672271,0.1401 0.252099,0.112 0.476189,0.2942 0.22409,0.182 0.22409,0.5741 0.02801,0.3921 0.12605,0.9805 0.09804,0.5882 0.238095,1.1484 0.140058,0.6723 0.336134,1.3727 l 1.960785,1.3165 q -0.504202,0.196 -0.924369,0.3081 -0.364148,0.112 -0.700282,0.14 -0.336134,0.028 -0.476188,-0.112 -0.168069,-0.112 -0.224091,0.1261 -0.05602,0.238 -0.08403,0.5461 -0.02801,0.3643 0,0.8685 0.5042,0.2801 0.756301,0.5041 0.224091,0.1961 0.154064,0.3642 -0.07003,0.168 -0.742299,0.196 -0.308123,0.028 -0.462183,0.2521 -0.154063,0.2241 -0.210085,0.5042 -0.08403,0.3081 -0.05602,0.7564 l -0.476191,0.083 0.112046,2.297 q 0.476189,0.112 0.896358,0.252 0.336135,0.1402 0.644258,0.3363 0.308123,0.196 0.364145,0.4201 0,0.2241 -0.406161,0.3922 -0.406165,0.168 -0.896359,0.3221 -0.490197,0.154 -0.882353,0.3081 -0.392156,0.1541 -0.336134,0.3501 0,0.1961 0.336134,0.4482 0.336134,0.2522 0.784312,0.4902 0.44818,0.2381 0.896358,0.4342 0.448181,0.1961 0.672268,0.2801 l 0.112047,-0.083 q 0.532213,-0.6442 1.246498,-1.0504 0.714284,-0.4062 1.274508,-0.9664 l 0.05602,0.168 q 0.252102,0.028 0.504203,-0.056 0.22409,-0.056 0.476189,-0.1961 0.252101,-0.14 0.532213,-0.4201 0.588235,-0.5602 1.036413,-1.2465 0.448181,-0.6863 0.840336,-1.1065 0.140058,-0.2521 0.19608,-0.3641 0.05602,-0.112 0.02801,-0.1401 -0.02801,-0.027 -0.224091,0.1961 l -0.448177,-1.3726 q -0.252102,0 -0.378153,-0.2522 -0.12605,-0.2521 0.09804,-0.2521 0.140054,-0.027 0.210082,-0.196 0.07003,-0.1681 0.126052,-0.3922 0.05602,-0.2521 0.05602,-0.5602 0.19608,-0.056 0.392156,-0.168 0.168069,-0.085 0.35014,-0.1822 0.182074,-0.098 0.322131,-0.238 0.05602,-0.056 0.28011,-0.2381 0.22409,-0.1821 0.532213,-0.4482 0.308123,-0.2662 0.686273,-0.5743 0.378154,-0.3081 0.77031,-0.6442 0.896358,-0.7283 1.988792,-1.6806 0,-0.3082 0.05602,-0.5323 0.05602,-0.1962 0.112046,-0.3222 0.05602,-0.1261 0.168066,-0.07 z"/>
    </g>
  </g>
</svg>