<?xml version="1.0" encoding="UTF-8" standalone="no"?>
<svg xmlns:dc="http://purl.org/dc/elements/1.1/" xmlns:cc="http://creativecommons.org/ns#" xmlns:rdf="http://www.w3.org/1999/02/22-rdf-syntax-ns#" xmlns:svg="http://www.w3.org/2000/svg" xmlns="http://www.w3.org/2000/svg" xmlns:xlink="http://www.w3.org/1999/xlink" id="svg2" version="1.1" width="79" height="79" viewBox="0 0 79 79">
  <metadata id="metadata8">
    <rdf:RDF>
      <cc:Work rdf:about="">
        <dc:format>image/svg+xml</dc:format>
        <dc:type rdf:resource="http://purl.org/dc/dcmitype/StillImage"/>
        <dc:title/>
      </cc:Work>
    </rdf:RDF>
  </metadata>
  <defs id="defs6"/>
  <image xlink:href="monster-back-bg.png" id="background-image" x="0" y="0" width="79" height="79" preserveAspectRatio="none"/>
  <g id="text4157" style="fill:#000000;fill-opacity:1;stroke:none;stroke-width:1px;stroke-linecap:butt;stroke-linejoin:miter;stroke-opacity:1">
    <use x="14.585107" y="10.012355" xlink:href="#path35"/>
  </g>
  <g id="text4157-2" style="fill:#000000;fill-opacity:1;stroke:none;stroke-width:1px;stroke-linecap:butt;stroke-linejoin:miter;stroke-opacity:1">
    <use x="14.585107" y="24.776126" xlink:href="#path35"/>
  </g>
  <g id="text4157-1" style="fill:none;fill-opacity:1;stroke:#ffffff;stroke-width:1.29999995;stroke-linecap:butt;stroke-linejoin:round;stroke-miterlimit:4;stroke-dasharray:none;stroke-opacity:1">
    <use x="44.585109" y="10.012355" xlink:href="#path35"/>
  </g>
  <g id="text4157-3" style="fill:#7981c5;fill-opacity:1;stroke:none;stroke-width:1px;stroke-linecap:butt;stroke-linejoin:miter;stroke-opacity:1">
    <use x="44.585109" y="10.012355" xlink:href="#path35"/>
  </g>
  <g id="text4157-1-7" style="fill:none;fill-opacity:1;stroke:#ffffff;stroke-width:1.29999995;stroke-linecap:butt;stroke-linejoin:round;stroke-miterlimit:4;stroke-dasharray:none;stroke-opacity:1">
    <use x="44.585109" y="24.776126" xlink:href="#path35"/>
  </g>
  <g id="text4157-3-8" style="fill:#ce1e25;fill-opacity:1;stroke:none;stroke-width:1px;stroke-linecap:butt;stroke-linejoin:miter;stroke-opacity:1">
    <use x="44.585109" y="24.776126" xlink:href="#path35"/>
  </g>
  <g id="text4157-1-4" style="fill:none;fill-opacity:1;stroke:#000000;stroke-width:1.79999995;stroke-linecap:butt;stroke-linejoin:round;stroke-miterlimit:4;stroke-dasharray:none;stroke-opacity:1">
    <use x="67.681148" y="10.571884" xlink:href="#path53"/>
  </g>
  <g id="text4157-3-2" style="fill:#ffffff;fill-opacity:1;stroke:none;stroke-width:1px;stroke-linecap:butt;stroke-linejoin:miter;stroke-opacity:1">
    <use x="67.681148" y="10.571884" xlink:href="#path53"/>
  </g>
  <g id="flowRoot4578" style="fill:#000000;fill-opacity:1;stroke:none;stroke-width:1px;stroke-linecap:butt;stroke-linejoin:miter;stroke-opacity:1"/>
  <g id="flowRoot4588" style="fill:#000000;fill-opacity:1;stroke:none;stroke-width:1px;stroke-linecap:butt;stroke-linejoin:miter;stroke-opacity:1" transform="translate(0,2.4629152)">
    <path id="path60" style="" d="m 5.4358643,37.357656 c 0,1.045 -0.378125,1.82875 -1.375,1.82875 -1.051875,0 -1.395625,-0.72875 -1.395625,-1.835625 l 0,-1.485 c 0,-0.715 0.01375,-0.831875 0.4125,-0.86625 l 0.165,-0.01375 c 0.04125,-0.0275 0.0275,-0.144375 -0.01375,-0.165 -0.336875,0.01375 -0.56375,0.02063 -0.845625,0.02063 -0.275,0 -0.50875,-0.0069 -0.8525,-0.02063 -0.04125,0.02063 -0.055,0.1375 -0.01375,0.165 l 0.171875,0.01375 c 0.39875,0.03438 0.4125,0.15125 0.4125,0.86625 l 0,1.6225 c 0,0.818125 0.171875,1.32 0.53625,1.6225 0.336875,0.28875 0.81125,0.378125 1.285625,0.378125 0.50875,0 1.0175,-0.17875 1.313125,-0.501875 0.385,-0.4125 0.48125,-1.045 0.48125,-1.643125 l 0,-0.776875 c 0,-0.385 0,-1.175625 0.09625,-1.4025 0.04125,-0.08937 0.171875,-0.15125 0.34375,-0.165 l 0.165,-0.01375 c 0.034375,-0.04125 0.04125,-0.130625 -0.01375,-0.165 -0.2475,0.01375 -0.433125,0.02063 -0.721875,0.02063 -0.268125,0 -0.5225,-0.0069 -0.78375,-0.02063 -0.04125,0.0275 -0.055,0.116875 -0.01375,0.165 l 0.171875,0.01375 c 0.171875,0.01375 0.295625,0.06188 0.34375,0.144375 0.116875,0.20625 0.130625,0.996875 0.130625,1.423125 l 0,0.790625 z"/>
    <use x="7.4832178" y="36.573906" xlink:href="#path62"/>
    <use x="10.585669" y="37.618906" xlink:href="#path64"/>
    <use x="14.878999" y="36.958906" xlink:href="#path66"/>
    <use x="15.577778" y="38.608906" xlink:href="#path68"/>
    <use x="20.683325" y="37.618906" xlink:href="#path64"/>
    <path id="path72" style="" d="m 23.26478,37.137656 c 0,0.886875 0.42625,1.5125 0.97625,1.890625 0.501875,0.336875 1.093125,0.460625 1.711875,0.460625 0.44,0 0.935,-0.103125 1.08625,-0.158125 0.07562,-0.0275 0.158125,-0.055 0.240625,-0.06875 0.103125,-0.130625 0.281875,-0.584375 0.33,-0.941875 -0.0275,-0.04812 -0.130625,-0.06188 -0.17875,-0.0275 -0.158125,0.405625 -0.55,0.983125 -1.436875,0.983125 -1.1275,0 -2.041875,-0.7975 -2.041875,-2.24125 0,-1.423125 0.89375,-2.09 1.945625,-2.09 0.996875,0 1.30625,0.53625 1.409375,1.00375 0.04813,0.04125 0.15125,0.03437 0.185625,-0.01375 -0.055,-0.419375 -0.08938,-0.8525 -0.09625,-1.010625 -0.06188,0.0069 -0.11,-0.0069 -0.1925,-0.0275 -0.323125,-0.08937 -0.845625,-0.165 -1.216875,-0.165 -0.715,0 -1.354375,0.1925 -1.85625,0.584375 -0.5225,0.405625 -0.86625,1.05875 -0.86625,1.821875 z"/>
    <path id="path74" style="" d="m 28.714829,37.220156 c 0,-0.336875 0.0069,-0.48125 0.02062,-0.598125 -0.0069,-0.0275 -0.0275,-0.04125 -0.06875,-0.04812 -0.15125,0.055 -0.419375,0.116875 -0.735625,0.12375 -0.04812,0.02062 -0.055,0.116875 -0.01375,0.15125 l 0.0825,0.03437 c 0.20625,0.08938 0.20625,0.15125 0.20625,0.584375 l 0,1.148125 c 0,0.556875 0.226875,0.859375 0.831875,0.859375 0.405625,0 0.7425,-0.226875 0.94875,-0.3575 0.04125,0 0.06188,0.03438 0.06188,0.09625 l 0,0.281875 c 0.01375,0.0275 0.04812,0.04812 0.0825,0.04812 0.23375,-0.130625 0.6325,-0.199375 0.900625,-0.254375 0.055,-0.0275 0.04812,-0.165 0.0069,-0.199375 -0.09625,0.02063 -0.185625,0.03437 -0.268125,0.03437 -0.1925,0 -0.213125,-0.20625 -0.213125,-0.749375 l 0,-1.155 c 0,-0.254375 0.0069,-0.4675 0.02062,-0.598125 -0.0069,-0.0275 -0.0275,-0.04125 -0.06187,-0.04812 -0.15125,0.06875 -0.529375,0.116875 -0.804375,0.12375 -0.055,0.0275 -0.055,0.12375 -0.0069,0.15125 l 0.08938,0.03437 c 0.20625,0.0825 0.254375,0.09625 0.254375,0.543125 l 0,1.1275 c 0,0.213125 -0.04812,0.31625 -0.1375,0.39875 -0.15125,0.130625 -0.37125,0.20625 -0.556875,0.20625 -0.5225,0 -0.639375,-0.31625 -0.639375,-0.790625 l 0,-1.148125 z"/>
    <use x="32.253521" y="35.357031" xlink:href="#path76"/>
    <use x="34.84604" y="36.958906" xlink:href="#path66"/>
    <use x="35.613569" y="38.608906" xlink:href="#path80"/>
    <use x="37.99103" y="36.573906" xlink:href="#path62"/>
    <use x="40.942231" y="36.958906" xlink:href="#path66"/>
    <use x="43.428511" y="38.608906" xlink:href="#path80"/>
    <use x="45.200972" y="38.608906" xlink:href="#path88"/>
    <path id="path90" style="" d="m 50.153657,36.958906 c 0.07562,-0.0275 0.12375,-0.22 0.04812,-0.28875 l -0.78375,0 c -0.116875,0 -0.116875,-0.0069 -0.116875,-0.1925 l 0,-0.199375 c 0,-0.34375 0.0275,-0.845625 0.15125,-1.161875 0.103125,-0.2475 0.275,-0.378125 0.488125,-0.378125 0.226875,0 0.419375,0.15125 0.55,0.3025 0.04812,0.055 0.08937,0.0825 0.165,0.0825 0.130625,0 0.26125,-0.11 0.26125,-0.2475 0,-0.2475 -0.309375,-0.4125 -0.67375,-0.4125 -0.680625,0 -1.065625,0.48125 -1.2375,0.873125 -0.165,0.385 -0.213125,0.81125 -0.213125,1.21 0,0.06875 -0.04812,0.11 -0.103125,0.1375 l -0.295625,0.144375 c -0.0275,0.04125 -0.02062,0.103125 0.02063,0.130625 l 0.240625,0 c 0.1375,0 0.1375,0.01375 0.1375,0.199375 l 0,1.450625 c 0,0.495 -0.0069,0.56375 -0.26125,0.598125 l -0.158125,0.02063 c -0.04812,0.03437 -0.03438,0.15125 0.01375,0.171875 0.20625,-0.01375 0.4125,-0.02063 0.66,-0.02063 0.240625,0 0.44,0.0069 0.749375,0.02063 0.04812,-0.02063 0.06188,-0.1375 0.01375,-0.171875 l -0.2475,-0.02063 c -0.2475,-0.02063 -0.26125,-0.103125 -0.26125,-0.598125 l 0,-1.450625 c 0,-0.185625 0,-0.199375 0.116875,-0.199375 l 0.735625,0 z"/>
    <use x="51.831587" y="36.573906" xlink:href="#path92"/>
    <use x="56.302593" y="35.357031" xlink:href="#path76"/>
    <use x="57.554487" y="38.608906" xlink:href="#path80"/>
    <use x="59.931948" y="36.573906" xlink:href="#path62"/>
    <use x="62.883149" y="36.958906" xlink:href="#path66"/>
    <use x="65.142554" y="37.618906" xlink:href="#path64"/>
    <path id="path104" style="" d="m 68.617759,35.357031 c 0,-0.3025 0.01375,-0.64625 0.02062,-0.8525 -0.01375,-0.0275 -0.04125,-0.04125 -0.06875,-0.04125 -0.2475,0.130625 -0.570625,0.23375 -0.7425,0.28875 -0.03437,0.02062 -0.03437,0.116875 0,0.1375 l 0.06875,0.04125 c 0.20625,0.12375 0.213125,0.165 0.213125,0.570625 l 0,1.038125 c 0,0.055 -0.0069,0.09625 -0.04125,0.09625 -0.07563,-0.0275 -0.226875,-0.06188 -0.460625,-0.06188 -0.935,0 -1.66375,0.61875 -1.66375,1.58125 0,0.721875 0.50875,1.32 1.271875,1.32 0.33,0 0.56375,-0.11 0.86625,-0.31625 l 0.0275,0 c 0.01375,0.0275 0.01375,0.11 0.01375,0.213125 l 0,0.116875 c 0,0.03437 0.03437,0.055 0.07563,0.055 0.1925,-0.07563 0.61875,-0.17875 0.9075,-0.22 0.06188,-0.03438 0.055,-0.20625 0.0069,-0.22 -0.103125,0.03437 -0.22,0.06875 -0.295625,0.06875 -0.1925,0 -0.199375,-0.254375 -0.199375,-0.7975 l 0,-3.018125 z m -0.50875,3.34125 c 0,0.11 -0.0069,0.213125 -0.04812,0.254375 -0.11,0.11 -0.34375,0.1925 -0.529375,0.1925 -0.67375,0 -1.024375,-0.59125 -1.024375,-1.216875 0,-0.598125 0.323125,-1.14125 0.94875,-1.14125 0.268125,0 0.474375,0.144375 0.5775,0.28875 0.04812,0.06875 0.07563,0.130625 0.07563,0.268125 l 0,1.354375 z"/>
    <use x="72.631147" y="36.573906" xlink:href="#path92"/>
    <use x="74.943403" y="38.608906" xlink:href="#path88"/>
    <use x="10.99167" y="43.146406" xlink:href="#path66"/>
    <use x="11.690449" y="44.796406" xlink:href="#path68"/>
    <use x="16.795996" y="43.806406" xlink:href="#path64"/>
    <path id="path116" style="" d="m 22.175576,44.906406 c 0.055,0.165 0.08938,0.28875 0.08938,0.364375 0,0.06875 -0.09625,0.11 -0.240625,0.12375 l -0.199375,0.02063 c -0.04812,0.03437 -0.04125,0.144375 0.01375,0.171875 0.199375,-0.0069 0.460625,-0.02063 0.790625,-0.02063 0.309375,0 0.55,0.0069 0.831875,0.02063 0.03438,-0.0275 0.04813,-0.1375 0,-0.171875 l -0.185625,-0.02063 c -0.295625,-0.03437 -0.385,-0.1375 -0.584375,-0.72875 l -0.941875,-2.76375 c -0.103125,-0.3025 -0.213125,-0.61875 -0.3025,-0.92125 -0.01375,-0.04812 -0.06188,-0.06188 -0.103125,-0.06188 -0.07562,0.08937 -0.1925,0.213125 -0.3575,0.26125 0.02062,0.11 -0.02063,0.240625 -0.116875,0.488125 l -0.70125,1.85625 c -0.28875,0.77 -0.48125,1.216875 -0.605,1.533125 -0.09625,0.2475 -0.2475,0.323125 -0.4125,0.336875 l -0.226875,0.02063 c -0.04125,0.03437 -0.0275,0.144375 0.01375,0.171875 0.185625,-0.0069 0.433125,-0.02063 0.66,-0.02063 0.323125,0.0069 0.53625,0.0069 0.715,0.02063 0.06188,-0.0275 0.06188,-0.1375 0.01375,-0.171875 l -0.226875,-0.02063 c -0.165,-0.01375 -0.199375,-0.055 -0.199375,-0.1375 0,-0.07562 0.04812,-0.26125 0.15125,-0.570625 l 0.240625,-0.721875 c 0.04812,-0.144375 0.08938,-0.165 0.26125,-0.165 l 1.038125,0 c 0.20625,0 0.23375,0.02062 0.281875,0.171875 l 0.3025,0.935 z m -1.230625,-2.743125 c 0.07562,-0.20625 0.144375,-0.37125 0.165,-0.405625 l 0.01375,0 c 0.04125,0.0825 0.103125,0.268125 0.158125,0.433125 l 0.37125,1.120625 c 0.06188,0.185625 0.04813,0.213125 -0.15125,0.213125 l -0.845625,0 c -0.1925,0 -0.199375,-0.0069 -0.144375,-0.165 l 0.433125,-1.19625 z"/>
    <use x="24.032148" y="44.796406" xlink:href="#path88"/>
    <path id="path120" style="" d="m 28.881709,42.761406 c -1.14125,0 -1.66375,0.790625 -1.66375,1.533125 0,0.446875 0.158125,0.78375 0.39875,1.0175 0.240625,0.23375 0.5775,0.350625 0.941875,0.350625 0.39875,0 0.914375,-0.1925 1.148125,-0.70125 -0.0069,-0.06187 -0.06875,-0.11 -0.12375,-0.09625 -0.158125,0.23375 -0.364375,0.4125 -0.763125,0.4125 -0.735625,0 -1.106875,-0.639375 -1.106875,-1.175625 0,-0.72875 0.4675,-1.106875 0.94875,-1.106875 0.281875,0 0.53625,0.17875 0.6875,0.364375 0.0275,0.03438 0.06188,0.04813 0.09625,0.04813 0.0825,0 0.15125,-0.130625 0.15125,-0.254375 0,-0.116875 -0.04812,-0.226875 -0.103125,-0.275 -0.185625,-0.0825 -0.45375,-0.116875 -0.611875,-0.116875 z"/>
    <use x="30.396895" y="44.796406" xlink:href="#path80"/>
    <use x="33.66123" y="43.806406" xlink:href="#path64"/>
    <use x="34.895186" y="44.796406" xlink:href="#path88"/>
    <use x="39.847871" y="43.146406" xlink:href="#path66"/>
    <path id="path130" style="" d="m 44.42415,45.676406 c 1.326875,0 2.385625,-1.010625 2.385625,-2.399375 0,-1.21 -0.7975,-2.358125 -2.385625,-2.358125 -1.41625,0 -2.4475,1.051875 -2.4475,2.426875 0,1.2375 0.92125,2.330625 2.4475,2.330625 z m 0.08938,-0.213125 c -1.354375,0 -1.849375,-1.32 -1.849375,-2.3375 0,-1.505625 0.928125,-1.99375 1.643125,-1.99375 1.313125,0 1.815,1.22375 1.815,2.358125 0,1.354375 -0.78375,1.973125 -1.60875,1.973125 z"/>
    <use x="47.758955" y="44.796406" xlink:href="#path88"/>
    <use x="52.862891" y="43.806406" xlink:href="#path64"/>
    <use x="56.420596" y="42.761406" xlink:href="#path62"/>
    <use x="57.962422" y="44.796406" xlink:href="#path68"/>
    <use x="63.067969" y="43.806406" xlink:href="#path64"/>
    <use x="65.793799" y="43.806406" xlink:href="#path64"/>
    <use x="68.368379" y="43.146406" xlink:href="#path66"/>
    <path id="path146" style="" d="m 69.321533,45.662656 c 0.23375,0 0.385,-0.158125 0.385,-0.378125 0,-0.22 -0.15125,-0.405625 -0.385,-0.405625 -0.22,0 -0.385,0.171875 -0.385,0.405625 0,0.23375 0.185625,0.378125 0.385,0.378125 z"/>
  </g>
<defs><path id="path35" d="m 0,0 q -0.23625,-0.1237495 -0.52875,-0.2024995 -0.2925,-0.09 -0.495,-0.09 -0.0225,-0.14625 0.01125,-0.2925 0.045,-0.1575 0.12375,-0.2925 0.09,-0.14625 0.2025,-0.2475 0.1125,-0.1125 0.2475,-0.16875 0.09,0.19125 0.28125,0.405 0.19125,0.2025 0.45,0.36 -0.01125,-0.25875 -0.09,-0.54 -0.07875,-0.28125 -0.19125,-0.46125 0.1125,-0.09 0.27,-0.135 0.1575,-0.045 0.315,-0.03375 0.1575,0 0.315,0.045 0.1575,0.045 0.27,0.135 -0.135,0.16875 -0.21375,0.43875 -0.07875,0.25875 -0.07875,0.5625 0.225,-0.135 0.4275,-0.3375 0.2025,-0.21375 0.30375,-0.39375 0.135,0.045 0.2475,0.1575 0.1125,0.1125 0.19125,0.25875 0.07875,0.135 0.1125,0.2925 0.03375,0.1575 0.0225,0.30375 -0.21375,-0.03375 -0.48375,0.03375 -0.27,0.05625 -0.52875,0.2137495 0.25875,0.12375 0.52875,0.19125 0.27,0.05625 0.48375,0.0225 0.01125,0.14625 -0.0225,0.30375 -0.03375,0.1575 -0.1125,0.30375 -0.07875,0.14625 -0.19125,0.25875 -0.1125,0.1125 -0.2475,0.1575 -0.10125,-0.19125 -0.30375,-0.39375 -0.2025,-0.21375 -0.4275,-0.34875 0,0.30375 0.07875,0.57375 0.07875,0.27 0.21375,0.4275 -0.1125,0.09 -0.27,0.14625 -0.1575,0.045 -0.315,0.045 -0.1575,0 -0.315,-0.03375 -0.1575,-0.045 -0.27,-0.14625 0.1125,-0.18 0.19125,-0.46125 0.07875,-0.28125 0.09,-0.54 -0.25875,0.1575 -0.45,0.37125 -0.19125,0.2025 -0.28125,0.405 -0.135,-0.05625 -0.2475,-0.16875 -0.1125,-0.1125 -0.2025,-0.2475 -0.07875,-0.14625 -0.12375,-0.2925 -0.03375,-0.1575 -0.01125,-0.30375 0.2025,0 0.495,-0.07875 0.2925,-0.07875 0.52875,-0.2025 z"/><path id="path53" d="m 0,0 q -0.3675,-0.1925 -0.8225,-0.315 -0.455,-0.14 -0.77,-0.14 -0.035,-0.2275004 0.0175,-0.4550004 0.07,-0.245 0.1925,-0.455 0.14,-0.2275 0.315,-0.385 0.175,-0.175 0.385,-0.2625 0.14,0.2975 0.4375,0.63 0.2975,0.315 0.7,0.56 -0.0175,-0.4025 -0.14,-0.84 -0.1225,-0.4375 -0.2975,-0.7175 0.175,-0.14 0.42,-0.21 0.245,-0.07 0.49,-0.0525 0.245,0 0.49,0.07 0.245,0.07 0.42,0.21 -0.21,0.2625 -0.3325,0.6825 -0.1225,0.4025 -0.1225,0.875 0.35,-0.21 0.665,-0.525 0.315,-0.3325 0.4725,-0.6125 0.21,0.07 0.385,0.245 0.175,0.175 0.2975,0.4025 0.1225,0.21 0.175,0.455 0.0525,0.245 0.035,0.4725004 -0.3325,-0.0525 -0.7525,0.0525 -0.42,0.0875 -0.8225,0.3325 0.4025,0.1925 0.8225,0.2975 0.42,0.0875 0.7525,0.035 0.0175,0.2275 -0.035,0.4725 -0.0525,0.245 -0.175,0.4725 -0.1225,0.2275 -0.2975,0.4025 -0.175,0.175 -0.385,0.245 -0.1575,-0.2975 -0.4725,-0.6125 -0.315,-0.3325 -0.665,-0.5425 0,0.4725 0.1225,0.8925 0.1225,0.42 0.3325,0.665 -0.175,0.14 -0.42,0.2275 -0.245,0.07 -0.49,0.07 -0.245,0 -0.49,-0.0525 -0.245,-0.07 -0.42,-0.2275 0.175,-0.28 0.2975,-0.7175 0.1225,-0.4375 0.14,-0.84 -0.4025,0.245 -0.7,0.5775 -0.2975,0.315 -0.4375,0.63 -0.21,-0.0875 -0.385,-0.2625 -0.175,-0.175 -0.315,-0.385 -0.1225,-0.2275 -0.1925,-0.455 -0.0525,-0.245 -0.0175,-0.4725 0.315,0 0.77,-0.1225 0.455,-0.1225 0.8225,-0.315 z"/><path id="path62" d="m 0,0 c -0.5225,0 -0.935,0.281875 -0.935,0.78375 0,0.378125 0.281875,0.61875 0.680625,0.845625 0.254375,0.144375 0.529375,0.31625 0.529375,0.6325 0,0.295625 -0.213125,0.44 -0.460625,0.44 -0.391875,0 -0.611875,-0.33 -0.72875,-0.708125 -0.034375,-0.04125 -0.12375,-0.03437 -0.158125,0.0069 -0.01375,0.226875 0.0275,0.56375 0.0825,0.694375 0.171875,0.1375 0.4125,0.20625 0.735625,0.20625 0.50875,0 0.99,-0.26125 0.99,-0.78375 0,-0.488125 -0.336875,-0.721875 -0.70125,-0.928125 -0.240625,-0.1375 -0.529375,-0.28875 -0.529375,-0.570625 0,-0.2475 0.171875,-0.419375 0.44,-0.419375 0.281875,0 0.488125,0.199375 0.605,0.501875 0.034375,0.04125 0.1375,0.0275 0.165,-0.02063 0,-0.185625 -0.048125,-0.405625 -0.11,-0.556875 -0.061875,-0.055 -0.31625,-0.12375 -0.605,-0.12375 z"/><path id="path64" d="m 0,0 c 0.28875,0 0.385,-0.0069 0.405625,-0.04813 0.01375,-0.0275 0.0275,-0.0825 0.0275,-0.17875 0,-0.4125 -0.385,-0.818125 -0.97625,-0.818125 -0.8250001,0 -1.3818751,0.708125 -1.3818751,1.55375 0,0.3025 0.0825,0.625625 0.28875,0.89375 0.199375,0.26125 0.55,0.45375 0.996875,0.45375 0.3575001,0 0.8525001,-0.171875 1.0793751,-0.639375 -0.0069,-0.06188 -0.055,-0.103125 -0.12375,-0.0825 -0.213125,0.268125 -0.405625,0.336875 -0.6325,0.336875 -0.7356251,0 -1.1412501,-0.59125 -1.1412501,-1.285625 0,-0.171875 0.00687,-0.185625 0.185625,-0.185625 l 1.2718751,0 z m -1.3337501,-0.20625 c -0.048125,0 -0.048125,-0.02062 -0.048125,-0.03437 0.00687,-0.226875 0.3575,-0.598125 0.763125,-0.598125 0.3987501,0 0.5293751,0.240625 0.5293751,0.433125 0,0.08937 -0.02063,0.116875 -0.04125,0.130625 -0.055,0.04125 -0.20625,0.06875 -0.7150001,0.06875 l -0.488125,0 z"/><path id="path66" d="m 0,0 c 0.06188,-0.04125 0.07563,-0.226875 -0.0069,-0.28875 l -0.763125,0 c -0.116875,0 -0.12375,-0.0069 -0.12375,-0.130625 l 0,-0.309375 c -0.0275,-0.04812 -0.11,-0.04812 -0.144375,-0.03438 -0.06875,0.1375 -0.199375,0.323125 -0.28875,0.405625 -0.06875,0.06188 -0.240625,0.15125 -0.44,0.213125 -0.0275,0.04125 -0.02062,0.116875 0.02063,0.144375 l 0.1925,0 c 0.1375,0 0.144375,0.01375 0.144375,0.199375 l 0,1.574375 c 0,0.4125 0.12375,0.7425 0.715,0.7425 0.350625,0 0.598125,-0.171875 0.721875,-0.31625 0.01375,-0.04125 -0.01375,-0.116875 -0.06875,-0.116875 -0.02063,0 -0.11,0.07562 -0.171875,0.09625 -0.055,0.02063 -0.116875,0.03438 -0.185625,0.03438 -0.45375,0 -0.501875,-0.364375 -0.501875,-0.763125 l 0,-1.285625 c 0,-0.144375 0.0069,-0.165 0.12375,-0.165 l 0.776875,0 z"/><path id="path68" d="m 0,0 c 0,0.495 -0.0069,0.570625 -0.26125,0.598125 l -0.171875,0.02063 c -0.04813,0.03437 -0.03438,0.15125 0.01375,0.171875 0.22,-0.01375 0.42625,-0.02063 0.67375,-0.02063 0.240625,0 0.44,0.0069 0.64625,0.02063 0.04812,-0.02063 0.06188,-0.144375 0.01375,-0.171875 l -0.144375,-0.02063 c -0.2475,-0.03437 -0.26125,-0.103125 -0.26125,-0.598125 l 0,-1.155 c 0,-0.240625 0.02062,-0.275 0.144375,-0.378125 0.12375,-0.103125 0.3025,-0.185625 0.53625,-0.185625 0.44,0 0.653125,0.295625 0.653125,0.735625 l 0,0.983125 c 0,0.495 -0.0069,0.556875 -0.26125,0.598125 l -0.1375,0.02063 c -0.04812,0.03437 -0.03438,0.15125 0.01375,0.171875 0.185625,-0.01375 0.391875,-0.02063 0.639375,-0.02063 0.240625,0 0.44,0.0069 0.6875,0.02063 0.04813,-0.02063 0.06188,-0.1375 0.01375,-0.171875 l -0.185625,-0.02063 c -0.2475,-0.0275 -0.26125,-0.103125 -0.26125,-0.598125 l 0,-1.148125 c 0,-0.48125 -0.23375,-0.886875 -0.886875,-0.886875 -0.350625,0 -0.680625,0.165 -0.928125,0.3575 -0.02063,-0.01375 -0.0275,-0.06875 -0.0275,-0.130625 l 0,-1.44375 c 0,-0.3025 0.01375,-0.64625 0.02062,-0.8525 -0.01375,-0.0275 -0.04125,-0.04125 -0.06875,-0.04125 -0.2475,0.130625 -0.570625,0.23375 -0.7425,0.28875 -0.03437,0.02062 -0.03437,0.116875 0,0.1375 l 0.06875,0.04125 c 0.20625,0.12375 0.213125,0.165 0.213125,0.570625 l 0,3.1075 z"/><path id="path76" d="m 0,0 c 0,-0.3025 0.01375,-0.64625 0.02063,-0.8525 -0.01375,-0.0275 -0.04125,-0.04125 -0.06875,-0.04125 -0.2475,0.130625 -0.570625,0.23375 -0.7425,0.28875 -0.03438,0.02062 -0.03438,0.116875 0,0.1375 l 0.06875,0.04125 c 0.20625,0.12375 0.213125,0.165 0.213125,0.570625 l 0,3.1075 c 0,0.495 -0.0069,0.56375 -0.26125,0.598125 l -0.158125,0.02063 c -0.04813,0.03437 -0.03438,0.15125 0.01375,0.171875 0.20625,-0.01375 0.4125,-0.02063 0.66,-0.02063 0.240625,0 0.44,0.0069 0.666875,0.02063 0.04812,-0.02063 0.06188,-0.1375 0.01375,-0.171875 l -0.165,-0.02063 c -0.2475,-0.03437 -0.26125,-0.103125 -0.26125,-0.598125 l 0,-3.251875 z"/><path id="path80" d="m 0,0 c 0,0.495 -0.0069,0.56375 -0.26125,0.598125 l -0.144375,0.02063 c -0.04812,0.03437 -0.03437,0.15125 0.01375,0.171875 0.1925,-0.01375 0.39875,-0.02063 0.64625,-0.02063 0.240625,0 0.44,0.0069 0.64625,0.02063 0.04812,-0.02063 0.06187,-0.1375 0.01375,-0.171875 l -0.144375,-0.02063 c -0.2475,-0.03437 -0.26125,-0.103125 -0.26125,-0.598125 l 0,-1.2375 c 0,-0.281875 0.01375,-0.611875 0.0275,-0.8525 -0.0069,-0.0275 -0.03438,-0.04125 -0.06875,-0.04125 -0.158125,0.103125 -0.55,0.281875 -0.708125,0.336875 -0.03437,0.02062 -0.03437,0.09625 -0.0069,0.12375 l 0.06187,0.04125 c 0.185625,0.12375 0.185625,0.158125 0.185625,0.42625 l 0,1.203125 z m 0.226875,-3.52 c -0.20625,0 -0.37125,0.144375 -0.37125,0.37125 0,0.185625 0.1375,0.34375 0.350625,0.34375 0.1925,0 0.364375,-0.11 0.364375,-0.3575 0,-0.1925 -0.1375,-0.3575 -0.34375,-0.3575 z"/><path id="path88" d="m 0,0 c 0,0.495 -0.0069,0.56375 -0.26125,0.598125 l -0.144375,0.02063 c -0.04812,0.03437 -0.03437,0.15125 0.01375,0.171875 0.1925,-0.01375 0.39875,-0.02063 0.64625,-0.02063 0.240625,0 0.44,0.0069 0.625625,0.02063 0.04812,-0.02063 0.06188,-0.1375 0.01375,-0.171875 l -0.12375,-0.02063 c -0.2475,-0.04125 -0.26125,-0.103125 -0.26125,-0.598125 l 0,-1.051875 c 0,-0.199375 0.01375,-0.295625 0.103125,-0.4125 0.09625,-0.130625 0.323125,-0.240625 0.584375,-0.240625 0.4675,0 0.64625,0.28875 0.64625,0.680625 l 0,1.024375 c 0,0.495 -0.0069,0.556875 -0.26125,0.598125 l -0.130625,0.02063 c -0.04813,0.03437 -0.03438,0.15125 0.01375,0.171875 0.185625,-0.01375 0.391875,-0.02063 0.639375,-0.02063 0.240625,0 0.44,0.0069 0.64625,0.02063 0.04812,-0.02063 0.06188,-0.1375 0.01375,-0.171875 l -0.15125,-0.02063 c -0.2475,-0.03437 -0.26125,-0.103125 -0.26125,-0.598125 l 0,-1.1825 c 0,-0.460625 -0.23375,-0.8525 -0.804375,-0.8525 -0.350625,0 -0.67375,0.171875 -0.9625,0.350625 -0.04812,0 -0.07563,-0.03438 -0.07563,-0.07563 0,-0.06188 0,-0.165 0.01375,-0.323125 -0.01375,-0.03438 -0.04812,-0.04812 -0.07563,-0.04812 -0.1375,0.103125 -0.529375,0.281875 -0.6875,0.336875 -0.03437,0.02062 -0.03437,0.09625 -0.0069,0.12375 l 0.06188,0.04125 c 0.185625,0.12375 0.185625,0.158125 0.185625,0.42625 l 0,1.203125 z"/><path id="path92" d="m 0,0 c -0.81125,0 -1.464375,0.61875 -1.464375,1.485 0,0.859375 0.61875,1.41625 1.409375,1.41625 0.859375,0 1.450625,-0.61875 1.450625,-1.478125 0,-0.845625 -0.625625,-1.423125 -1.395625,-1.423125 z m 0.804375,1.533125 c 0,0.529375 -0.185625,1.161875 -0.790625,1.161875 -0.605,0 -0.886875,-0.67375 -0.886875,-1.299375 0,-0.75625 0.336875,-1.189375 0.790625,-1.189375 0.653125,0 0.886875,0.7425 0.886875,1.326875 z"/></defs></svg>
